<svg width="256" height="256" viewBox="0 0 256 256" fill="none" xmlns="http://www.w3.org/2000/svg">
<path d="M79.146 102H69.646C61.086 102 54.146 95.06 54.146 86.5V82.5C54.146 73.94 61.086 67 69.646 67H79.146V102Z" fill="#6377E7"/>
<path d="M130.062 102H139.562C148.122 102 155.062 95.06 155.062 86.5V82.5C155.062 73.94 148.122 67 139.562 67H130.062V102Z" fill="#63BCE7"/>
<path d="M104.604 135.949H149.528C155.971 135.949 161.195 141.172 161.195 147.616V230.343H104.605V135.949H104.604Z" fill="#CECECE"/>
<path d="M53.975 135.949C53.685 135.949 53.402 135.977 53.123 136.017C47.945 136.463 43.14 139.578 40.792 144.629L12.335 209.019C10.175 213.665 10.536 219.091 13.291 223.41C16.046 227.729 20.814 230.343 25.937 230.343H48.013H65.847H104.604V135.949H53.975Z" fill="#CECECE"/>
<path d="M27.958 223.41C25.203 219.091 24.842 213.665 27.002 209.019L55.459 144.629C57.808 139.578 62.612 136.462 67.79 136.017C68.069 135.977 68.352 135.949 68.642 135.949H53.975C53.685 135.949 53.402 135.977 53.123 136.017C47.945 136.463 43.14 139.578 40.792 144.629L12.335 209.019C10.175 213.665 10.536 219.091 13.291 223.41C16.046 227.729 20.814 230.343 25.937 230.343H40.604C35.482 230.343 30.713 227.729 27.958 223.41Z" fill="#AFAFAF"/>
<path d="M104.604 150.991C96.74 150.991 90.365 144.616 90.365 136.752V111.731C90.365 103.867 96.74 97.4922 104.604 97.4922C112.468 97.4922 118.843 103.867 118.843 111.731V136.752C118.843 144.616 112.468 150.991 104.604 150.991Z" fill="#F8AF23"/>
<path d="M90.365 111.731V136.752C90.365 142.616 93.912 147.649 98.976 149.831V98.6523C93.912 100.834 90.365 105.866 90.365 111.731Z" fill="#F87023"/>
<path d="M104.604 124.239C83.641 124.239 66.646 107.245 66.646 86.2811V72.2861C66.646 51.3231 83.64 34.3281 104.604 34.3281C125.567 34.3281 142.562 51.3221 142.562 72.2861V86.2811C142.562 107.245 125.567 124.239 104.604 124.239Z" fill="#F8AF23"/>
<path d="M81.313 86.2821V72.2861C81.313 53.8321 94.484 38.4601 111.937 35.0431C109.564 34.5781 107.113 34.3281 104.604 34.3281C83.641 34.3281 66.646 51.3221 66.646 72.2861V86.2811C66.646 107.244 83.64 124.239 104.604 124.239C107.114 124.239 109.564 123.989 111.937 123.524C94.484 120.107 81.313 104.736 81.313 86.2821Z" fill="#F87023"/>
<path d="M102.139 68.9003C96.033 67.4953 85.238 63.8943 85.238 63.8943C83.574 63.4223 81.818 64.2593 81.136 65.8493L79.877 68.7863C77.703 73.8593 73.925 78.0803 69.122 80.8013L66.646 82.2023L60.639 59.0623C58.235 49.7103 60.238 39.7713 66.077 32.0803L69.81 27.1633C73.228 22.6613 78.192 19.5843 83.744 18.5273C83.744 18.5273 96.359 15.7133 102.711 14.7923C103.786 14.6363 105.536 14.6523 106.61 14.8143C112.286 15.6703 122.931 18.0443 122.931 18.0443C130.114 19.4123 136.536 23.3923 140.957 29.2163L143.131 32.0803C148.97 39.7713 150.972 49.7093 148.569 59.0623L142.562 82.2023L140.086 80.8013C135.283 78.0803 131.506 73.8603 129.331 68.7863L128.072 65.8493C127.391 64.2593 125.635 63.4223 123.97 63.8943C123.97 63.8943 113.175 67.4953 107.069 68.9003C105.712 69.2133 103.495 69.2133 102.139 68.9003Z" fill="#707070"/>
<path d="M80.744 32.0793L84.477 27.1623C87.895 22.6603 92.859 19.5833 98.411 18.5263C98.411 18.5263 105.606 16.9213 111.865 15.7393C109.959 15.3723 108.111 15.0403 106.61 14.8143C105.536 14.6523 103.786 14.6363 102.711 14.7923C96.358 15.7133 83.744 18.5273 83.744 18.5273C78.192 19.5853 73.227 22.6613 69.81 27.1633L66.077 32.0803C60.238 39.7713 58.235 49.7093 60.639 59.0623L66.646 82.2023L69.122 80.8013C73.053 78.5743 76.281 75.3303 78.521 71.4483L75.306 59.0623C72.902 49.7093 74.905 39.7713 80.744 32.0793Z" fill="#5B5B5B"/>
<path d="M89.511 93.8031C91.5407 93.8031 93.186 92.1578 93.186 90.1281C93.186 88.0985 91.5407 86.4531 89.511 86.4531C87.4814 86.4531 85.836 88.0985 85.836 90.1281C85.836 92.1578 87.4814 93.8031 89.511 93.8031Z" fill="#3F3679"/>
<path d="M119.697 93.8031C121.727 93.8031 123.372 92.1578 123.372 90.1281C123.372 88.0985 121.727 86.4531 119.697 86.4531C117.667 86.4531 116.022 88.0985 116.022 90.1281C116.022 92.1578 117.667 93.8031 119.697 93.8031Z" fill="#3F3679"/>
<path d="M65.847 230.344C74.131 230.344 80.847 223.628 80.847 215.344C80.847 207.06 74.131 200.344 65.847 200.344H65.503V230.344H65.847Z" fill="#F8AF23"/>
<path d="M90.364 128.449L78.229 135.949L86.229 152.324L80.104 157.277L104.604 197.832L90.364 128.449Z" fill="#707070"/>
<path d="M118.843 128.449L130.979 135.949L122.979 152.324L129.104 157.277L104.604 197.832L118.843 128.449Z" fill="#707070"/>
<path d="M182.442 147.508H153.132V216.32C153.132 224.064 159.409 230.341 167.153 230.341H168.421C176.165 230.341 182.442 224.064 182.442 216.32V147.508Z" fill="#CECECE"/>
<path d="M167.787 147.508V216.32C167.787 221.64 164.824 226.267 160.459 228.643C162.448 229.726 164.728 230.341 167.152 230.341H168.42C176.164 230.341 182.441 224.064 182.441 216.32V147.508H167.787Z" fill="#E2E2E2"/>
<path d="M156.835 147.508V140.627C156.835 132.545 163.386 125.994 171.468 125.994H185.927L202.047 123.063C204.803 122.562 207.227 124.937 206.781 127.703L206.712 128.134C205.704 134.381 201.524 139.655 195.673 142.063L182.444 147.507L156.835 147.508Z" fill="#F8AF23"/>
<path d="M202.046 123.067L191.582 124.969C192.055 125.751 192.276 126.702 192.113 127.707L192.044 128.138C191.037 134.385 186.856 139.659 181.005 142.067L167.776 147.511H182.443L195.672 142.067C201.523 139.659 205.703 134.384 206.711 128.138L206.781 127.707C207.226 124.941 204.803 122.566 202.046 123.067Z" fill="#F8D323"/>
<path d="M91.416 112.11C93.2673 112.11 94.768 110.61 94.768 108.758C94.768 106.907 93.2673 105.406 91.416 105.406C89.5647 105.406 88.064 106.907 88.064 108.758C88.064 110.61 89.5647 112.11 91.416 112.11Z" fill="#63BCE7"/>
<path d="M203.129 112.11C226.289 112.11 245.063 93.3357 245.063 70.1762C245.063 47.0167 226.289 28.2422 203.129 28.2422C179.969 28.2422 161.195 47.0167 161.195 70.1762C161.195 93.3357 179.969 112.11 203.129 112.11Z" fill="#63BCE7"/>
<path d="M203.128 28.2422C200.625 28.2422 198.177 28.4742 195.795 28.8942C215.456 32.3642 230.396 49.5192 230.396 70.1762C230.396 90.8332 215.456 107.988 195.795 111.458C198.178 111.878 200.625 112.11 203.128 112.11C226.288 112.11 245.062 93.3352 245.062 70.1762C245.063 47.0172 226.288 28.2422 203.128 28.2422Z" fill="#63E2E7"/>
<path d="M193.021 65.0275C193.021 62.9505 192.121 61.9105 190.323 61.9105C189.309 61.9105 188.568 62.2665 188.1 62.9745C187.699 63.5805 187.451 64.4745 187.356 65.6555C187.328 66.0035 187.049 66.2795 186.699 66.2795H181.685C181.302 66.2795 180.989 65.9485 181.022 65.5665C181.277 62.6525 182.249 60.4335 183.938 58.9075C185.761 57.2605 188.066 56.4375 190.854 56.4375C193.767 56.4375 195.964 57.1725 197.446 58.6415C198.928 60.1115 199.669 62.0245 199.669 64.3795C199.669 66.9895 198.668 69.5415 196.667 72.0365C195.105 73.9845 193.303 75.6975 191.262 77.1735C190.743 77.5485 191.002 78.3625 191.642 78.3625H199.427C199.791 78.3625 200.087 78.6575 200.087 79.0225V82.9475C200.087 83.3115 199.792 83.6075 199.427 83.6075H181.596C181.232 83.6075 180.936 83.3125 180.936 82.9475V79.0805C180.936 78.8695 181.043 78.6685 181.214 78.5445C189.086 72.8895 193.021 68.3835 193.021 65.0275Z" fill="#3F3679"/>
<path d="M202.824 78.3111V73.7521C202.824 73.6121 202.868 73.4761 202.951 73.3631L214.901 56.9741C215.025 56.8041 215.223 56.7031 215.434 56.7031H221.43C221.794 56.7031 222.09 56.9981 222.09 57.3631V72.6491C222.09 73.0131 222.385 73.3091 222.75 73.3091H224.661C225.025 73.3091 225.321 73.6041 225.321 73.9691V78.3111C225.321 78.6751 225.026 78.9711 224.661 78.9711H222.75C222.386 78.9711 222.09 79.2661 222.09 79.6311V83.2511C222.09 83.6151 221.795 83.9111 221.43 83.9111H216.176C215.812 83.9111 215.516 83.6161 215.516 83.2511V79.6311C215.516 79.2671 215.221 78.9711 214.856 78.9711H203.483C203.12 78.9711 202.824 78.6761 202.824 78.3111ZM214.855 65.8671L210.199 72.2621C209.882 72.6981 210.193 73.3101 210.732 73.3101H215.388C215.752 73.3101 216.048 73.0151 216.048 72.6501V66.2551C216.048 65.6161 215.231 65.3501 214.855 65.8671Z" fill="#3F3679"/>
<path d="M236.312 163.141H130.979V230.343H236.312V163.141Z" fill="#707070"/>
<path d="M236.312 163.141H221.645V230.343H236.312V163.141Z" fill="#9E9E9E"/>
<path d="M183.646 204.742C188.064 204.742 191.646 201.16 191.646 196.742C191.646 192.324 188.064 188.742 183.646 188.742C179.228 188.742 175.646 192.324 175.646 196.742C175.646 201.16 179.228 204.742 183.646 204.742Z" fill="#CECECE"/>
<path d="M27.323 239.816H9.32001C8.49201 239.816 7.82001 240.488 7.82001 241.316C7.82001 242.144 8.49201 242.816 9.32001 242.816H27.323C28.151 242.816 28.823 242.144 28.823 241.316C28.823 240.488 28.151 239.816 27.323 239.816Z" fill="#3F3679"/>
<path d="M246.68 239.816H228.677C227.849 239.816 227.177 240.488 227.177 241.316C227.177 242.144 227.849 242.816 228.677 242.816H246.68C247.508 242.816 248.18 242.144 248.18 241.316C248.18 240.488 247.508 239.816 246.68 239.816Z" fill="#3F3679"/>
<path d="M218.479 239.816H37.521C36.693 239.816 36.021 240.488 36.021 241.316C36.021 242.144 36.693 242.816 37.521 242.816H218.48C219.308 242.816 219.98 242.144 219.98 241.316C219.98 240.488 219.308 239.816 218.479 239.816Z" fill="#3F3679"/>
<path d="M9.32001 231.844H25.937H65.503H65.846H104.603H130.978H236.312H246.679C247.507 231.844 248.179 231.172 248.179 230.344C248.179 229.516 247.507 228.844 246.679 228.844H237.812V163.142C237.812 162.314 237.14 161.642 236.312 161.642H183.942V148.516L196.243 143.454C202.531 140.866 207.109 135.089 208.19 128.38L208.26 127.945C208.547 126.166 207.949 124.351 206.662 123.09C205.377 121.829 203.553 121.266 201.776 121.591L185.791 124.497H171.467C164.129 124.497 157.931 129.427 155.981 136.146C154.021 135.038 151.824 134.451 149.526 134.451H131.404L120.342 127.614V122.457C128.974 118.686 136.008 111.92 140.113 103.473C149.23 103.177 156.56 95.6876 156.56 86.5006V82.5006C156.56 76.2896 153.253 70.6926 147.88 67.6806L150.02 59.4356C152.553 49.5806 150.477 39.2786 144.324 31.1726L142.15 28.3096C137.498 22.1796 130.771 18.0106 123.256 16.5806C122.819 16.4826 112.494 14.1846 106.832 13.3306C105.594 13.1426 103.687 13.1346 102.494 13.3086C96.158 14.2266 83.932 16.9486 83.462 17.0536C77.535 18.1826 72.262 21.4506 68.613 26.2566L64.881 31.1736C58.728 39.2786 56.652 49.5806 59.185 59.4406L61.325 67.6836C55.955 70.6966 52.645 76.3016 52.645 82.5006V86.5006C52.645 94.3846 58.046 101.012 65.337 102.927V104.511C65.337 107.682 67.916 110.261 71.087 110.261H73.294C77.344 115.537 82.693 119.763 88.862 122.458V127.615L77.799 134.452H53.976C53.647 134.452 53.298 134.479 52.995 134.525C47.111 135.032 41.914 138.662 39.421 144.025L10.976 208.39C8.58801 213.526 8.98201 219.444 12.028 224.219C13.208 226.069 14.715 227.626 16.444 228.845H9.32001C8.49201 228.845 7.82001 229.517 7.82001 230.345C7.82001 231.173 8.49201 231.844 9.32001 231.844ZM79.347 215.344C79.347 222.398 73.908 228.195 67.004 228.785V201.902C73.907 202.492 79.347 208.29 79.347 215.344ZM104.604 190.37L96.347 150.138C98.804 151.661 101.632 152.492 104.604 152.492C107.576 152.492 110.404 151.661 112.861 150.138L104.604 190.37ZM234.813 228.844H132.479V164.642H234.813V228.844ZM154.632 161.642V149.011H156.835H180.942V161.642H154.632ZM158.335 140.63C158.335 133.388 164.227 127.496 171.468 127.496H185.927C186.017 127.496 186.107 127.488 186.196 127.472L202.315 124.541C203.14 124.39 203.962 124.642 204.564 125.231C205.166 125.82 205.434 126.635 205.3 127.464L205.23 127.898C204.313 133.587 200.432 138.485 195.101 140.679L182.146 146.01H158.335V140.63ZM155.401 139.328C155.366 139.759 155.335 140.191 155.335 140.63V146.011H153.132C152.304 146.011 151.632 146.683 151.632 147.511V161.642H130.979C130.151 161.642 129.479 162.314 129.479 163.142V228.844H106.104V198.251L130.388 158.053C130.776 157.411 130.63 156.582 130.047 156.112L124.851 151.911L131.915 137.451H149.527C151.659 137.45 153.678 138.103 155.401 139.328ZM121.631 151.667C121.324 152.295 121.491 153.052 122.035 153.491L127.143 157.621L107.824 189.6L119.882 130.854L129.034 136.511L121.631 151.667ZM153.562 82.4996V86.4996C153.562 93.5746 148.282 99.4256 141.459 100.356C143.135 95.9816 144.062 91.2406 144.062 86.2836V82.3946L147.096 70.7056C151.115 73.2636 153.562 77.6546 153.562 82.4996ZM141.062 79.6296L140.826 79.4956C136.336 76.9516 132.743 72.9376 130.711 68.1946L129.452 65.2576C128.476 62.9816 125.943 61.7756 123.497 62.4696C123.39 62.5056 112.698 66.0636 106.733 67.4366C105.6 67.6996 103.609 67.6986 102.476 67.4366C96.511 66.0636 85.82 62.5056 85.647 62.4496C83.262 61.7736 80.732 62.9816 79.757 65.2586L78.498 68.1956C76.465 72.9396 72.872 76.9526 68.383 79.4956L68.147 79.6296V72.2796C68.146 54.4796 82.627 39.9996 100.426 39.9996H108.782C126.581 39.9996 141.061 54.4796 141.061 72.2786L141.062 79.6296ZM67.271 32.9866L71.003 28.0696C74.203 23.8546 78.827 20.9886 84.069 19.9896C84.195 19.9616 96.7 17.1776 102.925 16.2756C103.352 16.2136 103.938 16.1826 104.537 16.1826C105.205 16.1826 105.889 16.2206 106.385 16.2956C111.944 17.1346 122.497 19.4836 122.65 19.5166C129.48 20.8176 135.557 24.5836 139.761 30.1226L141.935 32.9856C147.531 40.3566 149.418 49.7246 147.115 58.6836L144.018 70.6146C143.148 51.9326 127.678 36.9996 108.782 36.9996H100.426C81.53 36.9996 66.059 51.9336 65.189 70.6176L62.092 58.6896C59.788 49.7256 61.677 40.3566 67.271 32.9866ZM55.646 86.4996V82.4996C55.646 77.6636 58.094 73.2666 62.111 70.7056L65.146 82.3946V86.2836C65.146 87.5916 65.214 88.8836 65.338 90.1586V99.8146C59.722 97.9926 55.646 92.7156 55.646 86.4996ZM71.089 107.26C69.572 107.26 68.339 106.027 68.339 104.51V103.434C68.589 103.453 68.84 103.464 69.093 103.472C69.728 104.778 70.438 106.039 71.208 107.26H71.089ZM77.174 110.26H86.826C87.462 112.198 89.268 113.612 91.416 113.612C94.092 113.612 96.269 111.435 96.269 108.76C96.269 106.085 94.092 103.908 91.416 103.908C89.268 103.908 87.462 105.321 86.826 107.26H74.813C70.62 101.323 68.147 94.0886 68.147 86.2836V83.0766L69.862 82.1056C74.919 79.2416 78.966 74.7206 81.257 69.3766L82.516 66.4396C82.899 65.5456 83.893 65.0716 84.764 65.3156C85.207 65.4636 95.699 68.9556 101.803 70.3606C103.374 70.7206 105.834 70.7226 107.407 70.3606C113.511 68.9556 124.003 65.4646 124.381 65.3366C125.316 65.0706 126.311 65.5446 126.694 66.4406L127.953 69.3776C130.242 74.7206 134.289 79.2406 139.348 82.1066L141.063 83.0776V86.2846C141.063 106.388 124.708 122.742 104.605 122.742C93.675 122.741 83.862 117.901 77.174 110.26ZM89.564 108.76C89.564 107.739 90.395 106.908 91.416 106.908C92.437 106.908 93.269 107.739 93.269 108.76C93.269 109.781 92.438 110.612 91.416 110.612C90.396 110.611 89.564 109.78 89.564 108.76ZM104.604 125.741C109.062 125.741 113.344 124.987 117.344 123.618V128.295L113.794 145.592C113.778 145.607 113.758 145.612 113.742 145.627C111.322 148.118 108.076 149.49 104.603 149.49C101.13 149.49 97.885 148.118 95.464 145.627C95.449 145.612 95.429 145.607 95.413 145.592L91.863 128.295V123.618C95.864 124.988 100.146 125.741 104.604 125.741ZM89.326 130.854L101.383 189.6L82.064 157.621L87.172 153.491C87.716 153.052 87.883 152.295 87.576 151.667L80.173 136.512L89.326 130.854ZM14.556 222.604C12.064 218.697 11.743 213.855 13.707 209.626L42.152 145.262C44.181 140.896 48.435 137.926 53.336 137.501C53.546 137.472 53.758 137.449 53.976 137.449H77.293L84.357 151.909L79.161 156.11C78.578 156.581 78.432 157.41 78.82 158.051L103.104 198.249V228.842H75.304C79.556 225.854 82.347 220.922 82.347 215.342C82.347 206.244 74.945 198.842 65.847 198.842H65.504H54.604H51.733L69.375 157.868C69.702 157.107 69.352 156.225 68.59 155.897C67.826 155.568 66.946 155.92 66.619 156.682L48.467 198.841H34.271C33.443 198.841 32.771 199.513 32.771 200.341C32.771 201.169 33.443 201.841 34.271 201.841H49.454H54.604H64.004V228.841H25.937C21.303 228.844 17.048 226.512 14.556 222.604Z" fill="#3F3679"/>
<path d="M104.604 100.61C105.432 100.61 106.104 99.938 106.104 99.11V92.957C106.104 92.129 105.432 91.457 104.604 91.457C103.776 91.457 103.104 92.129 103.104 92.957V99.11C103.104 99.938 103.775 100.61 104.604 100.61Z" fill="#3F3679"/>
<path d="M111.36 109.747C111.906 109.124 111.844 108.177 111.221 107.63C110.597 107.082 109.651 107.147 109.104 107.769C107.962 109.071 106.322 109.817 104.603 109.817C102.884 109.817 101.245 109.071 100.103 107.769C99.556 107.147 98.61 107.085 97.986 107.63C97.363 108.177 97.301 109.124 97.847 109.747C99.558 111.697 102.021 112.816 104.603 112.816C107.187 112.816 109.649 111.697 111.36 109.747Z" fill="#3F3679"/>
<path d="M94.719 81.2812H84.303C83.475 81.2812 82.803 81.9532 82.803 82.7812C82.803 83.6093 83.475 84.2812 84.303 84.2812H94.719C95.547 84.2812 96.219 83.6093 96.219 82.7812C96.219 81.9532 95.547 81.2812 94.719 81.2812Z" fill="#3F3679"/>
<path d="M114.489 84.2812H124.904C125.732 84.2812 126.404 83.6093 126.404 82.7812C126.404 81.9532 125.732 81.2812 124.904 81.2812H114.489C113.661 81.2812 112.989 81.9532 112.989 82.7812C112.989 83.6093 113.661 84.2812 114.489 84.2812Z" fill="#3F3679"/>
<path d="M203.129 113.611C227.078 113.611 246.563 94.1272 246.563 70.1772C246.563 46.2272 227.079 26.7422 203.129 26.7422C179.179 26.7422 159.694 46.2262 159.694 70.1772C159.694 94.1272 179.179 113.611 203.129 113.611ZM203.129 29.7432C225.424 29.7432 243.563 47.8822 243.563 70.1782C243.563 92.4732 225.424 110.612 203.129 110.612C180.833 110.612 162.694 92.4732 162.694 70.1782C162.694 47.8822 180.833 29.7432 203.129 29.7432Z" fill="#3F3679"/>
<path d="M183.646 206.242C188.884 206.242 193.146 201.98 193.146 196.742C193.146 191.504 188.884 187.242 183.646 187.242C178.408 187.242 174.146 191.504 174.146 196.742C174.146 201.98 178.407 206.242 183.646 206.242ZM183.646 190.242C187.23 190.242 190.146 193.158 190.146 196.742C190.146 200.326 187.23 203.242 183.646 203.242C180.062 203.242 177.146 200.326 177.146 196.742C177.146 193.158 180.062 190.242 183.646 190.242Z" fill="#3F3679"/>
</svg>
