<svg width="256" height="256" viewBox="0 0 256 256" fill="none" xmlns="http://www.w3.org/2000/svg">
<path d="M164.632 79.043H179.41C192.316 79.043 204.396 85.395 211.711 96.027L230.435 123.242C231.706 125.089 232.386 127.279 232.386 129.521V175.184H153.553V90.121C153.554 84.003 158.514 79.043 164.632 79.043Z" fill="#CECECE"/>
<path d="M230.435 123.242L211.711 96.027C204.396 85.394 192.316 79.043 179.41 79.043H164.743C177.649 79.043 189.729 85.395 197.044 96.027L215.768 123.242C217.039 125.089 217.719 127.279 217.719 129.521V175.184H232.386V129.521C232.386 127.279 231.706 125.089 230.435 123.242Z" fill="#E2E2E2"/>
<path d="M165.151 101.463V116.631C165.151 120.002 167.884 122.734 171.254 122.734H200.411C205.482 122.734 208.341 116.909 205.239 112.897L193.511 97.7294C192.355 96.2344 190.572 95.3594 188.683 95.3594H171.254C167.884 95.3604 165.151 98.0924 165.151 101.463Z" fill="#63BCE7"/>
<path d="M165.151 101.463V116.631C165.151 120.002 167.884 122.734 171.254 122.734H200.411C205.482 122.734 208.341 116.909 205.239 112.897L193.511 97.7294C192.355 96.2344 190.572 95.3594 188.683 95.3594H171.254C167.884 95.3604 165.151 98.0924 165.151 101.463Z" fill="#9E9E9E"/>
<path d="M19.9372 192.53H236.063C240.833 192.53 244.736 188.627 244.736 183.857C244.736 179.087 240.833 175.184 236.063 175.184H19.9372C15.1672 175.184 11.2642 179.087 11.2642 183.857C11.2632 188.627 15.1672 192.53 19.9372 192.53Z" fill="#CECECE"/>
<path d="M236.063 175.184H221.396C226.166 175.184 230.069 179.087 230.069 183.857C230.069 188.627 226.166 192.53 221.396 192.53H236.063C240.833 192.53 244.736 188.627 244.736 183.857C244.737 179.087 240.834 175.184 236.063 175.184Z" fill="#E2E2E2"/>
<path d="M25.9302 183.857C25.9302 179.087 29.8332 175.184 34.6032 175.184H19.9372C15.1672 175.184 11.2642 179.087 11.2642 183.857C11.2642 188.627 15.1672 192.53 19.9372 192.53H34.6042C29.8332 192.531 25.9302 188.628 25.9302 183.857Z" fill="#AFAFAF"/>
<path d="M153.554 60.0039H22.6401V175.183H153.554V60.0039Z" fill="#63BCE7"/>
<path d="M37.3071 60.0039H22.6401V175.183H37.3071V60.0039Z" fill="#6377E7"/>
<path d="M88.0971 151.954C107.075 151.954 122.459 136.57 122.459 117.592C122.459 98.6149 107.075 83.2305 88.0971 83.2305C69.1195 83.2305 53.7351 98.6149 53.7351 117.592C53.7351 136.57 69.1195 151.954 88.0971 151.954Z" fill="#F46275"/>
<path d="M106.995 111.327H96.3091C95.1911 111.327 94.2841 110.42 94.2841 109.302V98.6148C94.2841 97.4968 93.3771 96.5898 92.2591 96.5898H83.9351C82.8171 96.5898 81.9101 97.4968 81.9101 98.6148V109.302C81.9101 110.42 81.0031 111.327 79.8851 111.327H69.1991C68.0811 111.327 67.1741 112.234 67.1741 113.352V121.676C67.1741 122.794 68.0811 123.701 69.1991 123.701H79.8861C81.0041 123.701 81.9111 124.608 81.9111 125.726V136.413C81.9111 137.531 82.8181 138.438 83.9361 138.438H92.2601C93.3781 138.438 94.2851 137.531 94.2851 136.413V125.726C94.2851 124.608 95.1921 123.701 96.3101 123.701H106.997C108.115 123.701 109.022 122.794 109.022 121.676V113.352C109.02 112.233 108.114 111.327 106.995 111.327Z" fill="#F8AF23"/>
<path d="M134.225 31.7188H41.969V72.2558H134.225V31.7188Z" fill="#F8AF23"/>
<path d="M56.636 31.7188H41.969V72.2558H56.636V31.7188Z" fill="#F87023"/>
<path d="M134.225 31.7188H119.558V72.2558H134.225V31.7188Z" fill="#F8D323"/>
<path d="M72.2851 43.8077V45.6057C72.2851 46.0667 71.9111 46.4407 71.4501 46.4407H65.7241C65.2631 46.4407 64.8891 46.8147 64.8891 47.2757V49.5587C64.8891 50.0197 65.2631 50.3937 65.7241 50.3937H69.7671C70.2281 50.3937 70.6021 50.7677 70.6021 51.2287V52.8737C70.6021 53.3347 70.2281 53.7087 69.7671 53.7087H65.7241C65.2631 53.7087 64.8891 54.0827 64.8891 54.5437V60.1677C64.8891 60.6287 64.5151 61.0027 64.0541 61.0027H61.3631C60.9021 61.0027 60.5281 60.6287 60.5281 60.1677V43.8077C60.5281 43.3467 60.9021 42.9727 61.3631 42.9727H71.4501C71.9111 42.9717 72.2851 43.3457 72.2851 43.8077Z" fill="#3F3679"/>
<path d="M84.2711 61.0037C83.9721 61.0037 83.6951 60.8437 83.5461 60.5837L79.8841 54.1937H78.8891V60.1677C78.8891 60.6287 78.5151 61.0027 78.0541 61.0027H75.3631C74.9021 61.0027 74.5281 60.6287 74.5281 60.1677V43.8077C74.5281 43.3467 74.9021 42.9727 75.3631 42.9727H81.9761C83.4041 42.9727 84.6111 43.2187 85.5971 43.7127C86.5831 44.2057 87.3221 44.8817 87.8161 45.7397C88.3091 46.5987 88.5561 47.5807 88.5561 48.6857C88.5561 49.9947 88.1951 51.1087 87.4721 52.0267C86.9261 52.7197 86.1951 53.2477 85.2771 53.6117C84.7981 53.8017 84.5991 54.3717 84.8651 54.8127L87.8411 59.7367C88.1771 60.2937 87.7771 61.0037 87.1261 61.0037H84.2711ZM78.8911 50.3747C78.8911 50.8357 79.2651 51.2097 79.7261 51.2097H81.5941C82.4611 51.2097 83.0991 51.0187 83.5071 50.6357C83.9151 50.2527 84.1191 49.6877 84.1191 48.9397C84.1191 48.2257 83.9101 47.6647 83.4941 47.2567C83.0781 46.8487 82.4441 46.6447 81.5941 46.6447H79.7261C79.2651 46.6447 78.8911 47.0187 78.8911 47.4797V50.3747Z" fill="#3F3679"/>
<path d="M95.111 47.2757V49.3807C95.111 49.8417 95.485 50.2157 95.946 50.2157H100.371C100.832 50.2157 101.206 50.5897 101.206 51.0507V52.6707C101.206 53.1317 100.832 53.5057 100.371 53.5057H95.946C95.485 53.5057 95.111 53.8797 95.111 54.3407V56.6747C95.111 57.1357 95.485 57.5097 95.946 57.5097H101.136C101.597 57.5097 101.971 57.8837 101.971 58.3447V60.1687C101.971 60.6297 101.597 61.0037 101.136 61.0037H91.584C91.123 61.0037 90.749 60.6297 90.749 60.1687V43.8077C90.749 43.3467 91.123 42.9727 91.584 42.9727H101.136C101.597 42.9727 101.971 43.3467 101.971 43.8077V45.6057C101.971 46.0667 101.597 46.4407 101.136 46.4407H95.946C95.485 46.4407 95.111 46.8137 95.111 47.2757Z" fill="#3F3679"/>
<path d="M108.807 47.2757V49.3807C108.807 49.8417 109.181 50.2157 109.642 50.2157H114.067C114.528 50.2157 114.902 50.5897 114.902 51.0507V52.6707C114.902 53.1317 114.528 53.5057 114.067 53.5057H109.642C109.181 53.5057 108.807 53.8797 108.807 54.3407V56.6747C108.807 57.1357 109.181 57.5097 109.642 57.5097H114.832C115.293 57.5097 115.667 57.8837 115.667 58.3447V60.1687C115.667 60.6297 115.293 61.0037 114.832 61.0037H105.28C104.819 61.0037 104.445 60.6297 104.445 60.1687V43.8077C104.445 43.3467 104.819 42.9727 105.28 42.9727H114.832C115.293 42.9727 115.667 43.3467 115.667 43.8077V45.6057C115.667 46.0667 115.293 46.4407 114.832 46.4407H109.642C109.18 46.4407 108.807 46.8137 108.807 47.2757Z" fill="#3F3679"/>
<path d="M60.5111 213.306C71.9854 213.306 81.2871 204.004 81.2871 192.53C81.2871 181.056 71.9854 171.754 60.5111 171.754C49.0368 171.754 39.7351 181.056 39.7351 192.53C39.7351 204.004 49.0368 213.306 60.5111 213.306Z" fill="#9E9E9E"/>
<path d="M186.126 213.306C197.6 213.306 206.902 204.004 206.902 192.53C206.902 181.056 197.6 171.754 186.126 171.754C174.652 171.754 165.35 181.056 165.35 192.53C165.35 204.004 174.652 213.306 186.126 213.306Z" fill="#9E9E9E"/>
<path d="M60.5111 200.505C64.9145 200.505 68.4841 196.935 68.4841 192.532C68.4841 188.128 64.9145 184.559 60.5111 184.559C56.1077 184.559 52.5381 188.128 52.5381 192.532C52.5381 196.935 56.1077 200.505 60.5111 200.505Z" fill="#707070"/>
<path d="M186.126 200.505C190.529 200.505 194.099 196.935 194.099 192.532C194.099 188.128 190.529 184.559 186.126 184.559C181.723 184.559 178.153 188.128 178.153 192.532C178.153 196.935 181.723 200.505 186.126 200.505Z" fill="#707070"/>
<path d="M27.3231 222.777H9.32007C8.49107 222.777 7.82007 223.448 7.82007 224.277C7.82007 225.106 8.49107 225.777 9.32007 225.777H27.3231C28.1521 225.777 28.8231 225.106 28.8231 224.277C28.8231 223.448 28.1521 222.777 27.3231 222.777Z" fill="#3F3679"/>
<path d="M246.68 222.777H228.677C227.848 222.777 227.177 223.448 227.177 224.277C227.177 225.106 227.848 225.777 228.677 225.777H246.68C247.509 225.777 248.18 225.106 248.18 224.277C248.18 223.448 247.509 222.777 246.68 222.777Z" fill="#3F3679"/>
<path d="M218.479 222.777H37.521C36.692 222.777 36.021 223.448 36.021 224.277C36.021 225.106 36.692 225.777 37.521 225.777H218.48C219.309 225.777 219.98 225.106 219.98 224.277C219.98 223.448 219.308 222.777 218.479 222.777Z" fill="#3F3679"/>
<path d="M9.32007 214.806H246.68C247.509 214.806 248.18 214.135 248.18 213.306C248.18 212.477 247.509 211.806 246.68 211.806H197.269C203.509 208.184 207.837 201.624 208.345 194.031H236.063C241.672 194.031 246.236 189.467 246.236 183.858C246.236 178.248 241.672 173.684 236.063 173.684H233.886V129.521C233.886 126.963 233.12 124.498 231.671 122.392L212.947 95.1768C205.35 84.1348 192.813 77.5427 179.41 77.5427H164.632C160.797 77.5427 157.363 79.2727 155.054 81.9877V60.0048C155.054 59.1758 154.383 58.5048 153.554 58.5048H135.725V31.7188C135.725 30.8898 135.054 30.2188 134.225 30.2188H41.9691C41.1401 30.2188 40.4691 30.8898 40.4691 31.7188V58.5048H22.6401C21.8111 58.5048 21.1401 59.1758 21.1401 60.0048V173.684H19.9371C14.3281 173.684 9.76407 178.248 9.76407 183.858C9.76407 189.467 14.3281 194.031 19.9371 194.031H38.2911C38.7991 201.625 43.1271 208.185 49.3671 211.806H9.32007C8.49107 211.806 7.82007 212.477 7.82007 213.306C7.82007 214.135 8.49107 214.806 9.32007 214.806ZM71.6541 211.806C77.8941 208.184 82.2221 201.624 82.7301 194.031H163.907C164.415 201.625 168.743 208.185 174.983 211.806H71.6541ZM153.554 176.684C153.556 176.684 153.557 176.684 153.559 176.684H170.491C166.729 180.397 164.282 185.434 163.907 191.031H82.7301C82.3561 185.434 79.9091 180.397 76.1471 176.684H153.554ZM186.126 211.806C175.498 211.806 166.851 203.159 166.851 192.531C166.851 181.902 175.498 173.255 186.126 173.255C196.754 173.255 205.401 181.902 205.401 192.531C205.401 203.159 196.754 211.806 186.126 211.806ZM243.236 183.857C243.236 187.813 240.018 191.03 236.063 191.03H208.345C207.971 185.433 205.523 180.395 201.761 176.683H232.386H236.063C240.019 176.684 243.236 179.902 243.236 183.857ZM164.632 80.5417H179.41C191.825 80.5417 203.438 86.6477 210.475 96.8757L229.199 124.091C230.303 125.695 230.886 127.572 230.886 129.52V173.683H198.166H197.978C194.543 171.515 190.48 170.254 186.126 170.254C181.772 170.254 177.709 171.514 174.274 173.683H173.667H155.054V90.1198C155.054 84.8388 159.351 80.5417 164.632 80.5417ZM43.4691 33.2188H132.725V70.7558H43.4691V33.2188ZM24.1401 61.5048H40.4691V72.2547C40.4691 73.0837 41.1401 73.7547 41.9691 73.7547H134.225C135.054 73.7547 135.725 73.0837 135.725 72.2547V61.5048H152.054V90.1198V173.683H72.7191C72.6141 173.683 72.5121 173.694 72.4131 173.715C68.9671 171.527 64.8861 170.255 60.5111 170.255C56.1511 170.255 52.0831 171.519 48.6451 173.692C48.6171 173.69 48.5911 173.684 48.5631 173.684H48.0881C48.0861 173.684 48.0851 173.684 48.0831 173.684H24.1401V61.5048ZM12.7641 183.857C12.7641 179.901 15.9821 176.683 19.9371 176.683H22.6351C22.6371 176.683 22.6381 176.683 22.6401 176.683H44.8741C41.1121 180.396 38.6651 185.433 38.2911 191.03H19.9371C15.9811 191.031 12.7641 187.813 12.7641 183.857ZM41.2351 192.531C41.2351 181.902 49.8821 173.255 60.5111 173.255C71.1391 173.255 79.7861 181.902 79.7861 192.531C79.7861 203.159 71.1391 211.806 60.5111 211.806C49.8821 211.806 41.2351 203.159 41.2351 192.531Z" fill="#3F3679"/>
<path d="M171.255 124.238H200.412C203.334 124.238 205.95 122.608 207.237 119.985C208.525 117.361 208.215 114.296 206.427 111.984L194.699 96.8163C193.27 94.9673 191.021 93.8633 188.684 93.8633H171.255C167.063 93.8633 163.651 97.2743 163.651 101.467V116.635C163.651 120.827 167.062 124.238 171.255 124.238ZM166.651 101.466C166.651 98.9273 168.716 96.8623 171.255 96.8623H188.684C190.099 96.8623 191.461 97.5303 192.326 98.6503L204.054 113.818C205.153 115.239 205.336 117.05 204.544 118.662C203.752 120.275 202.208 121.237 200.412 121.237H171.255C168.716 121.237 166.651 119.172 166.651 116.633V101.466Z" fill="#3F3679"/>
<path d="M180.392 130.793H167.922C165.677 130.793 163.851 132.619 163.851 134.864V135.113C163.851 137.358 165.677 139.184 167.922 139.184H180.392C182.637 139.184 184.463 137.358 184.463 135.113V134.864C184.463 132.619 182.637 130.793 180.392 130.793ZM181.463 135.112C181.463 135.693 180.972 136.183 180.392 136.183H167.922C167.332 136.183 166.851 135.703 166.851 135.112V134.863C166.851 134.273 167.331 133.792 167.922 133.792H180.392C180.983 133.792 181.463 134.272 181.463 134.863V135.112Z" fill="#3F3679"/>
<path d="M88.0971 153.457C107.871 153.457 123.958 137.37 123.958 117.595C123.958 97.8214 107.871 81.7344 88.0971 81.7344C68.3231 81.7344 52.2351 97.8214 52.2351 117.595C52.2351 137.37 68.3231 153.457 88.0971 153.457ZM88.0971 84.7344C106.217 84.7344 120.958 99.4764 120.958 117.595C120.958 135.715 106.216 150.457 88.0971 150.457C69.9771 150.457 55.2351 135.715 55.2351 117.595C55.2351 99.4764 69.9771 84.7344 88.0971 84.7344Z" fill="#3F3679"/>
<path d="M69.1991 125.201H79.8861C80.1761 125.201 80.4111 125.436 80.4111 125.726V136.413C80.4111 138.357 81.9921 139.938 83.9361 139.938H92.2601C94.2041 139.938 95.7851 138.357 95.7851 136.413V125.726C95.7851 125.436 96.0201 125.201 96.3091 125.201H106.996C108.939 125.201 110.52 123.62 110.52 121.676V113.352C110.52 111.408 108.939 109.827 106.996 109.827H96.3091C96.0201 109.827 95.7851 109.592 95.7851 109.302V98.6148C95.7851 96.6708 94.2041 95.0898 92.2601 95.0898H83.9361C81.9921 95.0898 80.4111 96.6708 80.4111 98.6148V109.302C80.4111 109.592 80.1761 109.827 79.8861 109.827H69.1991C67.2551 109.827 65.6741 111.408 65.6741 113.352V121.676C65.6741 123.62 67.2551 125.201 69.1991 125.201ZM68.6741 113.351C68.6741 113.061 68.9091 112.826 69.1991 112.826H79.8861C81.8301 112.826 83.4111 111.245 83.4111 109.301V98.6148C83.4111 98.3248 83.6461 98.0898 83.9361 98.0898H92.2601C92.5501 98.0898 92.7851 98.3248 92.7851 98.6148V109.302C92.7851 111.246 94.3661 112.827 96.3091 112.827H106.996C107.285 112.827 107.52 113.062 107.52 113.352V121.676C107.52 121.966 107.285 122.201 106.996 122.201H96.3091C94.3661 122.201 92.7851 123.782 92.7851 125.726V136.413C92.7851 136.703 92.5501 136.938 92.2601 136.938H83.9361C83.6461 136.938 83.4111 136.703 83.4111 136.413V125.726C83.4111 123.782 81.8301 122.201 79.8861 122.201H69.1991C68.9091 122.201 68.6741 121.966 68.6741 121.676V113.351Z" fill="#3F3679"/>
<path d="M60.5111 183.059C55.2881 183.059 51.0381 187.309 51.0381 192.532C51.0381 197.755 55.2881 202.005 60.5111 202.005C65.7341 202.005 69.9841 197.755 69.9841 192.532C69.9841 187.309 65.7341 183.059 60.5111 183.059ZM60.5111 199.004C56.9421 199.004 54.0381 196.1 54.0381 192.531C54.0381 188.962 56.9421 186.058 60.5111 186.058C64.0801 186.058 66.9841 188.962 66.9841 192.531C66.9841 196.1 64.0801 199.004 60.5111 199.004Z" fill="#3F3679"/>
<path d="M186.126 183.059C180.903 183.059 176.653 187.309 176.653 192.532C176.653 197.755 180.903 202.005 186.126 202.005C191.349 202.005 195.599 197.755 195.599 192.532C195.599 187.309 191.349 183.059 186.126 183.059ZM186.126 199.004C182.557 199.004 179.653 196.1 179.653 192.531C179.653 188.962 182.557 186.058 186.126 186.058C189.695 186.058 192.599 188.962 192.599 192.531C192.599 196.1 189.695 199.004 186.126 199.004Z" fill="#3F3679"/>
</svg>
