<svg width="256" height="256" viewBox="0 0 256 256" fill="none" xmlns="http://www.w3.org/2000/svg">
<path d="M229.967 174.392H26.033C23.272 174.392 21.033 172.153 21.033 169.392V30.9688C21.033 28.2078 23.272 25.9688 26.033 25.9688H229.967C232.728 25.9688 234.967 28.2078 234.967 30.9688V169.392C234.967 172.154 232.728 174.392 229.967 174.392Z" fill="#63BCE7"/>
<path d="M35.7 169.392V30.9688C35.7 28.2078 37.939 25.9688 40.7 25.9688H26.033C23.272 25.9688 21.033 28.2078 21.033 30.9688V169.392C21.033 172.153 23.272 174.392 26.033 174.392H40.7C37.938 174.392 35.7 172.154 35.7 169.392Z" fill="#6377E7"/>
<path d="M220.3 169.392V30.9688C220.3 28.2078 218.061 25.9688 215.3 25.9688H229.967C232.728 25.9688 234.967 28.2078 234.967 30.9688V169.392C234.967 172.153 232.728 174.392 229.967 174.392H215.3C218.062 174.392 220.3 172.154 220.3 169.392Z" fill="#63E2E7"/>
<path d="M55.324 41.8336C50.539 41.8336 46.623 37.9186 46.623 33.1326V18.8026C46.623 14.0176 50.538 10.1016 55.324 10.1016C60.109 10.1016 64.025 14.0166 64.025 18.8026V33.1336C64.025 37.9186 60.109 41.8336 55.324 41.8336Z" fill="#F46275"/>
<path d="M200.676 41.8336C195.891 41.8336 191.975 37.9186 191.975 33.1326V18.8026C191.975 14.0176 195.89 10.1016 200.676 10.1016C205.461 10.1016 209.377 14.0166 209.377 18.8026V33.1336C209.377 37.9186 205.461 41.8336 200.676 41.8336Z" fill="#F46275"/>
<path d="M79.591 56.0781H55.622V80.0471H79.591V56.0781Z" fill="#F8AF23"/>
<path d="M119.853 56.0781H95.884V80.0471H119.853V56.0781Z" fill="#9E9E9E"/>
<path d="M160.115 56.0781H136.146V80.0471H160.115V56.0781Z" fill="#9E9E9E"/>
<path d="M200.377 56.0781H176.408V80.0471H200.377V56.0781Z" fill="#9E9E9E"/>
<path d="M79.591 92.9219H55.622V116.891H79.591V92.9219Z" fill="#9E9E9E"/>
<path d="M119.853 92.9219H95.884V116.891H119.853V92.9219Z" fill="#9E9E9E"/>
<path d="M160.115 92.9219H136.146V116.891H160.115V92.9219Z" fill="#9E9E9E"/>
<path d="M200.377 92.9219H176.408V116.891H200.377V92.9219Z" fill="#9E9E9E"/>
<path d="M79.591 129.77H55.622V153.739H79.591V129.77Z" fill="#9E9E9E"/>
<path d="M119.853 129.77H95.884V153.739H119.853V129.77Z" fill="#9E9E9E"/>
<path d="M160.115 129.77H136.146V153.739H160.115V129.77Z" fill="#9E9E9E"/>
<path d="M219.572 148.664L217.108 146.174C213.396 142.421 211.313 137.356 211.313 132.077V126.281H187.765H164.217V132.077C164.217 137.356 162.135 142.421 158.422 146.174L155.958 148.664C152.029 152.635 149.826 157.996 149.826 163.582V228.295C149.826 230.101 151.29 231.566 153.097 231.566H187.765H222.433C224.239 231.566 225.704 230.102 225.704 228.295V163.582C225.704 157.996 223.5 152.635 219.572 148.664Z" fill="#CECECE"/>
<path d="M219.572 148.664L217.108 146.174C213.396 142.421 211.313 137.356 211.313 132.077V126.281H196.646V132.077C196.646 137.356 198.728 142.421 202.441 146.174L204.905 148.664C208.834 152.635 211.037 157.996 211.037 163.582V228.295C211.037 230.101 209.573 231.566 207.766 231.566H222.433C224.239 231.566 225.704 230.102 225.704 228.295V163.582C225.704 157.996 223.5 152.635 219.572 148.664Z" fill="#E2E2E2"/>
<path d="M212.364 126.281H163.167C160.406 126.281 158.167 124.042 158.167 121.281V110.648C158.167 107.887 160.406 105.648 163.167 105.648H212.364C215.125 105.648 217.364 107.887 217.364 110.648V121.281C217.364 124.042 215.125 126.281 212.364 126.281Z" fill="#F8AF23"/>
<path d="M212.364 105.648H197.697C200.458 105.648 202.697 107.887 202.697 110.648V121.281C202.697 124.042 200.458 126.281 197.697 126.281H212.364C215.125 126.281 217.364 124.042 217.364 121.281V110.648C217.364 107.887 215.125 105.648 212.364 105.648Z" fill="#F8D323"/>
<path d="M187.765 208.352C180.028 208.352 173.756 202.08 173.756 194.343V170.943C173.756 163.206 180.028 156.934 187.765 156.934C195.502 156.934 201.774 163.206 201.774 170.943V194.343C201.774 202.08 195.502 208.352 187.765 208.352Z" fill="#F46275"/>
<path d="M201.774 170.943C201.774 163.206 195.502 156.934 187.765 156.934C180.028 156.934 173.756 163.206 173.756 170.943V182.643H201.774V170.943Z" fill="#F8AF23"/>
<path d="M79.592 54.5781H55.622C54.794 54.5781 54.122 55.2491 54.122 56.0781V80.0471C54.122 80.8761 54.794 81.5471 55.622 81.5471H79.592C80.42 81.5471 81.092 80.8761 81.092 80.0471V56.0781C81.092 55.2491 80.42 54.5781 79.592 54.5781ZM78.092 78.5471H57.122V57.5781H78.092V78.5471Z" fill="#3F3679"/>
<path d="M119.854 54.5781H95.885C95.057 54.5781 94.385 55.2491 94.385 56.0781V80.0471C94.385 80.8761 95.057 81.5471 95.885 81.5471H119.854C120.682 81.5471 121.354 80.8761 121.354 80.0471V56.0781C121.354 55.2491 120.682 54.5781 119.854 54.5781ZM118.354 78.5471H97.385V57.5781H118.354V78.5471Z" fill="#3F3679"/>
<path d="M136.146 81.5471H160.115C160.943 81.5471 161.615 80.8761 161.615 80.0471V56.0781C161.615 55.2491 160.943 54.5781 160.115 54.5781H136.146C135.318 54.5781 134.646 55.2491 134.646 56.0781V80.0471C134.646 80.8751 135.318 81.5471 136.146 81.5471ZM137.646 57.5781H158.615V78.5471H137.646V57.5781Z" fill="#3F3679"/>
<path d="M176.408 81.5471H200.378C201.206 81.5471 201.878 80.8761 201.878 80.0471V56.0781C201.878 55.2491 201.206 54.5781 200.378 54.5781H176.408C175.58 54.5781 174.908 55.2491 174.908 56.0781V80.0471C174.908 80.8751 175.58 81.5471 176.408 81.5471ZM177.908 57.5781H198.878V78.5471H177.908V57.5781Z" fill="#3F3679"/>
<path d="M79.592 91.4219H55.622C54.794 91.4219 54.122 92.0929 54.122 92.9219V116.892C54.122 117.721 54.794 118.392 55.622 118.392H79.592C80.42 118.392 81.092 117.721 81.092 116.892V92.9219C81.092 92.0939 80.42 91.4219 79.592 91.4219ZM78.092 115.392H57.122V94.4219H78.092V115.392Z" fill="#3F3679"/>
<path d="M119.854 91.4219H95.885C95.057 91.4219 94.385 92.0929 94.385 92.9219V116.892C94.385 117.721 95.057 118.392 95.885 118.392H119.854C120.682 118.392 121.354 117.721 121.354 116.892V92.9219C121.354 92.0939 120.682 91.4219 119.854 91.4219ZM118.354 115.392H97.385V94.4219H118.354V115.392Z" fill="#3F3679"/>
<path d="M79.592 128.27H55.622C54.794 128.27 54.122 128.941 54.122 129.77V153.739C54.122 154.568 54.794 155.239 55.622 155.239H79.592C80.42 155.239 81.092 154.568 81.092 153.739V129.77C81.092 128.941 80.42 128.27 79.592 128.27ZM78.092 152.239H57.122V131.27H78.092V152.239Z" fill="#3F3679"/>
<path d="M119.854 128.27H95.885C95.057 128.27 94.385 128.941 94.385 129.77V153.739C94.385 154.568 95.057 155.239 95.885 155.239H119.854C120.682 155.239 121.354 154.568 121.354 153.739V129.77C121.354 128.941 120.682 128.27 119.854 128.27ZM118.354 152.239H97.385V131.27H118.354V152.239Z" fill="#3F3679"/>
<path d="M187.766 155.434C179.214 155.434 172.257 162.391 172.257 170.943V182.643V194.343C172.257 202.895 179.214 209.852 187.766 209.852C196.318 209.852 203.275 202.894 203.275 194.343V182.643V170.943C203.274 162.391 196.317 155.434 187.766 155.434ZM187.766 206.852C180.869 206.852 175.257 201.24 175.257 194.343V184.143H200.275V194.343C200.274 201.24 194.663 206.852 187.766 206.852ZM200.274 181.143H175.256V170.943C175.256 164.046 180.867 158.434 187.765 158.434C194.663 158.434 200.274 164.045 200.274 170.943V181.143Z" fill="#3F3679"/>
<path d="M27.323 241.039H9.32001C8.49201 241.039 7.82001 241.71 7.82001 242.539C7.82001 243.368 8.49201 244.039 9.32001 244.039H27.323C28.151 244.039 28.823 243.368 28.823 242.539C28.823 241.71 28.151 241.039 27.323 241.039Z" fill="#3F3679"/>
<path d="M246.68 241.039H228.677C227.849 241.039 227.177 241.71 227.177 242.539C227.177 243.368 227.849 244.039 228.677 244.039H246.68C247.508 244.039 248.18 243.368 248.18 242.539C248.18 241.71 247.508 241.039 246.68 241.039Z" fill="#3F3679"/>
<path d="M218.479 241.039H37.521C36.693 241.039 36.021 241.71 36.021 242.539C36.021 243.368 36.693 244.039 37.521 244.039H218.48C219.308 244.039 219.98 243.368 219.98 242.539C219.98 241.71 219.308 241.039 218.479 241.039Z" fill="#3F3679"/>
<path d="M248.18 231.566C248.18 230.737 247.508 230.066 246.68 230.066H226.855C227.075 229.517 227.204 228.922 227.204 228.295V175.892H229.967C233.551 175.892 236.467 172.976 236.467 169.392V30.9676C236.467 27.3836 233.551 24.4676 229.967 24.4676H210.877V18.8026C210.877 13.1776 206.301 8.60156 200.676 8.60156C195.052 8.60156 190.476 13.1776 190.476 18.8026V24.4676H65.524V18.8026C65.524 13.1776 60.948 8.60156 55.324 8.60156C49.699 8.60156 45.123 13.1776 45.123 18.8026V24.4676H26.033C22.449 24.4676 19.533 27.3836 19.533 30.9676V169.392C19.533 172.976 22.449 175.892 26.033 175.892H148.327V228.296C148.327 228.923 148.456 229.518 148.676 230.067H9.32001C8.49201 230.067 7.82001 230.738 7.82001 231.567C7.82001 232.396 8.49201 233.067 9.32001 233.067H153.097H222.433H246.679C247.508 233.066 248.18 232.395 248.18 231.566ZM193.476 18.8026C193.476 14.8316 196.706 11.6016 200.676 11.6016C204.647 11.6016 207.877 14.8316 207.877 18.8026V33.1336C207.877 37.1046 204.647 40.3346 200.676 40.3346C196.706 40.3346 193.476 37.1046 193.476 33.1336V18.8026ZM48.123 18.8026C48.123 14.8316 51.353 11.6016 55.324 11.6016C59.294 11.6016 62.524 14.8316 62.524 18.8026V33.1336C62.524 37.1046 59.294 40.3346 55.324 40.3346C51.353 40.3346 48.123 37.1046 48.123 33.1336V18.8026ZM26.033 172.892C24.103 172.892 22.533 171.322 22.533 169.392V30.9676C22.533 29.0376 24.103 27.4676 26.033 27.4676H45.123V33.1336C45.123 38.7586 49.699 43.3346 55.324 43.3346C60.948 43.3346 65.524 38.7586 65.524 33.1336V27.4676H190.475V33.1336C190.475 38.7586 195.051 43.3346 200.675 43.3346C206.3 43.3346 210.876 38.7586 210.876 33.1336V27.4676H229.966C231.896 27.4676 233.466 29.0376 233.466 30.9676V169.392C233.466 171.322 231.896 172.892 229.966 172.892H227.203V163.583C227.203 157.563 224.871 151.891 220.638 147.611L218.174 145.121C214.717 141.627 212.813 136.995 212.813 132.079V127.76C216.187 127.528 218.864 124.715 218.864 121.283V110.651C218.864 107.067 215.948 104.151 212.364 104.151H201.878V92.9236C201.878 92.0946 201.206 91.4236 200.378 91.4236H176.408C175.58 91.4236 174.908 92.0946 174.908 92.9236V104.149H163.167C162.631 104.149 162.114 104.221 161.615 104.344V92.9236C161.615 92.0946 160.943 91.4236 160.115 91.4236H136.146C135.318 91.4236 134.646 92.0946 134.646 92.9236V116.894C134.646 117.723 135.318 118.394 136.146 118.394H156.667V121.282C156.667 124.714 159.343 127.527 162.718 127.759V132.078C162.718 134.247 162.327 136.353 161.615 138.338V129.77C161.615 128.941 160.943 128.27 160.115 128.27H136.146C135.318 128.27 134.646 128.941 134.646 129.77V153.739C134.646 154.568 135.318 155.239 136.146 155.239H149.917C148.881 157.863 148.327 160.68 148.327 163.583V172.892H26.033ZM163.167 124.782C161.237 124.782 159.667 123.212 159.667 121.282V110.65C159.667 108.72 161.237 107.15 163.167 107.15H168.522V124.782H164.217H163.167ZM158.615 106.017C157.414 107.197 156.667 108.837 156.667 110.649V115.394H137.646V94.4236H158.615V106.017ZM171.522 107.149H180.351V124.781H171.522V107.149ZM198.878 104.149H177.908V94.4236H198.878V104.149ZM183.352 107.149H192.18V124.781H183.352V107.149ZM195.18 107.149H204.008V124.781H195.18V107.149ZM207.008 107.149H212.364C214.294 107.149 215.864 108.719 215.864 110.649V121.281C215.864 123.211 214.294 124.781 212.364 124.781H211.313H207.007L207.008 107.149ZM151.382 152.239H137.646V131.27H158.615V143.627C158.615 143.652 158.621 143.674 158.622 143.699C158.226 144.19 157.805 144.665 157.356 145.12L154.892 147.61C153.506 149.012 152.346 150.575 151.382 152.239ZM153.098 230.066C152.121 230.066 151.327 229.272 151.327 228.295V163.583C151.327 158.357 153.35 153.434 157.025 149.72L159.489 147.229C163.506 143.168 165.718 137.787 165.718 132.077V127.781H209.814V132.077C209.814 137.788 212.026 143.169 216.043 147.229L218.507 149.719C222.182 153.434 224.205 158.358 224.205 163.582V228.295C224.205 229.271 223.411 230.066 222.434 230.066H153.098Z" fill="#3F3679"/>
</svg>
