<svg width="256" height="256" viewBox="0 0 256 256" fill="none" xmlns="http://www.w3.org/2000/svg">
<path d="M151.001 216.87H67.4339C58.3299 216.87 50.95 209.49 50.95 200.386V29.7106C50.95 20.6066 58.3299 13.2266 67.4339 13.2266H151.001C160.105 13.2266 167.485 20.6066 167.485 29.7106V200.386C167.485 209.49 160.105 216.87 151.001 216.87Z" fill="#63BCE7"/>
<path d="M65.6159 200.386V29.7106C65.6159 20.6066 72.9959 13.2266 82.0999 13.2266H67.4339C58.3299 13.2266 50.95 20.6066 50.95 29.7106V200.385C50.95 209.489 58.3299 216.869 67.4339 216.869H82.0999C72.9959 216.87 65.6159 209.49 65.6159 200.386Z" fill="#6377E7"/>
<path d="M50.949 200.39C50.949 209.492 58.327 216.87 67.429 216.87H151.005C160.107 216.87 167.485 209.492 167.485 200.39V190.652H50.949V200.39Z" fill="#CECECE"/>
<path d="M65.616 200.39V190.652H50.949V200.39C50.949 209.492 58.327 216.87 67.429 216.87H82.096C72.994 216.87 65.616 209.491 65.616 200.39Z" fill="#AFAFAF"/>
<path d="M167.485 29.7066C167.485 20.6046 160.107 13.2266 151.005 13.2266H67.429C58.327 13.2266 50.949 20.6046 50.949 29.7066V39.4446H167.485V29.7066Z" fill="#CECECE"/>
<path d="M82.096 13.2266H67.429C58.327 13.2266 50.949 20.6046 50.949 29.7066V39.4446H65.616V29.7066C65.616 20.6046 72.994 13.2266 82.096 13.2266Z" fill="#AFAFAF"/>
<path d="M129.565 23.3906H88.365V29.2766H129.565V23.3906Z" fill="#F8AF23"/>
<path d="M108.671 209.217C111.434 209.217 113.674 206.977 113.674 204.214C113.674 201.451 111.434 199.211 108.671 199.211C105.908 199.211 103.668 201.451 103.668 204.214C103.668 206.977 105.908 209.217 108.671 209.217Z" fill="#F8AF23"/>
<path d="M70.652 181.06C67.447 181.06 64.825 178.438 64.825 175.233C64.825 172.028 67.447 169.406 70.652 169.406C73.857 169.406 76.479 172.028 76.479 175.233C76.478 178.438 73.856 181.06 70.652 181.06Z" fill="#9E9E9E"/>
<path d="M96.3619 181.06C93.1569 181.06 90.5349 178.438 90.5349 175.233C90.5349 172.028 93.1569 169.406 96.3619 169.406C99.5669 169.406 102.189 172.028 102.189 175.233C102.188 178.438 99.5669 181.06 96.3619 181.06Z" fill="#9E9E9E"/>
<path d="M122.072 181.06C118.867 181.06 116.245 178.438 116.245 175.233C116.245 172.028 118.867 169.406 122.072 169.406C125.277 169.406 127.899 172.028 127.899 175.233C127.899 178.438 125.277 181.06 122.072 181.06Z" fill="#9E9E9E"/>
<path d="M147.782 181.06C144.577 181.06 141.955 178.438 141.955 175.233C141.955 172.028 144.577 169.406 147.782 169.406C150.987 169.406 153.609 172.028 153.609 175.233C153.609 178.438 150.987 181.06 147.782 181.06Z" fill="#9E9E9E"/>
<path d="M167.467 52.7383V104.09L157.359 92.2323C153.168 87.3153 145.716 86.7213 140.799 90.9123C135.882 95.1033 135.288 102.555 139.479 107.472L162.473 134.448C162.473 134.448 155.61 163.41 173.7 179.958H224.842L220.308 117.742C219.764 111.996 216.221 107.136 212.618 103.116L167.467 52.7383Z" fill="#F8AF23"/>
<path d="M220.309 117.741C219.765 111.995 216.222 107.135 212.619 103.115L167.467 52.7383V69.1023L197.952 103.115C201.555 107.135 205.098 111.995 205.642 117.741L210.176 179.957H224.843L220.309 117.741Z" fill="#F8D323"/>
<path d="M235.277 179.957H155.775V216.87H235.277V179.957Z" fill="#707070"/>
<path d="M235.277 179.957H220.61V216.87H235.277V179.957Z" fill="#9E9E9E"/>
<path d="M235.277 216.871H155.775V231.799H235.277V216.871Z" fill="#CECECE"/>
<path d="M235.277 216.871H220.61V231.799H235.277V216.871Z" fill="#E2E2E2"/>
<path d="M174.616 205.178C178.351 205.178 181.379 202.15 181.379 198.415C181.379 194.68 178.351 191.652 174.616 191.652C170.881 191.652 167.853 194.68 167.853 198.415C167.853 202.15 170.881 205.178 174.616 205.178Z" fill="#63BCE7"/>
<path d="M109.218 151.222H109.216C98.33 151.222 89.506 142.398 89.506 131.512V98.585C89.506 87.699 98.33 78.875 109.216 78.875H109.218C120.104 78.875 128.928 87.699 128.928 98.585V131.512C128.928 142.397 120.104 151.222 109.218 151.222Z" fill="#F46275"/>
<path d="M128.928 98.586C128.928 87.7 120.103 78.875 109.217 78.875C98.331 78.875 89.506 87.7 89.506 98.586V115.048H128.928V98.586Z" fill="#F8AF23"/>
<path d="M50.949 93.082C57.0931 93.082 62.074 88.1012 62.074 81.957C62.074 75.8129 57.0931 70.832 50.949 70.832C44.8048 70.832 39.824 75.8129 39.824 81.957C39.824 88.1012 44.8048 93.082 50.949 93.082Z" fill="#F87023"/>
<path d="M71.8029 68.3139C67.8709 66.6579 65.3139 62.8069 65.3139 58.5409V44.0359C65.3139 36.1029 58.8829 29.6719 50.9499 29.6719C43.0169 29.6719 36.5859 36.1029 36.5859 44.0359V58.5409C36.5859 62.8079 34.0289 66.6589 30.0969 68.3139C27.4139 69.4439 25.6699 72.0709 25.6699 74.9819C25.6699 78.6719 28.6609 81.6629 32.3509 81.6629H50.9509H69.5509C73.2409 81.6629 76.2319 78.6719 76.2319 74.9819C76.2299 72.0719 74.4849 69.4439 71.8029 68.3139Z" fill="#F8AF23"/>
<path d="M40.3349 74.9829C40.3349 72.0719 42.0799 69.4449 44.7619 68.3149C48.6939 66.6589 51.2509 62.8079 51.2509 58.5419V44.0359C51.2509 38.7859 54.0769 34.2069 58.2819 31.7009C56.1329 30.4209 53.6309 29.6719 50.9489 29.6719C43.0159 29.6719 36.5849 36.1029 36.5849 44.0359V58.5409C36.5849 62.8079 34.0279 66.6589 30.0959 68.3139C27.4129 69.4439 25.6689 72.0709 25.6689 74.9819C25.6689 78.6719 28.6599 81.6629 32.3499 81.6629H47.0169C43.3259 81.6639 40.3349 78.6719 40.3349 74.9829Z" fill="#F87023"/>
<path d="M27.3229 241.27H9.31995C8.49095 241.27 7.81995 241.942 7.81995 242.77C7.81995 243.598 8.49095 244.27 9.31995 244.27H27.3229C28.1519 244.27 28.8229 243.598 28.8229 242.77C28.8229 241.942 28.1519 241.27 27.3229 241.27Z" fill="#3F3679"/>
<path d="M246.68 241.27H228.677C227.849 241.27 227.177 241.942 227.177 242.77C227.177 243.598 227.849 244.27 228.677 244.27H246.68C247.508 244.27 248.18 243.598 248.18 242.77C248.18 241.942 247.508 241.27 246.68 241.27Z" fill="#3F3679"/>
<path d="M218.479 241.27H37.521C36.692 241.27 36.021 241.942 36.021 242.77C36.021 243.598 36.692 244.27 37.521 244.27H218.48C219.308 244.27 219.98 243.598 219.98 242.77C219.98 241.942 219.308 241.27 218.479 241.27Z" fill="#3F3679"/>
<path d="M9.31995 233.299H155.776H235.278H246.68C247.508 233.299 248.18 232.627 248.18 231.799C248.18 230.971 247.508 230.299 246.68 230.299H236.778V216.87V179.957C236.778 179.129 236.106 178.457 235.278 178.457H226.238L221.802 117.6C221.194 111.172 217.172 105.948 213.737 102.115L168.986 52.1846V39.4446V29.7106V29.7066C168.986 19.7926 160.92 11.7266 151.006 11.7266H151.002H67.4289C58.2219 11.7266 50.6929 18.5086 49.5919 27.4546C49.5759 27.5796 49.5749 27.7086 49.5619 27.8346C49.5479 27.9706 49.5399 28.1086 49.5289 28.2456C41.4449 28.9676 35.0849 35.7696 35.0849 44.0376V58.5426C35.0849 62.2156 32.8979 65.5086 29.5139 66.9336C26.2669 68.3016 24.1689 71.4616 24.1689 74.9846C24.1689 79.4966 27.8389 83.1666 32.3499 83.1666H38.3859C38.9499 89.0666 43.5899 93.7866 49.4499 94.4846V200.386C49.4499 210.303 57.5179 218.37 67.4339 218.37H151.001C152.103 218.37 153.199 218.264 154.275 218.066V230.299H9.31995C8.49095 230.299 7.81995 230.971 7.81995 231.799C7.81995 232.627 8.49095 233.299 9.31995 233.299ZM233.777 215.37H157.275V181.457H173.7H224.843H233.778V215.37H233.777ZM52.4489 94.4836C58.3089 93.7856 62.9489 89.0656 63.5129 83.1656H69.549C74.06 83.1656 77.7299 79.4956 77.7299 74.9836C77.7299 71.4616 75.6319 68.3006 72.3849 66.9326C69.0009 65.5086 66.8139 62.2146 66.8139 58.5416V44.0376C66.8139 42.9786 66.705 41.9456 66.507 40.9446H165.986V52.6156C165.983 52.6566 165.967 52.6946 165.967 52.7366V100.016L158.501 91.2566C153.763 85.6976 145.385 85.0286 139.826 89.7686C134.266 94.5066 133.599 102.885 138.338 108.444L160.851 134.857C160.425 136.977 159.349 143.291 159.806 151.085C160.292 159.379 162.405 166.703 165.986 172.753V178.457H155.776C154.948 178.457 154.276 179.129 154.276 179.957V189.151H52.4489V94.4836ZM170.128 178.457H168.985V177.1C169.356 177.562 169.736 178.016 170.128 178.457ZM211.502 104.116C214.631 107.607 218.289 112.326 218.813 117.85L223.23 178.456H174.29C157.605 162.641 163.866 135.07 163.933 134.791C164.042 134.326 163.924 133.837 163.615 133.474L140.621 106.499C136.956 102.198 137.472 95.7176 141.771 92.0526C146.072 88.3866 152.551 88.9036 156.217 93.2026L166.324 105.061L185.517 127.578C185.814 127.927 186.235 128.105 186.66 128.105C187.004 128.105 187.349 127.987 187.632 127.747C188.263 127.21 188.338 126.263 187.801 125.633L168.966 103.537V103.308C168.974 103.247 168.985 103.187 168.985 103.124V56.6786L211.502 104.116ZM151.001 14.7266C159.264 14.7266 165.985 21.4486 165.985 29.7106V37.9446H65.5929C63.3939 32.6786 58.4369 28.8416 52.5349 28.2536C52.5359 28.2436 52.5359 28.2326 52.5369 28.2226C52.5499 28.0906 52.5519 27.9556 52.5679 27.8256C53.5049 20.4766 59.8769 14.7256 67.4289 14.7256L151.001 14.7266ZM27.1679 74.9836C27.1679 72.6706 28.5449 70.5956 30.6769 69.6986C35.1769 67.8036 38.0839 63.4256 38.0839 58.5426V44.0376C38.0839 36.9436 43.8549 31.1736 50.9479 31.1736C58.0409 31.1736 63.8119 36.9446 63.8119 44.0376V58.5426C63.8119 63.4256 66.7199 67.8046 71.2189 69.6986C73.3509 70.5956 74.7279 72.6716 74.7279 74.9836C74.7279 77.8406 72.4039 80.1656 69.5469 80.1656H32.3469C29.4929 80.1656 27.1679 77.8416 27.1679 74.9836ZM41.4089 83.1656H60.4899C59.8919 87.9036 55.8459 91.5816 50.9489 91.5816C46.0519 91.5816 42.0059 87.9036 41.4089 83.1656ZM67.4339 215.37C59.1719 215.37 52.4499 208.648 52.4499 200.386V192.152H154.276V215.004C153.206 215.243 152.108 215.37 151.002 215.37H67.4339ZM157.275 218.37H233.777V230.299H157.275V218.37Z" fill="#3F3679"/>
<path d="M88.365 30.7756H129.564C130.392 30.7756 131.064 30.1036 131.064 29.2756V23.3906C131.064 22.5626 130.392 21.8906 129.564 21.8906H88.365C87.536 21.8906 86.865 22.5626 86.865 23.3906V29.2756C86.865 30.1036 87.537 30.7756 88.365 30.7756ZM89.865 24.8916H128.064V27.7766H89.865V24.8916Z" fill="#3F3679"/>
<path d="M108.67 197.711C105.084 197.711 102.167 200.628 102.167 204.214C102.167 207.8 105.084 210.717 108.67 210.717C112.256 210.717 115.173 207.8 115.173 204.214C115.173 200.628 112.256 197.711 108.67 197.711ZM108.67 207.717C106.738 207.717 105.167 206.146 105.167 204.214C105.167 202.282 106.738 200.711 108.67 200.711C110.602 200.711 112.173 202.282 112.173 204.214C112.173 206.146 110.602 207.717 108.67 207.717Z" fill="#3F3679"/>
<path d="M70.652 167.91C66.612 167.91 63.325 171.196 63.325 175.236C63.325 179.276 66.612 182.563 70.652 182.563C74.692 182.563 77.9779 179.276 77.9779 175.236C77.9779 171.196 74.691 167.91 70.652 167.91ZM70.652 179.563C68.266 179.563 66.3249 177.622 66.3249 175.236C66.3249 172.85 68.266 170.91 70.652 170.91C73.037 170.91 74.9779 172.85 74.9779 175.236C74.9779 177.622 73.037 179.563 70.652 179.563Z" fill="#3F3679"/>
<path d="M96.3619 167.91C92.3219 167.91 89.0349 171.196 89.0349 175.236C89.0349 179.276 92.3219 182.563 96.3619 182.563C100.402 182.563 103.689 179.276 103.689 175.236C103.689 171.196 100.402 167.91 96.3619 167.91ZM96.3619 179.563C93.9759 179.563 92.0349 177.622 92.0349 175.236C92.0349 172.85 93.9759 170.91 96.3619 170.91C98.7479 170.91 100.689 172.85 100.689 175.236C100.689 177.622 98.7479 179.563 96.3619 179.563Z" fill="#3F3679"/>
<path d="M122.072 167.91C118.032 167.91 114.745 171.196 114.745 175.236C114.745 179.276 118.032 182.563 122.072 182.563C126.112 182.563 129.398 179.276 129.398 175.236C129.398 171.196 126.112 167.91 122.072 167.91ZM122.072 179.563C119.686 179.563 117.745 177.622 117.745 175.236C117.745 172.85 119.686 170.91 122.072 170.91C124.458 170.91 126.399 172.85 126.399 175.236C126.399 177.622 124.458 179.563 122.072 179.563Z" fill="#3F3679"/>
<path d="M155.109 175.236C155.109 171.196 151.822 167.91 147.782 167.91C143.742 167.91 140.456 171.196 140.456 175.236C140.456 179.276 143.742 182.563 147.782 182.563C151.822 182.563 155.109 179.276 155.109 175.236ZM147.782 179.563C145.396 179.563 143.456 177.622 143.456 175.236C143.456 172.85 145.396 170.91 147.782 170.91C150.168 170.91 152.109 172.85 152.109 175.236C152.109 177.622 150.168 179.563 147.782 179.563Z" fill="#3F3679"/>
<path d="M174.616 190.152C170.06 190.152 166.353 193.859 166.353 198.415C166.353 202.971 170.06 206.678 174.616 206.678C179.172 206.678 182.879 202.971 182.879 198.415C182.879 193.859 179.172 190.152 174.616 190.152ZM174.616 203.678C171.714 203.678 169.353 201.318 169.353 198.415C169.353 195.512 171.713 193.152 174.616 193.152C177.519 193.152 179.879 195.512 179.879 198.415C179.879 201.318 177.519 203.678 174.616 203.678Z" fill="#3F3679"/>
<path d="M114.807 78.147C113.696 77.843 112.557 77.604 111.382 77.485C111.13 77.459 110.871 77.463 110.617 77.446C110.152 77.415 109.689 77.375 109.217 77.375C97.522 77.375 88.007 86.89 88.007 98.585V115.049V131.512C88.007 143.207 97.522 152.722 109.217 152.722H109.219C120.914 152.722 130.428 143.207 130.428 131.512V115.059C130.428 115.056 130.429 115.053 130.429 115.049V98.586C130.429 94.2 129.091 90.121 126.801 86.735C123.997 82.588 119.756 79.503 114.807 78.147ZM100.963 82.374C103.444 81.106 106.245 80.375 109.218 80.375C119.259 80.375 127.428 88.544 127.428 98.586V113.549H91.006V98.586C91.006 91.517 95.063 85.39 100.963 82.374ZM109.218 149.722H109.216C99.175 149.722 91.006 141.553 91.006 131.512V116.549H127.428V131.512C127.428 141.553 119.259 149.722 109.218 149.722Z" fill="#3F3679"/>
<path d="M22.4209 47.2781L29.8419 51.9751C30.0909 52.1321 30.3679 52.2071 30.6429 52.2071C31.1399 52.2071 31.6259 51.9601 31.9119 51.5101C32.3549 50.8101 32.1469 49.8831 31.4469 49.4401L24.0259 44.7431C23.3259 44.3021 22.3999 44.5101 21.9559 45.2081C21.5129 45.9081 21.7209 46.8351 22.4209 47.2781Z" fill="#3F3679"/>
<path d="M20.7229 59.625H30.6439C31.4729 59.625 32.1439 58.953 32.1439 58.125C32.1439 57.297 31.4729 56.625 30.6439 56.625H20.7229C19.8939 56.625 19.2229 57.297 19.2229 58.125C19.2229 58.953 19.8949 59.625 20.7229 59.625Z" fill="#3F3679"/>
<path d="M71.2559 52.2071C71.5299 52.2071 71.8079 52.1321 72.0569 51.9751L79.4779 47.2781C80.1779 46.8351 80.3859 45.9081 79.9429 45.2081C79.4989 44.5101 78.5729 44.3021 77.8729 44.7431L70.4519 49.4401C69.7519 49.8831 69.5439 50.8101 69.9869 51.5101C70.2719 51.9601 70.7589 52.2071 71.2559 52.2071Z" fill="#3F3679"/>
<path d="M81.1749 56.625H71.2539C70.4249 56.625 69.7539 57.297 69.7539 58.125C69.7539 58.953 70.4249 59.625 71.2539 59.625H81.1749C82.0039 59.625 82.6749 58.953 82.6749 58.125C82.6749 57.297 82.0039 56.625 81.1749 56.625Z" fill="#3F3679"/>
</svg>
