<svg width="256" height="256" viewBox="0 0 256 256" fill="none" xmlns="http://www.w3.org/2000/svg">
<path d="M162.121 220.633C144.282 220.633 128.002 210.847 119.633 195.093L118.174 192.347C115.841 187.958 117.509 182.509 121.899 180.176C126.289 177.843 131.738 179.511 134.069 183.901L135.529 186.648C140.767 196.508 150.957 202.633 162.122 202.633C167.093 202.633 171.122 206.662 171.122 211.633C171.122 216.604 167.092 220.633 162.121 220.633Z" fill="#87796F"/>
<path d="M162.121 222.133C143.726 222.133 126.938 212.042 118.308 195.797L116.849 193.05C115.533 190.574 115.26 187.733 116.08 185.05C116.901 182.368 118.717 180.167 121.194 178.85C123.672 177.534 126.513 177.262 129.194 178.082C131.876 178.903 134.077 180.719 135.393 183.196L136.853 185.943C141.83 195.312 151.512 201.132 162.121 201.132C167.91 201.132 172.621 205.842 172.621 211.632C172.621 217.422 167.911 222.133 162.121 222.133ZM126.112 180.619C124.901 180.619 123.701 180.915 122.602 181.5C120.833 182.44 119.535 184.013 118.949 185.929C118.363 187.844 118.557 189.873 119.498 191.642L120.957 194.389C129.065 209.651 144.838 219.133 162.121 219.133C166.257 219.133 169.621 215.769 169.621 211.633C169.621 207.497 166.257 204.133 162.121 204.133C150.4 204.133 139.702 197.703 134.204 187.351L132.744 184.604C131.804 182.834 130.232 181.538 128.317 180.951C127.591 180.729 126.85 180.619 126.112 180.619Z" fill="#3A312A"/>
<path d="M40.6059 175.452C39.7789 180.225 39.2869 185.452 39.2259 190.957L39.9259 204.257C40.3089 208.103 40.9419 211.564 41.8299 214.635C42.0079 215.335 42.1869 216.033 42.3809 216.704C39.5569 219.17 37.8259 222.402 37.8259 225.952C37.8259 231.024 41.3259 235.469 46.5669 237.895C48.3369 238.72 50.3059 239.317 52.4039 239.625C53.5079 239.784 54.6409 239.874 55.8049 239.874C56.9679 239.874 58.1019 239.784 59.2059 239.625C61.3039 239.317 63.2729 238.72 65.0439 237.895C65.2469 237.801 65.4429 237.698 65.6409 237.598C72.5479 239.396 80.4309 239.874 88.8059 239.874C97.1799 239.874 105.064 239.396 111.971 237.598C112.169 237.698 112.364 237.801 112.568 237.895C114.338 238.72 116.307 239.317 118.405 239.625C119.509 239.784 120.642 239.874 121.806 239.874C122.97 239.874 124.103 239.784 125.207 239.625C127.305 239.317 129.274 238.72 131.045 237.895C136.286 235.469 139.786 231.023 139.786 225.952C139.786 222.402 138.056 219.17 135.231 216.704C135.424 216.034 135.603 215.336 135.781 214.637C136.739 211.323 137.414 207.577 137.783 203.36C138.179 199.788 138.403 196.035 138.403 192.142C138.403 175.752 134.652 161.578 129.193 154.739C120.274 136.385 105.516 124.375 88.8059 124.375C72.0959 124.375 57.3379 136.385 48.4189 154.738C47.2099 156.253 46.0899 158.145 45.0709 160.325L40.6059 175.452Z" fill="#87796F"/>
<path d="M121.807 241.374C120.626 241.374 119.41 241.285 118.192 241.11C115.984 240.785 113.88 240.161 111.934 239.254C111.889 239.233 111.844 239.212 111.799 239.19C105.741 240.699 98.6139 241.374 88.8069 241.374C78.9989 241.374 71.8709 240.699 65.8139 239.19C65.7689 239.212 65.7229 239.234 65.6759 239.255C63.7339 240.16 61.6299 240.784 59.4249 241.109C56.9799 241.461 54.6269 241.46 52.1909 241.11C49.9829 240.785 47.8789 240.161 45.9329 239.254C40.0079 236.511 36.3259 231.413 36.3259 225.951C36.3259 222.397 37.8689 218.974 40.6919 216.221C40.5839 215.819 40.4799 215.412 40.3759 215.004C39.4829 211.917 38.8249 208.335 38.4329 204.405L37.7269 191.035C37.7849 185.513 38.2569 180.215 39.1269 175.195C39.2689 174.379 40.0479 173.832 40.8609 173.973C41.6769 174.115 42.2239 174.891 42.0829 175.707C41.2399 180.569 40.7829 185.705 40.7249 190.972L41.4229 204.176C41.7909 207.856 42.4149 211.258 43.2699 214.216C43.4569 214.948 43.6319 215.63 43.8209 216.286C43.9819 216.846 43.8049 217.448 43.3669 217.831C40.7599 220.107 39.3249 222.99 39.3249 225.949C39.3249 230.228 42.3409 234.283 47.1969 236.531C48.8819 237.317 50.7059 237.857 52.6219 238.139C54.7649 238.447 56.8389 238.448 58.9929 238.138C60.9049 237.857 62.7289 237.317 64.4099 236.533C64.5529 236.467 64.6889 236.397 64.8259 236.327L64.9639 236.257C65.2909 236.092 65.6649 236.053 66.0179 236.144C71.9369 237.684 78.9649 238.371 88.8049 238.371C98.6449 238.371 105.673 237.684 111.592 236.144C111.947 236.052 112.321 236.092 112.647 236.257L112.777 236.323C112.916 236.394 113.054 236.465 113.197 236.531C114.881 237.316 116.705 237.857 118.621 238.138C120.764 238.446 122.838 238.447 124.992 238.137C126.904 237.856 128.728 237.316 130.409 236.532C135.268 234.282 138.284 230.227 138.284 225.948C138.284 222.989 136.849 220.106 134.242 217.83C133.804 217.447 133.626 216.844 133.787 216.285C133.976 215.63 134.151 214.948 134.325 214.264C135.277 210.97 135.932 207.271 136.287 203.224C136.695 199.535 136.901 195.817 136.901 192.137C136.901 176.744 133.415 162.43 128.019 155.67C127.95 155.584 127.891 155.49 127.842 155.39C118.86 136.906 104.266 125.87 88.8039 125.87C73.3419 125.87 58.7479 136.905 49.7659 155.389C49.7179 155.489 49.6589 155.582 49.5889 155.669C48.4829 157.055 47.4189 158.834 46.4269 160.956C46.0759 161.706 45.1839 162.031 44.4329 161.68C43.6829 161.329 43.3589 160.436 43.7089 159.686C44.7709 157.415 45.9239 155.48 47.1389 153.931C56.6409 134.478 72.2069 122.871 88.8029 122.871C105.399 122.871 120.965 134.478 130.468 153.932C136.289 161.345 139.901 175.958 139.901 192.138C139.901 195.928 139.69 199.758 139.272 203.521C138.904 207.727 138.213 211.617 137.22 215.05C137.124 215.429 137.023 215.823 136.918 216.219C139.74 218.972 141.283 222.395 141.283 225.949C141.283 231.411 137.6 236.509 131.672 239.254C129.731 240.159 127.627 240.783 125.422 241.107C124.204 241.285 122.988 241.374 121.807 241.374Z" fill="#3A312A"/>
<path d="M85.0179 192.145C85.0179 201.334 83.8349 209.816 81.8459 216.708C84.6699 219.174 86.4009 222.406 86.4009 225.956C86.4009 231.028 82.9009 235.473 77.6599 237.899C75.8899 238.724 73.9209 239.321 71.8219 239.629C70.7179 239.788 69.5839 239.878 68.4209 239.878C67.2579 239.878 66.1239 239.789 65.0199 239.629C62.9219 239.321 60.9529 238.724 59.1829 237.899C53.9419 235.473 50.4419 231.027 50.4419 225.956C50.4419 222.406 52.1719 219.174 54.9969 216.708C53.0079 209.816 51.8249 201.334 51.8249 192.145H85.0179Z" fill="#87796F"/>
<path d="M68.4209 241.376C67.2359 241.376 66.0199 241.287 64.8059 241.112C62.5979 240.787 60.4939 240.163 58.5489 239.256C52.6239 236.513 48.9419 231.415 48.9419 225.953C48.9419 222.4 50.4839 218.979 53.3039 216.226C51.3529 209.098 50.3239 200.795 50.3239 192.141C50.3239 191.312 50.9949 190.641 51.8239 190.641C52.6529 190.641 53.3239 191.312 53.3239 192.141C53.3239 200.882 54.4009 209.231 56.4379 216.288C56.5989 216.848 56.4219 217.451 55.9829 217.834C53.3769 220.109 51.9419 222.993 51.9419 225.952C51.9419 230.231 54.9579 234.286 59.8139 236.534C61.4989 237.32 63.3229 237.86 65.2389 238.142C67.3759 238.45 69.4619 238.451 71.6089 238.141C73.5209 237.86 75.3449 237.32 77.0259 236.536C81.8849 234.286 84.9009 230.231 84.9009 225.952C84.9009 222.993 83.4659 220.109 80.8599 217.834C80.4209 217.451 80.2439 216.848 80.4049 216.288C82.4419 209.23 83.5189 200.88 83.5189 192.141C83.5189 191.312 84.1899 190.641 85.0189 190.641C85.8479 190.641 86.5189 191.312 86.5189 192.141C86.5189 200.793 85.4899 209.096 83.5389 216.226C86.3599 218.978 87.9009 222.4 87.9009 225.953C87.9009 231.415 84.2179 236.513 78.2899 239.258C76.3489 240.163 74.2449 240.787 72.0399 241.111C70.8209 241.287 69.6049 241.376 68.4209 241.376Z" fill="#3A312A"/>
<path d="M92.5959 192.145C92.5959 201.334 93.7789 209.816 95.7679 216.708C92.9439 219.174 91.2129 222.406 91.2129 225.956C91.2129 231.028 94.7139 235.473 99.9539 237.899C101.724 238.724 103.693 239.321 105.791 239.629C106.895 239.788 108.029 239.878 109.192 239.878C110.355 239.878 111.489 239.789 112.593 239.629C114.691 239.321 116.66 238.724 118.43 237.899C123.671 235.473 127.171 231.027 127.171 225.956C127.171 222.406 125.441 219.174 122.616 216.708C124.605 209.816 125.788 201.334 125.788 192.145H92.5959Z" fill="#87796F"/>
<path d="M109.193 241.376C108.009 241.376 106.793 241.287 105.578 241.112C103.369 240.787 101.265 240.163 99.3209 239.256C93.3959 236.513 89.7139 231.415 89.7139 225.953C89.7139 222.401 91.2559 218.979 94.0759 216.226C92.1249 209.097 91.0959 200.793 91.0959 192.141C91.0959 191.312 91.7669 190.641 92.5959 190.641C93.4249 190.641 94.0959 191.312 94.0959 192.141C94.0959 200.88 95.1729 209.23 97.2099 216.288C97.3709 216.848 97.1939 217.451 96.7549 217.834C94.1489 220.11 92.7139 222.993 92.7139 225.952C92.7139 230.231 95.7299 234.286 100.586 236.534C102.27 237.32 104.095 237.86 106.011 238.142C108.149 238.449 110.235 238.45 112.381 238.141C114.293 237.86 116.117 237.32 117.798 236.536C122.657 234.286 125.673 230.231 125.673 225.952C125.673 222.993 124.238 220.11 121.631 217.834C121.193 217.451 121.015 216.848 121.176 216.288C123.213 209.231 124.289 200.881 124.289 192.141C124.289 191.312 124.96 190.641 125.789 190.641C126.618 190.641 127.289 191.312 127.289 192.141C127.289 200.794 126.26 209.097 124.309 216.226C127.129 218.978 128.671 222.4 128.671 225.953C128.671 231.415 124.988 236.513 119.06 239.258C117.118 240.163 115.014 240.787 112.81 241.111C111.594 241.287 110.377 241.376 109.193 241.376Z" fill="#3A312A"/>
<path d="M63.1918 36.9804C72.9438 54.7204 67.4118 67.1474 55.6998 73.5854C43.9878 80.0234 30.5318 78.0344 20.7798 60.2944C11.0278 42.5544 21.5218 18.0594 24.3288 16.5174C27.7598 14.6314 53.4408 19.2404 63.1918 36.9804Z" fill="#87796F"/>
<path d="M43.5929 78.4413C41.3649 78.4413 39.1759 78.1083 37.0539 77.4383C30.1789 75.2673 24.2619 69.7423 19.4669 61.0183C14.0219 51.1143 14.7809 39.7883 16.3769 32.0313C17.9919 24.1763 21.3039 16.4703 23.6069 15.2043C28.0239 12.7743 54.3839 17.8463 64.5059 36.2593C69.3009 44.9833 70.7949 52.9403 68.9439 59.9073C67.2939 66.1203 62.9639 71.3053 56.4229 74.9013C52.1459 77.2523 47.8019 78.4413 43.5929 78.4413ZM26.6049 17.6263C25.8449 17.6263 25.3099 17.6993 25.0519 17.8343C22.7769 19.4903 12.8389 42.7353 22.0959 59.5743C26.5069 67.5993 31.8439 72.6473 37.9579 74.5783C43.2869 76.2613 49.1719 75.4643 54.9779 72.2733C60.7839 69.0823 64.6109 64.5403 66.0449 59.1383C67.6909 52.9413 66.2889 45.7303 61.8769 37.7053C53.4389 22.3523 32.7249 17.6263 26.6049 17.6263Z" fill="#3A312A"/>
<path d="M53.1468 40.5082C58.6358 50.4932 55.5218 57.4872 48.9298 61.1112C42.3378 64.7352 34.7638 63.6152 29.2758 53.6302C23.7878 43.6452 29.6938 29.8592 31.2728 28.9902C33.2048 27.9292 47.6588 30.5232 53.1468 40.5082Z" fill="#F16C7A"/>
<path d="M42.1409 64.5124C36.6429 64.5124 31.6249 61.0184 27.9619 54.3544C24.8019 48.6044 25.2359 42.0654 26.1549 37.5914C27.0099 33.4364 28.8879 28.5914 30.5509 27.6774C32.4129 26.6534 37.5409 27.7034 41.4189 29.2104C45.6119 30.8394 51.2779 33.9964 54.4619 39.7874C59.7479 49.4034 57.9499 57.8664 49.6529 62.4274C47.1059 63.8264 44.5759 64.5124 42.1409 64.5124ZM32.0359 30.3094C30.4859 32.0344 25.7419 44.0854 30.5909 52.9084C35.1029 61.1164 41.3599 63.5614 48.2079 59.7974C55.0569 56.0324 56.3439 49.4394 51.8329 41.2314C46.8599 32.1864 34.0159 29.8914 32.0359 30.3094Z" fill="#3A312A"/>
<path d="M114.422 36.9804C104.67 54.7204 110.202 67.1474 121.914 73.5854C133.626 80.0234 147.082 78.0344 156.834 60.2944C166.586 42.5544 156.092 18.0594 153.285 16.5174C149.854 14.6314 124.173 19.2404 114.422 36.9804Z" fill="#87796F"/>
<path d="M133.909 78.4294C129.781 78.4294 125.5 77.2694 121.19 74.9004C107.089 67.1484 104.067 52.7034 113.107 36.2584C123.23 17.8444 149.591 12.7764 154.007 15.2034C157.504 17.1254 168.452 42.2724 158.148 61.0184C151.87 72.4364 143.289 78.4294 133.909 78.4294ZM115.736 37.7034C107.48 52.7234 109.995 65.3224 122.636 72.2714C135.276 79.2184 147.263 74.5914 155.519 59.5724C164.775 42.7354 154.837 19.4894 152.528 17.8114C150.225 16.6164 125.224 20.4444 115.736 37.7034Z" fill="#3A312A"/>
<path d="M124.467 40.5082C118.978 50.4932 122.092 57.4872 128.684 61.1112C135.276 64.7352 142.85 63.6152 148.338 53.6302C153.826 43.6452 147.92 29.8592 146.341 28.9902C144.409 27.9292 129.955 30.5232 124.467 40.5082Z" fill="#F16C7A"/>
<path d="M135.473 64.5126C133.037 64.5126 130.508 63.8266 127.961 62.4266C124.118 60.3146 121.571 57.2556 120.596 53.5816C119.51 49.4916 120.37 44.8496 123.153 39.7866C126.336 33.9966 132.002 30.8386 136.195 29.2096C140.075 27.7026 145.202 26.6546 147.063 27.6766C148.726 28.5906 150.605 33.4346 151.459 37.5906C152.379 42.0646 152.813 48.6046 149.652 54.3536C145.989 61.0176 140.97 64.5126 135.473 64.5126ZM144.975 30.2406C141.877 30.2406 130.414 32.8046 125.782 41.2326C123.383 45.5966 122.614 49.4926 123.495 52.8116C124.255 55.6746 126.299 58.0896 129.406 59.7976C136.256 63.5626 142.512 61.1156 147.023 52.9086C151.892 44.0516 147.093 31.9426 145.561 30.2896C145.427 30.2576 145.229 30.2406 144.975 30.2406Z" fill="#3A312A"/>
<path d="M88.8498 157.226C124.304 157.226 153.046 127.439 153.046 90.6951C153.046 53.951 124.304 24.1641 88.8498 24.1641C53.3953 24.1641 24.6538 53.951 24.6538 90.6951C24.6538 127.439 53.3953 157.226 88.8498 157.226Z" fill="#87796F"/>
<path d="M88.8508 158.725C52.6258 158.725 23.1548 128.206 23.1548 90.6941C23.1548 53.1821 52.6258 22.6641 88.8508 22.6641C125.076 22.6641 154.547 53.1821 154.547 90.6941C154.547 128.206 125.075 158.725 88.8508 158.725ZM88.8508 25.6641C54.2798 25.6641 26.1548 54.8361 26.1548 90.6941C26.1548 126.552 54.2798 155.725 88.8508 155.725C123.422 155.725 151.547 126.552 151.547 90.6941C151.547 54.8361 123.421 25.6641 88.8508 25.6641Z" fill="#3A312A"/>
<path d="M76.5179 25.3984V42.5084C76.5179 45.5554 74.0479 48.0254 71.0009 48.0254C67.9539 48.0254 65.4839 45.5554 65.4839 42.5084V28.7094C69.0209 27.2744 72.7079 26.1584 76.5179 25.3984Z" fill="#FAE6CA"/>
<path d="M71.0009 49.5247C67.1319 49.5247 63.9839 46.3767 63.9839 42.5077V28.7087C63.9839 28.0977 64.3539 27.5477 64.9199 27.3187C68.5809 25.8347 72.3839 24.6937 76.2249 23.9267C76.6649 23.8407 77.1219 23.9527 77.4699 24.2387C77.8179 24.5237 78.0189 24.9487 78.0189 25.3987V42.5087C78.0179 46.3767 74.8699 49.5247 71.0009 49.5247ZM66.9839 29.7277V42.5077C66.9839 44.7227 68.7859 46.5247 71.0009 46.5247C73.2159 46.5247 75.0179 44.7227 75.0179 42.5077V27.2557C72.2969 27.8867 69.6049 28.7157 66.9839 29.7277Z" fill="#3A312A"/>
<path d="M94.368 24.4111V50.4521C94.368 53.4991 91.898 55.9691 88.851 55.9691C85.804 55.9691 83.334 53.4991 83.334 50.4521V24.4111C85.151 24.2491 86.995 24.1641 88.851 24.1641C90.707 24.1641 92.55 24.2481 94.368 24.4111Z" fill="#FAE6CA"/>
<path d="M88.851 57.4712C84.982 57.4712 81.834 54.3232 81.834 50.4542V24.4132C81.834 23.6362 82.427 22.9882 83.201 22.9192C86.958 22.5842 90.745 22.5842 94.502 22.9192C95.275 22.9882 95.869 23.6362 95.869 24.4132V50.4542C95.868 54.3232 92.72 57.4712 88.851 57.4712ZM84.833 25.8002V50.4532C84.833 52.6682 86.635 54.4702 88.85 54.4702C91.065 54.4702 92.867 52.6682 92.867 50.4532V25.8002C90.185 25.6222 87.516 25.6222 84.833 25.8002Z" fill="#3A312A"/>
<path d="M112.217 28.7084V42.9884C112.217 46.0354 109.747 48.5054 106.7 48.5054C103.653 48.5054 101.183 46.0354 101.183 42.9884V25.3984C104.993 26.1574 108.68 27.2734 112.217 28.7084Z" fill="#FAE6CA"/>
<path d="M106.7 50.0056C102.831 50.0056 99.6829 46.8576 99.6829 42.9886V25.3986C99.6829 24.9496 99.8839 24.5236 100.232 24.2386C100.579 23.9536 101.035 23.8406 101.477 23.9266C105.317 24.6926 109.12 25.8336 112.781 27.3186C113.347 27.5476 113.718 28.0976 113.718 28.7086V42.9886C113.717 46.8576 110.569 50.0056 106.7 50.0056ZM102.683 27.2566V42.9886C102.683 45.2036 104.485 47.0056 106.7 47.0056C108.915 47.0056 110.717 45.2036 110.717 42.9886V29.7286C108.095 28.7156 105.403 27.8876 102.683 27.2566Z" fill="#3A312A"/>
<path d="M98.2418 101.792C98.2278 105.023 93.8388 110.224 88.4528 110.201C83.0668 110.177 78.7238 104.938 78.7388 101.707C78.7528 98.4756 83.1308 95.8746 88.5158 95.8986C93.9018 95.9216 98.2558 98.5606 98.2418 101.792Z" fill="#3A312A"/>
<path d="M75.0348 122.248C66.7888 122.248 60.0798 115.539 60.0798 107.293C60.0798 106.464 60.7508 105.793 61.5798 105.793C62.4088 105.793 63.0798 106.464 63.0798 107.293C63.0798 113.885 68.4428 119.248 75.0348 119.248C75.4758 119.248 75.8928 119.225 76.2738 119.18C82.3928 118.543 86.9898 113.434 86.9898 107.293C86.9898 106.464 87.6608 105.793 88.4898 105.793C89.3188 105.793 89.9898 106.464 89.9898 107.293C89.9898 114.975 84.2368 121.367 76.6068 122.161C76.1308 122.218 75.5938 122.248 75.0348 122.248Z" fill="#3A312A"/>
<path d="M101.946 122.248C101.387 122.248 100.851 122.218 100.352 122.158C92.745 121.367 86.991 114.975 86.991 107.293C86.991 106.464 87.662 105.793 88.491 105.793C89.32 105.793 89.991 106.464 89.991 107.293C89.991 113.434 94.588 118.542 100.685 119.177C101.089 119.225 101.506 119.248 101.946 119.248C108.538 119.248 113.902 113.885 113.902 107.293C113.902 106.464 114.573 105.793 115.402 105.793C116.231 105.793 116.902 106.464 116.902 107.293C116.901 115.539 110.192 122.248 101.946 122.248Z" fill="#3A312A"/>
<path d="M73.4518 84.7392C73.4518 87.7992 70.9708 90.2792 67.9118 90.2792C64.8518 90.2792 62.3718 87.7992 62.3718 84.7392C62.3718 81.6792 64.8528 79.1992 67.9118 79.1992C70.9718 79.1992 73.4518 81.6792 73.4518 84.7392Z" fill="#3A312A"/>
<path d="M114.61 84.7392C114.61 87.7992 112.13 90.2792 109.07 90.2792C106.01 90.2792 103.53 87.7992 103.53 84.7392C103.53 81.6792 106.011 79.1992 109.07 79.1992C112.129 79.1992 114.61 81.6792 114.61 84.7392Z" fill="#3A312A"/>
<path d="M146.269 107.094H123.386C122.557 107.094 121.886 106.423 121.886 105.594C121.886 104.765 122.557 104.094 123.386 104.094H146.269C147.098 104.094 147.769 104.765 147.769 105.594C147.769 106.423 147.098 107.094 146.269 107.094Z" fill="#3A312A"/>
<path d="M141.921 122.612C141.697 122.612 141.469 122.562 141.255 122.455L121.786 112.794C121.044 112.426 120.741 111.525 121.109 110.784C121.477 110.041 122.379 109.737 123.119 110.107L142.588 119.768C143.33 120.136 143.633 121.037 143.265 121.778C143.003 122.306 142.473 122.612 141.921 122.612Z" fill="#3A312A"/>
<path d="M54.3149 107.094H31.4319C30.6029 107.094 29.9319 106.423 29.9319 105.594C29.9319 104.765 30.6029 104.094 31.4319 104.094H54.3149C55.1439 104.094 55.8149 104.765 55.8149 105.594C55.8149 106.423 55.1439 107.094 54.3149 107.094Z" fill="#3A312A"/>
<path d="M35.7798 122.611C35.2278 122.611 34.6968 122.305 34.4348 121.777C34.0668 121.035 34.3698 120.135 35.1118 119.767L54.5808 110.106C55.3218 109.737 56.2228 110.041 56.5908 110.783C56.9588 111.525 56.6558 112.425 55.9138 112.793L36.4448 122.454C36.2318 122.561 36.0038 122.611 35.7798 122.611Z" fill="#3A312A"/>
<path d="M55.2468 101.241C55.0228 101.241 54.7948 101.191 54.5808 101.084L35.1118 91.4227C34.3698 91.0547 34.0668 90.1537 34.4348 89.4127C34.8038 88.6697 35.7048 88.3657 36.4448 88.7357L55.9138 98.3967C56.6558 98.7647 56.9588 99.6657 56.5908 100.407C56.3298 100.935 55.7988 101.241 55.2468 101.241Z" fill="#3A312A"/>
<path d="M122.454 101.24C121.902 101.24 121.372 100.934 121.109 100.406C120.741 99.6643 121.044 98.7643 121.786 98.3963L141.255 88.7353C141.996 88.3663 142.897 88.6693 143.265 89.4123C143.633 90.1543 143.33 91.0543 142.588 91.4223L123.119 101.083C122.905 101.189 122.678 101.24 122.454 101.24Z" fill="#3A312A"/>
<path d="M197.695 25.8008C197.695 25.8008 201.103 38.4598 210.917 39.0468C210.917 39.0468 197.817 43.5718 197.596 53.2488C197.596 53.2488 195.017 39.6768 184.671 39.1898C184.671 39.1898 196.721 37.3648 197.695 25.8008Z" fill="#D7E057"/>
<path d="M197.595 54.7505C196.882 54.7505 196.26 54.2445 196.123 53.5335C196.099 53.4095 193.628 41.1165 184.601 40.6915C183.831 40.6545 183.213 40.0405 183.173 39.2705C183.133 38.4995 183.684 37.8255 184.446 37.7095C184.887 37.6405 195.34 35.8915 196.2 25.6765C196.261 24.9515 196.834 24.3755 197.559 24.3095C198.297 24.2525 198.952 24.7085 199.143 25.4115C199.175 25.5275 202.402 37.0375 211.006 37.5515C211.72 37.5945 212.304 38.1355 212.402 38.8435C212.5 39.5515 212.083 40.2315 211.408 40.4665C211.287 40.5085 199.29 44.7775 199.095 53.2855C199.077 54.0525 198.485 54.6815 197.721 54.7445C197.679 54.7495 197.637 54.7505 197.595 54.7505ZM189.854 39.0215C193.732 40.9905 196.084 44.7675 197.441 47.8975C199.467 43.8765 203.382 41.1105 206.39 39.4705C202.256 37.6285 199.607 33.8195 198.056 30.7485C196.263 35.1075 192.785 37.6165 189.854 39.0215Z" fill="#3A312A"/>
<path d="M175.997 42.7812C175.997 42.7812 178.408 51.7352 185.349 52.1512C185.349 52.1512 176.083 55.3522 175.927 62.1962C175.927 62.1962 174.103 52.5962 166.785 52.2522C166.785 52.2522 175.308 50.9613 175.997 42.7812Z" fill="#D7E057"/>
<path d="M175.925 63.6963C175.212 63.6963 174.588 63.1893 174.453 62.4763C174.437 62.3943 172.749 54.0343 166.714 53.7513C165.943 53.7153 165.326 53.1003 165.286 52.3303C165.246 51.5593 165.797 50.8853 166.559 50.7693C166.855 50.7223 173.923 49.5263 174.501 42.6553C174.562 41.9293 175.136 41.3523 175.862 41.2873C176.583 41.2223 177.255 41.6883 177.444 42.3913C177.486 42.5413 179.698 50.3113 185.438 50.6543C186.152 50.6973 186.737 51.2383 186.834 51.9473C186.932 52.6563 186.514 53.3353 185.838 53.5693C185.757 53.5973 177.556 56.5213 177.425 62.2303C177.407 62.9973 176.814 63.6273 176.049 63.6913C176.008 63.6953 175.966 63.6963 175.925 63.6963ZM171.407 52.1693C173.514 53.5023 174.93 55.5633 175.854 57.4493C177.23 55.2173 179.369 53.5773 181.219 52.4773C178.932 51.2073 177.335 49.1263 176.278 47.2533C175.103 49.5393 173.262 51.1273 171.407 52.1693Z" fill="#3A312A"/>
<path d="M175.997 16.125C175.997 16.125 178.408 25.079 185.349 25.495C185.349 25.495 176.083 28.696 175.927 35.54C175.927 35.54 174.103 25.94 166.785 25.596C166.785 25.596 175.308 24.304 175.997 16.125Z" fill="#D7E057"/>
<path d="M175.925 37.0407C175.212 37.0407 174.588 36.5337 174.453 35.8207C174.437 35.7387 172.749 27.3787 166.714 27.0947C165.943 27.0577 165.326 26.4437 165.286 25.6737C165.246 24.9027 165.797 24.2287 166.559 24.1137C166.855 24.0667 173.923 22.8707 174.501 15.9997C174.562 15.2737 175.136 14.6967 175.861 14.6317C176.591 14.5627 177.253 15.0307 177.443 15.7327C177.464 15.8117 179.671 23.6527 185.437 23.9977C186.151 24.0407 186.736 24.5817 186.833 25.2907C186.931 25.9997 186.513 26.6787 185.837 26.9127C185.756 26.9407 177.555 29.8647 177.424 35.5747C177.406 36.3417 176.813 36.9717 176.048 37.0357C176.008 37.0397 175.966 37.0407 175.925 37.0407ZM171.406 25.5127C173.513 26.8457 174.929 28.9077 175.853 30.7927C177.229 28.5607 179.368 26.9207 181.218 25.8207C178.931 24.5517 177.334 22.4707 176.277 20.5967C175.103 22.8827 173.262 24.4717 171.406 25.5127Z" fill="#3A312A"/>
<path d="M163.097 125.603L155.217 128.322C155.217 128.322 153.432 138.805 153.432 144.388C153.432 175.379 178.006 199.853 196.358 199.853C214.71 199.853 239.284 175.378 239.284 144.388C239.284 138.806 237.498 128.322 237.498 128.322L196.357 114.125L177.849 120.512L163.097 125.603Z" fill="#8BC0D7"/>
<path d="M196.358 201.353C176.36 201.353 151.932 175.067 151.932 144.388C151.932 138.743 153.665 128.503 153.739 128.07C153.831 127.53 154.21 127.083 154.728 126.904L162.608 124.185C163.392 123.915 164.244 124.331 164.515 125.114C164.785 125.897 164.369 126.751 163.586 127.021L156.552 129.448C156.131 132.064 154.931 139.92 154.931 144.388C154.931 175.693 179.676 198.353 196.357 198.353C213.039 198.353 237.783 175.693 237.783 144.388C237.783 139.917 236.583 132.064 236.162 129.448L196.357 115.712L178.338 121.93C177.553 122.198 176.701 121.784 176.431 121.001C176.161 120.218 176.577 119.364 177.36 119.094L195.868 112.707C196.185 112.598 196.529 112.598 196.847 112.707L237.988 126.904C238.506 127.083 238.885 127.53 238.977 128.07C239.051 128.503 240.784 138.743 240.784 144.388C240.784 158.984 235.48 173.304 225.849 184.71C217.049 195.131 206.025 201.353 196.358 201.353Z" fill="#3A312A"/>
<path d="M223.719 161.462C226.192 146.357 215.952 132.107 200.847 129.634C185.742 127.161 171.492 137.401 169.019 152.506C166.545 167.61 176.785 181.861 191.89 184.334C206.995 186.807 221.245 176.567 223.719 161.462Z" fill="#D6DF58"/>
<path d="M196.358 186.202C180.25 186.202 167.145 173.097 167.145 156.99C167.145 140.882 180.25 127.777 196.358 127.777C212.466 127.777 225.57 140.882 225.57 156.99C225.57 173.097 212.466 186.202 196.358 186.202ZM196.358 130.776C181.904 130.776 170.145 142.535 170.145 156.989C170.145 171.443 181.904 183.201 196.358 183.201C210.812 183.201 222.57 171.442 222.57 156.989C222.57 142.536 210.811 130.776 196.358 130.776Z" fill="#3A312A"/>
<path d="M192.107 169.573C191.129 169.573 190.151 169.223 189.375 168.525L178.748 158.961C177.071 157.452 176.936 154.87 178.444 153.193C179.953 151.517 182.535 151.38 184.212 152.89L192.123 160.01L208.521 145.434C210.207 143.935 212.789 144.088 214.286 145.773C215.785 147.459 215.633 150.04 213.947 151.539L194.819 168.541C194.047 169.23 193.077 169.573 192.107 169.573Z" fill="#FAE6CA"/>
<path d="M192.107 171.077C190.725 171.077 189.398 170.568 188.371 169.643L177.744 160.079C175.455 158.019 175.269 154.482 177.329 152.193C178.328 151.085 179.697 150.431 181.186 150.353C182.679 150.273 184.107 150.781 185.215 151.779L192.129 158.002L207.524 144.318C208.639 143.326 210.074 142.827 211.562 142.917C213.051 143.005 214.417 143.667 215.407 144.782C216.398 145.896 216.895 147.33 216.808 148.819C216.721 150.308 216.058 151.673 214.943 152.664L195.816 169.667C194.793 170.576 193.476 171.077 192.107 171.077ZM181.484 153.346C181.438 153.346 181.391 153.347 181.345 153.349C180.656 153.386 180.022 153.688 179.56 154.201C178.607 155.26 178.693 156.897 179.752 157.85L190.379 167.414C191.324 168.265 192.872 168.27 193.824 167.424L212.952 150.421C213.468 149.963 213.774 149.331 213.815 148.642C213.856 147.953 213.626 147.29 213.167 146.774C212.708 146.257 212.077 145.951 211.388 145.91C210.697 145.87 210.035 146.099 209.519 146.558L193.121 161.134C192.55 161.641 191.689 161.639 191.121 161.128L183.209 154.008C182.73 153.578 182.123 153.346 181.484 153.346Z" fill="#3A312A"/>
<path d="M138.282 225.957C138.282 230.237 135.272 234.287 130.412 236.537C128.732 237.327 126.902 237.867 124.992 238.147C123.582 238.347 122.192 238.407 120.802 238.337C125.702 235.457 128.672 230.857 128.672 225.957C128.672 222.407 127.132 218.977 124.312 216.227C126.262 209.097 127.292 200.797 127.292 192.147C127.292 191.317 126.622 190.647 125.792 190.647C124.962 190.647 124.292 191.317 124.292 192.147C124.292 200.887 123.212 209.237 121.172 216.287C121.012 216.847 121.192 217.457 121.632 217.837C124.242 220.117 125.672 222.997 125.672 225.957C125.672 230.237 122.652 234.287 117.802 236.537C116.112 237.327 114.292 237.867 112.382 238.147C110.882 238.367 109.422 238.427 107.942 238.347C108.622 238.307 109.302 238.247 109.992 238.147C111.902 237.867 113.732 237.327 115.412 236.537C120.272 234.287 123.282 230.237 123.282 225.957C123.282 222.997 121.852 220.107 119.242 217.837C118.802 217.457 118.632 216.847 118.792 216.287C118.982 215.637 119.152 214.957 119.332 214.267C120.282 210.977 120.932 207.277 121.292 203.227C121.702 199.547 121.902 195.827 121.902 192.147C121.902 176.747 118.422 162.437 113.022 155.677C112.952 155.587 112.892 155.497 112.842 155.397C112.652 155.007 112.462 154.627 112.262 154.247C116.332 152.627 120.202 150.607 123.842 148.227C125.272 150.477 126.612 152.867 127.842 155.397C127.892 155.497 127.952 155.587 128.022 155.677C133.422 162.437 136.902 176.747 136.902 192.147C136.902 195.827 136.702 199.547 136.292 203.227C135.932 207.277 135.282 210.977 134.332 214.267C134.152 214.957 133.982 215.637 133.792 216.287C133.632 216.847 133.802 217.457 134.242 217.837C136.852 220.107 138.282 222.997 138.282 225.957Z" fill="#695B51"/>
</svg>
