<svg width="256" height="256" viewBox="0 0 256 256" fill="none" xmlns="http://www.w3.org/2000/svg">
<path d="M41.555 184.453H36.213C31.096 184.453 26.948 188.601 26.948 193.717V213.578C26.948 228.043 38.674 239.769 53.139 239.769C67.604 239.769 79.33 228.043 79.33 213.578V184.453H56.31H41.555Z" fill="#87796F"/>
<path d="M53.1409 241.27C37.8719 241.27 25.45 228.848 25.45 213.578V193.718C25.45 187.782 30.279 182.953 36.215 182.953H41.5569C42.3849 182.953 43.0569 183.624 43.0569 184.453C43.0569 185.282 42.3849 185.953 41.5569 185.953H36.215C31.934 185.953 28.45 189.436 28.45 193.718V213.578C28.45 227.193 39.5259 238.27 53.1399 238.27C66.7549 238.27 77.832 227.193 77.832 213.578V185.953H56.31C55.482 185.953 54.81 185.282 54.81 184.453C54.81 183.624 55.482 182.953 56.31 182.953H79.331C80.159 182.953 80.831 183.624 80.831 184.453V213.578C80.831 228.847 68.4089 241.27 53.1409 241.27Z" fill="#3A312A"/>
<path d="M100.648 16.2344C88.8751 16.2344 79.3311 25.7784 79.3311 37.5514V213.581C79.3311 220.81 76.3961 227.354 71.6621 232.098C68.2021 235.549 63.7861 238.042 58.8451 239.13L58.451 239.768H215.036C226.568 239.768 235.916 230.42 235.916 218.888V37.5514C235.916 25.7784 226.372 16.2344 214.599 16.2344H100.648Z" fill="#FCE8CB"/>
<path d="M215.037 241.268H58.452C57.908 241.268 57.407 240.974 57.142 240.499C56.876 240.024 56.889 239.443 57.175 238.981L57.568 238.342C57.781 237.996 58.126 237.752 58.522 237.665C63.084 236.661 67.26 234.369 70.601 231.036C75.262 226.367 77.831 220.166 77.831 213.581V37.5514C77.831 24.9704 88.066 14.7344 100.647 14.7344H214.6C227.182 14.7344 237.417 24.9704 237.417 37.5514V218.887C237.417 231.228 227.377 241.268 215.037 241.268ZM65.68 238.268H215.037C225.724 238.268 234.417 229.574 234.417 218.888V37.5514C234.417 26.6244 225.527 17.7344 214.6 17.7344H100.648C89.721 17.7344 80.832 26.6244 80.832 37.5514V213.581C80.832 220.967 77.952 227.919 72.724 233.158C70.638 235.238 68.261 236.958 65.68 238.268Z" fill="#3A312A"/>
<path d="M100.648 16.2344C88.8751 16.2344 79.3311 25.7784 79.3311 37.5514V213.581C79.3311 220.81 76.3961 227.354 71.6621 232.098C68.2021 235.549 63.7861 238.042 58.8451 239.13L58.451 239.768H215.036C226.568 239.768 235.916 230.42 235.916 218.888V37.5514C235.916 25.7784 226.372 16.2344 214.599 16.2344H100.648Z" fill="#FCE8CB"/>
<path d="M215.037 241.268H58.452C57.908 241.268 57.407 240.974 57.142 240.499C56.876 240.024 56.889 239.443 57.175 238.981L57.568 238.342C57.781 237.996 58.126 237.752 58.522 237.665C63.084 236.661 67.26 234.369 70.601 231.036C75.262 226.367 77.831 220.166 77.831 213.581V37.5514C77.831 24.9704 88.066 14.7344 100.647 14.7344H214.6C227.182 14.7344 237.417 24.9704 237.417 37.5514V218.887C237.417 231.228 227.377 241.268 215.037 241.268ZM65.68 238.268H215.037C225.724 238.268 234.417 229.574 234.417 218.888V37.5514C234.417 26.6244 225.527 17.7344 214.6 17.7344H100.648C89.721 17.7344 80.832 26.6244 80.832 37.5514V213.581C80.832 220.967 77.952 227.919 72.724 233.158C70.638 235.238 68.261 236.958 65.68 238.268Z" fill="#3A312A"/>
<path d="M214.603 17.7344H199.603C210.523 17.7344 219.413 26.6244 219.413 37.5544V218.884C219.413 229.574 210.723 238.264 200.033 238.264H215.033C225.723 238.264 234.413 229.574 234.413 218.884V37.5554C234.413 26.6254 225.523 17.7344 214.603 17.7344Z" fill="#DBC7AA"/>
<path d="M51.16 26.1367C51.16 26.1367 54.57 38.7957 64.389 39.3827C64.389 39.3827 51.282 43.9077 51.061 53.5847C51.061 53.5847 48.481 40.0127 38.129 39.5257C38.129 39.5257 50.186 37.7007 51.16 26.1367Z" fill="#D6DF58"/>
<path d="M51.06 55.0833C50.347 55.0833 49.725 54.5773 49.587 53.8663C49.564 53.7423 47.0919 41.4493 38.0589 41.0243C37.2879 40.9873 36.671 40.3733 36.631 39.6033C36.591 38.8323 37.142 38.1583 37.904 38.0423C38.345 37.9733 48.804 36.2253 49.665 26.0093C49.727 25.2843 50.2999 24.7083 51.0239 24.6423C51.7559 24.5803 52.417 25.0423 52.608 25.7433C52.639 25.8593 55.8689 37.3693 64.4779 37.8843C65.1919 37.9273 65.776 38.4683 65.874 39.1763C65.972 39.8843 65.5549 40.5643 64.8799 40.7993C64.7589 40.8413 52.755 45.1093 52.561 53.6183C52.544 54.3853 51.951 55.0143 51.186 55.0773C51.144 55.0813 51.102 55.0833 51.06 55.0833ZM43.314 39.3533C47.195 41.3233 49.547 45.1013 50.905 48.2313C52.932 44.2093 56.85 41.4433 59.859 39.8033C55.722 37.9603 53.072 34.1503 51.52 31.0793C49.727 35.4393 46.247 37.9483 43.314 39.3533Z" fill="#3A312A"/>
<path d="M29.45 43.1172C29.45 43.1172 31.862 52.0712 38.807 52.4862C38.807 52.4862 29.536 55.6872 29.38 62.5312C29.38 62.5312 27.555 52.9312 20.233 52.5872C20.233 52.5872 28.761 51.2962 29.45 43.1172Z" fill="#D6DF58"/>
<path d="M29.379 64.0331C28.665 64.0331 28.042 63.5261 27.906 62.8131C27.89 62.7311 26.202 54.3711 20.163 54.0871C19.392 54.0501 18.775 53.4361 18.735 52.6661C18.695 51.8951 19.246 51.2211 20.008 51.1051C20.304 51.0581 27.375 49.8621 27.954 42.9911C28.016 42.2651 28.59 41.6881 29.315 41.6231C30.032 41.5591 30.707 42.0221 30.896 42.7251C30.918 42.8041 33.126 50.6441 38.895 50.9901C39.609 51.0331 40.194 51.5741 40.292 52.2831C40.389 52.9921 39.972 53.6711 39.295 53.9051C39.214 53.9331 31.009 56.8581 30.879 62.5671C30.861 63.3341 30.268 63.9641 29.503 64.0281C29.462 64.0321 29.42 64.0331 29.379 64.0331ZM24.857 52.5051C26.965 53.8381 28.382 55.9001 29.306 57.7861C30.683 55.5531 32.824 53.9131 34.674 52.8131C32.386 51.5431 30.787 49.4621 29.73 47.5881C28.557 49.8751 26.714 51.4641 24.857 52.5051Z" fill="#3A312A"/>
<path d="M29.45 16.4609C29.45 16.4609 31.862 25.4149 38.807 25.8309C38.807 25.8309 29.536 29.0319 29.38 35.8759C29.38 35.8759 27.555 26.2759 20.233 25.9319C20.233 25.9319 28.761 24.6399 29.45 16.4609Z" fill="#D6DF58"/>
<path d="M29.379 37.3728C28.665 37.3728 28.042 36.8658 27.906 36.1528C27.89 36.0708 26.202 27.7108 20.163 27.4268C19.392 27.3898 18.775 26.7758 18.735 26.0058C18.695 25.2348 19.246 24.5608 20.008 24.4448C20.304 24.3978 27.375 23.2018 27.954 16.3308C28.016 15.6048 28.59 15.0278 29.315 14.9628C30.032 14.8998 30.707 15.3618 30.896 16.0638C30.918 16.1428 33.126 23.9838 38.895 24.3288C39.609 24.3718 40.194 24.9138 40.292 25.6218C40.389 26.3318 39.972 27.0098 39.295 27.2438C39.215 27.2718 31.009 30.1968 30.879 35.9058C30.861 36.6728 30.268 37.3028 29.503 37.3668C29.462 37.3708 29.42 37.3728 29.379 37.3728ZM24.857 25.8448C26.965 27.1778 28.382 29.2398 29.306 31.1258C30.683 28.8938 32.824 27.2528 34.674 26.1518C32.386 24.8818 30.787 22.8008 29.73 20.9268C28.557 23.2138 26.714 24.8038 24.857 25.8448Z" fill="#3A312A"/>
<path d="M214.102 103.145H100.964C100.136 103.145 99.464 102.474 99.464 101.645C99.464 100.816 100.136 100.145 100.964 100.145H214.103C214.931 100.145 215.603 100.816 215.603 101.645C215.603 102.474 214.931 103.145 214.102 103.145Z" fill="#3A312A"/>
<path d="M214.102 129.297H100.964C100.136 129.297 99.464 128.626 99.464 127.797C99.464 126.968 100.136 126.297 100.964 126.297H214.103C214.931 126.297 215.603 126.968 215.603 127.797C215.602 128.625 214.931 129.297 214.102 129.297Z" fill="#3A312A"/>
<path d="M214.102 155.445H100.964C100.136 155.445 99.464 154.774 99.464 153.945C99.464 153.116 100.136 152.445 100.964 152.445H214.103C214.931 152.445 215.603 153.116 215.603 153.945C215.603 154.774 214.931 155.445 214.102 155.445Z" fill="#3A312A"/>
<path d="M214.102 181.594H100.964C100.136 181.594 99.464 180.923 99.464 180.094C99.464 179.265 100.136 178.594 100.964 178.594H214.103C214.931 178.594 215.603 179.265 215.603 180.094C215.603 180.923 214.931 181.594 214.102 181.594Z" fill="#3A312A"/>
<path d="M214.102 207.742H100.964C100.136 207.742 99.464 207.071 99.464 206.242C99.464 205.413 100.136 204.742 100.964 204.742H214.103C214.931 204.742 215.603 205.413 215.603 206.242C215.602 207.07 214.931 207.742 214.102 207.742Z" fill="#3A312A"/>
<path d="M27.972 103.99C23.017 110.709 20.084 119.011 20.084 128C20.084 150.367 38.216 168.5 60.584 168.5C82.952 168.5 101.084 150.367 101.084 128C101.084 105.633 82.952 87.5 60.584 87.5C52.919 87.5 45.752 89.631 39.641 93.33L27.972 103.99Z" fill="#D7E057"/>
<path d="M60.583 170C37.424 170 18.583 151.159 18.583 128C18.583 118.967 21.412 110.357 26.765 103.1C27.256 102.433 28.196 102.291 28.863 102.783C29.529 103.275 29.672 104.214 29.179 104.88C24.21 111.618 21.583 119.613 21.583 128C21.583 149.505 39.078 167 60.583 167C82.088 167 99.583 149.505 99.583 128C99.583 106.495 82.088 89 60.583 89C53.456 89 46.483 90.941 40.417 94.613C39.711 95.041 38.787 94.816 38.357 94.107C37.928 93.398 38.155 92.476 38.864 92.047C45.398 88.091 52.909 86 60.583 86C83.742 86 102.583 104.841 102.583 128C102.583 151.159 83.742 170 60.583 170Z" fill="#3A312A"/>
<path d="M57.203 111.792C57.645 116.288 55.163 120.212 51.659 120.556C48.156 120.9 44.957 117.535 44.515 113.038C44.073 108.542 46.555 104.618 50.058 104.274C53.563 103.93 56.761 107.296 57.203 111.792Z" fill="#87796F"/>
<path d="M51.1549 122.081C49.2199 122.081 47.358 121.231 45.851 119.646C44.273 117.985 43.2679 115.69 43.0219 113.185C42.7759 110.68 43.315 108.234 44.54 106.297C45.84 104.243 47.7479 102.994 49.9129 102.781C54.2229 102.355 58.1729 106.333 58.6959 111.645V111.646C59.2169 116.958 56.127 121.625 51.805 122.049C51.589 122.07 51.3709 122.081 51.1549 122.081ZM50.5589 105.749C50.4419 105.749 50.325 105.755 50.207 105.766C48.982 105.887 47.871 106.645 47.076 107.901C46.207 109.276 45.8279 111.048 46.0099 112.891C46.1909 114.735 46.9069 116.4 48.0279 117.579C49.0519 118.656 50.279 119.181 51.514 119.063C54.189 118.8 56.0719 115.604 55.7109 111.938C55.3649 108.433 53.0939 105.749 50.5589 105.749Z" fill="#3A312A"/>
<path d="M42.672 123.571C44.033 127.879 42.416 132.231 39.059 133.292C35.702 134.353 31.878 131.721 30.516 127.413C29.155 123.105 30.772 118.753 34.129 117.692C37.486 116.631 41.311 119.263 42.672 123.571Z" fill="#87796F"/>
<path d="M37.552 135.025C33.989 135.025 30.444 132.163 29.086 127.866C28.328 125.466 28.35 122.961 29.148 120.813C29.995 118.534 31.603 116.918 33.677 116.263C37.823 114.952 42.493 118.031 44.103 123.12C45.711 128.21 43.652 133.415 39.512 134.723C38.867 134.927 38.209 135.025 37.552 135.025ZM35.677 118.956C35.308 118.956 34.941 119.011 34.581 119.124C33.408 119.495 32.477 120.466 31.96 121.859C31.394 123.384 31.389 125.196 31.947 126.963C33.056 130.475 36.041 132.672 38.607 131.864C41.17 131.054 42.351 127.537 41.241 124.025C40.287 121.004 37.944 118.956 35.677 118.956Z" fill="#3A312A"/>
<path d="M63.964 111.792C63.522 116.288 66.0041 120.212 69.5081 120.556C73.0121 120.9 76.21 117.535 76.652 113.038C77.094 108.542 74.6121 104.618 71.1081 104.274C67.6041 103.93 64.406 107.296 63.964 111.792Z" fill="#87796F"/>
<path d="M69.994 122.081C69.784 122.081 69.573 122.071 69.361 122.05C65.04 121.626 61.949 116.959 62.47 111.647V111.646C62.992 106.334 66.943 102.352 71.253 102.782C75.574 103.207 78.665 107.874 78.144 113.186C77.647 118.237 74.06 122.081 69.994 122.081ZM65.457 111.939C65.097 115.605 66.979 118.801 69.654 119.064C72.321 119.312 74.797 116.559 75.158 112.892C75.518 109.226 73.635 106.03 70.961 105.767C68.287 105.51 65.817 108.273 65.457 111.939Z" fill="#3A312A"/>
<path d="M78.495 123.571C77.134 127.879 78.751 132.231 82.108 133.292C85.465 134.353 89.29 131.721 90.651 127.413C92.013 123.105 90.395 118.753 87.038 117.692C83.681 116.631 79.856 119.263 78.495 123.571Z" fill="#87796F"/>
<path d="M83.615 135.024C82.958 135.024 82.301 134.927 81.655 134.723C77.515 133.414 75.456 128.209 77.063 123.12C78.673 118.031 83.351 114.951 87.49 116.263C89.564 116.918 91.173 118.534 92.019 120.813C92.817 122.96 92.838 125.465 92.081 127.866C90.723 132.162 87.178 135.024 83.615 135.024ZM79.925 124.023C78.815 127.535 79.997 131.052 82.56 131.862C85.127 132.67 88.111 130.473 89.22 126.961C89.779 125.194 89.774 123.382 89.207 121.857C88.689 120.464 87.759 119.493 86.586 119.122C84.025 118.312 81.035 120.512 79.925 124.023Z" fill="#3A312A"/>
<path d="M73.382 132.982C71.729 132.039 70.296 130.742 69.39 129.07C67.692 125.935 64.374 123.805 60.557 123.805C56.742 123.805 53.425 125.933 51.726 129.066C50.818 130.74 49.384 132.038 47.73 132.98C44.439 134.855 42.311 138.537 42.699 142.677C43.147 147.456 47.069 151.324 51.852 151.715C53.517 151.851 55.104 151.579 56.526 150.99C59.12 149.914 61.987 149.914 64.58 150.99C66.002 151.58 67.589 151.851 69.255 151.715C74.038 151.324 77.959 147.457 78.408 142.679C78.798 138.541 76.671 134.859 73.382 132.982Z" fill="#87796F"/>
<path d="M52.709 153.251C52.385 153.251 52.059 153.238 51.73 153.211C46.244 152.763 41.719 148.295 41.206 142.818C40.782 138.294 43.052 133.92 46.987 131.677C48.541 130.792 49.691 129.674 50.408 128.351C52.43 124.621 56.319 122.305 60.557 122.305C64.797 122.305 68.687 124.623 70.708 128.355C71.423 129.676 72.572 130.794 74.124 131.679C78.059 133.923 80.326 138.296 79.901 142.819C79.387 148.294 74.863 152.761 69.377 153.21C67.52 153.363 65.71 153.081 64.006 152.376C61.781 151.453 59.328 151.452 57.101 152.376C55.7 152.958 54.226 153.251 52.709 153.251ZM60.558 125.305C57.421 125.305 54.543 127.02 53.045 129.781C52.072 131.577 50.491 133.134 48.473 134.283C45.559 135.944 43.879 139.184 44.193 142.537C44.573 146.585 47.919 149.888 51.975 150.219C53.351 150.33 54.696 150.125 55.953 149.603C58.921 148.373 62.188 148.372 65.156 149.603C66.415 150.125 67.754 150.333 69.135 150.219C73.192 149.888 76.537 146.585 76.917 142.538C77.231 139.185 75.553 135.945 72.64 134.284C70.595 133.118 69.058 131.603 68.072 129.783C66.574 127.021 63.695 125.305 60.558 125.305Z" fill="#3A312A"/>
<path d="M159.274 86.5961C173.961 85.6852 185.129 73.0406 184.218 58.3534C183.307 43.6663 170.663 32.4985 155.976 33.4093C141.289 34.3202 130.121 46.9649 131.032 61.652C131.942 76.3391 144.587 87.5069 159.274 86.5961Z" fill="#8AC6DD"/>
<path d="M157.648 88.1474C157.27 88.1474 156.892 88.1394 156.511 88.1254C148.999 87.8284 142.053 84.6244 136.95 79.1034C131.848 73.5824 129.202 66.4044 129.499 58.8934C130.11 43.3874 143.203 31.2724 158.731 31.8814C166.242 32.1784 173.189 35.3814 178.291 40.9034C183.393 46.4244 186.039 53.6024 185.742 61.1134C185.445 68.6254 182.242 75.5714 176.721 80.6734C171.48 85.5164 164.745 88.1474 157.648 88.1474ZM157.61 34.8584C144.198 34.8584 133.031 45.4934 132.498 59.0104C132.232 65.7214 134.597 72.1334 139.155 77.0664C143.713 81.9994 149.919 84.8614 156.631 85.1264C163.346 85.4034 169.754 83.0274 174.686 78.4694C179.619 73.9114 182.481 67.7054 182.746 60.9944C183.012 54.2834 180.647 47.8704 176.09 42.9384C171.531 38.0064 165.325 35.1434 158.614 34.8784C158.278 34.8644 157.943 34.8584 157.61 34.8584Z" fill="#3A312A"/>
<path d="M171.485 55.2467H162.375V46.1367H152.868V55.2467H143.758V64.7527H152.868V73.8627H162.375V64.7527H171.485V55.2467Z" fill="#FCE8CB"/>
<path d="M162.375 75.3627H152.868C152.04 75.3627 151.368 74.6917 151.368 73.8627V66.2527H143.759C142.931 66.2527 142.259 65.5817 142.259 64.7527V55.2467C142.259 54.4177 142.931 53.7467 143.759 53.7467H151.368V46.1367C151.368 45.3077 152.04 44.6367 152.868 44.6367H162.375C163.203 44.6367 163.875 45.3077 163.875 46.1367V53.7467H171.485C172.313 53.7467 172.985 54.4177 172.985 55.2467V64.7527C172.985 65.5817 172.313 66.2527 171.485 66.2527H163.875V73.8627C163.875 74.6917 163.203 75.3627 162.375 75.3627ZM154.368 72.3627H160.875V64.7527C160.875 63.9237 161.547 63.2527 162.375 63.2527H169.985V56.7467H162.375C161.547 56.7467 160.875 56.0757 160.875 55.2467V47.6367H154.368V55.2467C154.368 56.0757 153.696 56.7467 152.868 56.7467H145.259V63.2527H152.868C153.696 63.2527 154.368 63.9237 154.368 64.7527V72.3627Z" fill="#3A312A"/>
</svg>
