<?xml version="1.0" encoding="utf-8"?>
<!-- Generator: Adobe Illustrator 28.5.0, SVG Export Plug-In . SVG Version: 9.03 Build 54727)  -->
<svg version="1.0" id="Layer_1" xmlns="http://www.w3.org/2000/svg" xmlns:xlink="http://www.w3.org/1999/xlink" x="0px" y="0px"
	 viewBox="0 0 64 64" style="enable-background:new 0 0 64 64;" xml:space="preserve">
<style type="text/css">
	.st0{fill:none;stroke:#231F20;stroke-width:2;stroke-linecap:round;stroke-linejoin:round;stroke-miterlimit:10;}
</style>
<g>
	<polygon class="st0" points="27.7,42.5 17.4,42.5 17.4,35.5 27.7,35.5 27.7,26 35.3,26 35.3,35.5 45.6,35.5 45.6,42.5 35.3,42.5 
		35.3,52 27.7,52 	"/>
	<path class="st0" d="M56.3,60.3H7.7c-1.8,0-3.3-1.5-3.3-3.3V22.5c0-1.8,1.5-3.3,3.3-3.3h48.6c1.8,0,3.3,1.5,3.3,3.3V57
		C59.6,58.8,58.1,60.3,56.3,60.3z"/>
	<path class="st0" d="M41.2,19.2H21.8v-7.7c0-2.8,2.2-5,5-5h9.3c2.8,0,5,2.2,5,5V19.2z"/>
	<path class="st0" d="M37,19.2H26v-7.2c0-0.9,0.8-1.7,1.7-1.7h7.7c0.9,0,1.7,0.8,1.7,1.7V19.2z"/>
	<path class="st0" d="M17.6,19.2h-7.4v-2.1c0-1.1,0.9-2,2-2h3.3c1.1,0,2,0.9,2,2V19.2z"/>
	<path class="st0" d="M52.7,19.2h-7.4v-2.1c0-1.1,0.9-2,2-2h3.3c1.1,0,2,0.9,2,2V19.2z"/>
</g>
</svg>
