<?xml version="1.0" encoding="utf-8"?>
<!-- Generator: Adobe Illustrator 28.5.0, SVG Export Plug-In . SVG Version: 9.03 Build 54727)  -->
<svg version="1.0" id="Layer_1" xmlns="http://www.w3.org/2000/svg" xmlns:xlink="http://www.w3.org/1999/xlink" x="0px" y="0px"
	 viewBox="0 0 64 64" style="enable-background:new 0 0 64 64;" xml:space="preserve">
<style type="text/css">
	.st0{fill:none;stroke:#231F20;stroke-width:2;stroke-linecap:round;stroke-linejoin:round;stroke-miterlimit:10;}
</style>
<g>
	<g>
		<g>
			<path class="st0" d="M48,37.7l4-6.7c0,0,0,0,0,0l0.3-0.6c1.4-2.2,2-4.9,1.7-7.5l-0.8-7.7c-0.6-3.7,3.6-2.4,4.1-0.8l2.9,12.9
				c0,0,1.2,5-1.1,9.4c-1.8,3.2-4.7,8.1-6.1,10.4c-0.5,0.8-0.7,1.7-0.5,2.7l0.3,1.7"/>
			<path class="st0" d="M40.8,51.8c-0.6-0.8-4.8-6.8,1.7-12.7l4.6-7.7c1.9-3,5.5-1.6,4.9-0.4c0,0,0,0,0,0.1"/>
		</g>
		<path class="st0" d="M36.8,60.7l0.4-6.9c-0.1-1,0.8-1.9,1.8-1.9l14.8-0.2c1,0,1.8,0.7,1.9,1.7l-0.2,7.8"/>
	</g>
	<g>
		<g>
			<path class="st0" d="M16,37.7L12,31c0,0,0,0,0,0l-0.3-0.6c-1.4-2.2-2-4.9-1.7-7.5l0.8-7.7c0.6-3.7-3.6-2.4-4.1-0.8L3.8,27.5
				c0,0-1.2,5,1.1,9.4c1.8,3.2,4.7,8.1,6.1,10.4c0.5,0.8,0.7,1.7,0.5,2.7l-0.3,1.7"/>
			<path class="st0" d="M23.2,51.8c0.6-0.8,4.8-6.8-1.7-12.7l-4.6-7.7c-1.9-3-5.5-1.6-4.9-0.4c0,0,0,0,0,0.1"/>
		</g>
		<path class="st0" d="M27.2,60.7l-0.4-6.9c0.1-1-0.8-1.9-1.8-1.9l-14.8-0.2c-1,0-1.8,0.7-1.9,1.7l0.2,7.8"/>
	</g>
	<path class="st0" d="M26.4,15.2h-3.7c-1.8,0-3.4,0.7-4.6,1.9c-1.2,1.2-1.9,2.8-1.9,4.6c0,3.6,2.9,6.5,6.5,6.5h9h9
		c1.8,0,3.4-0.7,4.6-1.9c1.2-1.2,1.9-2.8,1.9-4.6c0-3.6-2.9-6.5-6.5-6.5H37"/>
	<line class="st0" x1="31.7" y1="28.1" x2="31.7" y2="17.5"/>
	<circle class="st0" cx="31.7" cy="10.2" r="7.3"/>
	<line class="st0" x1="31.7" y1="7.1" x2="31.7" y2="12.9"/>
	<line class="st0" x1="34.7" y1="10" x2="28.8" y2="10"/>
</g>
</svg>
