<?xml version="1.0" encoding="utf-8"?>
<!-- Generator: Adobe Illustrator 28.5.0, SVG Export Plug-In . SVG Version: 9.03 Build 54727)  -->
<svg version="1.0" id="Layer_1" xmlns="http://www.w3.org/2000/svg" xmlns:xlink="http://www.w3.org/1999/xlink" x="0px" y="0px"
	 viewBox="0 0 64 64" style="enable-background:new 0 0 64 64;" xml:space="preserve">
<style type="text/css">
	.st0{fill:none;stroke:#231F20;stroke-width:2;stroke-linecap:round;stroke-linejoin:round;stroke-miterlimit:10;}
</style>
<g>
	<path class="st0" d="M39.5,51.8H11c-1,0-1.9-0.8-1.9-1.9V5.7c0-1,0.8-1.9,1.9-1.9h31.3c1,0,1.9,0.8,1.9,1.9v39.8"/>
	<circle class="st0" cx="18.4" cy="13.1" r="4.5"/>
	<circle class="st0" cx="34.9" cy="13.1" r="4.5"/>
	<line class="st0" x1="21.6" y1="9.9" x2="15.3" y2="16.3"/>
	<line class="st0" x1="38.1" y1="9.9" x2="31.7" y2="16.3"/>
	<circle class="st0" cx="47.1" cy="52.5" r="7.7"/>
	<line class="st0" x1="52.6" y1="47.1" x2="41.7" y2="58"/>
	<circle class="st0" cx="18.4" cy="27.4" r="4.5"/>
	<circle class="st0" cx="34.9" cy="27.4" r="4.5"/>
	<line class="st0" x1="21.6" y1="24.2" x2="15.3" y2="30.6"/>
	<line class="st0" x1="38.1" y1="24.2" x2="31.7" y2="30.6"/>
	<circle class="st0" cx="18.4" cy="41.6" r="4.5"/>
	<circle class="st0" cx="34.9" cy="41.6" r="4.5"/>
	<line class="st0" x1="21.6" y1="38.4" x2="15.3" y2="44.8"/>
	<line class="st0" x1="38.1" y1="38.4" x2="31.7" y2="44.8"/>
</g>
</svg>
