<?xml version="1.0" encoding="utf-8"?>
<!-- Generator: Adobe Illustrator 28.5.0, SVG Export Plug-In . SVG Version: 9.03 Build 54727)  -->
<svg version="1.0" id="Layer_1" xmlns="http://www.w3.org/2000/svg" xmlns:xlink="http://www.w3.org/1999/xlink" x="0px" y="0px"
	 viewBox="0 0 64 64" style="enable-background:new 0 0 64 64;" xml:space="preserve">
<style type="text/css">
	.st0{fill:none;stroke:#231F20;stroke-width:2;stroke-linecap:round;stroke-linejoin:round;stroke-miterlimit:10;}
</style>
<g>
	<path class="st0" d="M9.1,35.6L9.1,35.6c-3.2,0-5.7-2.6-5.7-5.7v-2.7h11.5v2.7C14.8,33.1,12.3,35.6,9.1,35.6z"/>
	<path class="st0" d="M20.5,35.6L20.5,35.6c-3.2,0-5.7-2.6-5.7-5.7v-2.7h11.5v2.7C26.3,33.1,23.7,35.6,20.5,35.6z"/>
	<path class="st0" d="M32,35.6L32,35.6c-3.2,0-5.7-2.6-5.7-5.7v-2.7h11.5v2.7C37.7,33.1,35.2,35.6,32,35.6z"/>
	<path class="st0" d="M43.5,35.6L43.5,35.6c-3.2,0-5.7-2.6-5.7-5.7v-2.7h11.5v2.7C49.2,33.1,46.6,35.6,43.5,35.6z"/>
	<path class="st0" d="M54.9,35.6L54.9,35.6c-3.2,0-5.7-2.6-5.7-5.7v-2.7h11.5v2.7C60.6,33.1,58.1,35.6,54.9,35.6z"/>
	<line class="st0" x1="14.8" y1="30.4" x2="14.8" y2="30.4"/>
	<line class="st0" x1="37.8" y1="30.4" x2="37.7" y2="30.4"/>
	<polyline class="st0" points="54.9,35.6 54.9,61.6 9.1,61.6 9.1,35.6 	"/>
	<line class="st0" x1="49.2" y1="30.4" x2="49.2" y2="30.4"/>
	<line class="st0" x1="26.3" y1="30.4" x2="26.2" y2="30.4"/>
	<path class="st0" d="M60.6,27.2l-4.3-9.8c-0.8-1.7-2.5-2.8-4.3-2.8h-7h-4.6"/>
	<path class="st0" d="M23.7,14.7H19h-7c-1.9,0-3.6,1.1-4.3,2.8l-4.3,9.8"/>
	<line class="st0" x1="14.8" y1="27.2" x2="19" y2="14.7"/>
	<line class="st0" x1="49.2" y1="27.2" x2="45" y2="14.7"/>
	<line class="st0" x1="27.3" y1="19.1" x2="26.3" y2="27.2"/>
	<line class="st0" x1="37.7" y1="27.2" x2="36.7" y2="19.1"/>
	<rect x="15.5" y="43.1" class="st0" width="11.6" height="18.5"/>
	<rect x="34.2" y="43.1" class="st0" width="15" height="11.5"/>
	<line class="st0" x1="19" y1="50.2" x2="19" y2="52.4"/>
	<path class="st0" d="M38,19.1H26c-1.3,0-2.3-1-2.3-2.3v-12c0-1.3,1-2.3,2.3-2.3h12c1.3,0,2.3,1,2.3,2.3v12
		C40.4,18.1,39.3,19.1,38,19.1z"/>
	<line class="st0" x1="32" y1="6.9" x2="32" y2="14.7"/>
	<line class="st0" x1="35.9" y1="10.8" x2="28.1" y2="10.8"/>
</g>
</svg>
