<?xml version="1.0" encoding="utf-8"?>
<!-- Generator: Adobe Illustrator 28.5.0, SVG Export Plug-In . SVG Version: 9.03 Build 54727)  -->
<svg version="1.0" id="Layer_1" xmlns="http://www.w3.org/2000/svg" xmlns:xlink="http://www.w3.org/1999/xlink" x="0px" y="0px"
	 viewBox="0 0 64 64" style="enable-background:new 0 0 64 64;" xml:space="preserve">
<style type="text/css">
	.st0{fill:none;stroke:#231F20;stroke-width:2;stroke-linecap:round;stroke-linejoin:round;stroke-miterlimit:10;}
</style>
<g>
	<polygon class="st0" points="27.5,36.5 15.9,36.5 15.9,27.5 27.5,27.5 27.5,15.9 36.5,15.9 36.5,27.5 48.1,27.5 48.1,36.5 
		36.5,36.5 36.5,48.1 27.5,48.1 	"/>
	<path class="st0" d="M54.7,15.7c7.9,10.9,6.9,26.2-2.9,36c-9.8,9.8-25.1,10.8-36,2.9c-1.2-0.9-2.4-1.8-3.4-2.9"/>
	<path class="st0" d="M9.3,48.3c-7.9-10.9-6.9-26.2,2.9-36c9.8-9.8,25.1-10.8,36-2.9c1.2,0.9,2.4,1.8,3.4,2.9"/>
	<polyline class="st0" points="51.4,6.9 51.7,12.3 45.6,12.7 	"/>
	<polyline class="st0" points="12.6,57.1 12.3,51.7 18.4,51.2 	"/>
</g>
</svg>
