<?xml version="1.0" encoding="utf-8"?>
<!-- Generator: Adobe Illustrator 28.5.0, SVG Export Plug-In . SVG Version: 9.03 Build 54727)  -->
<svg version="1.0" id="Layer_1" xmlns="http://www.w3.org/2000/svg" xmlns:xlink="http://www.w3.org/1999/xlink" x="0px" y="0px"
	 viewBox="0 0 64 64" style="enable-background:new 0 0 64 64;" xml:space="preserve">
<style type="text/css">
	.st0{fill:none;stroke:#231F20;stroke-width:2;stroke-linecap:round;stroke-linejoin:round;stroke-miterlimit:10;}
</style>
<g>
	<path class="st0" d="M32,60.7c0,0,20.7-16.9,20.7-37.8c0-10.8-9.3-19.6-20.7-19.6s-20.7,8.8-20.7,19.6C11.3,43.8,32,60.7,32,60.7z"
		/>
	<circle class="st0" cx="32" cy="24.3" r="15.6"/>
	<path class="st0" d="M39.5,24.1l-7.6,7.6c-2,2-5.3,2-7.4,0l0,0c-2-2-2-5.3,0-7.4l7.6-7.6c2-2,5.3-2,7.4,0l0,0
		C41.5,18.8,41.5,22.1,39.5,24.1z"/>
	<line class="st0" x1="28.3" y1="20.6" x2="35.7" y2="27.9"/>
</g>
</svg>
