<?xml version="1.0" encoding="utf-8"?>
<!-- Generator: Adobe Illustrator 28.5.0, SVG Export Plug-In . SVG Version: 9.03 Build 54727)  -->
<svg version="1.0" id="Layer_1" xmlns="http://www.w3.org/2000/svg" xmlns:xlink="http://www.w3.org/1999/xlink" x="0px" y="0px"
	 viewBox="0 0 64 64" style="enable-background:new 0 0 64 64;" xml:space="preserve">
<style type="text/css">
	.st0{fill:none;stroke:#231F20;stroke-width:2;stroke-linecap:round;stroke-linejoin:round;stroke-miterlimit:10;}
</style>
<g>
	<g>
		<path class="st0" d="M31.3,49.5l-5.7-5.7c-1.1-1.1-1.1-2.9,0-4.1l20-20l9.8,9.8l-20,20C34.2,50.6,32.4,50.6,31.3,49.5z"/>
		
			<rect x="51.8" y="16.8" transform="matrix(0.7071 0.7071 -0.7071 0.7071 30.8455 -31.676)" class="st0" width="3.7" height="9.2"/>
		<line class="st0" x1="53" y1="14.3" x2="60.8" y2="22"/>
		<path class="st0" d="M25.5,50.9l-1.3-1.3c-0.7-0.7-0.7-2,0-2.7l2.1-2.1l4,4l-2.1,2.1C27.4,51.7,26.2,51.7,25.5,50.9z"/>
		<line class="st0" x1="24.8" y1="50.3" x2="16.6" y2="58.4"/>
		<line class="st0" x1="40.9" y1="24.4" x2="50.6" y2="34.2"/>
		<line class="st0" x1="33.3" y1="32" x2="36.8" y2="35.6"/>
		<line class="st0" x1="28.8" y1="36.5" x2="32.4" y2="40.1"/>
		<line class="st0" x1="37.7" y1="27.6" x2="41.3" y2="31.2"/>
	</g>
	<path class="st0" d="M20.7,35.6l14.2-12.7c3.5-3.1,4.3-8.2,2-12.3l0,0C34,5.5,27.3,4,22.5,7.5l-1.8,1.3L19,7.5
		C14.2,4,7.4,5.5,4.5,10.6l0,0c-2.3,4.1-1.5,9.2,2,12.3L20.7,35.6z"/>
	<polygon class="st0" points="18.4,22.1 14.9,22.1 14.9,17.5 18.4,17.5 18.4,14 23,14 23,17.5 26.5,17.5 26.5,22.1 23,22.1 23,25.6 
		18.4,25.6 	"/>
</g>
</svg>
