<?xml version="1.0" encoding="utf-8"?>
<!-- Generator: Adobe Illustrator 28.5.0, SVG Export Plug-In . SVG Version: 9.03 Build 54727)  -->
<svg version="1.0" id="Layer_1" xmlns="http://www.w3.org/2000/svg" xmlns:xlink="http://www.w3.org/1999/xlink" x="0px" y="0px"
	 viewBox="0 0 64 64" style="enable-background:new 0 0 64 64;" xml:space="preserve">
<style type="text/css">
	.st0{fill:none;stroke:#231F20;stroke-width:2;stroke-linecap:round;stroke-linejoin:round;stroke-miterlimit:10;}
</style>
<g>
	<path class="st0" d="M8.7,55.3L8.7,55.3c-5.4-5.4-5.4-14,0-19.4L35.9,8.7c5.4-5.4,14-5.4,19.4,0l0,0c5.4,5.4,5.4,14,0,19.4
		L28.1,55.3C22.8,60.6,14.1,60.6,8.7,55.3z"/>
	<path class="st0" d="M12.6,32l-3.9-3.9c-5.4-5.4-5.4-14,0-19.4c5.4-5.4,14-5.4,19.4,0l3.9,3.9"/>
	<path class="st0" d="M51.4,32l3.9,3.9c5.4,5.4,5.4,14,0,19.4c-2.7,2.7-6.2,4-9.7,4s-7-1.3-9.7-4L32,51.4"/>
	<path class="st0" d="M26.7,43.9l-6.7-6.7c-0.9-0.9-0.9-2.4,0-3.3L34,20.1c0.9-0.9,2.4-0.9,3.3,0l6.7,6.7c0.9,0.9,0.9,2.4,0,3.3
		L30,43.9C29.1,44.8,27.6,44.8,26.7,43.9z"/>
</g>
</svg>
