<?xml version="1.0" encoding="utf-8"?>
<!-- Generator: Adobe Illustrator 28.5.0, SVG Export Plug-In . SVG Version: 9.03 Build 54727)  -->
<svg version="1.0" id="Layer_1" xmlns="http://www.w3.org/2000/svg" xmlns:xlink="http://www.w3.org/1999/xlink" x="0px" y="0px"
	 viewBox="0 0 64 64" style="enable-background:new 0 0 64 64;" xml:space="preserve">
<style type="text/css">
	.st0{fill:none;stroke:#231F20;stroke-width:2;stroke-linecap:round;stroke-linejoin:round;stroke-miterlimit:10;}
</style>
<g>
	<path class="st0" d="M30.3,12.7H13c-1.1,0-2-0.9-2-2V5.3c0-1.1,0.9-2,2-2h17.3c1.1,0,2,0.9,2,2v5.4C32.3,11.8,31.4,12.7,30.3,12.7z
		"/>
	<path class="st0" d="M34.7,60.7H7.5c-2,0-3.7-1.7-3.7-3.7v-4.7V30.9v-3c0-1.6,0.9-3.1,2.4-3.8l6.3-3c1.5-0.7,2.4-2.2,2.4-3.8v-4.7
		h13.6v4.7c0,1.6,0.9,3.1,2.4,3.8l6.3,3c1.5,0.7,2.4,2.2,2.4,3.8v3v6.4"/>
	<polyline class="st0" points="30.7,52.3 3.8,52.3 3.8,30.9 39.5,30.9 	"/>
	<line class="st0" x1="21.6" y1="37.1" x2="21.6" y2="45.7"/>
	<line class="st0" x1="25.9" y1="41.4" x2="17.3" y2="41.4"/>
	<path class="st0" d="M54.4,60.7l-11.9,0c-3.2,0-5.8-2.6-5.8-5.8v0c0-3.2,2.6-5.8,5.8-5.8h11.9c3.2,0,5.8,2.6,5.8,5.8v0
		C60.2,58.1,57.6,60.7,54.4,60.7z"/>
	<line class="st0" x1="48.5" y1="49.1" x2="48.5" y2="60.7"/>
	<path class="st0" d="M49.6,49.1l2.9-2.9c1.1-1.1,1.7-2.6,1.7-4.1s-0.6-3-1.7-4.1c-2.2-2.3-5.9-2.3-8.2,0l-4.2,4.2l-0.6,0.6
		l-3.6,3.6c-1.1,1.1-1.7,2.6-1.7,4.1c0,0.6,0.1,1.1,0.2,1.7c0.3,0.9,0.8,1.7,1.5,2.4c0.3,0.3,0.6,0.5,0.9,0.7"/>
	<line class="st0" x1="46.9" y1="49.1" x2="40.1" y2="42.3"/>
</g>
</svg>
