<?xml version="1.0" encoding="utf-8"?>
<!-- Generator: Adobe Illustrator 28.5.0, SVG Export Plug-In . SVG Version: 9.03 Build 54727)  -->
<svg version="1.0" id="Layer_1" xmlns="http://www.w3.org/2000/svg" xmlns:xlink="http://www.w3.org/1999/xlink" x="0px" y="0px"
	 viewBox="0 0 64 64" style="enable-background:new 0 0 64 64;" xml:space="preserve">
<style type="text/css">
	.st0{fill:none;stroke:#231F20;stroke-width:2;stroke-linecap:round;stroke-linejoin:round;stroke-miterlimit:10;}
</style>
<g>
	<path class="st0" d="M38.1,9.6v5c0,1.9,1.1,3.6,2.8,4.3c7.9,3.5,13.4,11.4,13.3,20.7c-0.2,11.6-9.5,21.3-21.1,21.9
		C20.3,62.1,9.8,52,9.8,39.3c0-9.1,5.5-16.9,13.3-20.4c1.7-0.8,2.8-2.4,2.8-4.3v-5"/>
	<path class="st0" d="M39.6,9.6H24.4c-2,0-3.6-1.6-3.6-3.6v0c0-2,1.6-3.6,3.6-3.6h15.3c2,0,3.6,1.6,3.6,3.6v0
		C43.2,8,41.6,9.6,39.6,9.6z"/>
	<path class="st0" d="M11,31.9c0,0,8.2-4.9,21,0c15.5,5.9,21,0,21,0"/>
	<polygon class="st0" points="28.6,48.8 23.7,48.8 23.7,43.2 28.6,43.2 28.6,38.4 34.1,38.4 34.1,43.2 39,43.2 39,48.8 34.1,48.8 
		34.1,53.6 28.6,53.6 	"/>
</g>
</svg>
