<?xml version="1.0" encoding="utf-8"?>
<!-- Generator: Adobe Illustrator 28.5.0, SVG Export Plug-In . SVG Version: 9.03 Build 54727)  -->
<svg version="1.0" id="Layer_1" xmlns="http://www.w3.org/2000/svg" xmlns:xlink="http://www.w3.org/1999/xlink" x="0px" y="0px"
	 viewBox="0 0 64 64" style="enable-background:new 0 0 64 64;" xml:space="preserve">
<style type="text/css">
	.st0{fill:none;stroke:#231F20;stroke-width:2;stroke-linecap:round;stroke-linejoin:round;stroke-miterlimit:10;}
</style>
<g>
	<path class="st0" d="M18.2,52.9L12.2,59c-1.2,1.2-3.1,1.2-4.3,0l0,0c-1.2-1.2-1.2-3.1,0-4.3l6.1-6.1c1.4-1.4,2.2-3.2,2.4-5.2
		l0.3-3.2c0.2-2,1-3.8,2.4-5.2l23.7-23.7c1.9-1.9,5.1-1.9,7,0l5.8,5.8c1.9,1.9,1.9,5.1,0,7L31.9,47.8c-1.4,1.4-3.2,2.2-5.2,2.4
		l-3.2,0.3C21.5,50.7,19.6,51.5,18.2,52.9z"/>
	<line class="st0" x1="10" y1="52.6" x2="14.3" y2="56.9"/>
	
		<rect x="30.1" y="23.5" transform="matrix(0.7071 0.7071 -0.7071 0.7071 33.339 -14.1487)" class="st0" width="7.3" height="19.3"/>
	<circle class="st0" cx="46.3" cy="20.6" r="2.9"/>
	<circle class="st0" cx="10.8" cy="7.1" r="3"/>
	<path class="st0" d="M24.5,19.9L24.5,19.9c0,1.6-1.3,3-3,3h-3c-1.8,0-3.3-1.5-3.3-3.3V14c0-1.8,1.5-3.3,3.3-3.3h3c1.6,0,3,1.3,3,3
		v0"/>
</g>
</svg>
