<?xml version="1.0" encoding="utf-8"?>
<!-- Generator: Adobe Illustrator 28.5.0, SVG Export Plug-In . SVG Version: 9.03 Build 54727)  -->
<svg version="1.0" id="Layer_1" xmlns="http://www.w3.org/2000/svg" xmlns:xlink="http://www.w3.org/1999/xlink" x="0px" y="0px"
	 viewBox="0 0 64 64" style="enable-background:new 0 0 64 64;" xml:space="preserve">
<style type="text/css">
	.st0{fill:none;stroke:#231F20;stroke-width:2;stroke-linecap:round;stroke-linejoin:round;stroke-miterlimit:10;}
</style>
<g>
	<path class="st0" d="M29.9,32.4v2.4h8.3V23.2c0-0.7-0.5-1.2-1.2-1.2h-0.4h-5h-0.4c-0.7,0-1.2,0.5-1.2,1.2V25"/>
	<rect x="31.6" y="16.4" class="st0" width="5" height="5.6"/>
	<path class="st0" d="M38.7,38.2h-9.2c-0.8,0-1.4-0.6-1.4-1.4v-0.6c0-0.8,0.6-1.4,1.4-1.4h9.2c0.8,0,1.4,0.6,1.4,1.4v0.6
		C40.1,37.6,39.5,38.2,38.7,38.2z"/>
	<circle class="st0" cx="29.9" cy="28.7" r="3.7"/>
	<path class="st0" d="M15.3,39.5v-3.7c0-4.7,3.8-8.4,8.4-8.4h2.8"/>
	<path class="st0" d="M27.7,31.7h-3.6c-2.5,0-4.5,2-4.5,4.5v3.1"/>
	<path class="st0" d="M22.4,56.9H8.6l2.5-13.1c0.5-2.6,2.8-4.5,5.5-4.5h4c1,0,1.9,0.8,1.9,1.9V56.9z"/>
	<path class="st0" d="M45.2,61.3H7.7c-1.2,0-2.2-1-2.2-2.2v0c0-1.2,1-2.2,2.2-2.2h37.5c1.2,0,2.2,1,2.2,2.2v0
		C47.3,60.3,46.4,61.3,45.2,61.3z"/>
	<circle class="st0" cx="16.8" cy="45.4" r="2.4"/>
	<path class="st0" d="M43.1,56.9H22.4v-7.6h19.9c0.5,0,0.9,0.4,0.9,0.9V56.9z"/>
	<path class="st0" d="M36,41.8h-3.7c-0.7,0-1.3-0.6-1.3-1.3v-2.3h6.3v2.3C37.2,41.2,36.7,41.8,36,41.8z"/>
	<path class="st0" d="M45.1,21l4.9-5.3h6.4c1.1,0,2-0.9,2-2V4.7c0-1.1-0.9-2-2-2H42.1c-1.1,0-2,0.9-2,2v8.9c0,1.1,0.9,2,2,2h3
		L45.1,21z"/>
	<path class="st0" d="M52.1,11.8h-5.6c-1.5,0-2.7-1.2-2.7-2.7v0c0-1.5,1.2-2.7,2.7-2.7h5.6c1.5,0,2.7,1.2,2.7,2.7v0
		C54.8,10.6,53.6,11.8,52.1,11.8z"/>
	<line class="st0" x1="49.3" y1="6.4" x2="49.3" y2="11.8"/>
</g>
</svg>
