<?xml version="1.0" encoding="utf-8"?>
<!-- Generator: Adobe Illustrator 28.5.0, SVG Export Plug-In . SVG Version: 9.03 Build 54727)  -->
<svg version="1.0" id="Layer_1" xmlns="http://www.w3.org/2000/svg" xmlns:xlink="http://www.w3.org/1999/xlink" x="0px" y="0px"
	 viewBox="0 0 64 64" style="enable-background:new 0 0 64 64;" xml:space="preserve">
<style type="text/css">
	.st0{fill:none;stroke:#231F20;stroke-width:2;stroke-linecap:round;stroke-linejoin:round;stroke-miterlimit:10;}
</style>
<g>
	<path class="st0" d="M45,52.5H19c-5.9,0-10.7-4.8-10.7-10.7V27.4c0-1.3,1-2.3,2.3-2.3h42.8c1.3,0,2.3,1,2.3,2.3v14.4
		C55.7,47.7,50.9,52.5,45,52.5z"/>
	<path class="st0" d="M39.1,60.1H26.2c-2.2,0-4-1.8-4-4v-3.6h21v3.6C43.2,58.3,41.4,60.1,39.1,60.1z"/>
	<path class="st0" d="M17.5,25.1l-7-13.7C9.3,9,10.1,6.2,12.3,4.7c0.9-0.6,1.8-0.8,2.8-0.8c1.5,0,3,0.7,4,1.9l15.5,19.3"/>
	<polygon class="st0" points="35.8,41.9 35.8,47 29.6,47 29.6,41.9 24.4,41.9 24.4,35.7 29.6,35.7 29.6,30.6 35.8,30.6 35.8,35.7 
		40.9,35.7 40.9,41.9 	"/>
</g>
</svg>
