<?xml version="1.0" encoding="utf-8"?>
<!-- Generator: Adobe Illustrator 28.5.0, SVG Export Plug-In . SVG Version: 9.03 Build 54727)  -->
<svg version="1.0" id="Layer_1" xmlns="http://www.w3.org/2000/svg" xmlns:xlink="http://www.w3.org/1999/xlink" x="0px" y="0px"
	 viewBox="0 0 64 64" style="enable-background:new 0 0 64 64;" xml:space="preserve">
<style type="text/css">
	.st0{fill:none;stroke:#231F20;stroke-width:2;stroke-linecap:round;stroke-linejoin:round;stroke-miterlimit:10;}
</style>
<g>
	<path class="st0" d="M16.3,5.9H9.6c-2.4,0-4.3,1.9-4.3,4.3v44.9c0,2.4,1.9,4.3,4.3,4.3h28.9"/>
	<path class="st0" d="M34.2,5.9h6.7c2.4,0,4.3,1.9,4.3,4.3v40.9"/>
	<path class="st0" d="M32.1,9.3H18.5c-1.2,0-2.2-1-2.2-2.2V4.6c0-1.2,1-2.2,2.2-2.2h13.6c1.2,0,2.2,1,2.2,2.2v2.6
		C34.2,8.4,33.3,9.3,32.1,9.3z"/>
	<polygon class="st0" points="22.8,25.2 18.3,25.2 18.3,20.2 22.8,20.2 22.8,15.8 27.8,15.8 27.8,20.2 32.2,20.2 32.2,25.2 
		27.8,25.2 27.8,29.7 22.8,29.7 	"/>
	<line class="st0" x1="10.9" y1="36.4" x2="39.7" y2="36.4"/>
	<line class="st0" x1="10.9" y1="43.1" x2="39.7" y2="43.1"/>
	<line class="st0" x1="10.9" y1="49.9" x2="30.3" y2="49.9"/>
	<path class="st0" d="M53.5,61.5H42.7c-2.9,0-5.2-2.3-5.2-5.2v0c0-2.9,2.3-5.2,5.2-5.2h10.8c2.9,0,5.2,2.3,5.2,5.2v0
		C58.7,59.2,56.4,61.5,53.5,61.5z"/>
	<line class="st0" x1="48.1" y1="51.1" x2="48.1" y2="61.5"/>
</g>
</svg>
