<?xml version="1.0" encoding="utf-8"?>
<!-- Generator: Adobe Illustrator 28.5.0, SVG Export Plug-In . SVG Version: 9.03 Build 54727)  -->
<svg version="1.0" id="Layer_1" xmlns="http://www.w3.org/2000/svg" xmlns:xlink="http://www.w3.org/1999/xlink" x="0px" y="0px"
	 viewBox="0 0 64 64" style="enable-background:new 0 0 64 64;" xml:space="preserve">
<style type="text/css">
	.st0{fill:none;stroke:#231F20;stroke-width:2;stroke-linecap:round;stroke-linejoin:round;stroke-miterlimit:10;}
</style>
<g>
	<circle class="st0" cx="32" cy="32" r="12.9"/>
	<line class="st0" x1="29.7" y1="44.7" x2="28.9" y2="48.8"/>
	<path class="st0" d="M26.5,48.3l4.8,0.9c0.9,0.2,1.5,1.1,1.4,2v0c-0.2,0.9-1.1,1.5-2,1.4l-4.8-0.9c-0.9-0.2-1.5-1.1-1.4-2v0
		C24.7,48.8,25.6,48.2,26.5,48.3z"/>
	<line class="st0" x1="34.3" y1="19.3" x2="35.1" y2="15.2"/>
	<path class="st0" d="M37.5,15.7l-4.8-0.9c-0.9-0.2-1.5-1.1-1.4-2v0c0.2-0.9,1.1-1.5,2-1.4l4.8,0.9c0.9,0.2,1.5,1.1,1.4,2l0,0
		C39.3,15.2,38.4,15.8,37.5,15.7z"/>
	<line class="st0" x1="19.3" y1="29.7" x2="15.2" y2="28.9"/>
	<path class="st0" d="M15.7,26.5l-0.9,4.8c-0.2,0.9-1.1,1.5-2,1.4h0c-0.9-0.2-1.5-1.1-1.4-2l0.9-4.8c0.2-0.9,1.1-1.5,2-1.4h0
		C15.2,24.7,15.8,25.6,15.7,26.5z"/>
	<line class="st0" x1="44.7" y1="34.3" x2="48.8" y2="35.1"/>
	<path class="st0" d="M48.3,37.5l0.9-4.8c0.2-0.9,1.1-1.5,2-1.4h0c0.9,0.2,1.5,1.1,1.4,2l-0.9,4.8c-0.2,0.9-1.1,1.5-2,1.4h0
		C48.8,39.3,48.2,38.4,48.3,37.5z"/>
	<line class="st0" x1="21.4" y1="39.3" x2="18" y2="41.7"/>
	<path class="st0" d="M16.6,39.7l2.8,4c0.5,0.8,0.3,1.8-0.4,2.4l0,0c-0.8,0.5-1.8,0.3-2.4-0.4l-2.8-4c-0.5-0.8-0.3-1.8,0.4-2.4l0,0
		C15,38.7,16,38.9,16.6,39.7z"/>
	<line class="st0" x1="42.6" y1="24.7" x2="46" y2="22.3"/>
	<path class="st0" d="M47.4,24.3l-2.8-4c-0.5-0.8-0.3-1.8,0.4-2.4l0,0c0.8-0.5,1.8-0.3,2.4,0.4l2.8,4c0.5,0.8,0.3,1.8-0.4,2.4l0,0
		C49,25.3,48,25.1,47.4,24.3z"/>
	<line class="st0" x1="24.7" y1="21.4" x2="22.3" y2="18"/>
	<path class="st0" d="M24.3,16.6l-4,2.8c-0.8,0.5-1.8,0.3-2.4-0.4l0,0c-0.5-0.8-0.3-1.8,0.4-2.4l4-2.8c0.8-0.5,1.8-0.3,2.4,0.4l0,0
		C25.3,15,25.1,16,24.3,16.6z"/>
	<line class="st0" x1="39.3" y1="42.6" x2="41.7" y2="46"/>
	<path class="st0" d="M39.7,47.4l4-2.8c0.8-0.5,1.8-0.3,2.4,0.4l0,0c0.5,0.8,0.3,1.8-0.4,2.4l-4,2.8c-0.8,0.5-1.8,0.3-2.4-0.4l0,0
		C38.7,49,38.9,48,39.7,47.4z"/>
	<circle class="st0" cx="35.8" cy="37.7" r="2.4"/>
	<circle class="st0" cx="27.3" cy="31.1" r="3.8"/>
	<circle class="st0" cx="37" cy="27.9" r="2.8"/>
	<circle class="st0" cx="32" cy="32" r="28.8"/>
	<line class="st0" x1="25" y1="42.8" x2="16.4" y2="56.2"/>
	<line class="st0" x1="47.6" y1="7.8" x2="39" y2="21.2"/>
</g>
</svg>
