<?xml version="1.0" encoding="utf-8"?>
<!-- Generator: Adobe Illustrator 28.5.0, SVG Export Plug-In . SVG Version: 9.03 Build 54727)  -->
<svg version="1.0" id="Layer_1" xmlns="http://www.w3.org/2000/svg" xmlns:xlink="http://www.w3.org/1999/xlink" x="0px" y="0px"
	 viewBox="0 0 64 64" style="enable-background:new 0 0 64 64;" xml:space="preserve">
<style type="text/css">
	.st0{fill:none;stroke:#231F20;stroke-width:2;stroke-linecap:round;stroke-linejoin:round;stroke-miterlimit:10;}
</style>
<g>
	<polygon class="st0" points="43.2,10.8 6.9,10.8 5.9,3.1 44.2,3.1 	"/>
	<polyline class="st0" points="31.7,57.7 5.9,57.7 6.9,50 34,50 	"/>
	<path class="st0" d="M6.9,10.8L6.9,10.8c-4,12.8-4,26.5,0,39.2l0,0"/>
	<path class="st0" d="M43.2,10.8c3.1,10,3.8,20.5,2,30.7"/>
	<g>
		<path class="st0" d="M30.5,30.9c0,0,0,0.1,0,0.1c0.6,1.6,1.4,3,2.5,4.2c0.1,0.1,0.2,0.2,0.3,0.3c3.1,3.6,0.3,9.2-4.4,8.8
			c-0.2,0-0.4,0-0.6-0.1c-2.2-0.4-4.5-0.4-6.7,0c-0.2,0-0.4,0.1-0.6,0.1c-4.7,0.4-7.5-5.3-4.4-8.8c0.1-0.1,0.2-0.2,0.3-0.3
			c1.2-1.2,2-2.6,2.5-4.2c0,0,0-0.1,0-0.1C21.5,25.8,28.7,25.8,30.5,30.9z"/>
		<ellipse transform="matrix(0.9877 -0.1564 0.1564 0.9877 -3.0561 3.571)" class="st0" cx="21.2" cy="21.2" rx="2.5" ry="3.7"/>
		<ellipse transform="matrix(0.1564 -0.9877 0.9877 0.1564 3.4784 46.4854)" class="st0" cx="29" cy="21.2" rx="3.7" ry="2.5"/>
		<ellipse transform="matrix(0.5 -0.866 0.866 0.5 -4.9121 43.9981)" class="st0" cx="35.6" cy="26.3" rx="3.7" ry="2.5"/>
		<ellipse transform="matrix(0.866 -0.5 0.5 0.866 -11.1876 10.7534)" class="st0" cx="14.5" cy="26.3" rx="2.5" ry="3.7"/>
	</g>
	<path class="st0" d="M57.6,60.9H34.1c-1.7,0-2.9-1.6-2.4-3.2l2.5-8.4c0.3-1,1.2-1.6,2.2-1.6h18.8c1,0,1.9,0.7,2.2,1.6l2.5,8.4
		C60.4,59.3,59.3,60.9,57.6,60.9z"/>
	<path class="st0" d="M54.1,47.7c0.3-0.7,0.4-1.4,0.3-2.2c-0.2-2.7-2.4-4.9-5-5.2c-1.6-0.1-3,0.3-4.1,1.3c-0.4,0.4-0.8,0.8-1.1,1.2
		c-0.5,0.7-1.3,1.2-2.1,1.1c-0.1,0-0.2,0-0.3,0c-2.1,0-3.8,1.7-3.8,3.8"/>
</g>
</svg>
