<svg xmlns="http://www.w3.org/2000/svg" viewBox="0 0 4680 3120"><defs><style>.cls-1,.cls-5{fill:#fff;}.cls-1{opacity:0;}.cls-2{fill:#d4ebf4;}.cls-3{fill:#b1d8e5;}.cls-4{opacity:0.8;}.cls-6{opacity:0.56;}.cls-7{fill:#2c8790;}.cls-8{fill:#38a8ad;}.cls-9{fill:#0a5c60;}.cls-10{fill:#8bc3c0;}.cls-11{fill:#62b5ad;}.cls-12{fill:#3ea399;}.cls-13{fill:#fca995;}.cls-14{fill:#005691;}.cls-15{fill:#e5604e;}.cls-16{fill:#80c9dd;}.cls-17{fill:#00b4e3;}.cls-18{fill:#52acc1;}.cls-19{fill:#c9592d;}.cls-20{fill:#eb8253;}.cls-21{fill:#a33c1c;}.cls-22{opacity:0.4;}.cls-23{fill:#156063;}.cls-24{fill:#099ec6;}.cls-25{fill:#002f55;}.cls-26{fill:#181e4c;}.cls-27{fill:#ff8871;}.cls-28{opacity:0.55;}.cls-29{fill:#ff7155;}.cls-30{fill:#ffc994;}.cls-31{fill:#ffb069;}.cls-32{fill:#ff983b;}.cls-33{fill:#fdc500;}</style></defs><title>07</title><g id="_07" data-name="07"><rect id="_08" data-name="08" class="cls-1" width="4680" height="3120"/><path class="cls-2" d="M3253,1220.2c-116.66-54.47-241.27-112.57-308.87-222.19-67.79-109.85-63.35-244.27-105.64-363.19C2801.33,530.39,2728,435.1,2628.52,383.66q-10.29-5.31-20.87-10.08c-9.58-4.25-19.36-8.22-29.4-11.72-2.34-.86-4.72-1.68-7.09-2.46-5.45-1.83-10.9-3.5-16.39-5.1-.9-.27-1.8-.54-2.69-.78-206.19-58.76-413.89,36.6-596.48,128.23-184.57,92.68-347.38,214.92-495,359.35-150.34,147.07-288.93,308.43-381.88,503.4-88.12,184.82-189.13,389.36-154.44,598.34,35.44,213.24,192.48,380.48,377.06,489.28a1107.61,1107.61,0,0,0,187.14,87.81c226,81.27,470.16,95.87,710.34,97.74,177.84,1.4,357.19-3.9,530.4-44.27,114.56-26.72,227.17-75.59,331.37-141.32,264.91-167.2,475.42-443.68,525.18-743.4,7-42.21,8.26-80.64,4.52-115.72C3570.66,1388.19,3405.44,1291.38,3253,1220.2Z"/><path class="cls-3" d="M3365.33,1276.78l-20.17-11.56c-19.66-11-39.95-21.58-60.59-31.78l-20.17-9.93c-20-9.62-40.22-19-60.59-28.31l-20.17-9.23-32.16-14.6c-1.13-.47-2.22-1-3.39-1.52-8.61-3.89-16.94-7.9-25-12.11-6.89-3.5-13.63-7.16-20.17-10.9a460.16,460.16,0,0,1-60.59-41.2q-10.45-8.42-20.17-17.33c-1.29-1.13-2.53-2.29-3.78-3.46a410.52,410.52,0,0,1-56.81-65.85q-10.8-15.54-20.17-32c-34-59.38-55.45-128.3-68.65-206.22-1.4-8-2.65-16.12-3.86-24.34a610.6,610.6,0,0,0-16.35-77.57c-13.24-47.39-32.17-92.44-56.54-133.29-6.35-10.63-13.09-21-20.17-31.07a442.68,442.68,0,0,0-52.49-61.8q-9.83-9.63-20.21-18.5a395.67,395.67,0,0,0-50.47-36.87c-6.62-4.05-13.32-7.94-20.21-11.61-1.28-.7-2.61-1.4-3.89-2.06q-10.29-5.31-20.87-10.08c-9.58-4.25-19.36-8.22-29.4-11.72V2600.22c31.65-3.15,63.16-7.16,94.46-12.46,70.84-11.91,140.93-30.33,211.21-60q33.12-14,65.27-30.22,37.32-18.81,73.16-40.38l19.94-12.31c3.27-2,6.54-4.08,9.77-6.19,3.39-2.18,6.78-4.36,10.17-6.62.82-.5,1.63-1,2.45-1.59q19.34-12.79,38.2-26.44,10.17-7.25,20.17-14.88c2-1.44,3.93-2.92,5.92-4.44q26.28-20,51.52-41.66c1.05-.9,2.1-1.76,3.15-2.69.74-.62,1.52-1.28,2.26-2,6-5.18,12-10.43,17.91-15.81q10.17-9.1,20.13-18.45,20.63-19.34,40.46-39.72c2.69-2.73,5.34-5.49,8-8.26a1.64,1.64,0,0,0,.24-.27q6-6.32,12-12.69c2.22-2.38,4.44-4.72,6.62-7.09,3-3.39,6.12-6.7,9.11-10.09,9-10,17.88-20.29,26.6-30.64,0,0,.08-.12.16-.16,4.47-5.33,8.84-10.63,13.24-16,1.12-1.36,2.25-2.73,3.38-4.17a.65.65,0,0,0,.12-.15c.47-.55.9-1.13,1.36-1.68q10.29-12.67,20.17-25.7,6.26-8.18,12.39-16.47c3.62-4.91,7.2-9.77,10.71-14.72,1.79-2.45,3.54-4.91,5.29-7.4,5.3-7.43,10.51-15,15.62-22.47,1-1.48,2-3,3-4.43V1306.49c-12.15-8.37-24.73-16.39-37.66-24.18C3371.56,1280.44,3368.45,1278.61,3365.33,1276.78Z"/><g class="cls-4"><polygon class="cls-5" points="2632.41 2386.56 2652.62 2386.56 2652.62 397.33 2632.41 385.73 2632.41 2386.56"/></g><g class="cls-4"><polygon class="cls-5" points="2703.09 2457.2 2723.3 2457.2 2723.3 452.7 2703.09 434.2 2703.09 2457.2"/></g><g class="cls-4"><path class="cls-5" d="M2775.79,2457.2H2796V545.57c-6.35-10.63-13.09-21-20.17-31.07Z"/></g><g class="cls-4"><polygon class="cls-5" points="2852.5 2457.2 2872.71 2457.2 2872.71 780.77 2852.5 678.86 2852.5 2457.2"/></g><g class="cls-4"><polygon class="cls-5" points="2941.36 2457.2 2961.53 2457.2 2961.53 1019 2941.36 986.99 2941.36 2457.2"/></g><g class="cls-4"><polygon class="cls-5" points="3022.12 2457.2 3022.35 2457.2 3042.29 2444.89 3042.29 1105.64 3022.12 1088.31 3022.12 2457.2"/></g><g class="cls-4"><polygon class="cls-5" points="3102.88 2404.05 3123.05 2389.17 3123.05 1157.74 3102.88 1146.84 3102.88 2404.05"/></g><g class="cls-4"><polygon class="cls-5" points="3183.64 2340.38 3203.81 2322.62 3203.81 1195.2 3183.64 1185.97 3183.64 2340.38"/></g><g class="cls-4"><path class="cls-5" d="M3264.4,2264.45c2.69-2.73,5.34-5.49,8-8.26a1.64,1.64,0,0,0,.24-.27q6-6.32,12-12.69V1233.44l-20.17-9.93Z"/></g><g class="cls-4"><path class="cls-5" d="M3345.16,2173.21q10.29-12.67,20.17-25.7V1276.78l-20.17-11.56Z"/></g><path class="cls-3" d="M1723.43,2004.58H2356.8v-950H1723.43Zm62.77-895.3h511.08v835H1786.2Z"/><g class="cls-6"><rect class="cls-5" x="1784.8" y="1109.14" width="512.42" height="835.02"/></g><path class="cls-3" d="M1166.24,1992.54h486.9V1262.18h-486.9Zm48.24-688.28h392.91v641.91H1214.48Z"/><g class="cls-6"><rect class="cls-5" x="1213.41" y="1304.16" width="393.93" height="641.93"/></g><path class="cls-3" d="M2244.36,934.82h283.23V510H2244.36Zm28.06-400.36H2501V907.84H2272.42Z"/><g class="cls-6"><rect class="cls-5" x="2271.8" y="534.4" width="229.14" height="373.4"/></g><path class="cls-3" d="M1612.15,1132.82h-360.5v-62.77l-1,1.33c-2,2.6-4,5.25-6,7.86-8,10.55-15.85,21.11-23.6,31.62q-6,8.36-11.87,16.63l-.94,1.32-.89,1.25v45.28h446.75V672.44q-21.37,16.23-42,32.63Z"/><g class="cls-6"><path class="cls-5" d="M1252.66,1068.73c-.35.43-.66.89-1,1.32l-1,1.32v61.37h361.47V705.11q-49.47,39.3-94.42,79.51C1412.74,878.12,1325.4,974.1,1252.66,1068.73Z"/></g><path class="cls-3" d="M2135.19,923H1774.65V586.77l-1,.66q-22,14.67-43.3,29.52V965.58h446.8V377.7q-21.09,7.08-42,15.11Z"/><g class="cls-6"><path class="cls-5" d="M1908.09,503.63c-11.6,6.7-23,13.56-34.38,20.37-.93.58-1.79,1.09-2.73,1.64-19,11.56-37.65,23.2-55.8,34.73-.66.47-1.32.9-2,1.32h0q-19.51,12.45-38.47,25.08l-1,.66V923h361.48V392.81c-78.11,29.83-154,68.54-225,109.62C1909.46,502.82,1908.76,503.21,1908.09,503.63Z"/></g><path class="cls-7" d="M3420.71,1761.91l-27.41,58.25s22.09-97.37,16.64-112.38-67.72-116.75-101.78-132.66c-29.29-13.68-94.56-30.52-112.45-35h-.05c-2.9-.76-4.55-1.14-4.55-1.14l25.41,86,90.05,45-79.1-14.94s43.85,142.16,52,149.59,88.67,68.81,88.67,68.81l-83.61-35.78s28.29,116,50.54,134.55c21.75,18.12,82.89,59.63,85.79,61.58a.16.16,0,0,0,.09.07s45.57-89.95,41.71-141.53S3420.71,1761.91,3420.71,1761.91Z"/><path class="cls-8" d="M3195.71,1540.12h-.05c-2.9-.76-4.55-1.14-4.55-1.14l25.41,86,90.05,45-79.1-14.94s43.85,142.16,52,149.59,88.67,68.81,88.67,68.81l-83.61-35.78s28.29,116,50.54,134.55c21.75,18.12,82.89,59.63,85.79,61.58-7.29-80.47-47.15-251.07-104.76-362C3279.92,1602.06,3231.86,1562.07,3195.71,1540.12Z"/><path class="cls-9" d="M3420.09,1992.37c-1.08-13.77-2.83-27.47-5.12-41.07q-7.09-40.79-17.68-80.84c-7.06-26.67-15.2-53.06-24.81-78.91q-3.6-9.71-7.45-19.3t-8.14-19q-4.21-9.45-9-18.62c-1.6-3.06-3.27-6.08-5.08-9-.91-1.47-1.85-2.92-2.85-4.33-.51-.7-1-1.39-1.62-2a8.88,8.88,0,0,0-.92-.92,2.61,2.61,0,0,0-1.11-.65,2.67,2.67,0,0,1,1,.76,9.77,9.77,0,0,1,.79,1c.48.7.92,1.43,1.34,2.17.84,1.49,1.6,3,2.34,4.56,1.46,3.09,2.8,6.24,4.12,9.4,2.62,6.32,5,12.76,7.31,19.19s4.52,12.92,6.63,19.43,4.24,13,6.23,19.56q11.92,39.29,21.39,79.22t16.7,80.27c2.49,13.44,5,26.87,7.74,40.31,1.33,6.72,2.77,13.43,4.23,20.15s3,13.45,4.81,20.17c.39-6.94.41-13.87.24-20.78S3420.62,1999.25,3420.09,1992.37Z"/><path class="cls-7" d="M3997.82,1522.82c-27.21-15.76-237-11.56-258.2,1.94s-48,71.9-48,71.9l-10.92-44.09s-56,27.68-90.54,59.32-51,112.43-51,112.43l-.11-69.79C3415.51,1833.27,3440,2018,3440,2018a3.13,3.13,0,0,0,.82.15c48.89,10,135.56-98.6,135.56-98.6l-78.28,2s67.29-24.12,92.68-36.21,80.17-96.37,80.17-96.37l-56.14-53,94.19,29.38,107.16-70.34-65.47-86.72,111.23,69.73,16.58-16.52-75.92-74.07,110.15,55.39c31.18-9.5,106-96.68,87.86-117.71A8.51,8.51,0,0,0,3997.82,1522.82Z"/><path class="cls-8" d="M3647.54,1655.84c-101,94.61-166.6,196.54-206.76,362.35,48.89,10,135.56-98.6,135.56-98.6l-78.28,2s67.29-24.12,92.68-36.21,80.17-96.37,80.17-96.37l-56.14-53,94.19,29.38,107.16-70.34-65.47-86.72,111.23,69.73,16.58-16.52-75.92-74.07,110.15,55.39c31.18-9.5,106-96.68,87.86-117.71C3909.53,1540.62,3729.23,1579.3,3647.54,1655.84Z"/><path class="cls-9" d="M3673.75,1642.18c-.59.14-1.18.28-1.75.47-1.14.36-2.29.74-3.41,1.17-2.27.81-4.47,1.78-6.69,2.74s-4.37,2-6.5,3.15l-3.21,1.66-3.16,1.77a247.05,247.05,0,0,0-24.24,15.83,337.45,337.45,0,0,0-43,38.86,420.13,420.13,0,0,0-36.4,45.11,526,526,0,0,0-30.63,49.14l-1.77,3.16c-.58,1.06-1.12,2.13-1.68,3.2l-3.34,6.42-3.33,6.42c-1.14,2.13-2.19,4.29-3.22,6.47l-6.2,13.06c-.52,1.09-1.05,2.17-1.54,3.27l-1.46,3.31-2.88,6.62-2.87,6.63c-1,2.21-1.92,4.41-2.79,6.66l-5.3,13.42c-.87,2.25-1.77,4.48-2.62,6.73l-2.43,6.79-4.82,13.59a754.51,754.51,0,0,0-28.72,111.36c1.54-4.54,3-9.1,4.48-13.64l4.34-13.67,9.12-27.15,9.56-26.94c3.46-8.88,6.71-17.82,10.19-26.67,7.12-17.64,14.3-35.22,22.38-52.39l3-6.47,1.48-3.23c.5-1.07,1-2.13,1.56-3.19l6.3-12.75c2-4.29,4.33-8.42,6.51-12.63l3.3-6.29c.56-1,1.09-2.1,1.67-3.13l1.74-3.1,6.94-12.38c2.37-4.1,4.87-8.11,7.27-12.19,1.23-2,2.38-4.09,3.68-6.06l3.82-6,3.82-6c1.25-2,2.63-3.92,3.94-5.88a500.31,500.31,0,0,1,34.05-45.31,389.71,389.71,0,0,1,39.58-40.57,275.2,275.2,0,0,1,22.3-17.62l2.91-2.06,3-2c2-1.34,4-2.53,6-3.78s4.1-2.42,6.23-3.49c1.05-.57,2.12-1.07,3.21-1.57.53-.27,1.09-.48,1.64-.7.28-.11.55-.23.83-.32l.87-.23-.9.11C3674.33,1642,3674,1642.11,3673.75,1642.18Z"/><path class="cls-10" d="M3556,1392.24a20.94,20.94,0,0,0-7.71-2.82A31.34,31.34,0,0,0,3530,1392c-61.42,27.34-102.16,105.44-118.89,154-17,49.13,12.28,114,13.59,116.84l-26.21-48.51c-20.14,83.57,11.81,172.17,11.81,172.17l-23.41-27.85c1.67,33.69,38.4,127.73,38.4,127.73,52-31,69.93-94.19,70.48-96.14-11.95,14.86-27.57,7.58-27.57,7.58,79.24-51.49,50.32-183,49.71-235.37s17-96.81,38.12-138.18C3565.7,1405.26,3562.39,1396.33,3556,1392.24Z"/><path class="cls-11" d="M3556,1392.24c-67.64,51.66-83.83,139.75-98.08,209.24-15.42,75.26-32.67,284.9-32.67,284.9,52-31,69.93-94.19,70.48-96.14-11.95,14.86-27.57,7.58-27.57,7.58,79.24-51.49,50.32-183,49.71-235.37s17-96.81,38.12-138.18C3565.7,1405.26,3562.39,1396.33,3556,1392.24Z"/><path class="cls-12" d="M3469.85,1545.17l-3.29,12.35c-1.07,4.13-2,8.27-3,12.41s-2,8.3-2.9,12.45c-7.6,33.24-13.4,66.85-18.35,100.55-2.37,16.87-4.6,33.75-6.52,50.67s-3.66,33.85-5,50.82-2.64,33.94-3.61,50.93-1.68,34-1.84,51q5.48-50.76,11.39-101.35c2.08-16.86,4-33.73,6.31-50.55l3.32-25.25c1.18-8.4,2.33-16.81,3.6-25.2s2.44-16.79,3.7-25.18,2.65-16.76,4-25.13,2.8-16.73,4.24-25.09,3-16.69,4.63-25c3.22-16.65,6.59-33.28,10.5-49.79s8.08-33,12.82-49.32c-6.36,15.79-11.62,32-16.47,48.36C3472.16,1537,3470.94,1541.05,3469.85,1545.17Z"/><rect class="cls-2" x="3143.09" y="714.9" width="60.25" height="283.19"/><rect class="cls-2" x="3030.44" y="826.36" width="283.19" height="60.25"/><rect class="cls-2" x="1180.25" y="2481.31" width="50.13" height="235.61"/><rect class="cls-2" x="1086.53" y="2574.05" width="235.61" height="50.13"/><rect class="cls-2" x="3509.4" y="1046.14" width="33.25" height="156.27"/><rect class="cls-2" x="3447.24" y="1107.65" width="156.27" height="33.25"/><rect class="cls-2" x="1545.89" y="2661.62" width="27.11" height="127.42"/><rect class="cls-2" x="1495.21" y="2711.77" width="127.42" height="27.11"/><rect class="cls-2" x="3534.38" y="749.85" width="23.79" height="111.79"/><rect class="cls-2" x="3489.91" y="793.85" width="111.79" height="23.78"/><rect class="cls-2" x="771.34" y="1199.52" width="49.36" height="231.99"/><rect class="cls-2" x="679.06" y="1290.84" width="231.99" height="49.36"/><rect class="cls-2" x="1051.35" y="959.13" width="31.97" height="150.25"/><rect class="cls-2" x="991.58" y="1018.27" width="150.25" height="31.97"/><path class="cls-13" d="M2039.94,1972.54l13.86,146.88s109.46,4.16,152.42-5.54l-49.89-121.94Z"/><polygon class="cls-14" points="2173.95 1247.6 2182.79 1338.18 2291.05 1338.18 2262.32 1240.97 2173.95 1247.6"/><path class="cls-13" d="M2179.86,1265.2l-26.64-14.29s-52.1,96.65-47.39,214.13l79.6,115.57s111.79-74.84,94.74-261.48Z"/><path class="cls-15" d="M2153.22,1250.91s-52.1,96.65-47.39,214.13l79.6,115.57c22-91.28,16.12-221.9,1.05-316.91Z"/><path class="cls-5" d="M2129.75,1510.44l-8.29,109.5L2282.25,1692l-13.86-261.51C2233.27,1579.28,2129.75,1510.44,2129.75,1510.44Z"/><path class="cls-16" d="M1082.69,2258.67c2.92,3.31,5.92,6.62,8.92,9.85q8.64,9.46,17.56,18.49c19.51,20,39.84,38.79,60.83,56.51q20.32,17.22,41.62,33.05a933.31,933.31,0,0,0,85.48,56.78,2.34,2.34,0,0,0,.27.15c2.06,1.25,4.09,2.46,6.23,3.66l5.06,3H3050c3.39-2.18,6.78-4.36,10.17-6.62.82-.5,1.63-1.05,2.45-1.59q32.88-21.73,64.29-45.76,26.28-20,51.52-41.66c1.83-1.52,3.62-3,5.41-4.64q19.39-16.7,38-34.26,24.82-23.25,48.45-48a1.68,1.68,0,0,0,.23-.27c6.23-6.54,12.42-13.16,18.57-19.78,3-3.39,6.12-6.7,9.11-10.09q13.5-15.06,26.6-30.64s.08-.12.16-.16c4.47-5.33,8.84-10.63,13.24-16,1.13-1.36,2.25-2.73,3.38-4.17a.49.49,0,0,0,.12-.15q17.46-21.49,33.92-43.85c3.62-4.9,7.2-9.77,10.71-14.72H1235.73Z"/><path class="cls-17" d="M1995.61,1601.8l12.46,395.68s211.47,75.74,292.37-11.08S1995.61,1601.8,1995.61,1601.8Z"/><path class="cls-17" d="M2423.83,1217.43l-111.46,1.28-108,26.53s27.47-3.79,37.9,9.47c6.94,8.84,26.11,179.53,27.72,293.91.81,57.33-14.46,102.08-14.46,102.08s-1.28.11-3.57.17c-48.57,1.32-91.06-32.58-101.33-80.08L2111.06,1384s-72.57,88.93-88.68,111.67c-13.6,25.72-20.59,71.93-25.26,100.66-3.94,24.2,9.61,59.38,15.42,83.88,7.07,29.88,14.31,59.73,22.5,89.33,15.62,56.53,32.1,115.93,61.33,167.22,54,94.74,279.37,183.2,344.74,151.93s153.1,80.58,289,49.23c167.55-38.65-157.58-817.32-207.58-876A127.68,127.68,0,0,0,2423.83,1217.43Z"/><path class="cls-18" d="M1299.24,2433.54a1107.61,1107.61,0,0,0,187.14,87.81c226,81.27,470.16,95.87,710.34,97.74,177.84,1.4,357.19-3.89,530.4-44.27,114.56-26.72,227.17-75.59,331.37-141.32.55-1.63,1.13-3.27,1.68-4.94H1297.37C1298,2430.23,1298.61,2431.91,1299.24,2433.54Z"/><path class="cls-19" d="M2006.2,1862.84l8.08.14a53.35,53.35,0,0,1-9.24-1A13.35,13.35,0,0,0,2006.2,1862.84Z"/><ellipse class="cls-18" cx="1470.06" cy="2290.38" rx="195.92" ry="49.11"/><path class="cls-20" d="M1577.26,2006.51a61.81,61.81,0,0,0-12.44-1.23H1358.5c-21.88,0-39.47,3.12-38.18,16l26.32,268c1.17,11.67,17.41,20.83,37.28,21.05l44.4.49,18.52.2,30.69.34,8.84.1c1,0,2,0,3.14,0l52.91.58c20.55.24,37.71-9.2,38.73-21.28l21.66-262C1603.67,2018.55,1592.79,2009.66,1577.26,2006.51Z"/><path class="cls-8" d="M1658.21,1483.87c-19.67-11.8-89.85-16.39-93.13-17s-26.23,18.36-43.29,35.42-45.91,112.15-47.22,115.43L1472,1699s18.36,15.09,64.27,7.87,66.9-69.52,66.9-69.52,8.53-44.6,13.12-64.27,78.7-56.4,78.7-56.4S1677.89,1495.68,1658.21,1483.87Z"/><path class="cls-7" d="M1565.08,1466.82s45.91,104.94,51.16,106.25,28.85,34.1,38,63,11.8,84,11.8,84l-2.62,31.48s38.69-103.62,39.35-122-7.87-112.8-7.87-112.8S1683.13,1462.23,1565.08,1466.82Z"/><path class="cls-19" d="M1577.26,2006.51a61.81,61.81,0,0,0-12.44-1.23h-90.16c5,1,56.67,13.91,73.87,30.06,17.93,16.87,33.45,213.83-10.8,246.87-23.6,17.63-70.65,25.25-109.41,28.53l18.52.2,30.69.34,8.84.1c1,0,2,0,3.14,0l52.91.58c20.55.24,37.71-9.2,38.73-21.28l21.66-262C1603.67,2018.55,1592.79,2009.66,1577.26,2006.51Z"/><path class="cls-21" d="M1466.29,1987.2c-81,0-146.63,16.71-146.63,37.31s65.65,37.31,146.63,37.31,137.75-10.3,137.75-30.9S1547.27,1987.2,1466.29,1987.2Z"/><path class="cls-14" d="M1449.62,1658.67l-21.7-227.82a5.84,5.84,0,1,0-11.63,1.11L1438,1659.59l11.32,396a5.85,5.85,0,0,0,5.83,5.68h.18a5.84,5.84,0,0,0,5.67-6l-11.33-396.24C1449.64,1658.93,1449.63,1658.8,1449.62,1658.67Z"/><path class="cls-14" d="M1398.43,1814.34a5.84,5.84,0,0,0-10.36,5.41c.51,1,51.55,99.88,59.92,202.36a5.84,5.84,0,0,0,5.81,5.37l.49,0a5.84,5.84,0,0,0,5.34-6.3C1451.07,1916.27,1399,1815.35,1398.43,1814.34Z"/><path class="cls-14" d="M1509.11,1785a5.84,5.84,0,0,0-7.29,3.88c-.14.46-14.32,47-27.94,103.12-18.34,75.65-27,131.83-25.69,167a5.84,5.84,0,0,0,5.83,5.63h.22a5.84,5.84,0,0,0,5.62-6c-3-81.53,52.57-264.42,53.13-266.26A5.84,5.84,0,0,0,1509.11,1785Z"/><path class="cls-8" d="M1581.15,1789.84c-18.8-9.15-53.43-16.58-80.76-4.28-14.33,6.41-26.62,18.24-33.65,38-4,11.25-13.68,54,4.53,80.27l38.09-6.81-18.71,32.81s82.33,55.31,117.67,101.8c34.88,45.94,35.1,78.91,35.1,79.71,0,0,.83-3.2,2.09-8.9,5.33-23.94,18.24-91.91,8.35-152.64C1641.66,1874.67,1611.28,1804.54,1581.15,1789.84Z"/><path class="cls-8" d="M1282.58,1698.82s-105.59,18.37-120.69,23.6-57.71,69.52-57.71,69.52c21.66-17.69,101-7.86,101-7.86l39.35-15.75s-20.34,21.63-17,19.69,81.31,30.17,97.06,35.41c10.23,3.38,40.3,3.48,60.17,3.11,10.75-.19,18.52-.5,18.52-.5s-21-72.8-35.4-89.2S1282.58,1698.82,1282.58,1698.82Z"/><path class="cls-8" d="M1420.1,1247.36c-7.22-7.87-42-30.17-42-30.17-29.51-10.5-87.88,7.87-87.88,7.87s3.93,15.08,18.36,17,30.17,63,30.17,63l22.3-7.87-17,27.55s5.9,54.43,18.36,77.39c7.64,14.07,29.07,26.66,44.52,34.3a27,27,0,0,0,30.22-4.45l9.59-8.88a73.55,73.55,0,0,0,18.87-28l.37-1a95.4,95.4,0,0,0-6.42-81C1443.58,1285.16,1424.2,1251.83,1420.1,1247.36Z"/><path class="cls-7" d="M1286.3,1213.25c-22.46,18-115.43,49.85-115.43,49.85,26.24,13.11,85.38,1.22,98.38-10.5,17-15.32,114.62-31.26,108.87-35.41C1354.51,1200.14,1319.09,1187,1286.3,1213.25Z"/><path class="cls-14" d="M1370.9,1691.05a5.84,5.84,0,0,0-10.18,5.73c.84,1.49,83.62,150,86.5,283.7a5.85,5.85,0,0,0,5.84,5.72h.13a5.85,5.85,0,0,0,5.71-6c-1.54-71.47-25.39-146.3-45.13-196.49C1392.42,1729.47,1371.12,1691.43,1370.9,1691.05Z"/><path class="cls-8" d="M1278.48,1475.34c-3.26-.64-68.18-25.57-94.44-22.3-25.72,3.23-113.48,64.61-116.65,66.86,50.5-25.51,129.78,1.35,129.78,1.35l38-9.18-22.28,19.69s60.33,106.89,72.14,123.28c11.58,16.11,77.36,42.24,79.92,43.26l.09,0c13.13-1.3,39.35-80,18.37-122S1281.78,1476,1278.48,1475.34Z"/><path class="cls-7" d="M1500.39,1785.56c-14.33,6.41-26.62,18.24-33.65,38-4,11.25-13.68,54,4.53,80.27l38.09-6.81-18.71,32.81s82.33,55.31,117.67,101.8c34.88,45.94,35.1,78.91,35.1,79.71,0,0,.83-3.2,2.09-8.9-4-49.49-21-139.24-44.09-189.06C1580,1867.15,1526.7,1809.5,1500.39,1785.56Z"/><path class="cls-7" d="M1104.18,1791.94c21.66-17.69,101-7.86,101-7.86l39.35-15.75s-20.34,21.63-17,19.69,81.31,30.17,97.06,35.41c10.23,3.38,40.3,3.48,60.17,3.11l18.74.56s-104-98.68-117.58-98.68S1161,1743.28,1104.18,1791.94Z"/><g class="cls-22"><path class="cls-5" d="M1359.79,2084.09c-6.24.19-11.16,2.72-10.92,5.63l10.69,132.68c.23,2.91,5.53,5.14,11.77,5s11.15-2.72,10.91-5.63l-10.68-132.68C1371.32,2086.14,1366,2083.91,1359.79,2084.09Z"/></g><g class="cls-22"><path class="cls-5" d="M1374,2238.19c-6,.15-10.76,3.17-10.51,6.72l1.73,24.15c.25,3.54,5.39,6.32,11.42,6.17s10.76-3.17,10.51-6.71l-1.73-24.16C1385.13,2240.82,1380,2238,1374,2238.19Z"/></g><path class="cls-7" d="M1272.72,1504c-9.89-10.54-50.07-30.32-80.39-28.35s-117.33,39.26-124.94,44.28c50.5-25.51,129.78,1.35,129.78,1.35l38-9.18-22.28,19.69s60.33,106.89,72.14,123.28c11.58,16.11,77.36,42.24,79.92,43.26l.09,0s-28.4-114.65-41-135.73S1272.72,1504,1272.72,1504Z"/><path class="cls-7" d="M1353.46,1236.26c.61.94,61.64,95,65,172.17l3.89-.17c-3.46-78.21-65.06-173.18-65.69-174.13Z"/><path class="cls-23" d="M1273.78,1502.34l-2.12,3.26c.16.1,16.45,10.92,35,37.42,17.11,24.48,39.67,67.72,50,134.74l3.85-.59c-10.48-67.9-33.42-111.76-50.82-136.59C1290.74,1513.54,1274.47,1502.78,1273.78,1502.34Z"/><path class="cls-23" d="M1512.08,1679.08l3.11,2.34c.42-.56,42.21-57,62.24-146.78l-3.8-.85C1553.79,1622.7,1512.49,1678.53,1512.08,1679.08Z"/><path class="cls-23" d="M1640.42,1497l-3.22,2.19c.28.42,28.3,41.62,31.67,64.56,3.17,21.53,8.4,69.77,5.55,98.27l3.88.38c2.89-28.87-2.39-77.53-5.58-99.22C1669.22,1539.32,1641.59,1498.67,1640.42,1497Z"/><path class="cls-7" d="M1487,1596.68l18.36-26.24-31.48-106.25c-5.9,15.75-38,77.4-38,77.4l-42,114.11s5.9,66.24,10.49,80,40.67,60.34,40.67,60.34l39.35-40.67s34.76-67.55,39.35-85.26-11.81-80-11.81-80Z"/><path class="cls-23" d="M1464.54,1523.14c-.8,7.17-19.52,175.89-19.52,190.83s1.49,49.28,1.5,49.62l3.89-.17c0-.34-1.5-34.65-1.5-49.45s19.31-188.65,19.5-190.4Z"/><path class="cls-23" d="M1286.2,1726.44l-.48,0c-.65,0-65.32,5.59-117,27.32l1.51,3.59c48.73-20.49,109.26-26.43,115.32-27,32.13,14.46,115.7,97.24,116.54,98.08l2.74-2.77c-3.48-3.46-85.72-84.91-118.18-99.08Z"/><path class="cls-23" d="M1532.86,1821.44c.52.6,52.18,59.74,66.78,92.77l3.56-1.57c-14.83-33.57-65.27-91.32-67.41-93.76Z"/><path class="cls-23" d="M1610.26,1943.56c.2.54,19.65,54.16,24.25,97.45l3.88-.42c-4.66-43.76-24.27-97.82-24.47-98.36Z"/><path class="cls-24" d="M2310.21,1927.84l17.13-108.1-102.19,39.58s-45.18-11.67-58.46-2.47c0,0-83.49-63.07-127.56-198.51,33.62,118,132.8,453.78,177.4,470.61,54.16,20.44,293.49-157.66,293.49-157.66S2372.54,1902.29,2310.21,1927.84Z"/><path class="cls-24" d="M2039.13,1658.34c-7.21-25.3-11.41-40.6-11.41-40.6C2031.1,1631.94,2034.94,1645.46,2039.13,1658.34Z"/><path class="cls-13" d="M1898.58,1161c-25.78,46-42.23,128.38-7.95,168.5,43.44,50.85,119.24,127,168,156.84,67.83,41.54,142.58-23.93,127.45-213.52C2173.67,1116.8,1966.83,1039,1898.58,1161Z"/><path class="cls-25" d="M2107.79,993.33c-30.26-9.79-46.29,19.58-46.29,19.58s-65.86-59.63-170.89-16-69.43,146.86-87.23,186.92-70.32,10.68-70.32,10.68c24.92,53.41,84.56,60.53,84.56,60.53,0,14.24-66.37,21.23-66.37,21.23,154.87,138,288.89-88.88,288.89-88.88,41,73,153.33,87.25,153.33,87.25s32.7-81,18.46-160.24S2138.05,1003.12,2107.79,993.33Z"/><path class="cls-13" d="M2128.89,1154.46c-50.07,4.38-27.32,98.21-27.32,98.21l38.49,45.34C2185.21,1246.62,2179,1150.08,2128.89,1154.46Z"/><path class="cls-26" d="M2128.77,1153.07c-10,.88-17.94,5.29-23.56,13.13-8.12,11.29-11.41,29.36-9.81,53.7a220.61,220.61,0,0,0,4.81,33.09,1.41,1.41,0,0,0,1.69,1,1.39,1.39,0,0,0,1-1.68c-.14-.59-13.95-58.76,4.55-84.52,5.13-7.14,12.37-11.16,21.53-12,17.62-1.54,27.27,9.88,32.26,19.74,7.52,14.86,9.75,36.28,6.12,58.76-3.89,24.05-14,46.32-28.38,62.73a1.39,1.39,0,0,0,.13,2,1.34,1.34,0,0,0,.92.35,1.38,1.38,0,0,0,1.05-.48c14.76-16.79,25.07-39.57,29-64.12,3.72-23.06,1.4-45.1-6.39-60.47C2156.16,1159.32,2143.73,1151.75,2128.77,1153.07Z"/><path class="cls-26" d="M2139.59,1178.59c-11,10.39-16.36,27.48-15.46,49.4a140,140,0,0,0,4.68,30.11,1.4,1.4,0,0,0,2.68-.79c-.15-.53-15.25-52.84,10-76.69a1.39,1.39,0,1,0-1.91-2Z"/><path class="cls-26" d="M2131.8,1193.47a1.4,1.4,0,1,0-1.59,2.3c.13.08,12.62,8.86,12.5,20.9-.08,8.08-5.77,15.93-16.9,23.31a1.4,1.4,0,1,0,1.54,2.33c12-7.93,18.07-16.55,18.15-25.63C2145.63,1203.15,2132.36,1193.86,2131.8,1193.47Z"/><path d="M2076.09,1258.52c-14.16,3-40.61,10.44-49.45,26.23a50.87,50.87,0,0,0-6.15,26c.11,6.2,8.56,8,11.34,2.46,4.45-8.91,10.73-19.11,18.46-25.6l28-24.57A2.59,2.59,0,0,0,2076.09,1258.52Z"/><path d="M2055.19,1312.55c-3.47,3.58-1.42,11.2,4.59,17s13.68,7.62,17.15,4,1.41-11.2-4.59-17S2058.65,1309,2055.19,1312.55Z"/><path d="M2043,1333.45s12.19-25.06,37-33.65C2080,1299.8,2036.83,1293.19,2043,1333.45Z"/><path d="M1989.43,1334.75a42.8,42.8,0,0,0-23.09,1.74c-14.62,5.55-24.13,27.81-28.32,39.87a2.31,2.31,0,0,0,3.61,2.59l24.41-21.22c6.49-5.89,16-10,24.19-12.64C1995.33,1343.43,1994.75,1335.73,1989.43,1334.75Z"/><path d="M1983.87,1370.74c-3.82,2.58-3.4,9.87.94,16.26s10.94,9.49,14.76,6.9,3.39-9.87-.94-16.26S1987.69,1368.15,1983.87,1370.74Z"/><path d="M1969.66,1387.42s15.77-20.38,39.87-23.45C2009.53,1364,1971.74,1349.82,1969.66,1387.42Z"/><path d="M2070.25,1400.38c-4,3.43-15.58,12.17-21.13,11.43a2.46,2.46,0,0,1-1.83-1.07c-4.84-7.17-18-50.64-18.23-54.56a1.88,1.88,0,0,0-3.76,0c-.07,4,13.86,49.29,18.87,56.71a6.23,6.23,0,0,0,4.45,2.69,8.07,8.07,0,0,0,1.11.07c8.32,0,21.44-11,23-12.37a1.88,1.88,0,1,0-2.45-2.86Z"/><path d="M2111.42,1400.18c-4.57,2-9.47,4.79-13.65,7.14-9.59,5.4-22.61,20.65-28.61,28a10.11,10.11,0,0,0-.81,1.2,7.67,7.67,0,0,0,.28,8c15.46,22.2,53.36-17.91,57.43-36.29C2129,1395.07,2120.93,1396,2111.42,1400.18Z"/><path class="cls-5" d="M2097.77,1407.32c-9.59,5.4-22.61,20.65-28.61,28a10.11,10.11,0,0,0-.81,1.2c6.08,2.26,17.52-2,27.9-10.75s16.3-19.26,15.17-25.62C2106.85,1402.18,2102,1405,2097.77,1407.32Z"/><path d="M2127.88,1426c-12.63,7.19-22.2,21.48-22.6,22.08a1.86,1.86,0,0,0,3.1,2.06c.09-.14,9.49-14.16,21.34-20.91a1.86,1.86,0,1,0-1.84-3.23Z"/><path class="cls-27" d="M2125.22,1308.69a32.95,32.95,0,1,0,36.25,29.27A33,33,0,0,0,2125.22,1308.69Z"/><path class="cls-5" d="M1975.72,1311.19c-15.53-6.61-31-6.26-43.61,1s-20.64,20.5-22.67,37.26c-2,16.35,2,34.18,11.27,50.21s22.7,28.41,37.85,34.87a55.79,55.79,0,0,0,21.81,4.71,43.17,43.17,0,0,0,21.79-5.72c12.59-7.27,20.64-20.5,22.68-37.26,2-16.35-2-34.18-11.27-50.21S1990.87,1317.65,1975.72,1311.19Zm41.39,84.14c-1.74,14.27-8.43,25.44-18.84,31.45s-23.43,6.22-36.66.59c-13.61-5.8-25.74-17-34.16-31.59s-12.06-30.7-10.28-45.38c1.73-14.27,8.42-25.44,18.84-31.46a35.53,35.53,0,0,1,17.91-4.66,48,48,0,0,1,18.75,4.08c13.61,5.79,25.74,17,34.15,31.59S2018.89,1380.64,2017.11,1395.33Z"/><path class="cls-5" d="M2027.94,1239.71c-13.18,7.61-21.83,21.16-24.34,38.13-2.47,16.64,1.28,34.65,10.56,50.72,14.06,24.35,37.82,38.7,60.1,38.7A47.08,47.08,0,0,0,2098,1361c13.19-7.62,21.84-21.16,24.35-38.14,2.47-16.64-1.28-34.65-10.56-50.71C2092.47,1238.74,2054.86,1224.17,2027.94,1239.71Zm86.7,82c-2.16,14.58-9.45,26.13-20.54,32.53-23.2,13.4-56,.1-73.2-29.63-8.4-14.54-11.81-30.77-9.6-45.68,2.16-14.57,9.45-26.13,20.54-32.53a39.54,39.54,0,0,1,20-5.21c19.51,0,40.62,13,53.25,34.85C2113.44,1290.63,2116.85,1306.85,2114.64,1321.76Z"/><rect class="cls-5" x="2008.52" y="1339.02" width="17.11" height="7.79" transform="translate(-403.16 1463.29) rotate(-36.5)"/><path class="cls-25" d="M2066.2,1233.83c-20.16-14.63-24.09-46.37-24.12-46.69l-.95-8.1-2.81,7.66a337.25,337.25,0,0,1-32.61,62.25c-19.74,29.68-52.6,67.64-97,79.91-42.88,11.87-89.15-1.9-137.54-40.92l-2.44,3c37.89,30.56,74.61,45.92,109.59,45.92a117.39,117.39,0,0,0,31.43-4.27c45.54-12.6,79.07-51.28,99.19-81.52a352.81,352.81,0,0,0,30.45-56.7c2.33,10.64,8.69,31.09,24.49,42.57,10.34,7.52,23,9.84,37.56,6.91l-.77-3.82C2087.23,1242.77,2075.62,1240.67,2066.2,1233.83Z"/><path class="cls-25" d="M2055.62,1027.1l32.91-4c-25.52-30.9,10.75-86.64,10.75-86.64C2036.82,982.1,2055.62,1027.1,2055.62,1027.1Z"/><path class="cls-25" d="M1951.53,934.42s71.86,16.79,86,79.25l24-.76S2075.1,946.51,1951.53,934.42Z"/><path class="cls-25" d="M2163.16,985.58c-44-19.19-87.66,7-88.1,7.25l2,3.32c.42-.26,42.38-25.39,84.52-7,20.56,9,39.55,38.63,49.57,77.39,10.83,42,9.41,86.43-3.9,122.06l3.65,1.36c13.58-36.35,15.05-81.69,4-124.39C2204.64,1025.66,2184.8,995,2163.16,985.58Z"/><path class="cls-25" d="M1868.58,974.52c-31.29,14.94-50.51,38.37-58.75,71.63-7,28.23-4.74,58.88-2.93,83.51,1,13.39,1.84,25,1.19,34.14l3.88.27c.68-9.45-.19-21.15-1.18-34.7-3.7-50.12-8.76-118.76,59.46-151.34,44.77-21.37,86.77-14.94,114.12-5.79,29.75,10,49.13,25.2,49.32,25.35l2.43-3c-.81-.64-20-15.77-50.38-26C1957.67,959.17,1914.57,952.56,1868.58,974.52Z"/><g class="cls-28"><path class="cls-2" d="M2013.45,1105.31a1.61,1.61,0,0,0-1.77,1.47c-3.15,33.36-13,63-29.15,88.21a179.64,179.64,0,0,1-50.68,51.51c-35.27,24-69.32,30.08-69.66,30.14a1.63,1.63,0,0,0,.28,3.24,1.33,1.33,0,0,0,.28,0c.35-.06,35-6.28,70.83-30.58a183.08,183.08,0,0,0,51.65-52.44c16.5-25.64,26.49-55.83,29.69-89.75A1.62,1.62,0,0,0,2013.45,1105.31Z"/></g><g class="cls-28"><path class="cls-2" d="M1993.61,1047.1a1.62,1.62,0,0,0-1.61,1.64c.42,48.57-23.87,86.58-44.31,109.91-22.22,25.36-44.86,39.38-45.08,39.52a1.63,1.63,0,1,0,1.7,2.78,227,227,0,0,0,45.77-40.08c20.84-23.77,45.61-62.52,45.18-112.16A1.64,1.64,0,0,0,1993.61,1047.1Z"/></g><g class="cls-28"><path class="cls-2" d="M2088.45,1188.19c-32.42-11.86-48.82-70.45-49-71a1.63,1.63,0,1,0-3.14.87,194.4,194.4,0,0,0,12.51,31.75c11.21,22.28,24.16,36.23,38.5,41.48a1.62,1.62,0,0,0,.56.1,1.63,1.63,0,0,0,.56-3.16Z"/></g><g class="cls-28"><path class="cls-2" d="M2126.64,1138.1c-32.38-4.34-56.32-21.21-71.16-50.15a123.57,123.57,0,0,1-12.68-42.61,1.63,1.63,0,1,0-3.26.22,124.46,124.46,0,0,0,13,43.77c10.55,20.63,31.9,46.4,73.67,52l.22,0a1.63,1.63,0,0,0,.22-3.25Z"/></g><path class="cls-5" d="M2032.38,1600.65a1.29,1.29,0,1,0-2.55.45c.21,1.19,21.48,120.31,68.31,233.59a1.3,1.3,0,0,0,1.2.8,1.23,1.23,0,0,0,.49-.1,1.29,1.29,0,0,0,.7-1.69C2053.81,1720.69,2032.59,1601.84,2032.38,1600.65Z"/><path class="cls-24" d="M2413,1370.49c1.49,5.21-24.46,134.91-10.48,215.92,6.19,35.92,28.81,64.14,51.39,92.8,7.73,9.81,28.82,25.94,35.23,36.67,24.61,41.2,19.21,96.72-1.58,137.68-14.65,28.85-36.19,80.55-69.1,92.89-35.22,13.21,55.79,19.08,99.05-17.61,70.07-59.43,37.42-292.75,37.42-292.75Z"/><path class="cls-13" d="M2154.2,2063.27l-78.13,6.61-22.27,49.54h0c7.78,38.59,39.58,75.85,78.39,69.3l26.41-15.41s21.46,9.91-1.1-38.51S2154.2,2063.27,2154.2,2063.27Z"/><path class="cls-13" d="M2655.15,1605.83l-.26-13.2a406.55,406.55,0,0,0-46.46-6.23c-51.91-4.09-132.89-1.25-165.12,50l20.14,81,24.94,100.23-161,204.28s102.35,34.38,139.22,13.55c29.22-16.55,133.92-122.82,176-166.12,11.53-11.87,17.6-26.24,17.29-41l-.71-32.48Z"/><path class="cls-27" d="M2608.43,1586.4c-51.91-4.09-132.89-1.25-165.12,50l20.14,81c12.6-7.24,94.19-52.92,134.58-44,43.91,9.69,57.73,126.94,57.73,126.94s1.27-1.55,3.42-4.48l-4-190.1A326.25,326.25,0,0,0,2608.43,1586.4Z"/><path class="cls-29" d="M2517.66,1798a214.77,214.77,0,0,0-30.77,18.54l3,2.32c.49-.37,49.42-36.95,92.92-33.56l.43-3.25C2570.06,1781,2548,1783,2517.66,1798Z"/><path class="cls-17" d="M2577.92,1299.8c-31.57-45.56-106.12-88.67-138.79-71.28-20.4,10.86-10.89,39.7-16.5,62.09-3.85,15.46-7.2,32.83-6.23,43.58,0,0-11.13,203.38,44.59,318.21a217.21,217.21,0,0,0,10.63,19.43l22.64-1A447,447,0,0,0,2673.49,1624l60.08-30.07-32.45-81.82S2632.13,1378,2577.92,1299.8Z"/><path class="cls-5" d="M2414.82,1345.94v-.72a1.3,1.3,0,1,0-2.59,0v.7c-.24,30.43.53,187.42,38.72,289.53a1.3,1.3,0,0,0,1.21.84,1.44,1.44,0,0,0,.46-.08,1.3,1.3,0,0,0,.76-1.67C2415.34,1532.86,2414.58,1376.29,2414.82,1345.94Z"/><path class="cls-2" d="M2195.6,1525.25c-53.42,1.9-57.84-14.22-57.84-14.22,0,16.12,17.38,77.12,17.38,77.12,38.25,75.55,100.7,63.18,100.7,63.18C2146,1606.1,2195.6,1525.25,2195.6,1525.25Z"/><path class="cls-30" d="M2546.14,2004.18c-36.68-22.89-75.27-44.27-117.56-54.67-44.63-11-90.54-7.86-134.54,4.44l-.82.23a530.55,530.55,0,0,0-89.79,35c-23.72,11.76-52,22.16-69.94,42.56l-1.17,1.4a43.76,43.76,0,0,0-7,12.58c-.11.24-.19.47-.27.7-6.58,19-1.94,42.49,2.88,60.71,5.57,21,16.24,37.54,29.75,54.75,12.31,15.61,31,25.27,47,37.34a.55.55,0,0,0,.16.12c2.88,2.14,5.72,4.44,8.37,6.85a.5.5,0,0,1,.12.08l-46.3,72s-37.46-8.22-48.4,11.88a31.3,31.3,0,0,0-1,28.89c6.07,13.32,20,21.34,34.61,21.34h42.76a13.14,13.14,0,0,0,10.71-5.53,12,12,0,0,0,1.52,1.32c4.4,3.62,10.63,5.77,18.3,6,24.69.93,83.33.35,83.33.35l29.48-41.86,39.13-55.61s52.57-21.26,96-2.33a182.72,182.72,0,0,0,17.79,6.58h0c48.91,15.89,134.89,28.31,158.17-3,7.79-10.44,12.15-29.28,11.53-52.53C2659.49,2137.67,2628.81,2055.86,2546.14,2004.18Zm-273.36,284.11a87,87,0,0,0-29.59-6.47l4.12-5.84,16.55-23.32,23.76-29.21,27.37,1.79Z"/><path class="cls-31" d="M2660.79,2182.85c-1.83,0,.78,8.66-.77,11.14-7.49,12-18.83,36.63-18.83,36.63-11.29,24.68-80.33,10.24-142.09,17.52-2.77.31-5.38.74-7.83,1.17h0l-.08,0c-10.47,1.94-18.57,5.06-25,9.07-26.25,16.24-26.48,47.16-55,75.58-37.3,37.07-48.05-18.42-73.75,11.72-12.85,15.07-4.63,26.79,6.82,34.74,15.92,11.09,36.56,12.46,54.59,5.25,66.35-26.51,68.22-112.42,146-102.25,87.62,11.48,137.54-18.11,142-42.33S2676.09,2183,2660.79,2182.85Z"/><path class="cls-30" d="M2288.28,1933.58c-10.59-25.89-32.63-46.53-60.32-56.54a112.75,112.75,0,0,0-76.63,0c-30.41,11-54,34.89-63,64.45a91.08,91.08,0,0,0-4.08,27.14c0,31,15.34,58.56,39.32,76.56a17,17,0,0,0,1.56,1.16,108.94,108.94,0,0,0,57.24,20.37c2.42.19,4.87.27,7.36.27,58.3,0,105.53-44,105.53-98.36a91.71,91.71,0,0,0-6.93-35.09Z"/><path class="cls-30" d="M2089.42,1945.25l65.54-65.73c-35.42-24.87-82.08-32.55-82.08-32.55C2071.37,1887.67,2089.42,1945.25,2089.42,1945.25Z"/><path class="cls-30" d="M2289.18,1934.4c18.09-32.41,19.6-86.68,19.6-86.68-53.51,7.54-82.15,30.32-82.15,30.32Z"/><path d="M2162,1940.25a15.09,15.09,0,1,0,15.09,15.08A15.08,15.08,0,0,0,2162,1940.25Z"/><path d="M2242.76,1937.33a15.09,15.09,0,1,0,15.08,15.08A15.09,15.09,0,0,0,2242.76,1937.33Z"/><path d="M2212.83,1968.93h-14.12a3.72,3.72,0,0,0-3.22,5.58l3.53,6.12,3.53,6.11a3.73,3.73,0,0,0,6.45,0l3.53-6.11,3.53-6.12A3.72,3.72,0,0,0,2212.83,1968.93Z"/><path d="M2240.64,1991.22c-7.64,5.54-14.65,7.61-20.84,6.13-8.37-2-12.56-10-12.6-10a2,2,0,0,0-1.71-1.07,1.89,1.89,0,0,0-1.74,1c-4.59,8.59-10.27,13.11-16.89,13.43-7.82.4-14.63-5.29-15.43-6.49a1.94,1.94,0,1,0-3.33,2c1.23,2.07,8.94,8.39,18,8.39h.48c7.47-.18,13.84-4.44,19-12.68a23.91,23.91,0,0,0,13.29,9.2c7.36,1.77,15.46-.5,24.08-6.75a2,2,0,0,0-2.29-3.16Z"/><path class="cls-32" d="M2295.43,1952.49a1.94,1.94,0,0,0-2,1.89,136.9,136.9,0,0,1-9.87,42.87c-12.24,29.78-33,48.86-61.62,56.71a2,2,0,0,0,.51,3.83,1.86,1.86,0,0,0,.52-.07c37.25-10.22,55.49-37.78,64.24-59.11a138.08,138.08,0,0,0,10.11-44.12A1.94,1.94,0,0,0,2295.43,1952.49Z"/><path class="cls-31" d="M2158.8,2137.2c-8.41-28.35,13.36-58.41,23.52-70.44,3-3.51,4.95-5.49,4.95-5.49-32.52,1.67-56.23-12-61.92-15.58-.89-.54-1.32-.85-1.32-.85l-.51.39a17,17,0,0,0,1.56,1.16c-6.58,19-1.94,42.49,2.88,60.71,5.57,21,16.24,37.54,29.75,54.75,12.31,15.61,31,25.27,47,37.34C2191.36,2187.67,2166.59,2163.48,2158.8,2137.2Z"/><path class="cls-5" d="M2135.39,1881.15c-17.3-10.8-37.63-17.34-47.5-20.12a4.33,4.33,0,0,0-5.5,4.59c2,20.23,7.66,41.37,11.08,52.8a4.32,4.32,0,0,0,7.66,1.23c12.88-17.79,26.2-26.84,34-31A4.33,4.33,0,0,0,2135.39,1881.15Z"/><path class="cls-5" d="M2293.85,1860.79c-19.78,4.69-40,13.17-50.81,18.1a4.32,4.32,0,0,0-.19,7.76c19.36,10.36,30.13,22.33,35.31,29.47a4.34,4.34,0,0,0,7.46-.73c8.36-18.59,12.1-39.62,13.52-49.78A4.32,4.32,0,0,0,2293.85,1860.79Z"/><ellipse cx="2094.73" cy="1987.48" rx="52.13" ry="2.47"/><path d="M2094.35,2003.27c-28.79,0-52.13,1.11-52.13,2.47s23.34,2.47,52.13,2.47,52.13-1.1,52.13-2.47S2123.14,2003.27,2094.35,2003.27Z"/><ellipse cx="2307.8" cy="1986.34" rx="52.13" ry="2.47"/><ellipse cx="2307.42" cy="2004.6" rx="52.13" ry="2.47"/><path class="cls-31" d="M2247.31,2276l16.55-23.32,23.76-29.21,27.37,1.79c-34.93-5.92-56.19-20.91-56.19-20.91Z"/><path class="cls-31" d="M2392.19,2221.52c-18.68,1.53-31,10.14-40.36,27.07a86.77,86.77,0,0,0-9.29,27.37l-4.26,24.71,39.13-55.61s52.57-21.26,96-2.33a182.72,182.72,0,0,0,17.79,6.58s-17-14.72-48.17-24.81C2429.3,2220.05,2409.75,2220.09,2392.19,2221.52Z"/><path class="cls-31" d="M2491.15,2249.35c-10.47,1.94-18.57,5.06-25,9.07Z"/><path class="cls-31" d="M2183.84,2340.35h11.1a13.14,13.14,0,0,0,10.71-5.53,12,12,0,0,0,1.52,1.32l-1.64-3.89c-15.11-52.73,37.66-50.43,37.66-50.43C2176.87,2271.54,2180.73,2323,2183.84,2340.35Z"/><path class="cls-5" d="M2468.36,2005.26c-17.3-10.58-45.55-12.24-46.75-12.31a2,2,0,0,0-2.05,1.84,2,2,0,0,0,1.84,2c.28,0,28.47,1.68,44.92,11.74a1.91,1.91,0,0,0,1,.29,1.95,1.95,0,0,0,1-3.61Z"/><path class="cls-5" d="M2371,2039.29c-17.3-10.59-45.55-12.25-46.74-12.31a1.95,1.95,0,1,0-.21,3.89c.28,0,28.45,1.66,44.92,11.74a2,2,0,0,0,1,.29,2,2,0,0,0,1.66-.94A1.94,1.94,0,0,0,2371,2039.29Z"/><path class="cls-5" d="M2461.14,2048.51a1.95,1.95,0,1,0-1,3.77c.28.07,27.61,7.18,41.79,20.25a1.94,1.94,0,0,0,2.75-.11,2,2,0,0,0-.11-2.75C2489.69,2055.92,2462.3,2048.8,2461.14,2048.51Z"/><path class="cls-5" d="M2392.31,2069.54a1.95,1.95,0,0,0-1,3.77c.28.07,27.61,7.18,41.79,20.25a1.94,1.94,0,0,0,2.75-.11,2,2,0,0,0-.11-2.75C2420.86,2077,2393.47,2069.84,2392.31,2069.54Z"/><path class="cls-5" d="M2306.86,2071.9c-17.36-10.48-45.62-12-46.81-12a1.95,1.95,0,0,0-.19,3.89c.28,0,28.48,1.5,45,11.47a1.95,1.95,0,1,0,2-3.34Z"/><path class="cls-5" d="M2358.35,2123.06c-17-11-45.25-13.31-46.44-13.4a1.95,1.95,0,1,0-.3,3.88c.28,0,28.42,2.34,44.63,12.79a2,2,0,0,0,1.06.31,1.94,1.94,0,0,0,1-3.58Z"/><path class="cls-5" d="M2417,2144.63a1.95,1.95,0,0,0-1,3.77c.28.07,27.6,7.18,41.79,20.25a1.94,1.94,0,0,0,2.75-.11,2,2,0,0,0-.11-2.75C2445.5,2152,2418.11,2144.92,2417,2144.63Z"/><path class="cls-5" d="M2524,2035.29a1.95,1.95,0,0,0-.81,3.81c.28.06,27.87,6,42.58,18.52a1.95,1.95,0,1,0,2.52-3C2552.84,2041.53,2525.18,2035.54,2524,2035.29Z"/><path class="cls-5" d="M2508.65,2117.63a1.95,1.95,0,1,0-.78,3.82c.28.05,27.94,5.76,42.77,18.1a1.93,1.93,0,0,0,1.24.45,2,2,0,0,0,1.25-3.45C2537.53,2123.59,2509.82,2117.87,2508.65,2117.63Z"/><path class="cls-5" d="M2540.32,2172.78a1.94,1.94,0,1,0-.77,3.81c.28.06,27.93,5.77,42.76,18.1a1.92,1.92,0,0,0,1.25.45,1.95,1.95,0,0,0,1.25-3.44C2569.21,2178.73,2541.5,2173,2540.32,2172.78Z"/><path class="cls-5" d="M2564.48,2088.81a1.95,1.95,0,1,0-1.32,3.66c.26.09,26.79,9.79,39.65,24.16a1.95,1.95,0,0,0,2.9-2.6C2592.19,2098.92,2565.61,2089.21,2564.48,2088.81Z"/><ellipse class="cls-5" cx="2338.82" cy="2104.99" rx="80.81" ry="79.78" transform="translate(-27.56 31.04) rotate(-0.76)"/><path class="cls-17" d="M2337.75,2023.93c-45.27.6-81.62,37.45-81,82.15a80.07,80.07,0,0,0,24.81,57,82.09,82.09,0,0,0,57.24,23h1.12a82.14,82.14,0,0,0,57.74-24.51,80.35,80.35,0,0,0-1.52-114.65A82.06,82.06,0,0,0,2337.75,2023.93Zm58,135.81a80.27,80.27,0,0,1-112.46,1.48,77.47,77.47,0,0,1-24-55.18c-.57-43.27,34.63-78.94,78.48-79.52h1.09a79.47,79.47,0,0,1,55.44,22.26,77.76,77.76,0,0,1,1.47,111Z"/><path class="cls-25" d="M2667.55,1627.51c2.65-72.84,38.27-103.69,38.63-104l-2.5-3c-1.52,1.27-37.31,32.13-40,106.83-1.14,31.27,15.27,58.38,47.46,78.38a184.1,184.1,0,0,0,49.17,20.88l.87-3.8a179.58,179.58,0,0,1-48-20.39C2681.8,1682.94,2666.45,1657.73,2667.55,1627.51Z"/><path class="cls-25" d="M2707.82,1548.47s-39.15,95.81,14,142.94l38.94,33.32s-60.41,19.46-48.1,68.3,104.12,110.61,104.12,110.61-57.15.76-39.16,37.85,60.74,6.2,60.74,6.2-7.88,21.1,1.71,40.81,38.75,19.32,66.5.28-36.44-374-87.81-465.47S2707.82,1548.47,2707.82,1548.47Z"/><path class="cls-25" d="M2722,1831.75c-17.93-24.55-27.46-54.11-23.71-73.55,7.07-36.76,61.74-31.59,62.29-31.53l.4-3.88a103.63,103.63,0,0,0-30,2c-20.65,4.63-33.27,15.94-36.5,32.69-4,20.76,5.58,50.82,24.39,76.59,18.94,25.94,43.85,42.5,68.34,45.44l.46-3.87C2764.18,1872.82,2740.25,1856.83,2722,1831.75Z"/><path class="cls-25" d="M3235.7,1580.14s41.45-20.22,12-48.17-59.72,7.87-59.72,7.87,42.33-73,11-117.43-91.65-26.34-91.65-26.34,33.86-57.9,6.78-82-73.81,13.57-73.81,13.57,19.13-101-48-118.22-92.69,74.43-92.69,74.43,32.87-133.46-44.77-171.8c-56-27.63-92.4-22.39-92.4-22.39-56.72-4-69.17,118.59-55.69,185.32s58.53,75.82,125.39,131.61,271.4,120.15,320.05,168.31,132.35,127.34,132.35,127.34,19.78-52.21,11.53-80.44S3235.7,1580.14,3235.7,1580.14Z"/><path class="cls-25" d="M3265.17,1575.83a87.66,87.66,0,0,0-22.08.76c8-7.13,21-20.92,23.18-36.67,1.21-8.77-1.13-17-6.95-24.33-5.09-6.44-11.55-9.8-19.18-10h-.62c-16,0-33.54,13.82-43.91,23.57,31.27-63.53,32.14-113.57,2.16-141.69-13.62-12.77-33.83-15.57-58.45-8.11a143.78,143.78,0,0,0-26.22,11.07,180.3,180.3,0,0,0,15-32.24c9.59-28.4,6.11-49.91-10.09-62.22-9.13-7-19.11-9.55-29.64-7.75-19.17,3.28-35.5,20.24-43.83,30.49,4.77-21.16,13.36-72.67-6.18-106.52-8.5-14.71-21.4-24.29-38.35-28.49-17.78-4.4-34.23-1.91-48.91,7.38-20.2,12.79-33.58,36-41.9,56,13.71-85.53-3.64-154.94-46-174.93-20.21-9.53-44.26-9.78-69.55-.73a135.36,135.36,0,0,0-32.37,16.69l2.33,3.12c.51-.38,51.3-37.54,97.93-15.56,22.53,10.63,38.52,37.29,45,75,6.05,35.3,3.66,79-6.71,123.94-1.34,5-2,8.24-2.13,8.81l3.8.86c.63-2.49,1.23-5,1.81-7.44,4.78-17.83,19.53-63.32,49.89-82.53,13.74-8.7,29.18-11,45.88-6.89,15.89,3.93,28,12.9,35.91,26.65,23.75,41.11,3.65,112.28,3.44,113l-3.55,12.33,7-10.72c.21-.32,21.5-32.29,47.11-36.67,9.43-1.61,18.38.74,26.63,7,14.93,11.35,17.88,30.8,8.77,57.8a179.09,179.09,0,0,1-18.73,38.08l-5.4,8,8.08-5.25c.56-.37,56.22-36,86.71-7.37s27.22,81.25-8.88,148.58l-8.25,15.39,11.44-13.19c.28-.32,27.67-31.61,50.1-31.61h.54c6.51.14,11.81,2.92,16.21,8.48,5.14,6.51,7.21,13.7,6.15,21.38-2.87,20.85-27.6,39-27.85,39.19l-9,6.55,10.72-3.11a85.14,85.14,0,0,1,28.65-2.29c20,2,33.52,12,40.26,29.54,16.36,42.67-21.74,91.33-22.13,91.82l3.05,2.42a148.36,148.36,0,0,0,17.83-30.71c10.32-23.9,12-46.35,4.88-64.92C3301.57,1589.05,3286.48,1578,3265.17,1575.83Z"/><path class="cls-25" d="M2923,1125.83c20.14,59.17-19.86,148.74-25,157l3.3,2.06c5.28-8.46,46-99.81,25.42-160.35Z"/><path class="cls-25" d="M3213.37,1499.63c11.46-17.92,22.6-38.41,22.34-58.26l-3.89.05c.3,23.15-16.17,47.91-29.4,67.8-8.13,12.23-15.15,22.79-16.4,30.3l3.75,1a106.16,106.16,0,0,1,17.62-29.08c16.4-19.31,36.85-29.55,60.8-30.44l-.14-3.89C3243.6,1478,3225.67,1488.46,3213.37,1499.63Z"/><path class="cls-25" d="M2451.67,1219.76c-10.65,28.48-59.45,154,119.16,232.1,0,0,31.05-182.13-49-282.62C2521.84,1169.24,2462.31,1191.28,2451.67,1219.76Z"/><path class="cls-5" d="M2853,1519.39s-58.44,21.43-68,59.19-12.39,351.34-12.39,351.34-108.87,80-113.54,106.42c0,0,30.77,91.87,122.78,123.27l131-94s119.06-293.89,104.65-435.47C3017.53,1630.13,2932.4,1454.35,2853,1519.39Z"/><path class="cls-17" d="M3018.69,1629.56a435.55,435.55,0,0,0-34.51-57c-28.13-39.09-55.52-61.8-81.42-67.51-17.88-3.93-34.86.5-50.45,13.2-4.43,1.65-59.17,22.78-68.57,60-9.35,37-12.24,331-12.43,351-9.14,6.74-108.94,80.91-113.53,106.85a1.39,1.39,0,0,0,0,.64c.08.23,8,23.46,27.06,50.2,17.63,24.69,48.68,57.55,96.53,73.89a1.48,1.48,0,0,0,.42.07,1.3,1.3,0,0,0,.75-.25l131-94a1.4,1.4,0,0,0,.45-.57c.29-.74,30.1-74.57,57.77-164.75,46.29-150.92,51.09-230.86,47-271.34A1.16,1.16,0,0,0,3018.69,1629.56ZM2853,1519.39h0Zm116.4,381.17c-26.66,86.91-55.31,158.61-57.56,164.21l-130.2,93.4c-46.8-16.17-77.25-48.4-94.57-72.65-17.68-24.76-25.65-46.44-26.66-49.28,5.36-25.93,111.89-104.48,113-105.28a1.27,1.27,0,0,0,.53-1c0-3.13,3-313.85,12.35-351,4.82-19.08,22.77-33.9,37-43a176.09,176.09,0,0,1,30.2-15.34,1.41,1.41,0,0,0,.38-.21c15-12.28,31.28-16.59,48.41-12.81,59.11,13,111.44,117.58,114.06,122.91C3020.32,1670.81,3015.45,1750.35,2969.38,1900.56Z"/><path class="cls-13" d="M2797.7,1363.76l-35.7-11.52s-52.78,55.53-37.55,123.21l136.21,208.65,2.39,3.66s104-233.78,100.87-270.31Z"/><path class="cls-5" d="M3135.22,1498.65l-98-69.7-93.33-31.75c-92.57,115.39-84.8,381.4-84.8,381.4-45.85-52.09-75.64-217.3-75.64-217.3s-24.25,158.4,26,260.61,159.8,248.57,182.33,284.19C3022,2153.85,3183.13,2339,3183.13,2339c133.69-87.68,284.1-328.39,284.1-328.39-88.18-171.8-253.24-413.32-301.25-481.13A129.81,129.81,0,0,0,3135.22,1498.65Z"/><path class="cls-17" d="M3167,1528.7a130.89,130.89,0,0,0-31.06-31.11l-98-69.69a1.29,1.29,0,0,0-.33-.17L2944.32,1396a1.28,1.28,0,0,0-1.43.42c-21.22,26.45-38.89,63-52.53,108.71-10.9,36.49-19.26,78.86-24.86,125.92a1148.12,1148.12,0,0,0-7.76,144c-22.46-27.76-40.81-82.85-52.4-124.89-13-47.21-20.53-88.61-20.6-89a1.31,1.31,0,0,0-1.28-1.07h0a1.29,1.29,0,0,0-1.27,1.09,664.57,664.57,0,0,0-5.85,92.18c.2,47.93,5.92,116.18,32,169.21,37.68,76.6,108.78,178.22,151.26,238.94,14.24,20.36,25.49,36.43,31.14,45.36,29.9,47.29,189.81,231.17,191.42,233a1.28,1.28,0,0,0,1,.44,1.33,1.33,0,0,0,.71-.21c69.21-45.39,142.88-132.39,192.5-197.37,53.73-70.37,91.61-130.81,92-131.41a1.3,1.3,0,0,0,.05-1.28C3383.11,1843.87,3221.94,1606.25,3167,1528.7Zm207.24,612.43C3325,2205.65,3252,2291.9,3183.36,2337.26c-11.92-13.72-161.7-186.38-190.45-231.85-5.68-9-16.94-25.08-31.2-45.46-42.44-60.66-113.47-162.18-151.06-238.61-25.86-52.56-31.53-120.39-31.74-168a693.45,693.45,0,0,1,4.78-83.91c2.81,14.27,9.46,46.21,19.15,81.36,17.54,63.65,36.14,107,55.29,128.7a1.29,1.29,0,0,0,2.26-.9,1127.82,1127.82,0,0,1,7.68-147.27c15.77-132.5,50.06-199.56,76.27-232.58l92.3,31.41,97.83,69.58a128.18,128.18,0,0,1,30.45,30.5c54.81,77.39,215.54,314.36,300.82,480.32C3461.6,2017.09,3425,2074.67,3374.27,2141.13Z"/><path d="M2681.29,1873.44a2.39,2.39,0,0,0-2,2.72c.11.66,9.92,66.84-36.12,124.31-40.25,50.24-109.8,78.83-206.72,85a2.38,2.38,0,0,0,.15,4.75h.15c98.31-6.22,169-35.4,210.13-86.73,24.74-30.88,33.51-64,36.52-86.36,3.26-24.24.7-41,.58-41.66A2.37,2.37,0,0,0,2681.29,1873.44Z"/><path class="cls-15" d="M2762,1352.24s-52.78,55.53-37.55,123.21l136.21,208.65c-6.72-110.55-36.11-230.38-63-320.34Z"/><path class="cls-13" d="M2637.41,1218.09c-133.25-17.13-132.3,98.61-111.06,157.37,1.93,5.33,105.25,209.15,171.47,185.14,66-23.91,80.83-99.22,80.31-153.71C2777.57,1347.44,2770.66,1235.22,2637.41,1218.09Z"/><path class="cls-13" d="M2579.07,1513.71c4.7,9.43,29.28-7.3,29.28-7.3l-41.9-58.19C2567.84,1453.19,2574.38,1504.29,2579.07,1513.71Z"/><path d="M2607.14,1504.63c-4.71,3.21-18.25,11.18-24.2,9.63a2.73,2.73,0,0,1-1.94-1.51c-3.12-6.26-7.38-33.64-9.92-50-1.34-8.61-2.12-13.55-2.55-15.11a2.15,2.15,0,0,0-4.15,1.16c.39,1.39,1.34,7.52,2.45,14.61,2.75,17.68,6.9,44.4,10.32,51.26a7.07,7.07,0,0,0,4.7,3.75,10.48,10.48,0,0,0,2.68.31c9.25,0,23.31-9.37,25-10.54a2.15,2.15,0,0,0-2.42-3.56Z"/><path class="cls-27" d="M2669.2,1395.64a32.21,32.21,0,1,0,45.06,6.79A32.21,32.21,0,0,0,2669.2,1395.64Z"/><path d="M2621.69,1369.85c-13.07-1.25-38-1.89-49.93,9.41a46.17,46.17,0,0,0-12.34,20.85c-1.57,5.4,5.27,9.25,9.17,5.19,6.26-6.52,14.45-13.67,22.9-17.21l30.91-13.75A2.35,2.35,0,0,0,2621.69,1369.85Z"/><path d="M2581.52,1415.64c-4,2.17-4.24,9.33-.6,16s9.8,10.29,13.77,8.12,4.25-9.33.61-16S2585.49,1413.47,2581.52,1415.64Z"/><path d="M2572.77,1425.87s17.32-18.44,41.16-19.19C2613.93,1406.68,2578.32,1389.32,2572.77,1425.87Z"/><path d="M2679.18,1475a12.88,12.88,0,0,0-12.68,2.3c-4.4,3.42-7.78,8.88-11.23,12.93-7.54,8.83-16.95,10.85-26.24,16l-.1.06c-11.77,6.58-8.32,12.69-2.82,16.88a27.23,27.23,0,0,0,19.23,4.89C2685.69,1523.84,2689,1478.22,2679.18,1475Z"/><path class="cls-5" d="M2655.27,1490.19c-7.54,8.83-16.95,10.85-26.24,16,7.1,1.19,18.3,1.78,25.12-4.06,7-6,10.67-17.73,12.35-24.89C2662.1,1480.68,2658.72,1486.14,2655.27,1490.19Z"/><path class="cls-2" d="M3149.31,1650.31l-134.42,488.86L3124.7,2269s63.58-315.5,60.77-455.42S3153.27,1655.72,3149.31,1650.31Z"/><path class="cls-2" d="M2776.5,1708s5.15,147,51.94,207.22-71.15,181.4-71.15,181.4,52.11,37.64,116.31-14.82,21.6-118.26,21.6-118.26S2794.07,1839.12,2776.5,1708Z"/><path class="cls-17" d="M2977.26,1463.21c-19.49-16.49-37-29.21-37.17-29.34a1.3,1.3,0,1,0-1.52,2.1c.7.5,69.66,50.7,87.33,82.32a1.29,1.29,0,0,0,2.26-1.26C3020.61,1503.52,3003.49,1485.42,2977.26,1463.21Z"/><path class="cls-17" d="M3205.66,1844.8a1.29,1.29,0,1,0-2.17,1.4l160.27,249.58a1.27,1.27,0,0,0,1.09.6,1.24,1.24,0,0,0,.69-.21,1.28,1.28,0,0,0,.39-1.79Z"/><path class="cls-17" d="M2836.25,1900.72c-30.89-17.72-63.89,27.13-64.22,27.59-.61.86-1.3,1.83-.36,2.64a1.26,1.26,0,0,0,.83.29,1.44,1.44,0,0,0,1-.38h0c13.11-12.53,37.2-15,53.14-16.58,11.24-1.14,17.43-1.77,18.13-5C2845.26,1906.9,2842.87,1904.52,2836.25,1900.72Zm-63.65,29.2h0Zm69.63-21.24c-.31,1.44-9.3,2.35-15.86,3-13.51,1.36-32.75,3.31-46.77,11.43,6.86-7.58,18.89-18.75,32.17-22.58a32.86,32.86,0,0,1,9.16-1.36,27.86,27.86,0,0,1,14,3.77C2842.44,1907.25,2842.24,1908.62,2842.23,1908.68Z"/><path class="cls-17" d="M2772.18,1928.7a1.29,1.29,0,1,0,.84,2.44c.37-.12,37.7-12.45,68.07,16.92a1.26,1.26,0,0,0,.9.37,1.31,1.31,0,0,0,.93-.4,1.29,1.29,0,0,0,0-1.83C2811.35,1915.7,2772.56,1928.56,2772.18,1928.7Z"/><path class="cls-25" d="M2954,1390.87l-166.16-76.25a7.5,7.5,0,0,0-8.71,1.82l-2.69,3a7.39,7.39,0,0,0-1.89,4.71c-.48,15.18.81,87.39,70.5,57.65a7.48,7.48,0,0,1,9.4,3c10.46,17.66,46.34,66.43,101.34,18.53A7.52,7.52,0,0,0,2954,1390.87Z"/><path class="cls-25" d="M2922.17,1458.05c-9.21,4.06-19.85,2.68-32.53-4.23-32.88-17.93-37.91-86.64-38-87.33l-3.88.26a215.85,215.85,0,0,0,6.72,37.84c7.39,26.93,18.59,44.65,33.26,52.65,8.47,4.62,16.36,6.93,23.58,6.93a30.3,30.3,0,0,0,12.38-2.56c14.91-6.57,26-25.48,34-57.8l-3.78-.93C2946.29,1434,2935.9,1452,2922.17,1458.05Z"/><path class="cls-25" d="M2450.48,1373.89c-21.12-22-36.87-48.18-44.34-73.78-8.92-30.58-5.09-57.21,10.79-75,24.45-27.35,47.68-34.93,62.87-36.48,16.43-1.68,27.27,3.15,27.38,3.2l1.62-3.54c-.47-.22-11.73-5.28-29.14-3.56-28.87,2.84-51.62,22.12-65.63,37.78-16.81,18.81-20.94,46.75-11.63,78.67,14.13,48.42,61,106.58,123.25,124l1-3.75C2499.41,1413.84,2473.05,1397.38,2450.48,1373.89Z"/><path class="cls-25" d="M2518.89,1303.1c1.8,4.22,112.7,164.7,283.42,24.48,0,0,29.94-131.12-10.59-217.87C2740,999.12,2396,1014.52,2518.89,1303.1Z"/><path class="cls-25" d="M2464.65,1056.18c-18.45,90.84,27,143.72,27,143.72l28-28.75C2473.84,1171,2464.65,1056.18,2464.65,1056.18Z"/><path class="cls-25" d="M2495.53,1162.74l25.89-23.27c-38.63-32.23,25.62-125.86,25.62-125.86C2457.43,1087.93,2495.53,1162.74,2495.53,1162.74Z"/><path class="cls-25" d="M2753.25,1059c-24.2-23.32-64.21-52.25-117.41-57.65-42.46-4.3-78.69,15.18-104.79,56.36-19.58,30.91-26.7,63.54-26.77,63.87l3.81.81c.07-.32,7.07-32.36,26.31-62.68,11.24-17.71,24.39-31.38,39.11-40.63,18.31-11.51,39.15-16.17,61.94-13.85,52,5.28,91.27,33.63,115,56.49,25.8,24.84,39.43,48.74,39.56,49l3.39-1.91C2793.28,1108.51,2779.43,1084.18,2753.25,1059Z"/><path class="cls-25" d="M2648.86,1413.35c-30.6-1.64-63.61-33-85.92-59.12-25.23-29.49-42.56-58.53-43.41-60.72a1.19,1.19,0,0,1,.07.29l-3.86.53c.32,2.34,18.24,31.27,40.81,58.37,21.78,26.15,54.34,58.44,85.75,63.82a53.88,53.88,0,0,0,9.09.79c21,0,38.49-13.34,52.05-39.79l-3.47-1.77C2686.62,1401.79,2669.42,1414.44,2648.86,1413.35Z"/><path class="cls-13" d="M2810.52,2090.38s-264.73,38.35-279.16,30.91-77.18-52.49-77.18-52.49-90-10.3-99.57-14-5.47,19.19,2.24,24.82,61.47,22.12,61.47,22.12-155.29,39.32-159.92,51.81,18.43,17.94,23.16,16.9l81.76-14c-18.38,3.36-92.38,17.27-90.88,25.19,1.76,9,6,9.43,9.45,10.55s75.45-7.93,79.64-8.45c-4,.63-68.39,11.1-68.74,16.76-.35,5.84,5.59,13.28,17.28,14.37,7.88.75,32.86-1,48.22-2.23-17.85,1.67-48.1,5.07-46.88,8.87,1.74,5.43,6.81,8.29,19,11s72.53-4.74,72.53-4.74,113.3-14,135-12.61c8.92.54,67.66-1,135.42-4.44,87.13-4.38,189.22-11.84,219.47-21.63a25.48,25.48,0,0,0,7.28-3.37C2925.28,2166.28,2829.48,2089.93,2810.52,2090.38Z"/><path class="cls-29" d="M2859.64,2117.8c-17.13-14-39.67-29.05-49-29.05h-.39c-106.21,15.39-267.94,36.36-278.19,31.08-14.19-7.3-76.34-51.91-77-52.36l-.34-.25-.42-.05c-31-3.55-91.74-11-99.17-13.89-2.94-1.12-5.39-.36-6.72,2.09-3.23,5.94,1.13,21,7.41,25.56s42.45,16.27,56.46,20.66c-12.16,3.14-42.42,11.05-72.71,19.81-79.59,23-81.9,29.23-82.77,31.58a10.13,10.13,0,0,0,2.05,10.62c5.7,6.54,19.08,9.31,22.92,8.46l11.19-1.92c-11.34,3.26-19.65,6.49-21.59,9.32a3.26,3.26,0,0,0-.6,2.49c1.79,9.16,6.13,10.46,9.63,11.5l.93.28c1.68.54,15.88-.82,33.1-2.74-23.08,5.28-23.23,7.71-23.34,9.4-.42,7,6.48,14.95,18.76,16.09a72.38,72.38,0,0,0,7.33.18c-5.92,1.49-6.67,2.62-7.08,3.25a2.38,2.38,0,0,0-.31,2.09c1.93,6,7.2,9.2,20.14,12.14a46.61,46.61,0,0,0,9.15.64c20.54,0,61.86-5.1,63.94-5.35,1.13-.14,113.39-14,134.71-12.6,8.64.53,67.13-1,135.6-4.44,67.57-3.4,186-10.74,219.9-21.71a26.34,26.34,0,0,0,7.77-3.63c3.44-2.67,6.81-7.88,3.36-17.61C2899.76,2156.27,2883,2137,2859.64,2117.8Zm39.43,66.68h0a23.76,23.76,0,0,1-6.77,3.1c-34.8,11.26-164.78,18.82-219.05,21.55-68.36,3.46-126.67,5-135.24,4.44-21.61-1.37-130.68,12.05-135.31,12.62-.6.08-60.27,7.43-72,4.77-11.18-2.54-15.9-5.06-17.58-9.46,1.35-.93,8.45-3.79,45.31-7.25l-.28-3.25c-17.81,1.41-40.59,2.94-47.94,2.24-10.05-.94-16-7.15-15.83-12.45,3.06-3.63,40.92-11.28,67.39-15.45l-.46-3.23-.25,0c-37,4.62-75.71,9-78.69,8.49l-1-.31c-3.05-.91-5.93-1.76-7.34-8.91.31-.81,3.67-4.75,38.38-12.88,19-4.47,40.24-8.48,51.17-10.48l-.57-3.21-81.82,14c-2.63.58-14.91-1.74-19.84-7.4a6.84,6.84,0,0,1-1.45-7.35c.79-2.11,10.21-9.23,80.61-29.58,38.93-11.25,77.79-21.11,78.18-21.21l5.65-1.43-5.57-1.71c-18.51-5.68-55.07-17.56-61-21.88-5.34-3.89-8.76-17.16-6.47-21.37.36-.65.89-1.29,2.69-.61,9.43,3.63,92.06,13.18,99.54,14,5.54,4,63,45.16,77,52.37,14.46,7.45,252.41-26.73,280-30.73h.07c15.46,0,80.73,50.58,90.64,78.53C2903.64,2177,2902.89,2181.53,2899.07,2184.48Z"/><path class="cls-27" d="M2810.52,2090.38s6.88,81.77-137.2,120.39c87.13-4.38,189.22-11.84,219.47-21.63C2872.54,2154,2838,2100.37,2810.52,2090.38Z"/><path class="cls-5" d="M3014.4,1551.13c-10.79,3.46-19.9,10.82-26.49,20-15.55,21.75-51,72.37-58.63,102.49-9.54,37.77-36.76,355.42-36.76,355.42s-77.32,34.9-82,61.31c0,0,55.43,112.18,147.43,143.58l106.39-114.32s98.35-242.76,105.45-393.3a130.57,130.57,0,0,0-20.49-76C3121,1605.63,3066.34,1534.45,3014.4,1551.13Z"/><path class="cls-17" d="M3014,1549.9h0c-10.59,3.4-20,10.5-27.14,20.52-33.69,47.13-53.49,81.76-58.83,102.93-9.23,36.54-35.24,337.57-36.73,354.87-8.23,3.77-77.5,36.21-82.05,61.94a1.38,1.38,0,0,0,.12.8,381.57,381.57,0,0,0,39.36,60.25c42.11,53.09,82.42,75,108.81,84a1.54,1.54,0,0,0,.42.07,1.31,1.31,0,0,0,.95-.42l106.38-114.32a1.24,1.24,0,0,0,.25-.39c1-2.43,98.52-244.69,105.56-393.73a131.25,131.25,0,0,0-20.7-76.79C3122.15,1605.09,3066.87,1532.92,3014,1549.9Zm.41,1.23h0Zm154.1,175.16c-6.92,146.64-101.83,384.09-105.27,392.66l-105.65,113.53c-26.07-9.06-65.51-30.79-106.8-82.84a383.24,383.24,0,0,1-38.91-59.44c5.24-25.4,80.41-59.59,81.17-59.94a1.29,1.29,0,0,0,.76-1.07c.27-3.17,27.32-318,36.72-355.21,5.27-20.85,24.93-55.19,58.43-102.06,6.84-9.56,15.78-16.33,25.84-19.56,51.21-16.43,105.57,54.75,133.42,98.65A128.64,128.64,0,0,1,3168.51,1726.29Z"/><path class="cls-17" d="M3042.52,2001.78c-27.28-14-66.83-6.06-95.2,3a369.67,369.67,0,0,0-49.93,20.35c-1.91.88-3.74,1.82-5.51,2.82a1.3,1.3,0,0,0-.49,1.75,1.32,1.32,0,0,0,1.13.67,1.27,1.27,0,0,0,.62-.16c.13-.07,2.16-1.16,5.67-2.89,32-14.69,83.63-13.23,118.44-12.25,25.62.73,36.06.86,37.1-3.21C3054.9,2009.73,3053.1,2007.19,3042.52,2001.78Zm-25.19,10.72c-27.8-.79-66.21-1.88-97.18,5.16,22.79-9.49,56.37-20.9,86.16-20.9,12.75,0,24.81,2.1,35,7.32s10.5,7,10.51,7.13C3050.67,2013.44,3033,2012.94,3017.33,2012.5Z"/><path class="cls-17" d="M3011.36,1941.89c-37.8,7.58-68.39,30.7-87.4,48.75a239,239,0,0,0-32.52,37.74,1.29,1.29,0,0,0,.38,1.79,1.27,1.27,0,0,0,.7.21,1.31,1.31,0,0,0,1.09-.59c.46-.71,47.06-71.08,118.26-85.36a1.3,1.3,0,0,0-.51-2.54Z"/><path class="cls-17" d="M3080.83,1607.22a1.3,1.3,0,0,0-1,1.56c.24,1,24.11,102.85,15.91,130.63-8.3,28.14-50.18,202-50.6,203.72a1.3,1.3,0,0,0,1,1.56,1.54,1.54,0,0,0,.3,0,1.3,1.3,0,0,0,1.26-1c.42-1.76,42.28-175.52,50.57-203.6,8.39-28.44-14.89-127.75-15.88-132A1.3,1.3,0,0,0,3080.83,1607.22Z"/><path class="cls-33" d="M2786.8,1569.67c.79,11,9.3,48.55,28.09,112.12s43,93.33,43,93.33c-3.1-21.59,6.45-134,9.15-158.92s18.29-94.47,18.29-94.47C2844.72,1630.91,2786.8,1569.67,2786.8,1569.67Z"/><path class="cls-13" d="M2743.36,1292.5c-46.73-2-37,87.33-37,87.33l30.06,46.47C2784.25,1384.3,2790.09,1294.47,2743.36,1292.5Z"/><path class="cls-26" d="M2743.42,1291.1c-9.37-.39-17.24,2.73-23.39,9.31-8.86,9.46-14.09,25.76-15.53,48.43A203.68,203.68,0,0,0,2705,1380a1.38,1.38,0,0,0,1.54,1.23,1.4,1.4,0,0,0,1.24-1.54c-.06-.55-5.82-55.83,14.33-77.35,5.57-6,12.71-8.78,21.23-8.43,16.39.7,23.9,12.37,27.31,22,5.14,14.59,4.63,34.6-1.42,54.89-6.48,21.7-18.44,41-33.7,54.43a1.39,1.39,0,0,0-.13,2,1.42,1.42,0,0,0,1,.48,1.39,1.39,0,0,0,.92-.35c15.65-13.74,27.91-33.53,34.53-55.73,6.22-20.85,6.72-41.48,1.38-56.62C2768,1300.18,2757.43,1291.69,2743.42,1291.1Z"/><path class="cls-26" d="M2750.27,1316c-11.43,8.29-18.43,23.43-20.24,43.8a127.71,127.71,0,0,0,.7,28.37,1.4,1.4,0,0,0,1.38,1.18l.23,0a1.39,1.39,0,0,0,1.15-1.6c-.08-.5-7.72-50.51,18.42-69.47a1.38,1.38,0,0,0,.31-2A1.4,1.4,0,0,0,2750.27,1316Z"/><path class="cls-26" d="M2741.42,1328.76a1.4,1.4,0,0,0-1.87,2.08c.1.09,10.54,9.66,9,20.7-1,7.42-7.22,14-18.35,19.41a1.4,1.4,0,0,0-.64,1.87,1.39,1.39,0,0,0,1.26.78,1.36,1.36,0,0,0,.61-.14c12-5.9,18.72-13.14,19.89-21.55C2753.05,1339.4,2741.89,1329.19,2741.42,1328.76Z"/><path class="cls-5" d="M2545.89,1345.83c-11.47,8-18.17,21.27-18.86,37.47-.68,16,4.59,33,14.85,47.72s24.29,25.63,39.52,30.58a55.68,55.68,0,0,0,17.2,2.86,42.39,42.39,0,0,0,24.49-7.43c23.5-16.31,25.3-54.53,4-85.18S2569.38,1329.52,2545.89,1345.83Zm75,108c-10.44,7.25-24,8.7-38.27,4.07-14.42-4.69-27.75-15-37.52-29.1s-14.8-30.18-14.16-45.33c.64-15,6.74-27.19,17.19-34.44a38.56,38.56,0,0,1,22.29-6.7c18.68,0,39.49,11.56,53.5,31.74C2644,1403,2642.6,1438.74,2620.87,1453.83Z"/><rect class="cls-5" x="2623.94" y="1358.62" width="99.72" height="3.89" transform="translate(-254.18 706.91) rotate(-14.38)"/><path class="cls-33" d="M2908.4,1240.39a1.94,1.94,0,0,0-2.56,1c-28.19,65.34-61.93,91.34-85.27,101.65-25.19,11.12-44,6.86-44.19,6.82a1.94,1.94,0,1,0-.91,3.78,50,50,0,0,0,10.85,1c8.31,0,20.82-1.46,35.53-7.9,43.6-19.1,71.68-67,87.56-103.8A2,2,0,0,0,2908.4,1240.39Z"/><path class="cls-33" d="M2908,1239.84a2,2,0,0,0-2.1,1.79c-4,49.6-18.42,83.71-43,101.39-30.44,21.88-67.55,12.59-81.52,9.09-5-1.26-6.22-1.56-7.2-.17a2.1,2.1,0,0,0,0,2.43,1.94,1.94,0,0,0,2.55.64c.84.16,2.29.53,3.7.88,7.21,1.8,20.38,5.1,35.74,5.1s33-3.32,49-14.8c25.57-18.38,40.59-53.46,44.63-104.25A2,2,0,0,0,2908,1239.84Zm-130.59,112.38h0Z"/><g class="cls-28"><path class="cls-2" d="M2688.91,1323.29c-20.78,7.32-41.29,7.75-61,1.28-15.79-5.19-31.1-14.81-45.52-28.59-24.66-23.59-38.28-51.53-38.42-51.81a1.63,1.63,0,1,0-2.93,1.41c.13.29,14,28.69,39,52.69,23.59,22.58,49.48,34,76.23,34a100.85,100.85,0,0,0,33.65-6,1.63,1.63,0,0,0-1.08-3.08Z"/></g><g class="cls-28"><path class="cls-2" d="M2786.48,1245.83c-30.55,17.38-60.66,27.13-89.5,29a149.76,149.76,0,0,1-66.23-10.52c-35.68-14.41-55.3-38.47-55.49-38.71a1.63,1.63,0,1,0-2.54,2c.2.25,20.24,24.88,56.66,39.63a152,152,0,0,0,57.48,11.14c3.39,0,6.8-.1,10.22-.32,29.37-1.86,60-11.76,91-29.41a1.63,1.63,0,1,0-1.61-2.83Z"/></g><g class="cls-28"><path class="cls-2" d="M2806.29,1166.09c-32.94,39.92-69.46,61.6-108.55,64.43-57.38,4.15-100.77-34.52-101.2-34.91a1.63,1.63,0,1,0-2.19,2.42c.42.38,40.4,36.06,94.74,36.06,2.91,0,5.87-.1,8.85-.32,40-2.88,77.32-25,110.87-65.6a1.63,1.63,0,1,0-2.52-2.08Z"/></g><path class="cls-5" d="M2743.18,1323.75c-12.29.16-22.06,15-21.82,33.07s10.4,32.64,22.69,32.48,22.07-15,21.83-33.07S2755.48,1323.59,2743.18,1323.75Z"/><path class="cls-17" d="M2743.39,1322.93h-.22c-12.72.17-22.87,15.38-22.63,33.9s10.68,33.28,23.31,33.28h.21c12.73-.17,22.88-15.37,22.63-33.89S2756,1322.93,2743.39,1322.93Zm.65,65.55h-.19c-11.74,0-21.45-14.15-21.68-31.68s9.2-32.08,21-32.24h.2c11.74,0,21.44,14.15,21.67,31.68S2755.86,1388.32,2744,1388.48Z"/><path d="M2746,1357.69a2.38,2.38,0,0,0-4.61,1.16c.22.89,22.42,89.93,30.62,194.36,4.81,61.25,3.93,115.73-2.61,161.92-8.14,57.5-25.12,102.18-50.46,132.79-18.7,22.58-35.25,30.11-49.2,22.4-25.35-14-44.22-77.36-53.14-178.35-7.18-81.26-5.33-161.45-.57-175.85a2.38,2.38,0,0,0-4.52-1.49c-5.48,16.62-6.55,99.62.36,177.76,4,45.95,10.22,84.49,18.31,114.55,9.84,36.58,22.38,59.31,37.26,67.54a27.44,27.44,0,0,0,13.45,3.58c12.8,0,26.77-9.07,41.71-27.11,25.91-31.3,43.24-76.79,51.51-135.19,6.59-46.54,7.47-101.38,2.63-163C2768.51,1448,2746.23,1358.58,2746,1357.69Z"/><path class="cls-5" d="M2670.61,1857.66c-53.37-56.64-48.13-242.63-53.39-255.37-2.19-5.3-5.61-5.73-8.93-4.33-6.06,2.54-9.58,10.28-8.91,18.18,20.49,242.92,57,255.71,73.64,261.46,8.42,2.91,11.58-.49,12.16-6C2685.78,1866,2674.18,1861.45,2670.61,1857.66Z"/><path class="cls-17" d="M2676.75,1860.59a32.06,32.06,0,0,1-5.2-3.82c-40.68-43.17-47.12-163.66-50.22-221.56-1-18.22-1.62-30.26-2.92-33.41-1.13-2.74-2.69-4.54-4.63-5.34a7.65,7.65,0,0,0-6,.31c-6.45,2.71-10.44,10.72-9.7,19.48,8.82,104.61,21.73,178.64,38.36,220,14,34.87,27.86,39.67,36.15,42.53a18,18,0,0,0,5.83,1.13,8,8,0,0,0,4.39-1.15c2.07-1.31,3.29-3.68,3.65-7C2687,1867.19,2681.53,1863.68,2676.75,1860.59Zm4.68,16c-1.7,1.08-4.39,1-8-.24-7.86-2.72-21-7.28-34.59-41.06-16.53-41.15-29.38-114.93-38.19-219.29-.63-7.54,2.79-14.63,8.13-16.88a6.7,6.7,0,0,1,2.52-.58,3.94,3.94,0,0,1,1.48.28c1.29.53,2.37,1.86,3.23,3.93,1.14,2.75,1.84,15.91,2.73,32.57,3.11,58.21,9.59,179.33,50.92,223.19a32.93,32.93,0,0,0,5.68,4.22c4,2.56,8.86,5.74,8.54,8.74C2683.63,1874,2682.8,1875.75,2681.43,1876.62Z"/><path class="cls-5" d="M2784,1566.09c-7.68-4.45-13.51-2.17-16.13,3.6a19.56,19.56,0,0,0-1.5,8.65c1.84,60.63-.25,121.64-14.17,181-18.62,79.43-43.9,91.76-60.54,103.5-.16.12-7.69,2.91-7.85,3-8.07,5.85-5.92,15.8,3.6,12.84C2797.79,1844.38,2796.35,1573.25,2784,1566.09Z"/><path class="cls-17" d="M2784.65,1565c-4.12-2.39-8.06-3.09-11.39-2a10.94,10.94,0,0,0-6.56,6.22,21.14,21.14,0,0,0-1.62,9.22c2.24,73.71-2.11,129.43-14.13,180.65-17.22,73.47-39.89,89-56.45,100.27-1.19.82-2.35,1.61-3.47,2.4-.44.18-2.24.87-3.71,1.42-4,1.53-4.06,1.54-4.26,1.69-5.3,3.85-6.44,9.14-4.81,12.37a6.34,6.34,0,0,0,6,3.34,12.18,12.18,0,0,0,3.58-.59c28.8-9,52.38-34.44,70.07-75.75,17.42-40.64,25.47-88.32,29.16-121.16a588.49,588.49,0,0,0,3.72-80.4C2790.37,1589.66,2789.06,1567.53,2784.65,1565Zm-93,297.88h0Zm92.83-180.12c-3.67,32.67-11.68,80.08-29,120.43-17.39,40.58-40.43,65.58-68.47,74.3-3.12,1-5.54.43-6.48-1.43-1.1-2.19-.09-6.09,3.91-9,.46-.19,2.28-.88,3.77-1.44a32.4,32.4,0,0,0,4.18-1.65c1.14-.81,2.32-1.62,3.54-2.45,16.91-11.55,40.06-27.37,57.51-101.82,12.07-51.45,16.45-107.37,14.2-181.32a18.48,18.48,0,0,1,1.39-8.07,8.36,8.36,0,0,1,5-4.82c2.61-.84,5.83-.22,9.31,1.8,1.48.86,4.09,11.25,4.81,35.49A586.31,586.31,0,0,1,2784.47,1682.73Z"/><path class="cls-13" d="M2101.41,2047.15c-16.84,1-13.68,20.52-7.37,28.42s72.09,6.84,75.25-7.9C2172,2055.24,2104.6,2047,2101.41,2047.15Z"/><path class="cls-29" d="M2101.31,2045.52c-7.74.49-11.12,4.55-12.59,7.88-3.19,7.2-.38,17.64,4.05,23.19,3,3.71,15.4,5.47,29.27,5.47,10.85,0,22.58-1.08,31.34-3.14,10.6-2.51,16.49-6.17,17.5-10.9a5.63,5.63,0,0,0-1.51-5C2159.65,2051.74,2103.39,2045.39,2101.31,2045.52Zm66.39,21.81c-.71,3.3-6.06,6.29-15.07,8.41-22.29,5.26-53.87,3.11-57.32-1.19-3.85-4.82-6.22-13.94-3.61-19.83,1.61-3.64,4.91-5.63,9.81-5.94,3.87-.18,57.36,6.88,65.42,16.41A2.38,2.38,0,0,1,2167.7,2067.33Z"/><path class="cls-13" d="M2102.46,2084c-16.84,1.05-13.68,20.52-7.37,28.41s72.09,6.84,75.25-7.89C2173,2092.07,2105.65,2083.79,2102.46,2084Z"/><path class="cls-29" d="M2102.44,2082.36h-.08c-7.74.48-11.12,4.55-12.59,7.87-3.19,7.21-.38,17.65,4.05,23.19,3,3.72,15.4,5.48,29.27,5.48,10.85,0,22.58-1.08,31.34-3.15,10.6-2.5,16.49-6.17,17.51-10.9a5.68,5.68,0,0,0-1.52-5C2160.8,2088.69,2105.57,2082.36,2102.44,2082.36Zm66.31,21.81c-.71,3.29-6.06,6.28-15.07,8.41-22.29,5.26-53.87,3.11-57.31-1.2-3.86-4.81-6.23-13.93-3.62-19.83,1.61-3.63,4.91-5.63,9.81-5.94,3.85-.14,57.36,6.88,65.42,16.41A2.4,2.4,0,0,1,2168.75,2104.17Z"/><path class="cls-13" d="M2103.77,2126.94c-16.47,3.67-10.31,22.41-2.84,29.22s72.28-4.51,73.1-19.55C2174.71,2123.91,2106.9,2126.25,2103.77,2126.94Z"/><path class="cls-29" d="M2173.37,2132c-11.35-9.62-67.91-7.1-69.95-6.65-7.57,1.69-10.27,6.23-11.21,9.74-2,7.62,2.38,17.49,7.63,22.27,1.86,1.7,6.26,2.44,12,2.44,13.63,0,34.87-4.14,48.21-9.6,10.08-4.13,15.32-8.67,15.58-13.5A5.6,5.6,0,0,0,2173.37,2132Zm-1,4.52c-.19,3.37-5,7.15-13.57,10.66-21.2,8.68-52.72,11.49-56.8,7.77-4.56-4.15-8.32-12.79-6.67-19,1-3.84,4-6.33,8.76-7.4,3.8-.77,57.74-2.16,67.19,6A2.42,2.42,0,0,1,2172.4,2136.52Z"/><path class="cls-13" d="M2125.45,2166.63c-13,5.28-5.34,19.75,1.71,24.29s58.5-13.67,57.09-26.09C2183.06,2154.35,2127.91,2165.63,2125.45,2166.63Z"/><path class="cls-29" d="M2183.23,2160.91c-10.69-6.34-56.79,3.55-58.4,4.21-6.09,2.48-7.7,6.67-8,9.75-.62,6.61,4.42,14.19,9.44,17.42a8.67,8.67,0,0,0,4.53.92c10.25,0,31.9-7.55,44.05-15.1,7.77-4.83,11.48-9.36,11-13.46A4.94,4.94,0,0,0,2183.23,2160.91Zm-10.09,14.43c-6.93,4.31-17,8.65-26.83,11.63-10.42,3.14-16.77,3.54-18.27,2.58-4.23-2.72-8.44-9.15-7.95-14.38.29-3.17,2.3-5.54,6-7a246.22,246.22,0,0,1,25.51-4.61c21.27-2.8,28-1.07,30.06.22.84.51,1,1,1,1.26C2182.93,2167.64,2179.47,2171.41,2173.14,2175.34Z"/><path class="cls-3" d="M2359.64,621.61H2342v72.51h9.69V667.87h8.08c7.78,0,11.61-4.14,11.61-12.32V634C2371.35,625.75,2367.42,621.61,2359.64,621.61Zm2,33.23c0,2.83-1.31,4.24-3.84,4.24h-6.16V630.4h5.66c2.93,0,4.34,1.41,4.34,4.24Z"/><polygon class="cls-3" points="2379.02 694.12 2403.05 694.12 2403.05 685.34 2388.71 685.34 2388.71 661.2 2401.44 661.2 2401.44 652.42 2388.71 652.42 2388.71 630.4 2403.05 630.4 2403.05 621.61 2379.02 621.61 2379.02 694.12"/><polygon class="cls-3" points="2406.48 630.4 2415.77 630.4 2415.77 694.12 2425.46 694.12 2425.46 630.4 2434.75 630.4 2434.75 621.61 2406.48 621.61 2406.48 630.4"/><path class="cls-3" d="M2330.62,742.76h-6.07c-7.77,0-11.61,4.14-11.61,12.42V770c.3,6,1,7.07,7,10.2l9.19,5.15c2.42,1.51,3.44,1.82,3.44,4.54v12.32c0,2.83-1.32,4.25-3.84,4.25H2327c-2.93,0-4.35-1.42-4.35-4.25v-3.93h-9.69v3.63c0,8.89,3.84,13.33,11.61,13.33h6c7.78,0,11.72-4,11.72-12.22V787.6c-.4-7.68-1.11-6.26-7-10.2l-9.19-4.95c-2.42-1.51-3.44-1.82-3.44-4.54v-12c0-2.93,1.42-4.34,4.15-4.34h1.51c2.83,0,4.25,1.41,4.25,4.34v6.36h9.69v-7.07C2342.23,746.9,2338.39,742.76,2330.62,742.76Z"/><polygon class="cls-3" points="2371.9 773.56 2359.99 773.56 2359.99 742.76 2350.29 742.76 2350.29 815.27 2359.99 815.27 2359.99 782.35 2371.9 782.35 2371.9 815.27 2381.6 815.27 2381.6 742.76 2371.9 742.76 2371.9 773.56"/><path class="cls-3" d="M2411.08,742.76h-9.3c-7.77,0-11.61,4.14-11.61,12.42V803c0,8.18,3.94,12.32,11.71,12.32H2411c7.78,0,11.72-4.14,11.72-12.32V755.18C2422.69,746.9,2418.85,742.76,2411.08,742.76Zm1.91,59.48c0,2.83-1.31,4.25-3.83,4.25h-4.95c-2.93,0-4.34-1.42-4.34-4.25V755.79q0-4.24,4.23-4.24h4.55c2.93,0,4.34,1.41,4.34,4.24Z"/><path class="cls-3" d="M2448.93,742.76h-17.67v72.51h9.7V789H2449c7.78,0,11.62-4.14,11.62-12.32V755.18C2460.65,746.9,2456.71,742.76,2448.93,742.76Zm2,33.23c0,2.82-1.31,4.24-3.84,4.24H2441V751.55h5.65c2.93,0,4.34,1.41,4.34,4.24Z"/><circle class="cls-2" cx="776.42" cy="974.02" r="40.87"/><circle class="cls-2" cx="1921.92" cy="2749.36" r="32.45" transform="translate(-1099.8 4206.06) rotate(-80.78)"/><circle class="cls-2" cx="709.11" cy="2113.51" r="32.45"/><circle class="cls-2" cx="3040.97" cy="363.41" r="32.45" transform="translate(-2.15 708.39) rotate(-13.28)"/><circle class="cls-2" cx="1664.7" cy="373.03" r="32.45" transform="translate(223.81 1286.38) rotate(-45)"/><circle class="cls-2" cx="3311.42" cy="2478.92" r="32.45"/></g></svg>