<?xml version="1.0" encoding="UTF-8"?>
<svg id="Layer_1" data-name="Layer 1" xmlns="http://www.w3.org/2000/svg" xmlns:xlink="http://www.w3.org/1999/xlink" viewBox="0 0 891.66 261.63" width="891.66" height="261.63">
  <defs>
    <style>
      .cls-1, .cls-2 {
        fill: #fff;
      }

      .cls-1, .cls-3 {
        fill-rule: evenodd;
      }

      .cls-4, .cls-5, .cls-3 {
        fill: url(#linear-gradient);
      }

      .cls-5 {
        clip-rule: evenodd;
      }

      .cls-6 {
        fill: #21285a;
      }

      .cls-7 {
        fill: none;
        stroke: #fff;
        stroke-miterlimit: 2.61;
        stroke-width: 4px;
      }

      .cls-8 {
        clip-path: url(#clippath);
      }
    </style>
    <linearGradient id="linear-gradient" x1="25.67" y1="131.15" x2="285.46" y2="131.15" gradientUnits="userSpaceOnUse">
      <stop offset="0" stop-color="#202959"/>
      <stop offset=".09" stop-color="#222e60"/>
      <stop offset=".22" stop-color="#273c73"/>
      <stop offset=".38" stop-color="#315294"/>
      <stop offset=".45" stop-color="#365fa5"/>
      <stop offset=".8" stop-color="#4f9966"/>
      <stop offset="1" stop-color="#5db847"/>
    </linearGradient>
    <clipPath id="clippath">
      <path class="cls-5" d="M155.56,1.25c71.74,0,129.9,58.16,129.9,129.9s-58.16,129.9-129.9,129.9S25.67,202.89,25.67,131.15,83.83,1.25,155.56,1.25"/>
    </clipPath>
  </defs>
  <g>
    <path class="cls-3" d="M155.56,1.25c71.74,0,129.9,58.16,129.9,129.9s-58.16,129.9-129.9,129.9S25.67,202.89,25.67,131.15,83.83,1.25,155.56,1.25"/>
    <g class="cls-8">
      <rect class="cls-4" x="25.67" y="1.25" width="259.8" height="259.8"/>
    </g>
  </g>
  <path class="cls-7" d="M150.91,2c71.15,0,128.82,57.67,128.82,128.82s-57.68,128.81-128.82,128.81S22.1,201.96,22.1,130.82,79.77,2,150.91,2Z"/>
  <path class="cls-1" d="M214.31,166.6c-31.69,43.39-76.46,12.67-82,8.08,56.49,16.66,82.11-8.23,82-8.08ZM198.64,148.54l4.69-8.65c5.52,1.24,10.72,2.72,15.51,4.39,2.12.79,2.16,3.04-.03,3.79-7.06,2.29-14.95,4.13-23.45,5.41-51.97,7.62-48.34-36.09-19.3-41.17l-17.97,21.91c4.49.98,20.92-.97,21.18-25.33-12.76-.25-23.73,8.47-27.14,19.13-6.38-12.73-21.62-18.39-36.81-18.06.43,34.6,28.73,33.59,31.45,31.33l-27.61-27.46s24.6-.51,32.26,25.07c.39,1.99,1.08,3.96,2.09,5.89,9.37,17.69,37.63,23.26,67.7,10.94.71-.29.56-.53-.75,2.46-25.47,57.97-84.1,48.3-107.12,10.26-2.04-3.37-6.16-11.57-7.59-15.35,22.08,6.93,36.19,10.48,59.29,11.12-.23-.19,1.63.66-.69-.58-2.17-1.15-6.99-5.64-8.74-8.29-17.44-.9-33.39-3.95-46.41-8.51-2.87-1.06-5.74-2.07-8.61-3.09-3.26-1.15-3.84.27-3.49,2.76,4.57,32.5,31.08,62.24,66.21,62.64,34.43.39,63.18-27.28,67.97-63.49.47-4.19-.64-4.54-4.53-6.08-6.31-2.57-13-4.63-19.85-6.27l11.48-21.17,1.19.81c1.2.82,2.86.51,3.68-.7.82-1.21.51-2.85-.69-3.68l-11.49-7.84c-1.2-.83-2.87-.51-3.69.69-.83,1.2-.51,2.86.69,3.68l.82.56c-12.45,14.73-23.63,28.54-36.36,43.13.4.14.85.28,1.4.4,1.45.31,3.56.57,6.15.63,7.51-8.84,16.17-22.22,23.28-30.9,4.64-5.66,3.54-2.97.05,3.95-3.49,6.93-9.38,18.11-12.32,23.69-.68,1.28-1.19,2.27-1.62,3.03.61-.05,1.2-.1,1.79-.16,2.62-.26,5.11-.56,7.39-.87Z"/>
  <path class="cls-2" d="M196.62,214.51c-17.93,7.51-40.26,16.42-58.04,16.42-35.18,0-52.4-21.95-89.09-22.43C18.84,176.71,0,133.46,0,85.8c0,52.46,27.05,66.13,41.66,71.77,16.75,6.46,30.06,1.88,42.46-2.7,9.02-3.33,17.55-6.65,26.56-5.74,21.4,2.18,34.82,19.76,63.84,14.14,1.09,6.53,0,21.05-23.04,17.05-35.08-5.76-33.02,10.15-25.57,14.5,9.59,5.62,36.55,7.62,57.09,4.27,26.11-4.27,46.32-17,50.62-10.79,3.75,5.44-17.51,18.04-37,26.2"/>
  <g>
    <path class="cls-6" d="M353.15,96.11c0-21.68,16.63-36.31,38.63-36.31,18.42,0,27.68,10.74,31.89,20.42l-18.31,8.53c-1.79-5.47-7.26-10.21-13.58-10.21-10.21,0-17.05,7.79-17.05,17.58s6.84,17.58,17.05,17.58c6.31,0,11.79-4.74,13.58-10.21l18.31,8.42c-4.1,9.37-13.47,20.52-31.89,20.52-22,0-38.63-14.74-38.63-36.31Z"/>
    <path class="cls-6" d="M476.08,131.16l-2.53-8.21h-25.26l-2.53,8.21h-24.1l25.89-70.21h26.74l25.89,70.21h-24.1ZM460.92,81.8l-6.95,22.63h13.89l-6.95-22.63Z"/>
    <path class="cls-6" d="M542.59,131.16l-9.68-22.1h-7.68v22.1h-21.26V60.96h37.47c16.42,0,25.26,10.95,25.26,24.1,0,12.1-7.05,18.52-12.63,21.26l12.74,24.84h-24.21ZM545.12,84.96c0-3.79-3.37-5.47-6.95-5.47h-12.95v11.05h12.95c3.58,0,6.95-1.68,6.95-5.58Z"/>
    <path class="cls-6" d="M575.32,131.16V60.96h53.26v18.52h-32v6.95h31.26v18.52h-31.26v7.68h32v18.52h-53.26Z"/>
    <path class="cls-6" d="M685.2,131.16l-25.89-35.58v35.58h-21.26V60.96h21.89l24.42,33.26v-33.26h21.26v70.21h-20.42Z"/>
    <path class="cls-6" d="M713.2,96.11c0-21.58,16.73-36.31,38.42-36.31s38.42,14.74,38.42,36.31-16.74,36.31-38.42,36.31-38.42-14.74-38.42-36.31ZM768.46,96.11c0-9.79-6.63-17.58-16.84-17.58s-16.84,7.79-16.84,17.58,6.63,17.58,16.84,17.58,16.84-7.79,16.84-17.58Z"/>
    <path class="cls-6" d="M849.08,131.16l-9.05-39.79-9.05,39.79h-22.31l-20.1-70.21h23.79l9.05,42.94,10.63-42.94h16l10.63,42.94,8.95-42.94h23.89l-20.1,70.21h-22.31Z"/>
  </g>
  <g>
    <path class="cls-6" d="M352.77,199.02v-47.79h25.51c11.18,0,17.2,7.45,17.2,16.41s-6.02,16.34-17.2,16.34h-11.04v15.05h-14.47ZM380.79,167.63c0-2.58-1.93-3.8-4.37-3.8h-9.17v7.52h9.17c2.44,0,4.37-1.22,4.37-3.73Z"/>
    <path class="cls-6" d="M450.07,199.02v-18.27h-17.12v18.27h-14.47v-47.79h14.47v16.91h17.12v-16.91h14.47v47.79h-14.47Z"/>
    <path class="cls-6" d="M522.44,199.02l-1.72-5.59h-17.2l-1.72,5.59h-16.41l17.63-47.79h18.2l17.63,47.79h-16.41ZM512.12,165.41l-4.73,15.41h9.46l-4.73-15.41Z"/>
    <path class="cls-6" d="M586,199.02l-6.59-15.05h-5.23v15.05h-14.47v-47.79h25.51c11.18,0,17.2,7.45,17.2,16.41,0,8.24-4.8,12.61-8.6,14.47l8.67,16.91h-16.48ZM587.72,167.56c0-2.58-2.29-3.73-4.73-3.73h-8.81v7.52h8.81c2.44,0,4.73-1.15,4.73-3.8Z"/>
    <path class="cls-6" d="M668.83,199.02v-28.73l-10.68,28.73h-6.45l-10.68-28.73v28.73h-14.47v-47.79h19.99l8.38,22.93,8.38-22.93h19.99v47.79h-14.47Z"/>
    <path class="cls-6" d="M741.19,199.02l-1.72-5.59h-17.2l-1.72,5.59h-16.41l17.63-47.79h18.2l17.63,47.79h-16.41ZM730.88,165.41l-4.73,15.41h9.46l-4.73-15.41Z"/>
    <path class="cls-6" d="M775.87,175.16c0-14.76,11.32-24.72,26.3-24.72,12.54,0,18.85,7.31,21.71,13.9l-12.47,5.8c-1.22-3.73-4.94-6.95-9.24-6.95-6.95,0-11.61,5.3-11.61,11.97s4.66,11.97,11.61,11.97c4.3,0,8.03-3.22,9.24-6.95l12.47,5.73c-2.79,6.38-9.17,13.97-21.71,13.97-14.97,0-26.3-10.03-26.3-24.72Z"/>
    <path class="cls-6" d="M859.42,199.02v-18.99l-17.91-28.8h16.27l8.88,16.12,8.74-16.12h16.27l-17.77,28.8v18.99h-14.47Z"/>
  </g>
</svg>