<svg width="56" height="56" viewBox="0 0 56 56" fill="none" xmlns="http://www.w3.org/2000/svg">
<path d="M33 54H9C7.8181 54 6.64778 53.7672 5.55585 53.3149C4.46392 52.8626 3.47177 52.1997 2.63604 51.364C1.80031 50.5282 1.13738 49.5361 0.685084 48.4442C0.232792 47.3522 0 46.1819 0 45C0 43.8181 0.232792 42.6478 0.685084 41.5558C1.13738 40.4639 1.80031 39.4718 2.63604 38.636C3.47177 37.8003 4.46392 37.1374 5.55585 36.6851C6.64778 36.2328 7.8181 36 9 36H32.5C34.2239 36 35.8772 35.3152 37.0962 34.0962C38.3152 32.8772 39 31.2239 39 29.5C39 27.7761 38.3152 26.1228 37.0962 24.9038C35.8772 23.6848 34.2239 23 32.5 23H12C11.7348 23 11.4804 22.8946 11.2929 22.7071C11.1054 22.5196 11 22.2652 11 22C11 21.7348 11.1054 21.4804 11.2929 21.2929C11.4804 21.1054 11.7348 21 12 21H32.5C34.7543 21 36.9163 21.8955 38.5104 23.4896C40.1045 25.0837 41 27.2457 41 29.5C41 31.7543 40.1045 33.9163 38.5104 35.5104C36.9163 37.1045 34.7543 38 32.5 38H9C7.14348 38 5.36301 38.7375 4.05025 40.0503C2.7375 41.363 2 43.1435 2 45C2 46.8565 2.7375 48.637 4.05025 49.9497C5.36301 51.2625 7.14348 52 9 52H33C33.2652 52 33.5196 52.1054 33.7071 52.2929C33.8946 52.4804 34 52.7348 34 53C34 53.2652 33.8946 53.5196 33.7071 53.7071C33.5196 53.8946 33.2652 54 33 54Z" fill="#1F6A16"/>
<path d="M19.0801 0.921875H1.08008V16.9219H19.0801V0.921875Z" fill="#D3D2D1"/>
<path d="M12.0801 0.921875H8.08008V5.92188H12.0801V0.921875Z" fill="#9E9E9E"/>
<path d="M8.08008 13.9219H5.08008C4.81486 13.9219 4.56051 13.8165 4.37297 13.629C4.18544 13.4414 4.08008 13.1871 4.08008 12.9219C4.08008 12.6567 4.18544 12.4023 4.37297 12.2148C4.56051 12.0272 4.81486 11.9219 5.08008 11.9219H8.08008C8.34529 11.9219 8.59965 12.0272 8.78718 12.2148C8.97472 12.4023 9.08008 12.6567 9.08008 12.9219C9.08008 13.1871 8.97472 13.4414 8.78718 13.629C8.59965 13.8165 8.34529 13.9219 8.08008 13.9219Z" fill="#3AA3CD"/>
<path d="M10.0801 23.9219C11.1846 23.9219 12.0801 23.0264 12.0801 21.9219C12.0801 20.8173 11.1846 19.9219 10.0801 19.9219C8.97551 19.9219 8.08008 20.8173 8.08008 21.9219C8.08008 23.0264 8.97551 23.9219 10.0801 23.9219Z" fill="#5C61FF"/>
<path d="M53.0801 54.9219C54.1846 54.9219 55.0801 54.0264 55.0801 52.9219C55.0801 51.8173 54.1846 50.9219 53.0801 50.9219C51.9755 50.9219 51.0801 51.8173 51.0801 52.9219C51.0801 54.0264 51.9755 54.9219 53.0801 54.9219Z" fill="#5C61FF"/>
<path d="M53.0801 42.9219L42.0801 37.9219L53.0801 32.9219V42.9219Z" fill="#2E1AE2"/>
<path d="M19 18H1C0.734784 18 0.48043 17.8946 0.292893 17.7071C0.105357 17.5196 0 17.2652 0 17V1C0 0.734784 0.105357 0.48043 0.292893 0.292893C0.48043 0.105357 0.734784 0 1 0H19C19.2652 0 19.5196 0.105357 19.7071 0.292893C19.8946 0.48043 20 0.734784 20 1V6C20 6.26522 19.8946 6.51957 19.7071 6.70711C19.5196 6.89464 19.2652 7 19 7C18.7348 7 18.4804 6.89464 18.2929 6.70711C18.1054 6.51957 18 6.26522 18 6V2H2V16H18V10C18 9.73478 18.1054 9.48043 18.2929 9.29289C18.4804 9.10536 18.7348 9 19 9C19.2652 9 19.5196 9.10536 19.7071 9.29289C19.8946 9.48043 20 9.73478 20 10V17C20 17.2652 19.8946 17.5196 19.7071 17.7071C19.5196 17.8946 19.2652 18 19 18Z" fill="#232054"/>
<path d="M12 7H8C7.73478 7 7.48043 6.89464 7.29289 6.70711C7.10536 6.51957 7 6.26522 7 6V1C7 0.734784 7.10536 0.48043 7.29289 0.292893C7.48043 0.105357 7.73478 0 8 0H12C12.2652 0 12.5196 0.105357 12.7071 0.292893C12.8946 0.48043 13 0.734784 13 1V6C13 6.26522 12.8946 6.51957 12.7071 6.70711C12.5196 6.89464 12.2652 7 12 7ZM9 5H11V2H9V5Z" fill="#232054"/>
<path d="M8 14H5C4.73478 14 4.48043 13.8946 4.29289 13.7071C4.10536 13.5196 4 13.2652 4 13C4 12.7348 4.10536 12.4804 4.29289 12.2929C4.48043 12.1054 4.73478 12 5 12H8C8.26522 12 8.51957 12.1054 8.70711 12.2929C8.89464 12.4804 9 12.7348 9 13C9 13.2652 8.89464 13.5196 8.70711 13.7071C8.51957 13.8946 8.26522 14 8 14Z" fill="#2E1AE2"/>
<path d="M10 25C9.40666 25 8.82664 24.8241 8.33329 24.4944C7.83994 24.1648 7.45543 23.6962 7.22836 23.1481C7.0013 22.5999 6.94189 21.9967 7.05765 21.4147C7.1734 20.8328 7.45912 20.2982 7.87868 19.8787C8.29824 19.4591 8.83279 19.1734 9.41473 19.0576C9.99667 18.9419 10.5999 19.0013 11.1481 19.2284C11.6962 19.4554 12.1648 19.8399 12.4944 20.3333C12.8241 20.8266 13 21.4067 13 22C13 22.7957 12.6839 23.5587 12.1213 24.1213C11.5587 24.6839 10.7957 25 10 25ZM10 21C9.73479 21 9.48043 21.1054 9.2929 21.2929C9.10536 21.4804 9 21.7348 9 22C9 22.2652 9.10536 22.5196 9.2929 22.7071C9.48043 22.8946 9.73479 23 10 23C10.2652 23 10.5196 22.8946 10.7071 22.7071C10.8946 22.5196 11 22.2652 11 22C11 21.7348 10.8946 21.4804 10.7071 21.2929C10.5196 21.1054 10.2652 21 10 21Z" fill="#232054"/>
<path d="M38 54H37C36.7348 54 36.4804 53.8946 36.2929 53.7071C36.1054 53.5196 36 53.2652 36 53C36 52.7348 36.1054 52.4804 36.2929 52.2929C36.4804 52.1054 36.7348 52 37 52H38C38.2652 52 38.5196 52.1054 38.7071 52.2929C38.8946 52.4804 39 52.7348 39 53C39 53.2652 38.8946 53.5196 38.7071 53.7071C38.5196 53.8946 38.2652 54 38 54Z" fill="#1F6A16"/>
<path d="M51 54H42C41.7348 54 41.4804 53.8946 41.2929 53.7071C41.1054 53.5196 41 53.2652 41 53C41 52.7348 41.1054 52.4804 41.2929 52.2929C41.4804 52.1054 41.7348 52 42 52H51C51.2652 52 51.5196 52.1054 51.7071 52.2929C51.8946 52.4804 52 52.7348 52 53C52 53.2652 51.8946 53.5196 51.7071 53.7071C51.5196 53.8946 51.2652 54 51 54Z" fill="#1F6A16"/>
<path d="M53 56C52.4067 56 51.8266 55.8241 51.3333 55.4944C50.8399 55.1648 50.4554 54.6962 50.2284 54.148C50.0013 53.5999 49.9419 52.9967 50.0576 52.4147C50.1734 51.8328 50.4591 51.2982 50.8787 50.8787C51.2982 50.4591 51.8328 50.1734 52.4147 50.0576C52.9967 49.9419 53.5999 50.0013 54.148 50.2284C54.6962 50.4554 55.1648 50.8399 55.4944 51.3333C55.8241 51.8266 56 52.4067 56 53C56 53.7957 55.6839 54.5587 55.1213 55.1213C54.5587 55.6839 53.7957 56 53 56ZM53 52C52.7348 52 52.4804 52.1054 52.2929 52.2929C52.1054 52.4804 52 52.7348 52 53C52 53.2652 52.1054 53.5196 52.2929 53.7071C52.4804 53.8946 52.7348 54 53 54C53.2652 54 53.5196 53.8946 53.7071 53.7071C53.8946 53.5196 54 53.2652 54 53C54 52.7348 53.8946 52.4804 53.7071 52.2929C53.5196 52.1054 53.2652 52 53 52Z" fill="#232054"/>
<path d="M52.9998 44.0015C52.6898 44.0015 53.6598 44.4015 41.5898 38.9115C41.4152 38.8319 41.2672 38.7038 41.1634 38.5425C41.0596 38.3811 41.0044 38.1933 41.0044 38.0015C41.0044 37.8096 41.0596 37.6218 41.1634 37.4604C41.2672 37.2991 41.4152 37.171 41.5898 37.0915L46.7098 34.7615C46.9479 34.6714 47.2113 34.6755 47.4465 34.773C47.6816 34.8705 47.8708 35.0539 47.9753 35.286C48.0799 35.5181 48.092 35.7813 48.0092 36.022C47.9264 36.2627 47.755 36.4628 47.5298 36.5815L44.4198 38.0015L51.9998 41.4515V34.5515L51.1598 34.9315C50.9217 35.0215 50.6582 35.0174 50.4231 34.9199C50.1879 34.8225 49.9988 34.639 49.8943 34.4069C49.7897 34.1748 49.7776 33.9116 49.8604 33.6709C49.9431 33.4302 50.1146 33.2301 50.3398 33.1115L52.5898 32.1115C52.7404 32.0437 52.9054 32.0143 53.0701 32.0259C53.2349 32.0375 53.3942 32.0897 53.5338 32.1778C53.6734 32.2659 53.7891 32.3873 53.8704 32.531C53.9517 32.6747 53.9962 32.8364 53.9998 33.0015C53.9998 43.1015 54.3598 44.0015 52.9998 44.0015Z" fill="#232054"/>
<path d="M52 51V33C52 32.7348 52.1054 32.4804 52.2929 32.2929C52.4804 32.1054 52.7348 32 53 32C53.2652 32 53.5196 32.1054 53.7071 32.2929C53.8946 32.4804 54 32.7348 54 33V51C54 51.2652 53.8946 51.5196 53.7071 51.7071C53.5196 51.8946 53.2652 52 53 52C52.7348 52 52.4804 51.8946 52.2929 51.7071C52.1054 51.5196 52 51.2652 52 51Z" fill="#232054"/>
</svg>
