<svg width="56" height="56" viewBox="0 0 56 56" fill="none" xmlns="http://www.w3.org/2000/svg">
<path d="M55.0001 42.0017C55.0001 43.6217 54.8001 43.4217 46.0001 52.0017C44.131 53.8345 41.6178 54.8614 39.0001 54.8617H1.08008V41.8617H15.4401C16.1415 41.861 16.8305 41.6759 17.4378 41.3248C18.045 40.9738 18.5494 40.4692 18.9001 39.8617C19.4253 38.952 20.1802 38.1961 21.0892 37.6696C21.9983 37.1432 23.0296 36.8646 24.0801 36.8617H34.9101C35.5217 36.8221 36.1308 36.9708 36.6554 37.2877C37.18 37.6047 37.5949 38.0747 37.8443 38.6346C38.0938 39.1944 38.1657 39.8173 38.0506 40.4193C37.9354 41.0212 37.6386 41.5735 37.2001 42.0017C36.0501 43.1517 34.8401 42.8817 32.0801 42.8817C31.7756 42.8816 31.4752 42.951 31.2016 43.0845C30.928 43.2181 30.6886 43.4124 30.5014 43.6525C30.3143 43.8927 30.1845 44.1724 30.1219 44.4703C30.0593 44.7683 30.0655 45.0766 30.1401 45.3717C30.2655 45.8058 30.5281 46.1875 30.8887 46.4597C31.2492 46.732 31.6883 46.88 32.1401 46.8817H42.4201C43.3001 46.8817 43.0801 46.8817 49.8901 40.0717C50.2869 39.6375 50.8048 39.3322 51.3769 39.1954C51.949 39.0586 52.549 39.0966 53.0993 39.3045C53.6496 39.5123 54.125 39.8805 54.4638 40.3613C54.8026 40.8422 54.9895 41.4136 55.0001 42.0017Z" fill="#679F3E"/>
<path d="M49.2401 39.5611C49.2401 41.1511 48.4801 41.5611 44.2401 45.7511C42.6801 47.3111 43.9701 46.9211 34.8301 46.9211L44.2501 37.5011C44.6579 37.0913 45.1782 36.8117 45.7451 36.6978C46.3119 36.5839 46.8999 36.6409 47.4343 36.8616C47.9688 37.0822 48.4257 37.4565 48.7471 37.9371C49.0686 38.4177 49.2402 38.9829 49.2401 39.5611Z" fill="#196A2A"/>
<path d="M46.0801 0.921875H10.0801V32.9219H46.0801V0.921875Z" fill="#D3D2D1"/>
<path d="M32.0801 0.921875H24.0801V7.92188H32.0801V0.921875Z" fill="#9E9E9E"/>
<path d="M24.0801 28.9219H16.0801C15.8149 28.9219 15.5605 28.8165 15.373 28.629C15.1854 28.4414 15.0801 28.1871 15.0801 27.9219C15.0801 27.6567 15.1854 27.4023 15.373 27.2148C15.5605 27.0272 15.8149 26.9219 16.0801 26.9219H24.0801C24.3453 26.9219 24.5996 27.0272 24.7872 27.2148C24.9747 27.4023 25.0801 27.6567 25.0801 27.9219C25.0801 28.1871 24.9747 28.4414 24.7872 28.629C24.5996 28.8165 24.3453 28.9219 24.0801 28.9219Z" fill="#3AA3CD"/>
<path d="M24.0801 23.9219H16.0801C15.8149 23.9219 15.5605 23.8165 15.373 23.629C15.1854 23.4414 15.0801 23.1871 15.0801 22.9219C15.0801 22.6567 15.1854 22.4023 15.373 22.2148C15.5605 22.0272 15.8149 21.9219 16.0801 21.9219H24.0801C24.3453 21.9219 24.5996 22.0272 24.7872 22.2148C24.9747 22.4023 25.0801 22.6567 25.0801 22.9219C25.0801 23.1871 24.9747 23.4414 24.7872 23.629C24.5996 23.8165 24.3453 23.9219 24.0801 23.9219Z" fill="#3AA3CD"/>
<path d="M38.91 56H1C0.734784 56 0.48043 55.8947 0.292893 55.7071C0.105357 55.5196 0 55.2652 0 55C0 54.7348 0.105357 54.4804 0.292893 54.2929C0.48043 54.1054 0.734784 54 1 54H38.91C41.2689 54.0034 43.5347 53.0805 45.22 51.43L53.36 43.43C53.7044 43.0876 53.9045 42.6263 53.9194 42.1409C53.9343 41.6555 53.7627 41.1829 53.44 40.82C53.2529 40.6202 53.0268 40.4609 52.7757 40.352C52.5245 40.2431 52.2537 40.1869 51.98 40.1869C51.7063 40.1869 51.4355 40.2431 51.1843 40.352C50.9332 40.4609 50.7071 40.6202 50.52 40.82C43.7 47.72 43.77 48 42.34 48H32.11C31.4303 48.0086 30.767 47.7913 30.2241 47.3823C29.6811 46.9733 29.2893 46.3957 29.11 45.74C28.9976 45.2986 28.9873 44.8373 29.0797 44.3913C29.1721 43.9452 29.3649 43.5261 29.6434 43.1656C29.922 42.8052 30.2789 42.5129 30.6872 42.3109C31.0955 42.109 31.5445 42.0026 32 42C35.23 42 35.67 42.15 36.41 41.41C36.7007 41.1205 36.8954 40.7485 36.9675 40.3446C37.0397 39.9407 36.9859 39.5244 36.8134 39.1521C36.6409 38.7798 36.3581 38.4696 36.0033 38.2635C35.6484 38.0574 35.2389 37.9654 34.83 38H24C23.125 38.0008 22.2655 38.2311 21.5075 38.6681C20.7494 39.105 20.1192 39.7333 19.68 40.49C19.2433 41.2505 18.6142 41.8827 17.856 42.3233C17.0977 42.7638 16.2369 42.9972 15.36 43H1C0.734784 43 0.48043 42.8947 0.292893 42.7071C0.105357 42.5196 0 42.2652 0 42C0 41.7348 0.105357 41.4804 0.292893 41.2929C0.48043 41.1054 0.734784 41 1 41H15.36C15.8957 41.0054 16.423 40.8673 16.8873 40.6C17.3515 40.3327 17.7357 39.946 18 39.48C18.6116 38.4287 19.4865 37.5548 20.5387 36.9446C21.5908 36.3344 22.7838 36.0088 24 36H34.83C35.6361 35.9643 36.4341 36.1732 37.1193 36.5993C37.8045 37.0254 38.3449 37.6487 38.6694 38.3875C38.9939 39.1262 39.0873 39.9459 38.9375 40.7387C38.7877 41.5316 38.4017 42.2606 37.83 42.83C36.34 44.31 34.78 44 32 44C31.8687 44.0072 31.7401 44.0403 31.6215 44.0972C31.5029 44.1541 31.3968 44.2338 31.309 44.3318C31.1318 44.5297 31.0404 44.7898 31.055 45.055C31.0696 45.3202 31.1889 45.5688 31.3868 45.746C31.5846 45.9232 31.8448 46.0146 32.11 46H42.34C42.69 46 42.12 46.47 49.1 39.48C49.4774 39.0851 49.9318 38.7718 50.435 38.5592C50.9382 38.3466 51.4796 38.2394 52.0258 38.2441C52.572 38.2488 53.1115 38.3653 53.611 38.5864C54.1105 38.8076 54.5594 39.1287 54.93 39.53C55.5915 40.2755 55.9433 41.2455 55.9136 42.2418C55.8839 43.238 55.4748 44.1853 54.77 44.89L46.62 52.89C44.5558 54.8953 41.7879 56.0118 38.91 56Z" fill="#202354"/>
<path d="M41.34 48.0006C34.29 48.0006 34.18 48.2106 33.84 47.3806C33.5 46.5506 33.43 46.9106 43.47 36.8706C44.02 36.328 44.7178 35.9595 45.4761 35.8113C46.2344 35.663 47.0196 35.7416 47.7335 36.0372C48.4474 36.3328 49.0583 36.8323 49.4899 37.4732C49.9214 38.1141 50.1545 38.868 50.16 39.6406C50.16 41.7306 49.04 42.3706 44.88 46.5406C44.4148 47.0047 43.8627 47.3724 43.2553 47.623C42.6478 47.8735 41.997 48.0018 41.34 48.0006ZM37.17 46.0006C41.52 46.0006 42.35 46.2306 43.46 45.1206C47.84 40.7406 48.16 40.6906 48.16 39.6406C48.157 39.2631 48.0427 38.8949 47.8316 38.5819C47.6204 38.269 47.3217 38.0252 46.9727 37.8811C46.6237 37.7371 46.24 37.6991 45.8696 37.7719C45.4991 37.8447 45.1584 38.0252 44.89 38.2906L37.17 46.0006Z" fill="#202354"/>
<path d="M46 34H10C9.73478 34 9.48043 33.8946 9.29289 33.7071C9.10536 33.5196 9 33.2652 9 33V1C9 0.734784 9.10536 0.48043 9.29289 0.292893C9.48043 0.105357 9.73478 0 10 0H46C46.2652 0 46.5196 0.105357 46.7071 0.292893C46.8946 0.48043 47 0.734784 47 1V33C47 33.2652 46.8946 33.5196 46.7071 33.7071C46.5196 33.8946 46.2652 34 46 34ZM11 32H45V2H11V32Z" fill="#202354"/>
<path d="M32 9H24C23.7348 9 23.4804 8.89464 23.2929 8.70711C23.1054 8.51957 23 8.26522 23 8V1C23 0.734784 23.1054 0.48043 23.2929 0.292893C23.4804 0.105357 23.7348 0 24 0H32C32.2652 0 32.5196 0.105357 32.7071 0.292893C32.8946 0.48043 33 0.734784 33 1V8C33 8.26522 32.8946 8.51957 32.7071 8.70711C32.5196 8.89464 32.2652 9 32 9ZM25 7H31V2H25V7Z" fill="#202354"/>
<path d="M24 29H16C15.7348 29 15.4804 28.8946 15.2929 28.7071C15.1054 28.5196 15 28.2652 15 28C15 27.7348 15.1054 27.4804 15.2929 27.2929C15.4804 27.1054 15.7348 27 16 27H24C24.2652 27 24.5196 27.1054 24.7071 27.2929C24.8946 27.4804 25 27.7348 25 28C25 28.2652 24.8946 28.5196 24.7071 28.7071C24.5196 28.8946 24.2652 29 24 29Z" fill="#152483"/>
<path d="M24 24H16C15.7348 24 15.4804 23.8946 15.2929 23.7071C15.1054 23.5196 15 23.2652 15 23C15 22.7348 15.1054 22.4804 15.2929 22.2929C15.4804 22.1054 15.7348 22 16 22H24C24.2652 22 24.5196 22.1054 24.7071 22.2929C24.8946 22.4804 25 22.7348 25 23C25 23.2652 24.8946 23.5196 24.7071 23.7071C24.5196 23.8946 24.2652 24 24 24Z" fill="#152483"/>
</svg>
