<svg width="63" height="63" viewBox="0 0 63 63" fill="none" xmlns="http://www.w3.org/2000/svg">
<path d="M55.0801 49H13.0801L19.0801 13H61.0801L55.0801 49Z" fill="#EAEAEA"/>
<path d="M36.0801 13H46.0801L44.0801 20H34.0801L36.0801 13Z" fill="#9E9E9E"/>
<path d="M18 50.0016C12.61 50.0016 12.64 50.1216 12.24 49.6516C11.84 49.1816 11.61 51.2416 16.36 22.7316C16.4024 22.4664 16.5484 22.2289 16.766 22.0714C16.9835 21.9139 17.2547 21.8492 17.52 21.8916C17.7852 21.9341 18.0227 22.0801 18.1802 22.2977C18.3377 22.5152 18.4024 22.7864 18.36 23.0516L14.18 48.0016H18C18.2652 48.0016 18.5195 48.107 18.7071 48.2945C18.8946 48.4821 19 48.7364 19 49.0016C19 49.2668 18.8946 49.5212 18.7071 49.7087C18.5195 49.8963 18.2652 50.0016 18 50.0016Z" fill="#202354"/>
<path d="M55 49.9993H27C26.7348 49.9993 26.4804 49.8939 26.2929 49.7064C26.1054 49.5189 26 49.2645 26 48.9993C26 48.7341 26.1054 48.4797 26.2929 48.2922C26.4804 48.1046 26.7348 47.9993 27 47.9993H54.15L58.15 23.8293C58.1924 23.5641 58.3385 23.3266 58.556 23.169C58.7736 23.0115 59.0448 22.9469 59.31 22.9893C59.5752 23.0317 59.8127 23.1778 59.9702 23.3953C60.1278 23.6129 60.1924 23.8841 60.15 24.1493L56 49.1593C55.9617 49.3959 55.8396 49.6109 55.6561 49.7651C55.4725 49.9193 55.2397 50.0024 55 49.9993Z" fill="#202354"/>
<path d="M58.81 20.0001L59.81 14.0001H19.81L19 19.1601C18.9576 19.4253 18.8115 19.6628 18.594 19.8204C18.3765 19.9779 18.1052 20.0425 17.84 20.0001C17.5748 19.9577 17.3373 19.8116 17.1798 19.5941C17.0223 19.3765 16.9576 19.1053 17 18.8401L18 12.8401C18.0384 12.6035 18.1604 12.3885 18.344 12.2343C18.5275 12.0801 18.7603 11.997 19 12.0001H61C61.147 11.998 61.2926 12.0282 61.4265 12.0888C61.5604 12.1493 61.6793 12.2386 61.7748 12.3503C61.8702 12.462 61.9399 12.5934 61.9789 12.7351C62.0178 12.8768 62.025 13.0253 62 13.1701L60.8 20.3301C60.7563 20.594 60.6095 20.8297 60.3919 20.9853C60.1744 21.141 59.9039 21.2039 59.64 21.1601C59.3761 21.1163 59.1404 20.9695 58.9848 20.752C58.8291 20.5345 58.7663 20.264 58.81 20.0001Z" fill="#202354"/>
<path d="M23 50H22C21.7348 50 21.4804 49.8946 21.2929 49.7071C21.1054 49.5196 21 49.2652 21 49C21 48.7348 21.1054 48.4804 21.2929 48.2929C21.4804 48.1054 21.7348 48 22 48H23C23.2652 48 23.5196 48.1054 23.7071 48.2929C23.8946 48.4804 24 48.7348 24 49C24 49.2652 23.8946 49.5196 23.7071 49.7071C23.5196 49.8946 23.2652 50 23 50Z" fill="#202354"/>
<path d="M23 14H14C13.7348 14 13.4804 13.8946 13.2929 13.7071C13.1054 13.5196 13 13.2652 13 13C13 12.7348 13.1054 12.4804 13.2929 12.2929C13.4804 12.1054 13.7348 12 14 12H23C23.2652 12 23.5196 12.1054 23.7071 12.2929C23.8946 12.4804 24 12.7348 24 13C24 13.2652 23.8946 13.5196 23.7071 13.7071C23.5196 13.8946 23.2652 14 23 14Z" fill="#63FC8C"/>
<path d="M43.9999 21.0007C33.2699 21.0007 33.6199 21.1607 33.1999 20.6007C32.7799 20.0407 32.8399 20.4107 35.0399 12.7307C35.0987 12.5211 35.2242 12.3364 35.3975 12.2047C35.5707 12.0729 35.7822 12.0013 35.9999 12.0007H45.9999C46.1574 11.9948 46.314 12.0262 46.457 12.0924C46.6001 12.1585 46.7254 12.2576 46.8229 12.3814C46.9204 12.5052 46.9872 12.6503 47.018 12.8048C47.0488 12.9594 47.0426 13.119 46.9999 13.2707L44.9999 20.2707C44.9394 20.487 44.8079 20.6766 44.6265 20.8091C44.4451 20.9415 44.2244 21.009 43.9999 21.0007ZM35.3299 19.0007H43.2499L44.6699 14.0007H36.7499L35.3299 19.0007Z" fill="#202354"/>
<path d="M2 49C2 49.2652 1.89464 49.5196 1.70711 49.7071C1.51957 49.8946 1.26522 50 1 50C0.734784 50 0.48043 49.8946 0.292893 49.7071C0.105357 49.5196 0 49.2652 0 49C0 48.7348 0.105357 48.4804 0.292893 48.2929C0.48043 48.1054 0.734784 48 1 48C1.26522 48 1.51957 48.1054 1.70711 48.2929C1.89464 48.4804 2 48.7348 2 49Z" fill="#202354"/>
<path d="M23 31H11C10.7348 31 10.4804 30.8946 10.2929 30.7071C10.1054 30.5196 10 30.2652 10 30C10 29.7348 10.1054 29.4804 10.2929 29.2929C10.4804 29.1054 10.7348 29 11 29H23C23.2652 29 23.5196 29.1054 23.7071 29.2929C23.8946 29.4804 24 29.7348 24 30C24 30.2652 23.8946 30.5196 23.7071 30.7071C23.5196 30.8946 23.2652 31 23 31Z" fill="#202354"/>
<path d="M4 36C4 36.2652 3.89464 36.5196 3.70711 36.7071C3.51957 36.8946 3.26522 37 3 37C2.73478 37 2.48043 36.8946 2.29289 36.7071C2.10536 36.5196 2 36.2652 2 36C2 35.7348 2.10536 35.4804 2.29289 35.2929C2.48043 35.1054 2.73478 35 3 35C3.26522 35 3.51957 35.1054 3.70711 35.2929C3.89464 35.4804 4 35.7348 4 36Z" fill="#202354"/>
<path d="M3 18C3 18.2652 2.89464 18.5196 2.70711 18.7071C2.51957 18.8946 2.26522 19 2 19C1.73478 19 1.48043 18.8946 1.29289 18.7071C1.10536 18.5196 1 18.2652 1 18C1 17.7348 1.10536 17.4804 1.29289 17.2929C1.48043 17.1054 1.73478 17 2 17C2.26522 17 2.51957 17.1054 2.70711 17.2929C2.89464 17.4804 3 17.7348 3 18Z" fill="#202354"/>
<path d="M19 37H7C6.73478 37 6.48043 36.8946 6.29289 36.7071C6.10536 36.5196 6 36.2652 6 36C6 35.7348 6.10536 35.4804 6.29289 35.2929C6.48043 35.1054 6.73478 35 7 35H19C19.2652 35 19.5196 35.1054 19.7071 35.2929C19.8946 35.4804 20 35.7348 20 36C20 36.2652 19.8946 36.5196 19.7071 36.7071C19.5196 36.8946 19.2652 37 19 37Z" fill="#202354"/>
<path d="M50 45H42C41.7348 45 41.4804 44.8946 41.2929 44.7071C41.1054 44.5196 41 44.2652 41 44C41 43.7348 41.1054 43.4804 41.2929 43.2929C41.4804 43.1054 41.7348 43 42 43H50C50.2652 43 50.5196 43.1054 50.7071 43.2929C50.8946 43.4804 51 43.7348 51 44C51 44.2652 50.8946 44.5196 50.7071 44.7071C50.5196 44.8946 50.2652 45 50 45Z" fill="#202354"/>
<path d="M51 40H43C42.7348 40 42.4804 39.8946 42.2929 39.7071C42.1054 39.5196 42 39.2652 42 39C42 38.7348 42.1054 38.4804 42.2929 38.2929C42.4804 38.1054 42.7348 38 43 38H51C51.2652 38 51.5196 38.1054 51.7071 38.2929C51.8946 38.4804 52 38.7348 52 39C52 39.2652 51.8946 39.5196 51.7071 39.7071C51.5196 39.8946 51.2652 40 51 40Z" fill="#202354"/>
<path d="M29 19H6C5.73478 19 5.48043 18.8946 5.29289 18.7071C5.10536 18.5196 5 18.2652 5 18C5 17.7348 5.10536 17.4804 5.29289 17.2929C5.48043 17.1054 5.73478 17 6 17H29C29.2652 17 29.5196 17.1054 29.7071 17.2929C29.8946 17.4804 30 17.7348 30 18C30 18.2652 29.8946 18.5196 29.7071 18.7071C29.5196 18.8946 29.2652 19 29 19Z" fill="#202354"/>
<path d="M23 50H22C21.7348 50 21.4804 49.8946 21.2929 49.7071C21.1054 49.5196 21 49.2652 21 49C21 48.7348 21.1054 48.4804 21.2929 48.2929C21.4804 48.1054 21.7348 48 22 48H23C23.2652 48 23.5196 48.1054 23.7071 48.2929C23.8946 48.4804 24 48.7348 24 49C24 49.2652 23.8946 49.5196 23.7071 49.7071C23.5196 49.8946 23.2652 50 23 50Z" fill="#202354"/>
<path d="M28 50H27C26.7348 50 26.4804 49.8946 26.2929 49.7071C26.1054 49.5196 26 49.2652 26 49C26 48.7348 26.1054 48.4804 26.2929 48.2929C26.4804 48.1054 26.7348 48 27 48H28C28.2652 48 28.5196 48.1054 28.7071 48.2929C28.8946 48.4804 29 48.7348 29 49C29 49.2652 28.8946 49.5196 28.7071 49.7071C28.5196 49.8946 28.2652 50 28 50Z" fill="#202354"/>
<path d="M18 50H5C4.73478 50 4.48043 49.8946 4.29289 49.7071C4.10536 49.5196 4 49.2652 4 49C4 48.7348 4.10536 48.4804 4.29289 48.2929C4.48043 48.1054 4.73478 48 5 48H18C18.2652 48 18.5196 48.1054 18.7071 48.2929C18.8946 48.4804 19 48.7348 19 49C19 49.2652 18.8946 49.5196 18.7071 49.7071C18.5196 49.8946 18.2652 50 18 50Z" fill="#202354"/>
<path d="M18 50.0016C12.61 50.0016 12.64 50.1216 12.24 49.6516C11.84 49.1816 11.61 51.2416 16.36 22.7316C16.4024 22.4664 16.5484 22.2289 16.766 22.0714C16.9835 21.9139 17.2547 21.8492 17.52 21.8916C17.7852 21.9341 18.0227 22.0801 18.1802 22.2977C18.3377 22.5152 18.4024 22.7864 18.36 23.0516L14.18 48.0016H18C18.2652 48.0016 18.5195 48.107 18.7071 48.2945C18.8946 48.4821 19 48.7364 19 49.0016C19 49.2668 18.8946 49.5212 18.7071 49.7087C18.5195 49.8963 18.2652 50.0016 18 50.0016Z" fill="#202354"/>
<path d="M55 49.9993H27C26.7348 49.9993 26.4804 49.8939 26.2929 49.7064C26.1054 49.5189 26 49.2645 26 48.9993C26 48.7341 26.1054 48.4797 26.2929 48.2922C26.4804 48.1046 26.7348 47.9993 27 47.9993H54.15L58.15 23.8293C58.1924 23.5641 58.3385 23.3266 58.556 23.169C58.7736 23.0115 59.0448 22.9469 59.31 22.9893C59.5752 23.0317 59.8127 23.1778 59.9702 23.3953C60.1278 23.6129 60.1924 23.8841 60.15 24.1493L56 49.1593C55.9617 49.3959 55.8396 49.6109 55.6561 49.7651C55.4725 49.9193 55.2397 50.0024 55 49.9993Z" fill="#202354"/>
<path d="M58.81 20.0001L59.81 14.0001H19.81L19 19.1601C18.9576 19.4253 18.8115 19.6628 18.594 19.8204C18.3765 19.9779 18.1052 20.0425 17.84 20.0001C17.5748 19.9577 17.3373 19.8116 17.1798 19.5941C17.0223 19.3765 16.9576 19.1053 17 18.8401L18 12.8401C18.0384 12.6035 18.1604 12.3885 18.344 12.2343C18.5275 12.0801 18.7603 11.997 19 12.0001H61C61.147 11.998 61.2926 12.0282 61.4265 12.0888C61.5604 12.1493 61.6793 12.2386 61.7748 12.3503C61.8702 12.462 61.9399 12.5934 61.9789 12.7351C62.0178 12.8768 62.025 13.0253 62 13.1701L60.8 20.3301C60.7563 20.594 60.6095 20.8297 60.3919 20.9853C60.1744 21.141 59.9039 21.2039 59.64 21.1601C59.3761 21.1163 59.1404 20.9695 58.9848 20.752C58.8291 20.5345 58.7663 20.264 58.81 20.0001Z" fill="#202354"/>
<path d="M23 50H22C21.7348 50 21.4804 49.8946 21.2929 49.7071C21.1054 49.5196 21 49.2652 21 49C21 48.7348 21.1054 48.4804 21.2929 48.2929C21.4804 48.1054 21.7348 48 22 48H23C23.2652 48 23.5196 48.1054 23.7071 48.2929C23.8946 48.4804 24 48.7348 24 49C24 49.2652 23.8946 49.5196 23.7071 49.7071C23.5196 49.8946 23.2652 50 23 50Z" fill="#202354"/>
<path d="M23 14H14C13.7348 14 13.4804 13.8946 13.2929 13.7071C13.1054 13.5196 13 13.2652 13 13C13 12.7348 13.1054 12.4804 13.2929 12.2929C13.4804 12.1054 13.7348 12 14 12H23C23.2652 12 23.5196 12.1054 23.7071 12.2929C23.8946 12.4804 24 12.7348 24 13C24 13.2652 23.8946 13.5196 23.7071 13.7071C23.5196 13.8946 23.2652 14 23 14Z" fill="#202354"/>
<path d="M43.9999 21.0007C33.2699 21.0007 33.6199 21.1607 33.1999 20.6007C32.7799 20.0407 32.8399 20.4107 35.0399 12.7307C35.0987 12.5211 35.2242 12.3364 35.3975 12.2047C35.5707 12.0729 35.7822 12.0013 35.9999 12.0007H45.9999C46.1574 11.9948 46.314 12.0262 46.457 12.0924C46.6001 12.1585 46.7254 12.2576 46.8229 12.3814C46.9204 12.5052 46.9872 12.6503 47.018 12.8048C47.0488 12.9594 47.0426 13.119 46.9999 13.2707L44.9999 20.2707C44.9394 20.487 44.8079 20.6766 44.6265 20.8091C44.4451 20.9415 44.2244 21.009 43.9999 21.0007ZM35.3299 19.0007H43.2499L44.6699 14.0007H36.7499L35.3299 19.0007Z" fill="#202354"/>
<path d="M2 49C2 49.2652 1.89464 49.5196 1.70711 49.7071C1.51957 49.8946 1.26522 50 1 50C0.734784 50 0.48043 49.8946 0.292893 49.7071C0.105357 49.5196 0 49.2652 0 49C0 48.7348 0.105357 48.4804 0.292893 48.2929C0.48043 48.1054 0.734784 48 1 48C1.26522 48 1.51957 48.1054 1.70711 48.2929C1.89464 48.4804 2 48.7348 2 49Z" fill="#202354"/>
<path d="M23 31H11C10.7348 31 10.4804 30.8946 10.2929 30.7071C10.1054 30.5196 10 30.2652 10 30C10 29.7348 10.1054 29.4804 10.2929 29.2929C10.4804 29.1054 10.7348 29 11 29H23C23.2652 29 23.5196 29.1054 23.7071 29.2929C23.8946 29.4804 24 29.7348 24 30C24 30.2652 23.8946 30.5196 23.7071 30.7071C23.5196 30.8946 23.2652 31 23 31Z" fill="#202354"/>
<path d="M4 36C4 36.2652 3.89464 36.5196 3.70711 36.7071C3.51957 36.8946 3.26522 37 3 37C2.73478 37 2.48043 36.8946 2.29289 36.7071C2.10536 36.5196 2 36.2652 2 36C2 35.7348 2.10536 35.4804 2.29289 35.2929C2.48043 35.1054 2.73478 35 3 35C3.26522 35 3.51957 35.1054 3.70711 35.2929C3.89464 35.4804 4 35.7348 4 36Z" fill="#202354"/>
<path d="M3 18C3 18.2652 2.89464 18.5196 2.70711 18.7071C2.51957 18.8946 2.26522 19 2 19C1.73478 19 1.48043 18.8946 1.29289 18.7071C1.10536 18.5196 1 18.2652 1 18C1 17.7348 1.10536 17.4804 1.29289 17.2929C1.48043 17.1054 1.73478 17 2 17C2.26522 17 2.51957 17.1054 2.70711 17.2929C2.89464 17.4804 3 17.7348 3 18Z" fill="#202354"/>
<path d="M19 37H7C6.73478 37 6.48043 36.8946 6.29289 36.7071C6.10536 36.5196 6 36.2652 6 36C6 35.7348 6.10536 35.4804 6.29289 35.2929C6.48043 35.1054 6.73478 35 7 35H19C19.2652 35 19.5196 35.1054 19.7071 35.2929C19.8946 35.4804 20 35.7348 20 36C20 36.2652 19.8946 36.5196 19.7071 36.7071C19.5196 36.8946 19.2652 37 19 37Z" fill="#202354"/>
<path d="M50 45H42C41.7348 45 41.4804 44.8946 41.2929 44.7071C41.1054 44.5196 41 44.2652 41 44C41 43.7348 41.1054 43.4804 41.2929 43.2929C41.4804 43.1054 41.7348 43 42 43H50C50.2652 43 50.5196 43.1054 50.7071 43.2929C50.8946 43.4804 51 43.7348 51 44C51 44.2652 50.8946 44.5196 50.7071 44.7071C50.5196 44.8946 50.2652 45 50 45Z" fill="#287F19"/>
<path d="M51 40H43C42.7348 40 42.4804 39.8946 42.2929 39.7071C42.1054 39.5196 42 39.2652 42 39C42 38.7348 42.1054 38.4804 42.2929 38.2929C42.4804 38.1054 42.7348 38 43 38H51C51.2652 38 51.5196 38.1054 51.7071 38.2929C51.8946 38.4804 52 38.7348 52 39C52 39.2652 51.8946 39.5196 51.7071 39.7071C51.5196 39.8946 51.2652 40 51 40Z" fill="#287F19"/>
<path d="M29 19H6C5.73478 19 5.48043 18.8946 5.29289 18.7071C5.10536 18.5196 5 18.2652 5 18C5 17.7348 5.10536 17.4804 5.29289 17.2929C5.48043 17.1054 5.73478 17 6 17H29C29.2652 17 29.5196 17.1054 29.7071 17.2929C29.8946 17.4804 30 17.7348 30 18C30 18.2652 29.8946 18.5196 29.7071 18.7071C29.5196 18.8946 29.2652 19 29 19Z" fill="#202354"/>
<path d="M23 50H22C21.7348 50 21.4804 49.8946 21.2929 49.7071C21.1054 49.5196 21 49.2652 21 49C21 48.7348 21.1054 48.4804 21.2929 48.2929C21.4804 48.1054 21.7348 48 22 48H23C23.2652 48 23.5196 48.1054 23.7071 48.2929C23.8946 48.4804 24 48.7348 24 49C24 49.2652 23.8946 49.5196 23.7071 49.7071C23.5196 49.8946 23.2652 50 23 50Z" fill="#202354"/>
<path d="M28 50H27C26.7348 50 26.4804 49.8946 26.2929 49.7071C26.1054 49.5196 26 49.2652 26 49C26 48.7348 26.1054 48.4804 26.2929 48.2929C26.4804 48.1054 26.7348 48 27 48H28C28.2652 48 28.5196 48.1054 28.7071 48.2929C28.8946 48.4804 29 48.7348 29 49C29 49.2652 28.8946 49.5196 28.7071 49.7071C28.5196 49.8946 28.2652 50 28 50Z" fill="#202354"/>
<path d="M18 50H5C4.73478 50 4.48043 49.8946 4.29289 49.7071C4.10536 49.5196 4 49.2652 4 49C4 48.7348 4.10536 48.4804 4.29289 48.2929C4.48043 48.1054 4.73478 48 5 48H18C18.2652 48 18.5196 48.1054 18.7071 48.2929C18.8946 48.4804 19 48.7348 19 49C19 49.2652 18.8946 49.5196 18.7071 49.7071C18.5196 49.8946 18.2652 50 18 50Z" fill="#202354"/>
</svg>
