<svg id="Capa_1" enable-background="new 0 0 512 512" height="512" viewBox="0 0 512 512" width="512" xmlns="http://www.w3.org/2000/svg"><g><g><path clip-rule="evenodd" d="m338.331 401.659h98.326c2.5 0 4.517-2.041 4.517-4.507v-25.228c0-2.494-2.017-4.507-4.517-4.507h-98.326c-2.5 0-4.517 2.013-4.517 4.507v12.614 12.614c0 2.466 2.017 4.507 4.517 4.507z" fill="#beb9dd" fill-rule="evenodd"/></g><g><path clip-rule="evenodd" d="m416.628 371.923v25.228c0 2.466-2.046 4.507-4.517 4.507h24.546c2.5 0 4.517-2.041 4.517-4.507v-25.228c0-2.494-2.017-4.507-4.517-4.507h-24.546c2.472 0 4.517 2.013 4.517 4.507z" fill="#a7a2d3" fill-rule="evenodd"/></g><g><path clip-rule="evenodd" d="m202.334 266.502c0-45.921 34.717-85.04 80.371-90.652 15.057-11.395 19.716-30.161.568-46.347-71.081 5.556-126.537 65.367-126.537 136.545 0 35.206 13.495 67.436 35.597 91.758l48.836 17.008 37.586-17.008c.001-.311-76.421-17.801-76.421-91.304z" fill="#f9f7f8" fill-rule="evenodd"/></g><g><path clip-rule="evenodd" d="m275.205 155.441c-67.587 9.241-94.661 72.539-94.661 116.731 0 51.988 38.239 75.969 60.626 85.635h15.796 21.79c0-.312-76.422-17.802-76.422-91.304 0-45.921 34.717-85.04 80.371-90.652-4.318-5.755-7.017-12.785-7.5-20.41z" fill="#dddaec" fill-rule="evenodd"/></g><g><path clip-rule="evenodd" d="m325.121 34.089h69.945v54.652h-69.945z" fill="#beb9dd" fill-rule="evenodd"/></g><g><path clip-rule="evenodd" d="m373.247 78.735h21.818v-34.64h-32.188v34.64z" fill="#a7a2d3" fill-rule="evenodd"/></g><g><path clip-rule="evenodd" d="m325.121 44.095h69.945 5.199c3.921 0 7.131-3.203 7.131-7.115v-22.365c0-3.345-2.358-6.18-5.483-6.945h-83.581c-3.125.765-5.483 3.6-5.483 6.945v22.365c0 3.912 3.21 7.115 7.131 7.115z" fill="#f9f7f8" fill-rule="evenodd"/></g><g><path clip-rule="evenodd" d="m379.952 34.089v2.891c0 3.912-3.21 7.115-7.131 7.115h22.245 5.199c3.921 0 7.131-3.203 7.131-7.115v-22.365c0-3.345-2.358-6.18-5.483-6.945h-27.444c3.154.765 5.483 3.6 5.483 6.945z" fill="#dddaec" fill-rule="evenodd"/></g><g><path clip-rule="evenodd" d="m305.348 301.709 27.018-26.873c5.426-15.052-.313-25.54-17.017-28.715l-32.87 32.684c-1.989 2.013-2.017 5.272 0 7.285l15.597 15.619c1.987 1.984 5.255 1.984 7.272 0z" fill="#f9f7f8" fill-rule="evenodd"/></g><g><path clip-rule="evenodd" d="m337.394 278.21v52.073c0 2.835 2.301 5.131 5.142 5.131h35.171c2.841 0 5.142-2.324 5.142-5.131v-52.073c-14.091-7.597-31.591-7.938-45.455 0z" fill="#f9f7f8" fill-rule="evenodd"/></g><g><path clip-rule="evenodd" d="m387.878 274.836 27.018 26.873c2.017 1.984 5.284 1.984 7.273 0l15.597-15.619c2.017-2.013 1.989-5.272 0-7.285l-32.87-32.684c-10.143 6.888-18.297 15.988-17.018 28.715z" fill="#f9f7f8" fill-rule="evenodd"/></g><g><path clip-rule="evenodd" d="m302.393 223.557c0 6.832 5.568 12.416 12.415 12.416h90.627c6.847 0 12.415-5.584 12.415-12.416v-132.406c0-6.832-5.568-12.416-12.415-12.416h-90.627c-6.847 0-12.415 5.584-12.415 12.416z" fill="#375e7d" fill-rule="evenodd"/></g><g><path clip-rule="evenodd" d="m313.473 191.299c21.165 0 38.325-17.121 38.325-38.239s-17.159-38.239-38.325-38.239c-3.864 0-7.585.567-11.08 1.616-7.671 2.324-14.318 6.945-19.12 13.068-5.085 6.491-8.125 14.684-8.125 23.556 0 8.532 2.813 16.441 7.557 22.791 4.83 6.52 11.705 11.424 19.688 13.833 3.494 1.047 7.216 1.614 11.08 1.614z" fill="#beb9dd" fill-rule="evenodd"/></g><g><path clip-rule="evenodd" d="m385.662 91.151v132.407c0 6.832-5.597 12.416-12.415 12.416h32.188c6.847 0 12.415-5.584 12.415-12.416v-132.407c0-6.832-5.568-12.416-12.415-12.416h-10.37-21.819c6.819 0 12.416 5.584 12.416 12.416z" fill="#2b4d66" fill-rule="evenodd"/></g><g><path clip-rule="evenodd" d="m322.393 264.121-27.671 26.958c-2.017 1.956-5.256 1.984-7.244 0l10.597 10.63c1.989 1.984 5.256 1.984 7.273 0l27.018-26.873c-3.864-3.004-7.245-6.633-9.973-10.715z" fill="#dddaec" fill-rule="evenodd"/></g><g><path clip-rule="evenodd" d="m315.348 246.121c1.818 11.622 8.097 21.77 17.017 28.715 1.591 1.219 3.267 2.353 5.029 3.373 6.676 3.912 14.461 6.151 22.728 6.151s16.051-2.239 22.728-6.151c1.761-1.02 3.438-2.154 5.029-3.373 8.921-6.945 15.199-17.093 17.017-28.715.341-2.268.54-4.592.54-6.973v-3.175h-90.627v3.175c-.001 2.381.198 4.705.539 6.973z" fill="#beb9dd" fill-rule="evenodd"/></g><g><path clip-rule="evenodd" d="m405.435 235.973h-32.188v3.175c0 2.381-.199 4.706-.568 6.973-1.818 11.622-8.097 21.77-17.017 28.715-1.591 1.219-3.267 2.353-5 3.373-2.102 1.247-4.347 2.296-6.648 3.175 5.029 1.928 10.455 2.976 16.108 2.976 8.267 0 16.051-2.239 22.728-6.151 1.761-1.02 3.438-2.154 5.029-3.373 8.921-6.945 15.199-17.093 17.017-28.715.341-2.268.54-4.592.54-6.973v-3.175z" fill="#a7a2d3" fill-rule="evenodd"/></g><g><path clip-rule="evenodd" d="m365.264 284.077v46.205c0 2.806-2.301 5.131-5.142 5.131h17.586c2.841 0 5.142-2.324 5.142-5.131v-52.072c-5.285 3.089-11.251 5.13-17.586 5.867z" fill="#dddaec" fill-rule="evenodd"/></g><g><path clip-rule="evenodd" d="m400.435 259.699 28.296 28.148c2.017 1.984 2.017 5.272.028 7.257l9.006-9.014c2.017-2.013 1.989-5.272 0-7.285l-32.87-32.684c-.767 4.819-2.273 9.383-4.46 13.578z" fill="#dddaec" fill-rule="evenodd"/></g><g><path clip-rule="evenodd" d="m331.314 151.642c0 17.887-12.301 32.882-28.921 37.077-.597.142-1.165.283-1.733.397.568.198 1.136.397 1.733.567 3.494 1.049 7.216 1.616 11.08 1.616 21.165 0 38.325-17.121 38.325-38.239s-17.159-38.239-38.325-38.239c-2.642 0-5.199.255-7.671.765 14.858 5.272 25.512 19.417 25.512 36.056z" fill="#a7a2d3" fill-rule="evenodd"/></g><g><path clip-rule="evenodd" d="m278.756 357.807h-86.422c-23.154 0-42.103 18.907-42.103 42.01v64.092h42.558 44.688 58.325v-89.093c0-9.356-7.671-17.009-17.046-17.009z" fill="#375e7d" fill-rule="evenodd"/></g><g><path clip-rule="evenodd" d="m237.477 463.908h-44.688-42.558-23.58c-11.193 0-20.341 9.128-20.341 20.296 0 11.169 9.148 20.296 20.341 20.296h314.836c11.165 0 20.341-9.128 20.341-20.296 0-11.169-9.176-20.296-20.341-20.296h-145.685z" fill="#beb9dd" fill-rule="evenodd"/></g><g><path clip-rule="evenodd" d="m249.892 413.564c0-14.627-11.904-26.476-26.563-26.476s-26.535 11.849-26.535 26.476c0 4.025.881 7.824 2.5 11.254 4.233 9.014 13.409 15.25 24.035 15.25 10.625 0 19.802-6.236 24.035-15.25 1.619-3.43 2.528-7.229 2.528-11.254z" fill="#f9f7f8" fill-rule="evenodd"/></g><g><path clip-rule="evenodd" d="m216.028 388.081c21.62 7.483 20.739 43.937 0 50.967 2.33.652 4.773 1.02 7.301 1.02 10.625 0 19.802-6.236 24.035-15.25 1.619-3.43 2.528-7.228 2.528-11.254 0-14.627-11.904-26.476-26.563-26.476-2.529.001-4.972.341-7.301.993z" fill="#dddaec" fill-rule="evenodd"/></g><g><path clip-rule="evenodd" d="m274.012 374.815v89.093h21.79v-89.093c0-9.354-7.671-17.008-17.046-17.008h-21.79c9.375 0 17.046 7.653 17.046 17.008z" fill="#2b4d66" fill-rule="evenodd"/></g><g><path clip-rule="evenodd" d="m389.696 463.908c11.165 0 20.313 9.128 20.313 20.296 0 11.169-9.148 20.296-20.313 20.296h51.791c11.165 0 20.341-9.128 20.341-20.296 0-11.169-9.176-20.296-20.341-20.296z" fill="#a7a2d3" fill-rule="evenodd"/></g><g><path clip-rule="evenodd" d="m232.647 118.789c0-50.287-40.853-91.049-91.252-91.049-50.37 0-91.224 40.762-91.224 91.049s40.853 91.049 91.224 91.049c50.399 0 91.252-40.763 91.252-91.049z" fill="#b1e4f9" fill-rule="evenodd"/></g><g><path clip-rule="evenodd" d="m116.025 206.266c8.068 2.324 16.563 3.572 25.37 3.572 50.399 0 91.252-40.762 91.252-91.049 0-45.61-33.609-83.367-77.473-90-4.489-.68-8.068-1.049-13.779-1.049-5.682 0-8.921-3.373-15.228-1.984 71.508 43.483 36.081 167.13-10.142 180.51z" fill="#75cef8" fill-rule="evenodd"/></g><g><path clip-rule="evenodd" d="m169.009 117.91-29.063-4.762-29.432 4.762v27.383c0 16.044 13.154 29.169 29.262 29.169 16.08 0 29.234-13.124 29.234-29.169v-27.383z" fill="#f9f7f8" fill-rule="evenodd"/></g><g><path clip-rule="evenodd" d="m110.514 117.91h58.496v-27.383c0-16.044-13.154-29.197-29.234-29.197-16.108 0-29.262 13.153-29.262 29.197z" fill="#eb5468" fill-rule="evenodd"/></g><g><path clip-rule="evenodd" d="m147.844 90.527v23.896 3.487h21.165v-27.383c0-16.044-13.154-29.197-29.234-29.197-3.75 0-7.301.709-10.597 1.984 10.91 4.252 18.666 14.882 18.666 27.213z" fill="#e5384f" fill-rule="evenodd"/></g><g><path clip-rule="evenodd" d="m169.009 117.91h-21.165v27.383c0 12.331-7.756 22.932-18.665 27.184 3.296 1.276 6.847 1.984 10.597 1.984 16.08 0 29.234-13.124 29.234-29.169v-27.382z" fill="#dddaec" fill-rule="evenodd"/></g><g><path d="m307.043 156.922c1.407 2.342 3.891 3.639 6.437 3.639 1.314 0 2.646-.346 3.855-1.071 3.551-2.134 4.7-6.741 2.567-10.292l-.341-.567c-2.134-3.551-6.741-4.698-10.292-2.567-3.551 2.134-4.7 6.741-2.567 10.292z"/><path d="m223.329 379.589c-18.767 0-34.035 15.241-34.035 33.976 0 18.75 15.269 34.004 34.035 34.004 18.782 0 34.062-15.254 34.062-34.004.001-18.735-15.28-33.976-34.062-33.976zm0 52.979c-10.496 0-19.035-8.525-19.035-19.004 0-10.463 8.539-18.976 19.035-18.976 10.511 0 19.062 8.513 19.062 18.976.001 10.479-8.551 19.004-19.062 19.004z"/><path d="m441.487 456.408h-65.087c-4.143 0-7.5 3.357-7.5 7.5s3.357 7.5 7.5 7.5h65.087c7.08 0 12.841 5.74 12.841 12.796s-5.761 12.796-12.841 12.796h-314.837c-7.08 0-12.841-5.74-12.841-12.796s5.761-12.796 12.841-12.796h215.033c4.143 0 7.5-3.357 7.5-7.5s-3.357-7.5-7.5-7.5h-38.382v-64.371h23.013v5.114c0 6.621 5.391 12.008 12.017 12.008h98.326c6.627 0 12.018-5.387 12.018-12.008v-25.229c0-6.62-5.391-12.007-12.018-12.007h-98.326c-6.626 0-12.017 5.387-12.017 12.007v5.114h-23.013v-2.223c0-13.097-10.343-23.827-23.301-24.476-16.504-4.816-70.167-25.06-70.167-83.836 0-40.923 29.739-75.757 69.812-82.621 4.242 4.634 9.428 8.387 15.246 10.974v28.703c0 8.359 5.182 15.519 12.497 18.468.024.446.066.888.102 1.331l-30.35 30.178c-4.89 4.949-4.872 12.963.029 17.855l15.606 15.628c2.448 2.444 5.676 3.668 8.912 3.668 3.228 0 6.466-1.218 8.947-3.659l19.257-19.154v42.41c0 6.965 5.672 12.631 12.643 12.631h35.171c6.971 0 12.643-5.666 12.643-12.631v-42.41l19.285 19.182c2.463 2.423 5.685 3.634 8.904 3.634 3.239 0 6.478-1.227 8.936-3.68l15.589-15.61c4.91-4.901 4.928-12.915-.01-17.912l-30.303-30.131c.035-.443.078-.884.102-1.33 7.315-2.949 12.497-10.109 12.497-18.468v-52.781c0-4.143-3.357-7.5-7.5-7.5s-7.5 3.357-7.5 7.5v52.781c0 2.711-2.205 4.916-4.915 4.916h-90.627c-2.71 0-4.915-2.205-4.915-4.916v-24.912c1.183.092 2.374.153 3.58.153 25.269 0 45.825-20.519 45.825-45.739s-20.557-45.739-45.825-45.739c-1.206 0-2.397.061-3.58.153v-16.323c0-2.711 2.205-4.916 4.915-4.916h90.627c2.71 0 4.915 2.205 4.915 4.916v44.986c0 4.143 3.357 7.5 7.5 7.5s7.5-3.357 7.5-7.5v-44.986c0-10.981-8.934-19.916-19.915-19.916h-2.869v-19.837c6.976-1.108 12.33-7.141 12.33-14.416v-22.366c.002-8.058-6.562-14.615-14.629-14.615h-80.286c-8.067 0-14.631 6.557-14.631 14.615v22.365c0 7.255 5.326 13.276 12.273 14.408v19.846h-2.813c-10.981 0-19.915 8.935-19.915 19.916v20.114c-5.848 2.6-11.06 6.378-15.314 11.045-13.968 1.385-27.486 4.759-40.375 10.074.617-4.446.944-8.983.944-13.595 0-54.34-44.3-98.549-98.752-98.549-54.437 0-98.724 44.209-98.724 98.549 0 54.341 44.287 98.55 98.724 98.55 5.766 0 11.417-.501 16.915-1.452-6.02 16.021-9.074 32.83-9.074 50.163 0 31.257 10.178 61.442 28.892 86.337-20.449 6.113-35.397 25.057-35.397 47.43v56.592h-16.08c-15.352 0-27.841 12.469-27.841 27.796s12.488 27.796 27.839 27.796h314.837c15.352 0 27.841-12.469 27.841-27.796s-12.489-27.796-27.841-27.796zm-100.173-81.492h92.36v19.243h-92.36zm18.807-98.056c-19.383 0-35.397-14.623-37.557-33.387h75.114c-2.159 18.765-18.174 33.387-37.557 33.387zm-58.404 17.882-12.271-12.289 22.304-22.178c2.41 5.476 5.725 10.465 9.758 14.782zm43.177 33.171v-38.296c4.825 1.453 9.935 2.243 15.228 2.243s10.404-.79 15.229-2.243v38.296zm85.904-45.46-12.271 12.289-19.791-19.685c4.033-4.317 7.347-9.307 9.758-14.782zm-110.45-267.453h79.548v21.596h-79.548zm12.273 36.596h54.944v19.639h-54.944zm-19.148 70.724c16.997 0 30.825 13.79 30.825 30.739s-13.828 30.739-30.825 30.739c-16.996 0-30.824-13.79-30.824-30.739s13.828-30.739 30.824-30.739zm-255.801-3.532c0-46.069 37.559-83.549 83.724-83.549 46.181 0 83.752 37.479 83.752 83.549s-37.571 83.55-83.752 83.55c-46.166 0-83.724-37.481-83.724-83.55zm119.099 92.007c27.072-10.402 48.431-32.373 57.961-59.815 11.179-5.784 22.965-9.85 35.199-12.152-1.474 4.483-2.283 9.264-2.283 14.232 0 6.117 1.218 11.953 3.411 17.291-44.134 10.424-76.225 49.991-76.225 96.152 0 44.124 25.168 69.653 48.348 83.805h-47.47c-20.32-23.514-31.475-53.303-31.475-84.258-.001-19.293 4.221-37.865 12.534-55.255zm-19.041 189.021c0-19.028 15.523-34.51 34.604-34.51h86.422c5.264 0 9.546 4.266 9.546 9.508v81.594h-130.572z"/><path d="m139.776 53.83c-20.271 0-36.763 16.462-36.763 36.697v54.766c0 20.219 16.491 36.668 36.763 36.668 20.255 0 36.733-16.449 36.733-36.668v-54.766c.001-20.235-16.478-36.697-36.733-36.697zm0 15c11.983 0 21.733 9.733 21.733 21.697v19.883h-43.496v-19.883c.001-11.964 9.763-21.697 21.763-21.697zm0 98.131c-12 0-21.763-9.72-21.763-21.668v-19.883h43.496v19.883c.001 11.948-9.749 21.668-21.733 21.668z"/></g></g></svg>