<svg width="1587" height="1297" viewBox="0 0 1587 1297" fill="none" xmlns="http://www.w3.org/2000/svg">
<g clip-path="url(#clip0_56_20719)">
<path d="M532.322 1238.84C460.344 1230.57 388.689 1211.84 324.838 1177.62C139.061 1078.08 90.362 872.292 113.792 679.296C141.855 448.129 362.307 496.729 430.899 305.024C487.023 148.158 593.66 38.0742 770.453 38.0742C1003.39 38.0742 1098.45 140.808 1139.31 249.057C1180.16 357.306 1266.75 472.622 1373.79 500.411C1564.62 549.947 1724.58 849.911 1401.86 1089.34C1283.87 1176.87 1142.45 1228.87 996.321 1247.86C941.002 1255 885.203 1257.75 829.45 1256.06C780.629 1254.63 560.252 1242.04 532.322 1238.84Z" fill="#AEE7F4"/>
<path d="M771.312 393.711C742.699 396.094 712.605 392.518 684.766 386.35C624.458 372.985 563.003 350.472 502.658 363.663C482.778 368.009 463.175 376.582 449.098 391.724C435.021 406.866 427.364 429.355 433.012 449.524C440.595 476.6 468.975 493.177 476.745 520.198C484.785 548.147 467.497 578.098 444.559 595.079C421.621 612.06 393.705 619.858 367.837 631.51C307.837 658.538 256.869 709.043 232.72 772.41C208.659 835.535 213.141 910.622 248.494 967.792C283.847 1024.96 348.781 1099.81 414.108 1092.98C459.522 1088.24 757.521 1058.23 862.178 1088.47C956.495 1115.6 1056.43 1116.43 1151.19 1090.88C1208.05 1075.47 1266.17 1047.33 1295.36 994.596C1333.87 925.014 1307.79 831.69 1252.32 775.649C1220.22 743.213 1179.92 720.413 1148.05 687.742C1116.17 655.071 1092.9 606.428 1107.81 562.668C1118.62 530.925 1146.95 508.873 1161.29 478.659C1181.72 435.619 1169.17 380.589 1137.12 345.925C1105.08 311.261 1056.92 295.657 1010.55 296.967C964.18 298.277 919.317 315.012 878.172 337.152C842.923 356.117 812.866 390.252 771.313 393.714" fill="#D5F2F7"/>
<path d="M1412.31 944.813C1405.06 938.213 1395.59 934.386 1385.62 936.227C1401.14 910.039 1409.37 880.184 1409.49 849.747C1409.51 838.405 1408.13 826.366 1401.16 817.42C1394.19 808.474 1380.01 804.386 1371.21 811.542C1373.42 792.03 1379.57 773.214 1384.02 754.084C1388.46 734.954 1391.2 714.849 1386.52 695.775C1382.84 680.74 1373.81 666.204 1360.35 658.112C1343.59 648.026 1328.05 657.528 1316.93 671.338C1298 694.93 1285.77 723.186 1281.53 753.138C1249.73 743.746 1214.22 757.621 1191.49 781.759C1168.76 805.897 1157.23 838.659 1151.77 871.359C1139.58 944.506 1154.97 1019.12 1170.29 1091.67C1213.89 1099.39 1259.13 1101.69 1302.19 1091.36C1345.24 1081.03 1386.1 1057.05 1410.77 1020.29C1421.2 1004.76 1428.75 985.936 1425.26 967.561C1423.46 958.798 1418.93 950.834 1412.31 944.813Z" fill="#799133"/>
<path opacity="0.33" d="M1396.83 976.509C1396.5 976.24 1396.12 976.038 1395.71 975.917C1395.29 975.796 1394.86 975.757 1394.44 975.802C1394.01 975.848 1393.6 975.977 1393.22 976.183C1392.84 976.388 1392.51 976.666 1392.24 977C1377.07 995.813 1343.88 1008.91 1311.28 1017.69C1317.21 1000.61 1328.42 970.65 1334.79 963.312C1335.35 962.658 1335.64 961.805 1335.58 960.941C1335.52 960.078 1335.11 959.273 1334.46 958.706C1333.81 958.138 1332.95 957.854 1332.09 957.915C1331.22 957.976 1330.42 958.378 1329.85 959.032C1321.35 968.824 1307.48 1008.53 1303.7 1019.66C1280.52 1025.35 1257.02 1029.66 1233.34 1032.58C1242.06 1016.21 1255.51 990.164 1270.07 958.979C1288.81 949.319 1306.8 938.269 1323.89 925.921C1325.75 924.579 1327.54 923.237 1329.32 921.897C1329.38 921.916 1329.43 921.961 1329.49 921.974C1338.51 923.951 1347.71 925.009 1356.94 925.133C1366.7 925.133 1376.73 923.588 1382.61 918.361C1383.24 917.783 1383.63 916.976 1383.68 916.116C1383.72 915.256 1383.43 914.413 1382.85 913.769C1382.28 913.126 1381.48 912.735 1380.62 912.682C1379.76 912.628 1378.91 912.917 1378.26 913.484C1370.06 920.773 1348.38 918.794 1336.14 916.64C1366.69 892.469 1386 868.483 1393.58 845.206C1393.72 844.797 1393.78 844.363 1393.75 843.93C1393.72 843.497 1393.61 843.074 1393.42 842.686C1393.22 842.298 1392.95 841.952 1392.63 841.669C1392.3 841.386 1391.92 841.171 1391.5 841.036C1391.09 840.902 1390.66 840.851 1390.22 840.887C1389.79 840.922 1389.37 841.044 1388.99 841.244C1388.6 841.444 1388.26 841.718 1387.98 842.051C1387.71 842.385 1387.5 842.77 1387.37 843.184C1382.27 858.835 1371.62 873.798 1358.69 887.384C1353.59 868.654 1349.14 838.672 1357.92 832.53C1358.27 832.284 1358.57 831.972 1358.8 831.61C1359.03 831.248 1359.19 830.845 1359.26 830.422C1359.34 830 1359.33 829.567 1359.24 829.148C1359.14 828.729 1358.97 828.333 1358.72 827.981C1358.48 827.63 1358.16 827.33 1357.8 827.1C1357.44 826.869 1357.04 826.712 1356.61 826.638C1356.19 826.563 1355.76 826.573 1355.34 826.665C1354.92 826.758 1354.53 826.932 1354.17 827.178C1338.37 838.237 1351.37 885.631 1352.91 891C1353.07 891.529 1353.37 892.007 1353.77 892.385C1325.9 919.795 1289.93 940.854 1274.58 949.222C1295.24 904.136 1317.35 849.895 1331.01 798.894C1340.2 788.352 1369.8 753.005 1373.61 731.436C1373.74 730.59 1373.54 729.724 1373.04 729.026C1372.55 728.327 1371.8 727.852 1370.95 727.703C1370.11 727.554 1369.24 727.744 1368.53 728.23C1367.83 728.716 1367.34 729.46 1367.18 730.302C1364.49 745.502 1346.75 769.449 1334.72 784.286C1341.32 756.486 1345.07 730.048 1344.25 707.081C1344.24 706.651 1344.15 706.226 1343.97 705.832C1343.8 705.439 1343.54 705.085 1343.23 704.792C1342.91 704.498 1342.54 704.272 1342.13 704.125C1341.73 703.978 1341.3 703.915 1340.87 703.938C1340.44 703.953 1340.02 704.052 1339.63 704.23C1339.24 704.408 1338.89 704.661 1338.59 704.975C1338.3 705.288 1338.07 705.657 1337.93 706.059C1337.78 706.46 1337.71 706.888 1337.72 707.316C1338.55 730.577 1334.34 759.694 1325.44 793.681C1312.01 775.524 1297.79 750.044 1303.98 743.081C1304.53 742.431 1304.81 741.589 1304.75 740.735C1304.69 739.881 1304.3 739.085 1303.66 738.516C1303.02 737.948 1302.19 737.653 1301.33 737.696C1300.48 737.738 1299.67 738.114 1299.09 738.743C1286.48 752.932 1316.92 793.504 1323.29 801.671C1313.47 837.088 1298.78 877.51 1279.38 922.103C1268.89 946.203 1258.3 968.614 1248.91 987.646C1240.16 962.852 1233.33 937.418 1228.48 911.572C1228.76 911.441 1229.02 911.27 1229.25 911.062C1231.34 908.978 1280.35 859.428 1284.71 808.614C1284.74 808.187 1284.7 807.757 1284.57 807.348C1284.44 806.94 1284.23 806.56 1283.95 806.233C1283.67 805.905 1283.34 805.635 1282.96 805.438C1282.57 805.241 1282.16 805.12 1281.73 805.084C1281.3 805.042 1280.87 805.086 1280.46 805.213C1280.05 805.34 1279.67 805.549 1279.34 805.826C1279.01 806.104 1278.74 806.444 1278.54 806.828C1278.35 807.211 1278.23 807.63 1278.2 808.059C1274.6 850.117 1237.22 892.954 1227.14 903.81C1221.97 872.243 1220.18 837.448 1228.63 809.275C1228.76 808.863 1228.81 808.428 1228.77 807.997C1228.73 807.566 1228.61 807.147 1228.41 806.765C1228.2 806.382 1227.93 806.044 1227.59 805.769C1227.26 805.494 1226.87 805.289 1226.46 805.165C1226.04 805.04 1225.61 805 1225.18 805.045C1224.75 805.09 1224.33 805.221 1223.95 805.429C1223.57 805.636 1223.24 805.918 1222.97 806.256C1222.7 806.594 1222.5 806.983 1222.38 807.399C1218.13 821.559 1216.09 837.981 1216.2 856.49C1211.08 855.652 1198.39 851.605 1194.27 832.047C1194.18 831.628 1194.01 831.23 1193.77 830.876C1193.53 830.522 1193.22 830.22 1192.86 829.985C1192.5 829.751 1192.1 829.59 1191.68 829.511C1191.26 829.432 1190.82 829.437 1190.4 829.526C1189.98 829.614 1189.59 829.785 1189.23 830.027C1188.88 830.269 1188.58 830.579 1188.34 830.938C1188.11 831.297 1187.95 831.699 1187.87 832.12C1187.79 832.542 1187.79 832.975 1187.88 833.394C1193.04 857.901 1210.43 862.277 1216.32 863.061C1216.96 882.475 1219.85 904.034 1225 927.739C1229.85 949.939 1236.18 971.784 1243.98 993.127C1244.25 993.815 1244.74 994.389 1245.39 994.752C1229.48 1026.63 1217.83 1047.4 1217.64 1047.74C1217.22 1048.49 1217.11 1049.38 1217.34 1050.22C1217.57 1051.05 1218.13 1051.76 1218.88 1052.18C1219.37 1052.46 1219.92 1052.6 1220.48 1052.6C1221.06 1052.6 1221.63 1052.45 1222.13 1052.16C1222.63 1051.86 1223.05 1051.44 1223.33 1050.94C1223.93 1049.87 1226.16 1045.9 1229.57 1039.59C1252.89 1036.93 1276.03 1032.92 1298.88 1027.59C1300.66 1027.17 1302.37 1026.73 1304.1 1026.3C1313.59 1033.29 1325.03 1037.11 1336.81 1037.24C1339.07 1037.24 1341.33 1037.09 1343.57 1036.79C1344 1036.74 1344.41 1036.6 1344.78 1036.38C1345.15 1036.17 1345.47 1035.88 1345.74 1035.54C1346 1035.2 1346.19 1034.81 1346.3 1034.4C1346.41 1033.98 1346.44 1033.55 1346.38 1033.12C1346.32 1032.7 1346.18 1032.29 1345.97 1031.92C1345.75 1031.55 1345.47 1031.22 1345.13 1030.96C1344.79 1030.7 1344.4 1030.51 1343.98 1030.4C1343.57 1030.29 1343.14 1030.26 1342.71 1030.32C1329.57 1032.08 1318.62 1027.44 1312.68 1024.09C1354.98 1012.73 1383.45 998.3 1397.33 981.093C1397.87 980.419 1398.12 979.558 1398.03 978.699C1397.93 977.84 1397.51 977.053 1396.83 976.509Z" fill="white"/>
<path d="M416.523 678.163C379.06 617.7 370.764 559.981 370.401 522.208C370.009 481.249 378.616 454.192 378.701 453.922L381.223 454.738C381.138 455.005 372.647 481.738 373.05 522.295C373.424 559.702 381.657 616.867 418.774 676.767L416.523 678.163Z" fill="#C5C680"/>
<path d="M374.441 472.231C374.441 472.231 350.732 433.282 390.108 415.293C390.108 415.293 421.103 451.041 374.441 472.231ZM424.601 473.931C384.694 457.151 372.101 500.975 372.101 500.975C419.3 520.946 424.601 473.928 424.601 473.928V473.931ZM423.985 522C384.078 505.217 371.485 549.044 371.485 549.044C418.683 569.011 423.985 521.997 423.985 521.997V522ZM433.163 564.306C393.263 547.523 380.668 591.35 380.668 591.35C427.862 611.318 433.163 564.303 433.163 564.303V564.306ZM331.941 473.232C336.141 508.574 372.585 499.788 372.585 499.788C367.704 457.938 331.941 473.232 331.941 473.232ZM372.715 549.815C372.715 549.815 340.791 489.793 331.66 515.7C322.529 541.607 358.797 550.188 372.712 549.811L372.715 549.815ZM388.732 613.146C388.732 613.146 356.808 553.121 347.677 579.031C338.546 604.941 374.814 613.519 388.729 613.146H388.732Z" fill="#C5C680"/>
<path d="M1223.33 682.635C1228.34 680.417 1224.25 660.207 1214.19 637.495C1204.14 614.782 1191.93 598.168 1186.92 600.386C1181.9 602.604 1185.99 622.814 1196.05 645.527C1206.1 668.239 1218.32 684.853 1223.33 682.635Z" fill="#C5C680"/>
<path d="M1216.69 731.753C1221.77 728.811 1216.68 710.508 1205.31 690.873C1193.95 671.237 1180.61 657.704 1175.53 660.646C1170.45 663.588 1175.54 681.89 1186.91 701.526C1198.27 721.161 1211.61 734.694 1216.69 731.753Z" fill="#C5C680"/>
<path d="M1209.14 769.161C1213.68 765.438 1207.59 750.511 1195.54 735.82C1183.49 721.13 1170.04 712.239 1165.5 715.962C1160.96 719.685 1167.05 734.612 1179.1 749.303C1191.15 763.993 1204.6 772.884 1209.14 769.161Z" fill="#C5C680"/>
<path d="M1263.22 661.048C1280.93 641.165 1291.72 621.88 1287.33 617.976C1282.95 614.071 1265.04 627.024 1247.34 646.908C1229.64 666.791 1218.85 686.076 1223.23 689.98C1227.62 693.885 1245.52 680.932 1263.22 661.048Z" fill="#C5C680"/>
<path d="M1253.75 711.043C1270.57 695.821 1281.02 679.951 1277.08 675.597C1273.14 671.242 1256.3 680.052 1239.48 695.274C1222.66 710.496 1212.22 726.366 1216.16 730.72C1220.1 735.075 1236.93 726.265 1253.75 711.043Z" fill="#C5C680"/>
<path d="M1246.56 758.935C1262.52 748.635 1272.88 736.286 1269.7 731.353C1266.52 726.42 1251 730.771 1235.03 741.072C1219.07 751.372 1208.71 763.722 1211.89 768.654C1215.07 773.587 1230.6 769.236 1246.56 758.935Z" fill="#C5C680"/>
<path d="M1239.11 605.903C1241.2 586.334 1239.45 570.098 1235.18 569.641C1230.91 569.183 1225.75 584.676 1223.65 604.246C1221.55 623.815 1223.31 640.051 1227.58 640.508C1231.85 640.966 1237.01 625.473 1239.11 605.903Z" fill="#C5C680"/>
<path d="M1200.38 810.91C1200.06 811.052 1199.7 811.09 1199.36 811.018C1199.02 810.947 1198.71 810.77 1198.47 810.512C1198.23 810.254 1198.08 809.928 1198.04 809.581C1198 809.233 1198.06 808.881 1198.23 808.573C1212.48 782.573 1225.78 641.773 1225.91 640.353C1225.95 639.91 1226.17 639.502 1226.51 639.218C1226.85 638.934 1227.29 638.798 1227.74 638.839C1228.18 638.881 1228.59 639.096 1228.87 639.439C1229.15 639.781 1229.29 640.222 1229.25 640.665C1229.21 641.023 1225.86 676.709 1220.77 715.186C1213.91 767.007 1207.32 798.965 1201.17 810.186C1200.99 810.508 1200.72 810.763 1200.38 810.91Z" fill="#C5C680"/>
<path d="M1224.66 904.721C1256.04 809.814 1234.48 717.337 1176.5 698.168C1118.53 678.999 1046.09 740.397 1014.71 835.304C983.333 930.211 1004.89 1022.69 1062.87 1041.86C1120.84 1061.03 1193.28 999.628 1224.66 904.721Z" fill="#AEB72A"/>
<path opacity="0.33" d="M1070.68 1049.17C1069.3 1049.17 1067.97 1048.63 1066.98 1047.67C1065.99 1046.71 1065.4 1045.4 1065.35 1044.02C1065.03 1032.73 1065.49 1021.43 1066.73 1010.21C1044.74 980.823 1043.79 904.384 1043.76 901.048C1043.75 899.634 1044.3 898.272 1045.29 897.262C1046.28 896.252 1047.63 895.678 1049.05 895.664H1049.1C1050.51 895.665 1051.86 896.221 1052.85 897.211C1053.85 898.202 1054.42 899.546 1054.44 900.952C1054.44 901.643 1055.17 960.761 1069 992.688C1074.42 957.17 1085.68 914.175 1102.71 864.081C1075.4 831.106 1088.93 768.071 1089.53 765.363C1089.84 763.988 1090.69 762.792 1091.88 762.036C1093.07 761.281 1094.51 761.028 1095.89 761.332C1097.27 761.637 1098.47 762.474 1099.23 763.662C1099.99 764.849 1100.25 766.29 1099.95 767.668C1099.83 768.242 1088.45 821.308 1106.98 851.717C1107.84 849.273 1108.71 846.811 1109.59 844.329C1132.59 779.843 1156.38 727.929 1156.62 727.409C1157.21 726.123 1158.28 725.124 1159.61 724.633C1160.94 724.141 1162.41 724.197 1163.69 724.788C1164.98 725.38 1165.98 726.458 1166.47 727.785C1166.96 729.113 1166.91 730.581 1166.32 731.867C1165.92 732.721 1149.52 768.631 1130.79 817.885C1149.34 822.285 1179.81 784.733 1189.43 770.552C1190.23 769.394 1191.46 768.598 1192.84 768.338C1194.22 768.079 1195.65 768.376 1196.82 769.165C1197.98 769.955 1198.79 771.173 1199.06 772.554C1199.33 773.935 1199.05 775.368 1198.27 776.539C1193.94 782.927 1156.38 836.796 1127.02 827.919C1113.69 863.704 1099.66 905.367 1089.68 945.37C1123.55 955.941 1158.56 895.735 1158.91 895.116C1159.63 893.915 1160.79 893.042 1162.14 892.687C1163.49 892.332 1164.93 892.522 1166.15 893.217C1167.36 893.912 1168.25 895.056 1168.63 896.402C1169.01 897.749 1168.85 899.19 1168.17 900.416C1166.55 903.247 1128.9 968.064 1087.17 955.761C1083.11 972.787 1079.98 990.025 1077.82 1007.4C1078.1 1008.17 1078.2 1008.99 1078.11 1009.81C1078.02 1010.62 1077.74 1011.4 1077.3 1012.1C1076.16 1022.57 1075.73 1033.11 1076.02 1043.64C1076.07 1045.05 1075.56 1046.43 1074.6 1047.46C1073.64 1048.5 1072.3 1049.11 1070.89 1049.16L1070.68 1049.17Z" fill="white"/>
<path d="M1237.58 974.279C1282.12 903.726 1300.3 835.222 1278.2 821.272C1256.1 807.321 1202.08 853.207 1157.55 923.76C1113.01 994.313 1094.83 1062.82 1116.93 1076.77C1139.03 1090.72 1193.05 1044.83 1237.58 974.279Z" fill="#C5C680"/>
<path opacity="0.33" d="M1116.91 1079.43C1116.54 1079.43 1116.18 1079.35 1115.84 1079.2C1115.5 1079.05 1115.19 1078.83 1114.94 1078.56C1114.69 1078.28 1114.5 1077.96 1114.38 1077.61C1114.27 1077.26 1114.22 1076.89 1114.26 1076.52C1123.68 971.225 1240.73 838.552 1241.91 837.225C1242.14 836.956 1242.42 836.735 1242.74 836.576C1243.06 836.417 1243.4 836.322 1243.76 836.298C1244.11 836.274 1244.47 836.321 1244.8 836.436C1245.14 836.55 1245.45 836.731 1245.71 836.967C1245.98 837.202 1246.19 837.489 1246.34 837.809C1246.5 838.129 1246.58 838.476 1246.6 838.83C1246.62 839.184 1246.57 839.538 1246.44 839.872C1246.32 840.205 1246.14 840.511 1245.9 840.771C1244.78 842.028 1138.88 962.08 1121.41 1063.09C1147.53 1022.3 1261.67 843.906 1268.81 829.618C1269.13 828.993 1269.69 828.52 1270.36 828.301C1271.02 828.082 1271.75 828.135 1272.38 828.449C1273.01 828.763 1273.49 829.313 1273.71 829.978C1273.94 830.644 1273.89 831.371 1273.59 832.003C1266.49 846.203 1160.39 1012.12 1129.07 1061.03C1165.26 1024.7 1259.76 925.441 1269.48 870.371C1269.61 869.686 1270.01 869.081 1270.59 868.685C1271.16 868.29 1271.87 868.137 1272.56 868.258C1273.25 868.379 1273.86 868.766 1274.27 869.334C1274.67 869.902 1274.84 870.607 1274.73 871.297C1269.56 900.644 1241.69 944.497 1191.92 1001.64C1155 1044.03 1119.12 1078.34 1118.76 1078.69C1118.26 1079.16 1117.6 1079.43 1116.91 1079.43Z" fill="white"/>
<path d="M124.244 1199.49C124.244 1127.23 220.595 1103.15 250.036 1092.44C502.349 1000.69 760.895 1094.56 1019.81 1089.76C1164.33 1087.09 1275.19 1071.94 1357.03 1095.11C1470.48 1127.23 1459.78 1220.9 1459.78 1220.9C1459.78 1220.9 1462.45 1301.19 1375.78 1295.84C1263.58 1288.91 240.975 1295.84 240.975 1295.84C240.975 1295.84 124.244 1301.23 124.244 1199.49Z" fill="#B0B82D"/>
<path d="M827.148 1250.56H786.974C779.3 1250.56 771.79 1248.34 765.355 1244.16C758.921 1239.97 753.838 1234.01 750.722 1227C747.557 1219.88 746.166 1212.1 746.667 1204.33C747.169 1196.55 749.548 1189.01 753.601 1182.36L763.585 1165.98C771.071 1153.7 782.881 1144.67 796.69 1140.67C810.499 1136.66 825.308 1137.97 838.2 1144.34L854.625 1152.45C865.864 1158 874.595 1167.58 879.077 1179.29C883.559 1190.99 883.46 1203.96 878.801 1215.59C874.672 1225.92 867.545 1234.77 858.338 1241C849.131 1247.23 838.267 1250.56 827.148 1250.56Z" fill="#80953A"/>
<path d="M822.169 1250.57H785.769C780.29 1250.56 774.929 1248.98 770.336 1245.99C765.742 1243 762.114 1238.75 759.891 1233.74C757.63 1228.66 756.637 1223.1 756.995 1217.55C757.353 1212 759.052 1206.62 761.946 1201.87L769.075 1190.19C774.416 1181.42 782.845 1174.97 792.703 1172.11C802.561 1169.25 813.133 1170.19 822.336 1174.73L834.065 1180.52C842.087 1184.48 848.32 1191.32 851.52 1199.68C854.72 1208.03 854.652 1217.29 851.328 1225.6L848.455 1232.77C846.352 1238.03 842.725 1242.53 838.04 1245.7C833.354 1248.87 827.826 1250.57 822.169 1250.57Z" fill="#DBDD94"/>
<path d="M1163.59 1217.99H1242.65L1269.79 1185.86C1254.17 1189.96 1242.49 1197.61 1234.49 1208.64L1254.68 1148.14C1240.69 1157.9 1223.98 1184.57 1220.54 1198.94L1221.49 1131.27C1212.13 1143.45 1204.84 1178.05 1203.13 1195.49C1199.28 1180.4 1192.83 1145.1 1184.76 1131.27L1185.68 1198.94C1180.47 1185.28 1163.91 1158.78 1151.55 1148.67L1171.74 1208.64C1164.19 1197.77 1151.9 1190.51 1137.56 1184.79L1163.59 1217.99Z" fill="#80953A"/>
<path d="M516.454 1224.34H582.72L605.464 1196.41C592.371 1199.98 582.579 1206.62 575.877 1216.21L592.796 1163.63C581.072 1172.11 567.067 1195.3 564.186 1207.78L564.981 1148.96C557.137 1159.55 551.029 1189.63 549.599 1204.78C546.368 1191.67 540.965 1160.98 534.199 1148.96L534.97 1207.78C530.599 1195.91 516.727 1172.87 506.364 1164.09L523.286 1216.21C516.96 1206.76 506.661 1200.45 494.635 1195.49L516.454 1224.34Z" fill="#80953A"/>
<path d="M216.719 1100.52C206.885 1093.3 198.034 1084.67 189.352 1076.14C177.887 1066.58 167.119 1054.28 156.252 1043.6C148.44 1035.92 137.37 1026.3 142.61 1013.9C147.357 1002.67 129.937 990.043 129.937 990.043C129.937 990.043 104.037 967.412 106.037 941.543C108.037 915.674 55.637 854.218 55.637 854.218C55.637 854.218 46.0421 833.935 58.2011 823.905C70.3601 813.875 12.272 757.791 3.66202 724.205C-4.94798 690.619 2.73911 679.279 15.2521 678.817C27.7651 678.355 77.87 697.878 112.647 781.356C139.987 823.096 143.776 825.906 150.537 829.34C157.298 832.774 178.59 830.517 163.507 901.094C162.712 939.451 190.437 951.694 190.437 951.694C190.437 951.694 220.56 969.008 210.277 1009.93C210.277 1009.93 210.63 1039.39 230.285 1032.77C249.94 1026.15 250.531 1012.92 218.598 955.813C201.234 924.759 216.69 924.188 208.541 903.113C200.392 882.038 164.984 841.332 174.608 822.551C184.232 803.77 195.302 804.095 193.018 742.267C190.734 680.439 221.813 683.712 226.581 693.117C231.349 702.522 244.081 727.851 244.046 786.817C244.011 845.783 277.059 822.452 277.059 822.452C277.059 822.452 299.767 818.663 295.538 863.781C291.309 908.899 289.177 950.992 289.177 950.992C289.177 950.992 285.439 969.557 298.635 967.592C311.831 965.627 294.513 1035.56 294.513 1035.56C294.513 1035.56 303.195 1060.22 325.565 1018.19C337.971 994.887 320.827 969.721 337.238 955.11C353.649 940.499 375.462 932.324 369.632 894.21C363.802 856.096 346.763 833.878 378.66 819.433C410.557 804.988 456.746 758.319 473.836 782.012C490.926 805.705 482.283 896.752 419.048 974.937C411.648 984.089 403.364 994.796 403.004 1007.08C402.604 1020.58 397.504 1027.56 389.298 1037.67C383.612 1044.67 377.975 1051.71 372.172 1058.63C365.104 1067.05 356.883 1075.07 350.45 1083.99C350.45 1083.99 326.813 1116.76 294.419 1121.34C275.119 1124.07 254.944 1119.7 237.137 1112.28C229.886 1109.19 223.031 1105.24 216.719 1100.52Z" fill="#80953A"/>
<g opacity="0.47">
<path d="M250.575 1100.83C250.302 1100.83 250.031 1100.77 249.78 1100.66C249.529 1100.55 249.303 1100.4 249.116 1100.2C202.594 1050.49 152.516 956.446 118.703 886.309C82.1031 810.387 56.1271 745.341 55.8691 744.692C55.69 744.203 55.7086 743.663 55.921 743.188C56.1333 742.713 56.5227 742.339 57.0063 742.146C57.4899 741.953 58.0295 741.957 58.5107 742.155C58.9919 742.354 59.3766 742.733 59.5831 743.211C59.8391 743.859 85.7711 808.799 122.316 884.595C156.009 954.473 205.863 1048.13 252.035 1097.46C252.302 1097.75 252.479 1098.1 252.546 1098.49C252.612 1098.87 252.565 1099.27 252.41 1099.62C252.255 1099.98 251.999 1100.29 251.673 1100.5C251.347 1100.71 250.966 1100.83 250.576 1100.83L250.575 1100.83Z" fill="#F2F7FE"/>
</g>
<g opacity="0.47">
<path d="M312.057 1088.58C312.259 1088.58 312.459 1088.53 312.641 1088.44C312.824 1088.36 312.986 1088.23 313.116 1088.08C346.948 1048.8 383.363 974.49 407.954 919.07C434.572 859.082 453.46 807.683 453.646 807.17C453.794 806.788 453.792 806.365 453.642 805.985C453.492 805.605 453.203 805.295 452.835 805.118C452.654 805.043 452.459 805.007 452.263 805.012C452.067 805.017 451.875 805.062 451.697 805.145C451.52 805.228 451.361 805.347 451.232 805.494C451.103 805.641 451.005 805.814 450.946 806.001C450.76 806.513 431.904 857.824 405.327 917.716C380.827 972.93 344.571 1046.93 310.995 1085.92C310.729 1086.23 310.59 1086.63 310.602 1087.04C310.614 1087.46 310.777 1087.85 311.061 1088.15C311.19 1088.28 311.345 1088.39 311.516 1088.46C311.687 1088.54 311.871 1088.58 312.057 1088.58Z" fill="#F2F7FE"/>
</g>
<g opacity="0.47">
<path d="M289.545 1091.58C289.246 1091.57 288.957 1091.48 288.712 1091.3C288.468 1091.13 288.279 1090.89 288.168 1090.62C237.168 975.342 209.468 731.465 209.197 729.017C209.126 728.581 209.225 728.135 209.473 727.77C209.722 727.406 210.1 727.15 210.531 727.056C210.744 727.039 210.959 727.066 211.162 727.134C211.365 727.201 211.552 727.309 211.712 727.451C211.873 727.592 212.003 727.765 212.096 727.957C212.189 728.15 212.242 728.36 212.252 728.574C212.527 731.018 240.16 974.305 290.919 1089.04C291.107 1089.45 291.141 1089.91 291.016 1090.34C290.89 1090.78 290.614 1091.15 290.236 1091.39C290.026 1091.52 289.788 1091.58 289.545 1091.58Z" fill="#F2F7FE"/>
</g>
<path d="M232.233 114.924H329.148C350.562 114.924 358.703 86.2416 340.074 75.6776C337.298 74.1145 334.223 73.1543 331.05 72.8596C327.462 72.4885 324.033 71.1908 321.098 69.0938C318.163 66.9968 315.824 64.1726 314.31 60.8986C311.06 54.0066 304.075 47.0616 289.139 46.8456C275.698 46.6536 268.549 51.3036 264.75 56.4806C262.522 59.4579 259.531 61.7778 256.093 63.1949C252.655 64.6119 248.898 65.0734 245.219 64.5306C237.444 63.4096 227.975 64.6056 220.027 73.1616C215.548 77.9139 212.543 83.8632 211.377 90.2886C209.005 103.147 219.158 114.924 232.233 114.924Z" fill="#D5F2F7"/>
<path d="M1271.43 84.2351H1391.34C1417.84 84.2351 1427.91 48.7491 1404.86 35.6781C1401.43 33.7451 1397.62 32.5577 1393.7 32.1931C1389.26 31.7337 1385.01 30.1278 1381.38 27.5331C1377.75 24.9384 1374.86 21.4441 1372.98 17.3931C1368.96 8.86607 1360.32 0.274072 1341.84 0.00707238C1325.21 -0.229928 1316.36 5.52508 1311.67 11.9281C1308.91 15.6113 1305.21 18.4812 1300.95 20.2344C1296.7 21.9877 1292.05 22.559 1287.5 21.8881C1277.88 20.5011 1266.17 21.9791 1256.33 32.5661C1250.79 38.4459 1247.07 45.8065 1245.63 53.7561C1242.7 69.6671 1255.26 84.2351 1271.43 84.2351Z" fill="#D5F2F7"/>
<path d="M724.588 246.195H910.013C950.985 246.195 966.558 191.317 930.913 171.106C925.602 168.115 919.719 166.278 913.65 165.716C906.785 165.005 900.222 162.521 894.607 158.508C888.992 154.495 884.517 149.091 881.621 142.826C875.401 129.643 862.04 116.355 833.461 115.945C807.743 115.574 794.061 124.475 786.795 134.376C782.533 140.072 776.811 144.51 770.234 147.221C763.656 149.932 756.469 150.815 749.431 149.776C734.551 147.631 716.431 149.915 701.231 166.286C692.659 175.379 686.91 186.763 684.68 199.059C680.153 223.658 699.577 246.195 724.588 246.195Z" fill="white"/>
<path d="M472.883 754.016C472.883 754.016 460.46 626.781 528.103 607.832C595.746 588.883 579.182 575.348 592.987 545.568C606.792 515.788 662.011 527.968 675.816 519.85C689.621 511.732 742.079 465.708 791.775 519.85C841.471 573.992 802.24 607.805 800.057 616.631C794.537 638.963 804.201 686.339 769.688 721.531C769.688 721.531 721.371 748.602 718.61 793.269C715.849 837.936 667.531 874.482 627.498 806.804L472.883 754.016Z" fill="#4D2412"/>
<path d="M670.718 620.863C670.718 620.863 653.836 646.069 622.678 664.263L681.078 706.331L711.249 671.592L670.718 620.863Z" fill="#FBC5B3"/>
<path d="M711.245 671.589C711.245 671.589 685.124 636.428 690.554 620.137L677.654 628.283C677.654 628.283 677.227 628.56 667.044 636.026C667.044 636.026 664.018 687.826 685.062 702.084L711.245 671.589Z" fill="#F4937D"/>
<path d="M671.125 600.135C671.125 600.135 687.604 686.319 717.591 686.626C747.578 686.933 795.33 645.633 796.514 584.247C797.698 522.861 670.093 494.322 671.125 600.135Z" fill="#FFC6B3"/>
<path d="M809.547 584.865C809.547 584.865 805.227 604.604 767.777 594.735C730.327 584.866 731.768 598.964 723.126 606.013C714.484 613.062 703.684 620.464 707.464 604.076C711.244 587.688 696.119 575.527 686.938 595.615C677.757 615.703 684.777 626.28 684.777 626.28C684.777 626.28 671.634 659.234 633.826 658.18C614.859 657.649 598.898 626.28 563.787 640.557C528.676 654.834 478.628 712.457 478.628 712.457C478.628 712.457 455.941 669.281 504.554 630.687L748.933 499.309C748.933 499.309 825.753 554.555 809.547 584.865Z" fill="#4D2412"/>
<path d="M778.665 636.773C778.665 636.773 781.029 657.993 778.294 661.88C775.068 666.464 765.052 659.399 765.052 659.399L778.665 636.773Z" fill="#FFC6B3"/>
<path d="M764.751 616.659C766.455 615.299 768.424 614.312 770.533 613.759C772.692 613.122 774.966 612.972 777.191 613.319C779.523 613.699 781.664 614.839 783.282 616.561C783.648 617.02 784.026 617.461 784.352 617.922L785.078 619.461C785.307 619.966 785.462 620.501 785.537 621.051C785.637 621.593 785.718 622.132 785.771 622.66C784.392 620.96 783.3 619.306 781.705 618.295C780.2 617.263 778.487 616.574 776.686 616.278C774.781 615.986 772.848 615.913 770.926 616.059C768.932 616.192 766.901 616.418 764.751 616.659Z" fill="#5A1921"/>
<path d="M777.901 632.24C778.848 629.496 777.709 626.615 775.358 625.803C773.006 624.992 770.332 626.558 769.386 629.302C768.439 632.045 769.578 634.927 771.93 635.739C774.281 636.55 776.955 634.984 777.901 632.24Z" fill="#5A1921"/>
<path d="M736.112 646.536C736.112 646.536 737.612 661.55 743.617 663.049C743.617 663.049 751.125 666.049 743.617 669.055C737.869 671.355 731.607 670.555 730.105 666.055C728.446 660.061 728.978 653.673 731.605 648.037C734.609 642.032 736.112 646.536 736.112 646.536Z" fill="#C64C38"/>
<path d="M775.428 664.272C773.982 664.272 772.248 663.45 769.974 662.372C768.942 661.884 767.765 661.323 766.407 660.736C766.225 660.657 766.081 660.508 766.008 660.322C765.935 660.137 765.939 659.93 766.019 659.748C766.098 659.565 766.247 659.422 766.432 659.349C766.618 659.276 766.825 659.28 767.007 659.359C768.382 659.954 769.574 660.52 770.62 661.016C775.012 663.102 776.1 663.503 777.507 661.163C778.625 659.301 778.707 649.418 778.486 643.233C778.483 643.135 778.499 643.036 778.533 642.944C778.568 642.851 778.621 642.767 778.688 642.694C778.755 642.622 778.837 642.564 778.927 642.524C779.016 642.483 779.114 642.46 779.212 642.457C779.41 642.453 779.602 642.527 779.747 642.662C779.891 642.796 779.978 642.982 779.988 643.18C780.044 644.8 780.498 659.096 778.788 661.934C777.777 663.624 776.714 664.272 775.428 664.272Z" fill="#F4937D"/>
<path d="M719.408 929.5C719.408 929.5 760.126 964.143 751.478 990.085C748.426 999.247 748.426 997.721 745.878 997.721C743.33 997.721 695.984 967.174 695.984 967.174L719.408 929.5Z" fill="#FFC6B3"/>
<path d="M748.267 982.126C737.613 966.384 721.276 968.409 715.361 953.564C712.826 947.198 713.706 941.499 714.852 936.832L695.988 967.181C695.988 967.181 743.336 997.728 745.882 997.728C748.428 997.728 748.428 999.254 751.482 990.092C751.64 989.625 751.744 989.153 751.866 988.683C750.856 986.398 749.652 984.204 748.267 982.126Z" fill="#CC4E4E"/>
<path d="M416.516 1121.31C416.255 1121.31 416 1121.23 415.782 1121.09C415.564 1120.94 415.393 1120.74 415.29 1120.5C415.187 1120.26 415.156 1119.99 415.201 1119.74C415.247 1119.48 415.366 1119.24 415.546 1119.05C516.166 1012.48 598.129 773.032 598.946 770.625C599.059 770.29 599.301 770.013 599.618 769.857C599.936 769.7 600.302 769.676 600.637 769.789C600.972 769.903 601.249 770.145 601.405 770.462C601.562 770.779 601.586 771.146 601.473 771.481C600.654 773.893 518.502 1013.89 417.486 1120.89C417.361 1121.02 417.211 1121.12 417.044 1121.2C416.877 1121.27 416.698 1121.31 416.516 1121.31Z" fill="#F2F7FE"/>
<path d="M474.698 1077.65C466.552 1077.65 427.181 1058.65 408.174 1079.01C389.167 1099.38 368.803 1130.6 343.008 1125.17C334.6 1123.4 317.647 1119.84 311.808 1128.88C310.05 1131.6 310.018 1135.1 310.522 1138.31C314.874 1165.99 346.728 1168.79 369.255 1169.77C380.993 1170.34 392.757 1169.62 404.336 1167.61C417.671 1165.23 428.392 1159.78 440.036 1152.99C448.115 1148.29 457.036 1142.58 466.453 1141.32C474.575 1140.24 483.164 1142.22 490.986 1144.18L493.7 1081.73L474.698 1077.65Z" fill="#FFC6B3"/>
<path d="M452.296 1054.57C442.016 1052.52 417.696 1047.27 410.463 1057.3C409.542 1058.71 408.779 1060.22 408.19 1061.8C402.824 1074.27 393.734 1084.45 383.934 1093.65C377.387 1099.79 370.503 1105.98 362.071 1109.4C355.326 1112.12 347.78 1111.66 341.42 1115.45C326.15 1124.55 343.338 1134.39 353.192 1137.39C384.417 1146.89 450.939 1133.32 450.939 1133.32L491.668 1091.23L452.296 1054.57Z" fill="#FFC6B3"/>
<path d="M355.175 1128.75C348.342 1128.79 341.525 1128.11 334.834 1126.73C334.088 1126.51 333.453 1126.02 333.062 1125.35C332.672 1124.68 332.555 1123.89 332.738 1123.13C332.92 1122.38 333.387 1121.73 334.041 1121.31C334.695 1120.89 335.485 1120.75 336.245 1120.9C346.834 1123.08 357.719 1123.42 368.426 1121.92C390.726 1118.56 405.78 1106.75 413.171 1086.8C423.008 1060.24 435.709 1062.47 440.49 1063.31C440.808 1063.38 441.129 1063.42 441.453 1063.46C444.561 1063.46 464.271 1070.59 475.741 1074.84C476.127 1074.97 476.484 1075.17 476.791 1075.43C477.097 1075.7 477.347 1076.02 477.524 1076.39C477.702 1076.75 477.803 1077.15 477.823 1077.56C477.843 1077.96 477.78 1078.37 477.639 1078.75C477.498 1079.13 477.281 1079.47 477.002 1079.77C476.722 1080.06 476.387 1080.3 476.014 1080.46C475.642 1080.62 475.241 1080.7 474.835 1080.7C474.43 1080.7 474.028 1080.62 473.655 1080.46C459.52 1075.22 443.564 1069.66 441.333 1069.45C440.701 1069.43 440.071 1069.35 439.455 1069.21C435.378 1068.5 426.891 1067.01 418.793 1088.88C406.304 1122.6 375.771 1128.75 355.175 1128.75Z" fill="#CC4E4E"/>
<path d="M473.765 1144.55L455.372 1145.98L453.654 1055.76L484.2 1057.8L473.765 1144.55Z" fill="#2E4124"/>
<path d="M495.037 912.023L374.237 975.831C374.237 975.831 407.137 1054.69 467.659 1067.66L468.879 1145.98C468.879 1145.98 669.416 1159.9 758.763 1108.02C848.11 1056.14 688.149 936.522 642.032 923.552L495.037 912.023Z" fill="#2A5B62"/>
<path d="M368.124 959.54C368.124 959.54 369.144 974.812 386.961 999.25C386.961 999.25 536.897 973.431 545.803 914.23L368.124 959.54Z" fill="#2E4124"/>
<path d="M670.95 743.174C670.95 743.174 701.42 670.369 629.466 658.151C615.245 655.736 598.283 652.9 581.95 658.151C516.05 679.333 455.608 725.113 412.85 779.004C390.617 807.03 372.401 839.013 363.508 873.862C359.151 890.618 357.282 907.924 357.959 925.224C358.344 933.993 359.442 942.717 361.241 951.308C362.506 957.333 364.312 973.32 369.034 977.474C375.595 983.248 401.108 974.587 408.36 972.549C428.649 966.842 442.381 960.404 457.173 955.433C485.773 945.82 508.385 934.059 536.99 924.475C564.573 915.238 592.431 903.797 620.649 896.742C623.718 895.728 626.9 894.648 629.225 892.401C635.53 886.31 607.235 870.909 609.325 862.726C612.654 849.675 670.95 743.174 670.95 743.174Z" fill="#E8A205"/>
<path d="M681.459 1060.1L683.153 1059.3C703.234 1040.09 691.171 1030.72 691.171 1030.72C694.86 1044.21 682.211 1056.19 673.921 1062.37C632.597 1074.22 561.9 1084.28 458.531 1065.5C458.531 1065.5 605.974 1105.15 716.524 1048.91L718.658 1044.12C718.658 1044.12 706.534 1052.12 681.459 1060.1Z" fill="#2E4124"/>
<path d="M560.485 851.118C569.25 822.598 530.785 804.186 514.142 828.954C487.942 867.954 479.462 896.244 486.519 913.886C489.771 922.021 497.213 929.102 505.324 934.815L542.294 922.6L560.485 851.118Z" fill="#B14225"/>
<path d="M601.02 710.713C601.02 710.713 461.087 897.765 515.346 917.757C569.605 937.749 692.753 971.344 692.753 971.344L720.176 930.468C720.176 930.468 665.276 876.347 599.593 866.353C599.593 866.353 680.87 743.753 682.293 712.338C683.716 680.923 601.02 710.713 601.02 710.713Z" fill="#E8A205"/>
<path d="M1055.92 863.019C1062.19 864.409 1119.24 858.15 1130.37 848.408C1141.5 838.666 1142.89 880.408 1123.41 893.633C1103.93 906.858 1030.88 912.417 1030.88 912.417L1055.92 863.019Z" fill="#EA8102"/>
<path d="M1130.37 848.409C1126.41 850.858 1122.15 852.783 1117.7 854.135C1119.78 855.723 1122.3 856.627 1124.91 856.723C1127.52 856.819 1130.09 856.102 1132.28 854.671C1132.28 854.671 1133.85 865.106 1129.93 866.671C1126.02 868.236 1137.5 864.323 1138.28 859.627C1139.06 854.931 1136.8 842.67 1130.37 848.409Z" fill="#B14225"/>
<path d="M1079.23 860.234C1079.23 860.234 1074.71 903.634 1071.58 907.545L1084.45 905.41C1084.45 905.41 1102.51 877.19 1079.23 860.234Z" fill="#B14225"/>
<path d="M874.866 717.168C874.842 717.147 842.907 691.626 822.187 717.437C820.428 719.625 809.887 731.829 817.002 733.52C820.791 734.42 825.03 733.189 828.222 731.1C832.005 728.624 832.659 725.169 835.012 721.628C839.06 715.534 845.754 712.805 852.918 712.639C856.156 712.602 859.388 712.917 862.558 713.578C865.966 714.251 872.132 714.98 874.866 717.168Z" fill="#FFC6B3"/>
<path d="M885.114 677.598L840.238 658.465C840.238 658.465 828.41 655.682 829.803 667.51C831.196 679.338 824.93 699.167 863.893 698.124L885.114 677.598Z" fill="#EA8102"/>
<path d="M1076.16 846.103C1063.73 818.68 1035.53 813.552 1012.61 798.154C996.03 787.009 968.862 767.454 968.862 744.741C968.862 720.389 959.233 716.91 959.233 716.91C959.233 716.91 964.046 704.389 963.36 697.43C963.077 695.947 962.465 694.546 961.57 693.33C956.188 684.73 948.344 677.641 940.846 670.915C935.427 666.051 930.339 660.685 924.112 656.827C914.925 651.136 904.165 651.251 893.879 653.174C885.317 654.774 874.698 656.389 869.071 663.788C864.89 669.288 862.395 675.763 859.971 682.166C857.992 687.29 856.34 692.534 855.022 697.866C872.222 700.649 876.706 716.911 876.706 716.911C876.706 716.911 842.663 704.04 837.847 714.478C833.767 723.323 842.204 731.626 850.529 732.741C857.651 733.694 864.779 734.91 871.893 736.047C871.893 736.047 842.802 839.034 889.98 863.095C944.399 890.849 926.288 931.058 926.288 931.058C926.288 931.058 937.9 924.188 946.136 939.484C946.136 939.484 996.175 940.842 1028.24 931.284C1038.1 930.713 1047.68 927.826 1056.21 922.855C1081.33 908.209 1087.57 871.271 1076.16 846.103Z" fill="#EA8102"/>
<path d="M830.499 661.601C830.499 661.601 828.409 669.95 830.499 672.732C832.589 675.514 846.499 670.296 849.282 662.644C849.282 662.646 838.849 652.903 830.499 661.601Z" fill="#B14225"/>
<path d="M919.383 854.203C919.383 854.203 881.045 838.333 885.217 782.79C885.217 782.79 886.781 761.546 889.998 749.004C889.998 749.004 892.586 738.788 871.722 736.738L871.69 736.778C869.214 745.988 845.124 840.216 889.98 863.093C901.433 869 913.188 874.3 925.197 878.971L919.383 854.203Z" fill="#B14225"/>
<path d="M893.927 673.546C894.902 674.939 895.283 676.661 894.989 678.335C894.694 680.009 893.747 681.498 892.355 682.474C889.455 684.507 890.388 680.274 888.355 677.374C886.322 674.474 882.093 674.007 884.993 671.974C885.683 671.491 886.461 671.148 887.283 670.965C888.106 670.782 888.956 670.764 889.786 670.91C890.615 671.056 891.408 671.363 892.118 671.816C892.829 672.268 893.444 672.856 893.927 673.546Z" fill="#B14225"/>
<path d="M948.697 792.629C896.517 760.278 921.562 861.509 921.562 861.509C921.562 861.509 922.053 873.236 921.472 887.814C934.53 891.573 946.162 893.014 956.993 891.714C970.482 869.936 999.344 824.03 948.697 792.629Z" fill="#B14225"/>
<path d="M916.424 850.495C916.424 850.495 915.381 929.811 908.075 938.159C908.075 938.159 928.948 941.291 936.253 933.986C943.558 926.681 933.121 903.721 945.645 882.849C958.169 861.977 995.739 813.969 943.559 781.617C891.379 749.265 916.424 850.495 916.424 850.495Z" fill="#EA8102"/>
<path d="M912.944 915.028C913.008 913.464 939.036 911.375 939.036 911.375C939.036 911.375 941.048 931.768 935.383 935.031C929.642 938.337 919.727 940.076 908.075 938.161C908.075 938.165 912.248 932.074 912.944 915.028Z" fill="#B14225"/>
<path d="M956.43 917.809C956.43 917.809 974.17 932.42 973.13 939.209L946.139 939.486C946.139 939.486 933.991 921.987 956.43 917.809Z" fill="#B14225"/>
<path d="M958.81 717.776C959.039 717.404 959.112 716.957 959.011 716.533C958.911 716.108 958.646 715.74 958.274 715.511C957.903 715.282 957.456 715.21 957.031 715.31C956.607 715.41 956.239 715.675 956.01 716.047C951.81 722.829 947.002 726.197 941.725 725.975C925.793 725.391 909.525 694.547 909.357 694.235C909.155 693.848 908.808 693.557 908.391 693.427C907.975 693.296 907.524 693.337 907.137 693.539C906.75 693.741 906.46 694.088 906.329 694.505C906.199 694.921 906.239 695.372 906.441 695.759C907.141 697.098 923.765 728.609 941.602 729.268C941.794 729.273 941.986 729.276 942.176 729.276C948.493 729.276 954.085 725.41 958.81 717.776ZM945.336 867.794C945.77 867.76 946.173 867.556 946.457 867.226C946.741 866.896 946.881 866.467 946.849 866.033C946.811 865.601 946.606 865.201 946.279 864.916C945.952 864.632 945.527 864.486 945.094 864.509C944.92 864.554 924.864 865.526 899.746 836.886C874.546 808.156 894.325 735.478 894.527 734.747C894.639 734.328 894.582 733.881 894.367 733.505C894.151 733.128 893.796 732.851 893.378 732.735C892.96 732.619 892.513 732.673 892.135 732.885C891.756 733.097 891.477 733.45 891.357 733.867C890.509 736.919 870.898 808.994 897.273 839.058C921.152 866.284 940.534 867.813 944.584 867.813C944.999 867.813 945.253 867.797 945.336 867.795V867.794Z" fill="#B14225"/>
<path d="M1178.83 1056.83H855.493V1121.26H1178.83V1056.83Z" fill="#FAFAFE"/>
<path opacity="0.2" d="M1179.16 1066.77H855.669V1069.43H1179.16V1066.77Z" fill="#3F1963"/>
<path opacity="0.2" d="M1179.16 1077.24H855.669V1079.9H1179.16V1077.24Z" fill="#3F1963"/>
<path opacity="0.2" d="M1179.16 1087.71H855.669V1090.37H1179.16V1087.71Z" fill="#3F1963"/>
<path opacity="0.2" d="M1179.16 1098.18H855.669V1100.84H1179.16V1098.18Z" fill="#3F1963"/>
<path opacity="0.2" d="M1179.16 1108.65H855.669V1111.31H1179.16V1108.65Z" fill="#3F1963"/>
<path d="M858.013 1067.44V1109C857.976 1111.03 858.741 1112.98 860.141 1114.45C861.542 1115.91 863.464 1116.76 865.489 1116.81H1180.37V1120.09C1180.41 1122.12 1179.65 1124.08 1178.25 1125.54C1176.85 1127 1174.93 1127.86 1172.9 1127.91H852.858C850.833 1127.86 848.911 1127.01 847.51 1125.54C846.11 1124.08 845.345 1122.12 845.382 1120.1V1056.42C845.345 1054.4 846.11 1052.44 847.51 1050.97C848.911 1049.51 850.833 1048.66 852.858 1048.61H1172.9C1174.92 1048.66 1176.85 1049.51 1178.25 1050.98C1179.65 1052.44 1180.41 1054.4 1180.37 1056.42V1059.62H865.489C863.463 1059.67 861.54 1060.52 860.139 1061.99C858.739 1063.45 857.974 1065.41 858.013 1067.44Z" fill="#2E4124"/>
<path d="M1115.91 994.625H836.143V1043.71H1115.91V994.625Z" fill="#FAFAFE"/>
<path d="M1116.2 1002.2H836.295V1004.23H1116.2V1002.2Z" fill="#EEF3F9"/>
<path d="M1116.2 1010.18H836.295V1012.2H1116.2V1010.18Z" fill="#EEF3F9"/>
<path d="M1116.2 1018.15H836.295V1020.18H1116.2V1018.15Z" fill="#EEF3F9"/>
<path d="M1116.2 1026.13H836.295V1028.16H1116.2V1026.13Z" fill="#EEF3F9"/>
<path d="M1116.2 1034.11H836.295V1036.14H1116.2V1034.11Z" fill="#EEF3F9"/>
<path d="M838.325 1002.71V1034.37C838.4 1036.02 839.122 1037.56 840.333 1038.68C841.543 1039.79 843.145 1040.39 844.79 1040.33H1117.25V1042.83C1117.17 1044.47 1116.45 1046.02 1115.24 1047.13C1114.03 1048.25 1112.42 1048.84 1110.78 1048.78H833.862C832.217 1048.84 830.615 1048.25 829.403 1047.13C828.192 1046.02 827.47 1044.47 827.394 1042.83V994.317C827.47 992.672 828.192 991.124 829.403 990.009C830.615 988.895 832.217 988.303 833.862 988.364H1110.78C1112.42 988.303 1114.03 988.895 1115.24 990.009C1116.45 991.124 1117.17 992.672 1117.25 994.317V996.756H844.789C843.145 996.696 841.543 997.287 840.333 998.402C839.122 999.516 838.401 1001.06 838.325 1002.71Z" fill="#B14225"/>
<path d="M1137.27 938.918H853.542V986.931H1137.27V938.918Z" fill="#FAFAFE"/>
<path opacity="0.2" d="M1137.56 948.31H853.696V946.328H1137.56V948.31ZM1137.56 954.132H853.696V956.118H1137.56V954.132ZM1137.56 961.932H853.696V963.912H1137.56V961.932ZM1137.56 969.732H853.696V971.718H1137.56V969.732ZM1137.56 977.532H853.696V979.514H1137.56V977.532Z" fill="#3F1963"/>
<path d="M855.754 946.825V977.799C855.754 980.999 858.705 983.621 862.312 983.621H1138.63V986.065C1138.63 989.265 1135.68 991.889 1132.07 991.889H851.228C847.622 991.889 844.67 989.269 844.67 986.065V938.615C844.67 935.415 847.622 932.793 851.228 932.793H1132.07C1135.68 932.793 1138.63 935.413 1138.63 938.615V941.003H862.312C858.704 941.003 855.754 943.623 855.754 946.825Z" fill="#C5C680"/>
</g>
<defs>
<clipPath id="clip0_56_20719">
<rect width="1586.55" height="1296.1" fill="white"/>
</clipPath>
</defs>
</svg>
